<?xml version="1.0" encoding="utf-8"?>
<!-- Generator: Adobe Illustrator 24.1.1, SVG Export Plug-In . SVG Version: 6.00 Build 0)  -->
<svg version="1.1" xmlns="http://www.w3.org/2000/svg" xmlns:xlink="http://www.w3.org/1999/xlink" x="0px" y="0px"
	 viewBox="0 0 750 500" style="enable-background:new 0 0 750 500;" xml:space="preserve">
<style type="text/css">
	.st0{fill:#FFFFFF;}
	.st1{fill:url(#SVGID_1_);}
	.st2{fill:#DCE8EF;}
	.st3{fill:#D8D6EC;}
	.st4{fill:#606BF1;}
	.st5{fill:#878CF0;}
	.st6{fill:#E6E7E8;}
	.st7{fill:#FBD15B;}
	.st8{fill:#EC827D;}
	.st9{fill:#B1B2F3;}
	.st10{fill:#B8B7C9;}
	.st11{fill:#DD5454;}
	.st12{fill:#F1F2F2;}
	.st13{fill:url(#SVGID_2_);}
	.st14{fill:url(#SVGID_3_);}
	.st15{fill:url(#SVGID_4_);}
	.st16{fill:url(#SVGID_5_);}
	.st17{fill:#C3D3DD;}
	.st18{clip-path:url(#SVGID_7_);fill:url(#SVGID_8_);stroke:#878CF0;stroke-width:7;stroke-miterlimit:10;}
	.st19{clip-path:url(#SVGID_7_);}
	.st20{fill:url(#SVGID_9_);}
	.st21{fill:url(#SVGID_10_);}
	.st22{fill:#D1D3D4;}
	.st23{fill:url(#SVGID_11_);}
	.st24{fill:url(#SVGID_12_);}
	.st25{fill:url(#SVGID_13_);}
	.st26{fill:url(#SVGID_14_);}
	.st27{fill:url(#SVGID_15_);}
	.st28{fill:url(#SVGID_16_);}
	.st29{fill:url(#SVGID_17_);}
	.st30{fill:url(#SVGID_18_);}
	.st31{fill:#F4B298;}
	.st32{fill:#FFC8AF;}
	.st33{fill:#F9FBFC;}
	.st34{fill:#41417A;}
	.st35{fill:#231F20;}
	.st36{fill:none;stroke:#231F20;stroke-miterlimit:10;}
	.st37{fill:#112B46;}
	.st38{fill:#603813;}
	.st39{fill:url(#SVGID_19_);}
	.st40{fill:url(#SVGID_20_);}
	.st41{fill:#A5B7C6;}
	.st42{fill:url(#SVGID_21_);}
	.st43{fill:#362478;}
	.st44{fill:#F78865;}
	.st45{fill:url(#SVGID_22_);}
	.st46{fill:#2F2476;}
	.st47{fill:#EDC7B2;}
	.st48{fill:#E59E85;}
	.st49{fill:#F7ECDF;}
	.st50{fill:url(#SVGID_23_);}
	.st51{clip-path:url(#SVGID_7_);fill:none;stroke:#878CF0;stroke-width:7;stroke-miterlimit:10;}
	.st52{fill:none;stroke:#A5B7C6;stroke-miterlimit:10;}
	.st53{fill:url(#SVGID_24_);}
	.st54{fill:url(#SVGID_25_);}
	.st55{fill:url(#SVGID_26_);}
	.st56{fill:url(#SVGID_27_);}
	.st57{fill:#FA8B65;}
	.st58{fill:url(#SVGID_28_);}
	.st59{fill:#BEE1F4;}
	.st60{fill:url(#SVGID_29_);}
	.st61{fill:#D8D0BC;}
	.st62{fill:none;stroke:#95B9C9;stroke-linecap:round;stroke-miterlimit:10;}
	.st63{fill:none;stroke:#95B9C9;stroke-linecap:round;stroke-miterlimit:10;stroke-dasharray:1.9983,1.9983;}
	.st64{fill:none;stroke:#95B9C9;stroke-linecap:round;stroke-miterlimit:10;stroke-dasharray:2.9787,2.9787;}
	.st65{fill:none;stroke:#95B9C9;stroke-linecap:round;stroke-miterlimit:10;stroke-dasharray:2.8559,2.8559;}
	.st66{fill:#95B9C9;}
	.st67{fill:none;stroke:#95B9C9;stroke-linecap:round;stroke-miterlimit:10;stroke-dasharray:3.0235,3.0235;}
	.st68{fill:none;stroke:#95B9C9;stroke-linecap:round;stroke-miterlimit:10;stroke-dasharray:3.268,3.268;}
	.st69{fill:none;stroke:#95B9C9;stroke-linecap:round;stroke-miterlimit:10;stroke-dasharray:2.9102,2.9102;}
	.st70{fill:none;stroke:#95B9C9;stroke-linecap:round;stroke-miterlimit:10;stroke-dasharray:2.5442,2.5442;}
	.st71{fill:url(#SVGID_30_);}
	.st72{fill:url(#SVGID_31_);}
	.st73{fill:#F0F5F7;}
	.st74{fill:url(#SVGID_32_);}
	.st75{fill:#E06868;}
	.st76{fill:url(#SVGID_33_);}
	.st77{fill:url(#SVGID_34_);}
	.st78{fill:url(#SVGID_35_);}
	.st79{fill:url(#SVGID_36_);}
	.st80{fill:url(#SVGID_37_);}
	.st81{fill:url(#SVGID_38_);}
	.st82{fill:#FD3476;}
	.st83{fill:url(#SVGID_39_);}
	.st84{fill:url(#SVGID_40_);}
	.st85{fill:#EEE2D2;}
	.st86{fill:url(#SVGID_41_);}
	.st87{fill:#E2B137;}
	.st88{fill:url(#SVGID_42_);}
	.st89{fill:#46467C;}
	.st90{fill:url(#SVGID_43_);}
	.st91{fill:url(#SVGID_44_);}
	.st92{fill:url(#SVGID_45_);}
	.st93{fill:url(#SVGID_46_);}
	.st94{fill:url(#SVGID_47_);}
	.st95{fill:url(#SVGID_48_);}
	.st96{fill:url(#SVGID_49_);}
</style>
<g id="BACKGROUND">
	<rect class="st0" width="750" height="500"/>
</g>
<g id="OBJECTS">
	<g>
		<linearGradient id="SVGID_1_" gradientUnits="userSpaceOnUse" x1="374.0293" y1="392.7932" x2="374.0293" y2="76.9577">
			<stop  offset="0" style="stop-color:#F0F5F7"/>
			<stop  offset="1" style="stop-color:#DCE8EF"/>
		</linearGradient>
		<path class="st1" d="M643.23,213.48h-31.51v-25.5h12.95c6.08,0,11.05-4.97,11.05-11.05v-59.49c0-6.08-4.97-11.05-11.05-11.05
			H518.18V90.49c0-6.6-5.4-12-12-12H143.96c-6.6,0-12,5.4-12,12v84.42h-1.88c-6.6,0-12,5.4-12,12v26.57h-13.25c-6.6,0-12,5.4-12,12
			v187.41c0,6.6,5.4,12,12,12h538.4c6.6,0,12-5.4,12-12V225.48C655.23,218.88,649.83,213.48,643.23,213.48z"/>
		<g>
			<path class="st0" d="M155.06,206.6c-1.86,0-3.38,1.51-3.38,3.38c0,1.86,1.51,3.38,3.38,3.38c1.86,0,3.38-1.51,3.38-3.38
				C158.43,208.12,156.92,206.6,155.06,206.6z M147.17,201.74l2.97,3.1c1.28-1.23,3-1.98,4.92-1.98c1.92,0,3.63,0.75,4.92,1.98
				l2.97-3.1c-2.05-1.96-4.82-3.18-7.89-3.18C151.99,198.56,149.22,199.78,147.17,201.74z M155.06,180.49
				c-7.91,0-15.09,3.12-20.38,8.19l2.97,3.11c4.53-4.33,10.65-6.99,17.41-7c6.76,0,12.88,2.66,17.41,7l2.97-3.11
				C170.14,183.61,162.97,180.49,155.06,180.49z M141,195.3l2.97,3.1c2.89-2.76,6.77-4.46,11.08-4.46c4.31,0,8.2,1.7,11.08,4.46
				l2.97-3.1c-3.65-3.5-8.6-5.66-14.05-5.66C149.6,189.64,144.66,191.8,141,195.3z"/>
			<path class="st0" d="M585.86,173.7c-0.24,0-0.48-0.04-0.71-0.1c0.02,1.21,1,2.19,2.22,2.19h1.17v0.43c0,0.93,0.75,1.67,1.66,1.67
				h5.3c0.93,0,1.67-0.75,1.67-1.67v-0.43h1.17c1.21,0,2.2-0.98,2.22-2.19c-0.23,0.06-0.46,0.1-0.71,0.1H585.86z M585.15,171.79
				h15.43v-2.21h-15.43V171.79z M585.15,167.39h15.43v-2.21h-15.43V167.39z M593.49,152.89l-0.62,0.37l-2.92-1.76l2.92,9.93
				l2.93-9.93L593.49,152.89z M605.84,129.84c-3.34-3.32-7.91-5.38-12.98-5.38c-0.68,0-1.39,0.04-2.08,0.12
				c-8.31,0.91-15.11,7.63-16.13,15.9c-0.1,0.77-0.14,1.53-0.14,2.28c0,5.89,2.81,11.46,7.63,14.94c2.02,1.46,3.61,3.38,4.69,5.56
				h4.09l-4.98-16.96l6.93,4.17l6.94-4.17l-4.98,16.96h4.12c1.1-2.19,2.73-4.14,4.82-5.68c4.66-3.44,7.46-8.98,7.46-14.77
				C611.22,137.76,609.17,133.18,605.84,129.84z"/>
			<g>
				<path class="st0" d="M151.69,250.69c-0.15-2.54-0.88-4.97-2.09-7.14l2.07-1.15c-1.04-1.86-2.39-3.55-4-4.99l-1.58,1.77
					c-1.82-1.62-4.02-2.87-6.52-3.59l0.65-2.27l-0.03-0.01c-1.73-0.49-3.49-0.73-5.21-0.73c-0.38,0-0.75,0.01-1.12,0.03l0.14,2.37
					c-2.54,0.15-4.97,0.88-7.15,2.09L125.7,235c-1.86,1.04-3.56,2.38-4.99,4l1.77,1.58c-1.62,1.82-2.88,4.02-3.59,6.52l-2.27-0.65
					l-0.01,0.04c-0.49,1.73-0.73,3.49-0.73,5.21c0,0.37,0.01,0.74,0.03,1.11l2.37-0.14c0.15,2.54,0.87,4.97,2.08,7.15l-2.07,1.15
					c1.04,1.86,2.38,3.56,3.99,4.99l1.58-1.77c1.82,1.62,4.02,2.88,6.52,3.6l-0.65,2.27l0.06,0.02c1.73,0.49,3.49,0.73,5.21,0.73
					c0.39,0,0.77-0.01,1.15-0.04L136,268.4c2.54-0.15,4.97-0.89,7.14-2.1l1.16,2.07c1.86-1.04,3.55-2.39,4.99-4.01l-1.78-1.58
					c1.62-1.82,2.87-4.02,3.58-6.52l2.27,0.64l0-0.01c0.49-1.73,0.73-3.49,0.73-5.21c0-0.38-0.01-0.76-0.03-1.14L151.69,250.69z
					 M130.84,266.36L130.84,266.36l0.12-0.41L130.84,266.36z M144.73,254.45c-1.26,4.46-5.32,7.37-9.73,7.37
					c-0.91,0-1.84-0.12-2.76-0.39c-4.46-1.26-7.37-5.32-7.37-9.73c0-0.91,0.12-1.84,0.39-2.76c1.26-4.46,5.32-7.37,9.73-7.37
					c0.91,0,1.84,0.12,2.76,0.39c4.46,1.26,7.37,5.32,7.37,9.73C145.11,252.6,144.99,253.53,144.73,254.45z"/>
				<polygon class="st0" points="181.79,235.35 181.79,235.35 181.79,235.35 				"/>
				<path class="st0" d="M180.77,243.48l-1.58,0.31c-0.24-1.23-0.66-2.4-1.26-3.48l1.4-0.78c-1.01-1.83-2.45-3.43-4.23-4.63
					l-0.9,1.32c-1.01-0.68-2.13-1.22-3.35-1.58l0.44-1.53l-0.07-0.02c-1.22-0.35-2.46-0.51-3.67-0.51c-0.86,0-1.7,0.08-2.53,0.24
					l0.3,1.58c-1.23,0.24-2.4,0.66-3.48,1.25l-0.77-1.4c-1.83,1.01-3.44,2.44-4.64,4.22l1.32,0.9c-0.68,1-1.22,2.13-1.58,3.35
					l-1.53-0.45l-0.03,0.11c-0.35,1.22-0.51,2.46-0.51,3.67c0,0.84,0.08,1.68,0.23,2.49l1.58-0.3c0.23,1.23,0.65,2.4,1.25,3.49
					l-1.4,0.77h0c1,1.84,2.44,3.44,4.21,4.65l0.9-1.32c1,0.68,2.12,1.22,3.35,1.59l-0.45,1.53h0l0.14,0.04
					c1.22,0.35,2.46,0.51,3.67,0.51c0.88,0,1.75-0.09,2.6-0.26l-0.31-1.58c1.23-0.24,2.4-0.67,3.48-1.27l0.78,1.4
					c1.83-1.02,3.42-2.46,4.62-4.24l-1.33-0.89c0.68-1.01,1.22-2.13,1.57-3.36l1.53,0.44l0.01-0.04c0.35-1.22,0.51-2.46,0.51-3.67
					C181.02,245.18,180.93,244.32,180.77,243.48z M167.56,254.06c-0.72,0-1.45-0.1-2.19-0.31c-3.53-0.99-5.83-4.21-5.83-7.7
					c0-0.72,0.1-1.45,0.31-2.19c0.99-3.53,4.21-5.83,7.7-5.83c0.72,0,1.45,0.1,2.19,0.31c3.53,0.99,5.83,4.21,5.83,7.7
					c0,0.72-0.1,1.45-0.31,2.19C174.27,251.76,171.05,254.06,167.56,254.06z"/>
			</g>
			<g>
				<path class="st0" d="M611.79,255.08v-8.09h-7.24c-3.33,0-6.03-2.7-6.03-6.03v-14.48c0-3.33,2.7-6.03,6.03-6.03h28.97
					c3.33,0,6.03,2.7,6.03,6.03v14.48c0,3.33-2.7,6.03-6.03,6.03h-7.95l-9.76,9.76C614.33,258.23,611.79,257.18,611.79,255.08z
					 M604.55,222.85c-2,0-3.62,1.62-3.62,3.62v14.48c0,2,1.62,3.62,3.62,3.62h9.66v10.36l10.36-10.36h8.95c2,0,3.62-1.62,3.62-3.62
					v-14.48c0-2-1.62-3.62-3.62-3.62H604.55z"/>
			</g>
			<g>
				<polygon class="st0" points="173.71,96.84 160.99,89.49 160.99,104.18 				"/>
				<polygon class="st0" points="159.74,96.84 147.02,89.49 147.02,104.18 				"/>
			</g>
			<g>
				<polygon class="st0" points="505.73,91.11 492.59,83.53 492.59,98.7 				"/>
				<rect x="480.71" y="87.04" class="st0" width="13.94" height="8.13"/>
			</g>
			<g>
				<circle class="st0" cx="111.25" cy="303.08" r="4.63"/>
				<circle class="st0" cx="126.13" cy="303.08" r="4.63"/>
				<circle class="st0" cx="141.02" cy="303.08" r="4.63"/>
			</g>
		</g>
		<rect x="70.34" y="420.61" class="st2" width="609.33" height="8.56"/>
		<g>
			<g>
				<g>
					<g>
						<polygon class="st3" points="145.36,416.48 147.81,407.19 141.17,407.83 						"/>
					</g>
					<g>
						
							<rect x="137.47" y="331.1" transform="matrix(0.9954 -0.0962 0.0962 0.9954 -34.887 15.261)" class="st4" width="6.66" height="76.6"/>
					</g>
					
						<rect x="134.13" y="334.08" transform="matrix(0.9954 -0.0962 0.0962 0.9954 -31.5773 14.7799)" class="st5" width="6.66" height="1.46"/>
					
						<rect x="134.45" y="337.34" transform="matrix(0.9954 -0.0962 0.0962 0.9954 -31.8896 14.8254)" class="st5" width="6.66" height="1.46"/>
				</g>
				<g>
					<polygon class="st6" points="140.44,330.95 137.12,331.27 145.36,416.48 147.81,407.19 					"/>
				</g>
			</g>
			<g>
				<g>
					<g>
						<polygon class="st3" points="124.42,415.62 125.69,406.11 119.18,407.57 						"/>
					</g>
					<g>
						
							<rect x="110.66" y="331.19" transform="matrix(0.9754 -0.2204 0.2204 0.9754 -78.6253 34.2069)" class="st7" width="6.66" height="76.6"/>
					</g>
					
						<rect x="103.01" y="334.87" transform="matrix(0.9754 -0.2204 0.2204 0.9754 -71.3476 31.6877)" class="st8" width="6.66" height="1.46"/>
					
						<rect x="103.73" y="338.06" transform="matrix(0.9754 -0.2204 0.2204 0.9754 -72.0297 31.9229)" class="st8" width="6.66" height="1.46"/>
				</g>
				<g>
					<polygon class="st6" points="108.8,331.39 105.55,332.13 124.42,415.62 125.69,406.11 					"/>
				</g>
			</g>
			<g>
				<g>
					<g>
						
							<rect x="146.52" y="334.21" transform="matrix(0.9924 0.1233 -0.1233 0.9924 46.7479 -15.7244)" class="st9" width="7.78" height="71.18"/>
					</g>
					<g>
						
							<rect x="152.95" y="329.43" transform="matrix(0.9924 0.1233 -0.1233 0.9924 42.1225 -16.5941)" class="st5" width="4.31" height="5.06"/>
					</g>
					<g>
						<polygon class="st3" points="146.55,413.12 143.54,412.75 142.15,404.69 149.87,405.65 						"/>
					</g>
					<g>
						<polygon class="st10" points="145.53,415.83 144.35,418.56 143.87,415.63 144.21,412.83 145.88,413.04 						"/>
					</g>
					<g>
						<path class="st5" d="M160.03,357.69l-1.73-0.21l2.04-16.44c0.16-1.33-0.78-2.54-2.1-2.7l0.21-1.73
							c2.28,0.28,3.9,2.37,3.62,4.65L160.03,357.69z"/>
					</g>
				</g>
				<g>
					<path class="st6" d="M158.45,336.6l0.2-1.64l-1.72-0.21l0.62-5.03l-2.14-0.27l-9.4,75.67l3.86,0.48l8.36-67.27
						c1.33,0.16,2.27,1.38,2.1,2.7l-2.04,16.44l1.73,0.21l2.04-16.44C162.35,338.97,160.73,336.89,158.45,336.6z"/>
				</g>
			</g>
			<g>
				<g>
					<g>
						
							<rect x="122.56" y="342.83" transform="matrix(0.9974 0.0723 -0.0723 0.9974 27.3771 -8.1596)" class="st8" width="7.78" height="62.82"/>
					</g>
					<g>
						
							<rect x="126.74" y="337.86" transform="matrix(0.9974 0.0723 -0.0723 0.9974 24.9318 -8.4239)" class="st11" width="4.31" height="5.06"/>
					</g>
					<g>
						<polygon class="st3" points="125.12,413.54 122.09,413.32 120.29,405.34 128.05,405.9 						"/>
					</g>
					<g>
						<polygon class="st10" points="124.24,416.3 123.2,419.08 122.57,416.18 122.77,413.37 124.44,413.49 						"/>
					</g>
					<g>
						<path class="st11" d="M135.13,365.83l-1.74-0.13l1.2-16.53c0.1-1.33-0.91-2.49-2.24-2.59l0.13-1.74
							c2.29,0.17,4.02,2.16,3.85,4.45L135.13,365.83z"/>
					</g>
				</g>
				<g>
					<polygon class="st12" points="124.24,416.3 124.44,413.49 125.12,413.54 128.05,405.9 124.17,405.62 123.2,419.08 					"/>
					<polygon class="st12" points="122.09,413.32 122.77,413.37 122.57,416.18 123.2,419.08 124.17,405.62 120.29,405.34 					"/>
					<path class="st6" d="M132.48,344.85l0.12-1.65l-1.73-0.13l0.37-5.05l-2.15-0.16l-4.91,67.71l3.88,0.28l4.29-59.27
						c1.33,0.1,2.34,1.26,2.24,2.59l-1.2,16.53l1.74,0.13l1.2-16.53C136.49,347.01,134.77,345.01,132.48,344.85z"/>
				</g>
			</g>
			<linearGradient id="SVGID_2_" gradientUnits="userSpaceOnUse" x1="106.4828" y1="385.1267" x2="158.7535" y2="385.1267">
				<stop  offset="0" style="stop-color:#56548C"/>
				<stop  offset="1" style="stop-color:#2A2277"/>
			</linearGradient>
			<path class="st13" d="M103.16,346.72v76.81h59.72v-76.81H103.16z M110.38,402.83h-5.21v-7.35h5.21V402.83z M110.38,393.48h-5.21
				v-7.35h5.21V393.48z M110.38,384.13h-5.21v-7.35h5.21V384.13z M110.38,374.78h-5.21v-7.35h5.21V374.78z M110.38,365.42h-5.21
				v-7.35h5.21V365.42z M110.38,356.07h-5.21v-7.35h5.21V356.07z M117.59,402.83h-5.21v-7.35h5.21V402.83z M117.59,393.48h-5.21
				v-7.35h5.21V393.48z M117.59,384.13h-5.21v-7.35h5.21V384.13z M117.59,374.78h-5.21v-7.35h5.21V374.78z M117.59,365.42h-5.21
				v-7.35h5.21V365.42z M117.59,356.07h-5.21v-7.35h5.21V356.07z M124.81,402.83h-5.21v-7.35h5.21V402.83z M124.81,393.48h-5.21
				v-7.35h5.21V393.48z M124.81,384.13h-5.21v-7.35h5.21V384.13z M124.81,374.78h-5.21v-7.35h5.21V374.78z M124.81,365.42h-5.21
				v-7.35h5.21V365.42z M124.81,356.07h-5.21v-7.35h5.21V356.07z M132.02,402.83h-5.21v-7.35h5.21V402.83z M132.02,393.48h-5.21
				v-7.35h5.21V393.48z M132.02,384.13h-5.21v-7.35h5.21V384.13z M132.02,374.78h-5.21v-7.35h5.21V374.78z M132.02,365.42h-5.21
				v-7.35h5.21V365.42z M132.02,356.07h-5.21v-7.35h5.21V356.07z M139.24,402.83h-5.22v-7.35h5.22V402.83z M139.24,393.48h-5.22
				v-7.35h5.22V393.48z M139.24,384.13h-5.22v-7.35h5.22V384.13z M139.24,374.78h-5.22v-7.35h5.22V374.78z M139.24,365.42h-5.22
				v-7.35h5.22V365.42z M139.24,356.07h-5.22v-7.35h5.22V356.07z M146.45,402.83h-5.21v-7.35h5.21V402.83z M146.45,393.48h-5.21
				v-7.35h5.21V393.48z M146.45,384.13h-5.21v-7.35h5.21V384.13z M146.45,374.78h-5.21v-7.35h5.21V374.78z M146.45,365.42h-5.21
				v-7.35h5.21V365.42z M146.45,356.07h-5.21v-7.35h5.21V356.07z M153.67,402.83h-5.21v-7.35h5.21V402.83z M153.67,393.48h-5.21
				v-7.35h5.21V393.48z M153.67,384.13h-5.21v-7.35h5.21V384.13z M153.67,374.78h-5.21v-7.35h5.21V374.78z M153.67,365.42h-5.21
				v-7.35h5.21V365.42z M153.67,356.07h-5.21v-7.35h5.21V356.07z M160.88,402.83h-5.21v-7.35h5.21V402.83z M160.88,393.48h-5.21
				v-7.35h5.21V393.48z M160.88,384.13h-5.21v-7.35h5.21V384.13z M160.88,374.78h-5.21v-7.35h5.21V374.78z M160.88,365.42h-5.21
				v-7.35h5.21V365.42z M160.88,356.07h-5.21v-7.35h5.21V356.07z"/>
		</g>
		<g>
			<linearGradient id="SVGID_3_" gradientUnits="userSpaceOnUse" x1="375" y1="101.9064" x2="375" y2="335.2379">
				<stop  offset="0" style="stop-color:#56548C"/>
				<stop  offset="1" style="stop-color:#2A2277"/>
			</linearGradient>
			<path class="st14" d="M576.99,335.24H173.01V110.52c0-4.76,3.85-8.61,8.61-8.61h386.76c4.76,0,8.61,3.85,8.61,8.61V335.24z"/>
			<linearGradient id="SVGID_4_" gradientUnits="userSpaceOnUse" x1="375" y1="247.1379" x2="375" y2="326.5862">
				<stop  offset="0" style="stop-color:#C6DFF2"/>
				<stop  offset="0.999" style="stop-color:#9BB7FC"/>
			</linearGradient>
			<polygon class="st15" points="187.91,318.57 187.91,118.58 562.09,118.58 562.09,318.57 			"/>
			<linearGradient id="SVGID_5_" gradientUnits="userSpaceOnUse" x1="209.126" y1="115.7223" x2="337.4202" y2="323.5999">
				<stop  offset="0" style="stop-color:#C6DFF2"/>
				<stop  offset="0.999" style="stop-color:#9BB7FC"/>
			</linearGradient>
			<polygon class="st16" points="187.91,318.57 187.91,118.58 357.29,118.58 357.29,318.57 			"/>
			<path class="st17" d="M562.82,368.81H187.18c-7.82,0-14.17-6.34-14.17-14.17v-19.4h403.98v19.4
				C576.99,362.46,570.65,368.81,562.82,368.81z"/>
			<g>
				<defs>
					<polygon id="SVGID_6_" points="347.42,118.58 347.42,83.56 241.73,83.56 241.73,118.58 187.91,118.58 187.91,318.57 
						562.09,318.57 562.09,118.58 					"/>
				</defs>
				<clipPath id="SVGID_7_">
					<use xlink:href="#SVGID_6_"  style="overflow:visible;"/>
				</clipPath>
				<linearGradient id="SVGID_8_" gradientUnits="userSpaceOnUse" x1="158.007" y1="107.5592" x2="228.3308" y2="221.5064">
					<stop  offset="0" style="stop-color:#EFCF64"/>
					<stop  offset="0.3708" style="stop-color:#E38378"/>
					<stop  offset="1" style="stop-color:#4136EB"/>
				</linearGradient>
				<rect x="151.26" y="106.11" class="st18" width="83.09" height="115.65"/>
				<g class="st19">
					
						<linearGradient id="SVGID_9_" gradientUnits="userSpaceOnUse" x1="237.3366" y1="254.4947" x2="237.3366" y2="304.0973" gradientTransform="matrix(0.8539 0.5204 -0.5204 0.8539 187.2682 -83.4838)">
						<stop  offset="0" style="stop-color:#435DF1"/>
						<stop  offset="0.327" style="stop-color:#4333F1"/>
						<stop  offset="1" style="stop-color:#4C008C"/>
					</linearGradient>
					<path class="st20" d="M243.07,320.26c-5.39-4.62-18.84-8.6-21.58-15.14c-0.61-1.46-1.08-3.05-0.87-4.62
						c0.21-1.57,1.23-3.12,2.76-3.54c1.25-0.34,2.7,0.06,3.79-0.65c0.91-0.6,1.22-1.82,1.03-2.89c-0.19-1.07-0.8-2.01-1.42-2.9
						c-1.53-2.2-3.27-4.4-3.73-7.04c-0.46-2.64,0.97-5.84,3.63-6.22c1.55-0.22,3.3,0.53,4.63-0.3c1.24-0.78,1.41-2.58,0.93-3.97
						c-0.48-1.39-1.43-2.56-2.01-3.91c-0.92-2.16-0.79-4.73,0.34-6.78c1.13-2.05,3.23-3.54,5.54-3.93L243.07,320.26z"/>
					
						<linearGradient id="SVGID_10_" gradientUnits="userSpaceOnUse" x1="241.4342" y1="265.1145" x2="241.4342" y2="315.7265" gradientTransform="matrix(0.8539 0.5204 -0.5204 0.8539 187.2682 -83.4838)">
						<stop  offset="0" style="stop-color:#435DF1"/>
						<stop  offset="0.327" style="stop-color:#4333F1"/>
						<stop  offset="1" style="stop-color:#4C008C"/>
					</linearGradient>
					<path class="st21" d="M243.07,320.26c4.22-5.7,16.46-12.57,17.68-19.56c0.27-1.56,0.37-3.21-0.18-4.7
						c-0.55-1.49-1.9-2.77-3.48-2.84c-1.29-0.06-2.62,0.66-3.84,0.21c-1.02-0.38-1.6-1.51-1.65-2.59c-0.05-1.08,0.33-2.14,0.74-3.14
						c1-2.48,2.21-5.02,2.07-7.69c-0.14-2.68-2.25-5.48-4.92-5.26c-1.56,0.13-3.1,1.25-4.58,0.73c-1.39-0.48-1.95-2.2-1.79-3.66
						c0.16-1.46,0.83-2.82,1.09-4.26c0.42-2.31-0.28-4.79-1.84-6.54c-1.56-1.75-3.94-2.74-6.28-2.6L243.07,320.26z"/>
					<g>
						<path class="st22" d="M235.88,268.35c-0.04-0.01-0.08-0.03-0.12-0.06l-5.11-4.44c-0.13-0.12-0.15-0.32-0.03-0.45
							c0.12-0.13,0.32-0.15,0.45-0.03l5.11,4.44c0.13,0.12,0.15,0.32,0.03,0.45C236.13,268.35,236,268.39,235.88,268.35z"/>
					</g>
					<g>
						<path class="st22" d="M238.68,268.28c-0.02-0.01-0.05-0.02-0.07-0.03c-0.15-0.09-0.2-0.29-0.11-0.44l3.02-5.08
							c0.09-0.15,0.29-0.2,0.44-0.11c0.15,0.09,0.2,0.29,0.11,0.44l-3.02,5.08C238.97,268.26,238.82,268.32,238.68,268.28z"/>
					</g>
					<g>
						<path class="st22" d="M236.99,288.51c-0.03-0.01-0.06-0.02-0.09-0.04l-10.87-7.37c-0.15-0.1-0.18-0.3-0.09-0.44
							c0.1-0.15,0.3-0.18,0.44-0.08l10.87,7.37c0.15,0.1,0.18,0.3,0.09,0.44C237.27,288.5,237.12,288.55,236.99,288.51z"/>
					</g>
					<g>
						<path class="st22" d="M242.1,287.78c-0.05-0.02-0.1-0.04-0.14-0.08c-0.12-0.13-0.12-0.33,0.01-0.45l9.16-8.95
							c0.13-0.12,0.33-0.12,0.45,0.01c0.12,0.13,0.12,0.33-0.01,0.45l-9.16,8.95C242.33,287.79,242.21,287.81,242.1,287.78z"/>
					</g>
					<g>
						<path class="st22" d="M242.83,309.07c-0.06-0.02-0.12-0.06-0.16-0.11c-0.11-0.14-0.08-0.34,0.06-0.45l14.45-11.25
							c0.14-0.11,0.34-0.08,0.45,0.06c0.11,0.14,0.08,0.34-0.06,0.45l-14.45,11.25C243.03,309.09,242.93,309.1,242.83,309.07z"/>
					</g>
					<g>
						<path class="st22" d="M239.8,309.27c-0.02-0.01-0.04-0.01-0.06-0.02l-17.19-8.98c-0.16-0.08-0.22-0.27-0.13-0.43
							c0.08-0.16,0.27-0.21,0.43-0.14l17.19,8.98c0.16,0.08,0.22,0.27,0.13,0.43C240.1,309.25,239.95,309.31,239.8,309.27z"/>
					</g>
				</g>
				<g class="st19">
					
						<linearGradient id="SVGID_11_" gradientUnits="userSpaceOnUse" x1="379.8816" y1="204.2434" x2="379.8816" y2="239.3599" gradientTransform="matrix(0.5767 0.817 -0.817 0.5767 363.766 -142.9227)">
						<stop  offset="0" style="stop-color:#435DF1"/>
						<stop  offset="0.327" style="stop-color:#4333F1"/>
						<stop  offset="1" style="stop-color:#4C008C"/>
					</linearGradient>
					<path class="st23" d="M388.9,322.04c-2.2-4.52-9.82-10.89-9.76-15.91c0.01-1.12,0.16-2.29,0.74-3.25
						c0.58-0.96,1.68-1.68,2.79-1.52c0.91,0.13,1.74,0.8,2.64,0.64c0.76-0.13,1.31-0.84,1.48-1.59c0.17-0.75,0.04-1.53-0.11-2.28
						c-0.38-1.86-0.89-3.78-0.44-5.62c0.45-1.84,2.28-3.52,4.11-3.02c1.07,0.3,1.99,1.27,3.09,1.11c1.03-0.16,1.64-1.28,1.72-2.32
						c0.08-1.04-0.21-2.07-0.2-3.11c0.01-1.66,0.82-3.3,2.13-4.31c1.31-1.02,3.1-1.39,4.71-0.99L388.9,322.04z"/>
					
						<linearGradient id="SVGID_12_" gradientUnits="userSpaceOnUse" x1="382.7828" y1="211.7618" x2="382.7828" y2="247.5932" gradientTransform="matrix(0.5767 0.817 -0.817 0.5767 363.766 -142.9227)">
						<stop  offset="0" style="stop-color:#435DF1"/>
						<stop  offset="0.327" style="stop-color:#4333F1"/>
						<stop  offset="1" style="stop-color:#4C008C"/>
					</linearGradient>
					<path class="st24" d="M388.9,322.04c4.35-2.51,14.23-3.53,16.99-7.73c0.62-0.94,1.15-1.98,1.21-3.11
						c0.06-1.12-0.45-2.33-1.46-2.83c-0.82-0.4-1.89-0.31-2.55-0.95c-0.55-0.53-0.61-1.43-0.34-2.15c0.27-0.72,0.82-1.29,1.37-1.83
						c1.35-1.33,2.85-2.63,3.51-4.41c0.66-1.78,0.08-4.19-1.72-4.8c-1.05-0.35-2.36-0.06-3.18-0.81c-0.77-0.7-0.65-1.98-0.13-2.88
						c0.51-0.9,1.33-1.6,1.91-2.46c0.92-1.38,1.16-3.19,0.65-4.77c-0.52-1.58-1.79-2.89-3.35-3.45L388.9,322.04z"/>
					<g>
						<path class="st22" d="M398.84,286.3c-0.02-0.02-0.04-0.04-0.06-0.07l-2.07-4.32c-0.05-0.11-0.01-0.25,0.11-0.3
							c0.11-0.05,0.25-0.01,0.3,0.11l2.07,4.32c0.05,0.11,0.01,0.25-0.11,0.3C399,286.37,398.91,286.36,398.84,286.3z"/>
					</g>
					<g>
						<path class="st22" d="M400.68,287.04c-0.01-0.01-0.03-0.03-0.04-0.04c-0.07-0.1-0.05-0.24,0.05-0.32l3.39-2.45
							c0.1-0.07,0.24-0.05,0.32,0.05c0.07,0.1,0.05,0.24-0.05,0.32l-3.39,2.45C400.87,287.11,400.76,287.11,400.68,287.04z"/>
					</g>
					<g>
						<path class="st22" d="M393.89,299.71c-0.02-0.01-0.03-0.03-0.04-0.05l-4.99-7.84c-0.07-0.11-0.04-0.24,0.07-0.31
							c0.11-0.07,0.24-0.03,0.31,0.07l4.99,7.84c0.07,0.11,0.04,0.24-0.07,0.31C394.07,299.78,393.96,299.77,393.89,299.71z"/>
					</g>
					<g>
						<path class="st22" d="M397.41,300.67c-0.03-0.02-0.05-0.05-0.07-0.09c-0.04-0.12,0.01-0.25,0.13-0.29l8.47-3.23
							c0.12-0.04,0.25,0.01,0.29,0.13c0.04,0.12-0.01,0.25-0.13,0.29l-8.47,3.23C397.56,300.74,397.47,300.72,397.41,300.67z"/>
					</g>
					<g>
						<path class="st22" d="M391.89,314.71c-0.03-0.03-0.06-0.07-0.07-0.12c-0.03-0.12,0.04-0.24,0.16-0.27l12.55-3.24
							c0.12-0.03,0.24,0.04,0.27,0.16c0.03,0.12-0.04,0.24-0.16,0.27l-12.55,3.24C392.02,314.78,391.95,314.76,391.89,314.71z"/>
					</g>
					<g>
						<path class="st22" d="M389.87,313.99c-0.01-0.01-0.02-0.02-0.03-0.03l-8.64-10.67c-0.08-0.1-0.06-0.24,0.03-0.32
							c0.1-0.08,0.24-0.06,0.32,0.03l8.64,10.67c0.08,0.1,0.06,0.24-0.03,0.32C390.07,314.06,389.95,314.06,389.87,313.99z"/>
					</g>
				</g>
				<g class="st19">
					<g>
						
							<linearGradient id="SVGID_13_" gradientUnits="userSpaceOnUse" x1="2240.7297" y1="50.7216" x2="2240.7297" y2="98.8667" gradientTransform="matrix(-0.9613 -0.2755 -0.2755 0.9613 2533.9817 840.237)">
							<stop  offset="0" style="stop-color:#26E6FF"/>
							<stop  offset="0.4856" style="stop-color:#4189FF"/>
							<stop  offset="0.8345" style="stop-color:#534CFF"/>
							<stop  offset="1" style="stop-color:#5A35FF"/>
						</linearGradient>
						<path class="st25" d="M344,291.88c2.94-0.31,4.23,6.27,4.23,6.27c0.27-4.03,0.02-14.75,4.34-15.64
							c3.51-0.72,5.11,4.03,5.03,7.18c0.46-3.49,1.03-14.69,4.81-14.7c3.31,0,3.51,5.5,2.82,8.36c1.46-2.67,5.71-12,10.46-8.67
							c4.52,3.33-1.88,10.91-4.49,13.57c2.27-1.28,7.62-3.64,8.38,0.16c1.23,6.16-13.98,9.25-13.98,9.25c0,0,8.15,0.56,6.31,4.95
							c-2.59,6.22-11.14,6.49-16.61,4.68c7.9,2.4,4.33,9.14-2.21,9.72c-5.5,0.48-10.91-2.15-14.06-6.66
							C337.38,306.15,339.53,292.36,344,291.88z"/>
						
							<linearGradient id="SVGID_14_" gradientUnits="userSpaceOnUse" x1="2224.5007" y1="78.1329" x2="2263.833" y2="78.1329" gradientTransform="matrix(-0.9613 -0.2755 -0.2755 0.9613 2533.9817 840.237)">
							<stop  offset="0" style="stop-color:#5277FF"/>
							<stop  offset="1" style="stop-color:#30009F"/>
						</linearGradient>
						<path class="st26" d="M343.6,301.35c-0.08,1.08-0.1,2.18-0.09,3.25c0.01,0.83,0.08,1.66,0.18,2.47
							c3.6-2.12,7.05-4.49,10.32-7.09c-0.26-1.11-0.48-2.23-0.63-3.36c-0.16-1.24-0.26-2.52-0.3-3.78
							c-0.04-1.26-0.02-2.53,0.05-3.79c0.07-1.26,0.18-2.51,0.39-3.74c-0.16,1.24-0.23,2.49-0.26,3.74c-0.03,1.25,0,2.51,0.09,3.75
							c0.09,1.24,0.24,2.5,0.44,3.71c0.18,1.03,0.43,2.07,0.71,3.07c2.54-2.03,5.01-4.26,7.28-6.59c-0.12-1.25-0.24-2.49-0.23-3.76
							c-0.03-0.65,0.02-1.32,0.02-1.97c0.04-0.66,0.06-1.32,0.12-1.97c0.11-1.3,0.24-2.62,0.43-3.91c0.19-1.29,0.42-2.58,0.72-3.85
							c-0.26,1.27-0.44,2.56-0.59,3.85c-0.15,1.29-0.23,2.61-0.29,3.89c-0.03,0.64-0.03,1.3-0.04,1.95c0.03,0.64,0.01,1.3,0.06,1.94
							c0.04,1.12,0.17,2.22,0.33,3.31c4.41-4.71,8.26-9.63,11.78-15.04c-3.39,5.52-7.12,10.56-11.42,15.41
							c1.05,0.14,2.13,0.21,3.24,0.16c1.27-0.06,2.57-0.2,3.88-0.46c1.3-0.27,2.63-0.61,3.95-1.07c1.32-0.45,2.64-0.99,3.94-1.65
							c-1.29,0.71-2.61,1.3-3.93,1.8c-1.32,0.5-2.65,0.91-3.97,1.22c-1.32,0.32-2.64,0.51-3.94,0.61c-1.24,0.1-2.46,0.05-3.66-0.08
							c-2.34,2.4-4.7,4.65-7.21,6.88c0.82,0.58,1.73,1.08,2.7,1.44c1.12,0.41,2.36,0.71,3.61,0.87c1.26,0.17,2.58,0.22,3.92,0.17
							c1.34-0.05,2.71-0.2,4.1-0.49c-1.39,0.34-2.78,0.54-4.14,0.64c-1.36,0.1-2.7,0.1-4-0.02c-1.29-0.12-2.56-0.37-3.74-0.75
							c-1.05-0.34-2.04-0.84-2.95-1.44c-3.22,2.71-6.64,5.19-10.21,7.42c0.74,0.56,1.53,1.09,2.36,1.56
							c1.05,0.58,2.15,1.11,3.3,1.55c1.15,0.44,2.36,0.83,3.6,1.13c1.24,0.31,2.53,0.55,3.86,0.69c-1.35-0.09-2.66-0.28-3.93-0.54
							c-1.27-0.26-2.51-0.6-3.7-1c-1.19-0.4-2.33-0.89-3.42-1.44c-0.92-0.47-1.79-1.01-2.62-1.6c-4.22,2.56-8.64,4.85-13.23,6.68
							c-0.22-0.59-0.33-0.88-0.56-1.47c4.57-1.68,8.98-3.82,13.2-6.23c-0.07-0.91-0.11-1.82-0.08-2.73c0.04-1.1,0.12-2.21,0.25-3.3
							c0.13-1.09,0.28-2.19,0.46-3.27c0.18-1.08,0.38-2.16,0.62-3.22c-0.19,1.07-0.35,2.14-0.48,3.22
							C343.78,299.18,343.68,300.27,343.6,301.35z"/>
					</g>
				</g>
				<g class="st19">
					<g>
						
							<linearGradient id="SVGID_15_" gradientUnits="userSpaceOnUse" x1="2345.6558" y1="94.4395" x2="2345.6558" y2="142.5866" gradientTransform="matrix(0.9957 -0.0922 0.0922 0.9957 -2132.2061 388.0587)">
							<stop  offset="0" style="stop-color:#26E6FF"/>
							<stop  offset="0.4856" style="stop-color:#4189FF"/>
							<stop  offset="0.8345" style="stop-color:#534CFF"/>
							<stop  offset="1" style="stop-color:#5A35FF"/>
						</linearGradient>
						<path class="st27" d="M229.93,289.76c-2.83-0.85-5.32,5.38-5.32,5.38c0.49-4.01,2.72-14.5-1.36-16.17
							c-3.31-1.36-5.77,3.01-6.27,6.12c0.2-3.51,1.72-14.63-2-15.34c-3.25-0.62-4.47,4.76-4.32,7.7
							c-0.94-2.89-3.38-12.86-8.67-10.46c-5.06,2.44-0.18,11.07,1.89,14.17c-2-1.68-6.82-4.99-8.27-1.4
							c-2.36,5.82,12.02,11.68,12.02,11.68c0,0-8.11-0.96-7.13,3.7c1.39,6.59,9.74,8.44,15.45,7.68c-8.21,0.89-5.96,8.18,0.36,9.96
							c5.31,1.49,11.12-0.08,15.06-3.93C233.78,305.02,234.23,291.06,229.93,289.76z"/>
						
							<linearGradient id="SVGID_16_" gradientUnits="userSpaceOnUse" x1="2329.4258" y1="121.8519" x2="2368.7598" y2="121.8519" gradientTransform="matrix(0.9957 -0.0922 0.0922 0.9957 -2132.2061 388.0587)">
							<stop  offset="0" style="stop-color:#5277FF"/>
							<stop  offset="1" style="stop-color:#30009F"/>
						</linearGradient>
						<path class="st28" d="M228.57,299.15c-0.12,1.08-0.3,2.16-0.51,3.21c-0.17,0.82-0.39,1.61-0.64,2.39
							c-3.15-2.75-6.1-5.72-8.82-8.88c0.46-1.04,0.89-2.1,1.24-3.18c0.38-1.19,0.72-2.43,0.99-3.66c0.27-1.23,0.49-2.48,0.65-3.73
							c0.16-1.25,0.28-2.5,0.31-3.75c-0.07,1.25-0.23,2.48-0.44,3.72c-0.21,1.23-0.47,2.46-0.79,3.67c-0.32,1.2-0.7,2.41-1.12,3.56
							c-0.37,0.98-0.8,1.95-1.27,2.89c-2.12-2.46-4.13-5.12-5.93-7.82c0.35-1.2,0.7-2.41,0.92-3.65c0.15-0.64,0.23-1.3,0.35-1.94
							c0.08-0.66,0.18-1.31,0.25-1.96c0.13-1.29,0.25-2.62,0.3-3.93c0.05-1.31,0.07-2.61,0-3.92c0.02,1.3-0.04,2.6-0.14,3.89
							c-0.1,1.3-0.26,2.6-0.44,3.88c-0.09,0.64-0.22,1.28-0.32,1.92c-0.14,0.63-0.25,1.27-0.42,1.89c-0.24,1.1-0.58,2.15-0.94,3.2
							c-3.46-5.45-6.33-11-8.78-16.96c2.3,6.05,5.04,11.7,8.36,17.26c-1.06-0.06-2.13-0.19-3.21-0.44
							c-1.24-0.29-2.49-0.67-3.73-1.18c-1.23-0.5-2.47-1.09-3.68-1.78c-1.21-0.69-2.41-1.47-3.56-2.36c1.14,0.94,2.32,1.76,3.52,2.5
							c1.2,0.74,2.44,1.38,3.68,1.94c1.24,0.56,2.5,0.99,3.76,1.33c1.2,0.33,2.41,0.51,3.61,0.6c1.86,2.8,3.75,5.44,5.81,8.1
							c-0.91,0.42-1.9,0.74-2.92,0.91c-1.18,0.2-2.45,0.26-3.71,0.19c-1.27-0.07-2.58-0.26-3.88-0.57c-1.31-0.3-2.63-0.7-3.94-1.24
							c1.31,0.59,2.63,1.05,3.95,1.4c1.31,0.35,2.64,0.6,3.93,0.72c1.29,0.12,2.59,0.11,3.81-0.05c1.09-0.14,2.16-0.45,3.16-0.87
							c2.66,3.26,5.56,6.34,8.66,9.19c-0.84,0.42-1.7,0.79-2.61,1.09c-1.14,0.38-2.32,0.69-3.53,0.91
							c-1.21,0.22-2.47,0.37-3.75,0.44c-1.28,0.07-2.59,0.07-3.92-0.04c1.34,0.16,2.67,0.21,3.97,0.2c1.3-0.02,2.58-0.13,3.82-0.3
							c1.25-0.17,2.46-0.45,3.63-0.78c0.99-0.29,1.95-0.66,2.87-1.08c3.67,3.3,7.59,6.37,11.76,9.02c0.33-0.54,0.49-0.81,0.82-1.34
							c-4.18-2.5-8.11-5.42-11.82-8.58c0.24-0.88,0.45-1.77,0.58-2.67c0.17-1.09,0.29-2.19,0.37-3.29c0.08-1.1,0.13-2.2,0.15-3.3
							c0.02-1.1,0.03-2.19-0.01-3.28c-0.01,1.08-0.06,2.17-0.13,3.26C228.79,296.98,228.69,298.07,228.57,299.15z"/>
					</g>
				</g>
				<g class="st19">
					<g>
						
							<linearGradient id="SVGID_17_" gradientUnits="userSpaceOnUse" x1="2251.791" y1="15.9896" x2="2251.791" y2="93.0469" gradientTransform="matrix(-0.9784 0.2068 0.2068 0.9784 2534.5156 -242.4817)">
							<stop  offset="0" style="stop-color:#26E6FF"/>
							<stop  offset="0.4856" style="stop-color:#4189FF"/>
							<stop  offset="0.8345" style="stop-color:#534CFF"/>
							<stop  offset="1" style="stop-color:#5A35FF"/>
						</linearGradient>
						<path class="st29" d="M318.71,283.9c3.93-2.64,10.68,5.7,10.68,5.7c-2.64-5.89-11.02-20.87-5.58-25.37
							c4.42-3.65,10.25,1.87,12.49,6.39c-1.97-5.28-9.56-21.55-4.21-24.39c4.67-2.48,9.09,5.15,10.25,9.72
							c0.07-4.87-0.92-21.26,8.29-20.1c8.89,1.33,5.52,16.85,3.82,22.56c2.25-3.52,8.05-10.87,11.98-6.06
							c6.36,7.79-12.84,23.56-12.84,23.56c0,0,11.94-5.31,12.64,2.27c1,10.73-10.88,17.53-19.98,19.07
							c12.98-2.52,12.98,9.68,4.17,15.4c-7.41,4.8-17.03,5.14-24.88,1.13C320.05,309.04,312.75,287.92,318.71,283.9z"/>
						
							<linearGradient id="SVGID_18_" gradientUnits="userSpaceOnUse" x1="2225.8167" y1="59.8623" x2="2288.7668" y2="59.8623" gradientTransform="matrix(-0.9784 0.2068 0.2068 0.9784 2534.5156 -242.4817)">
							<stop  offset="0" style="stop-color:#5277FF"/>
							<stop  offset="1" style="stop-color:#30009F"/>
						</linearGradient>
						<path class="st30" d="M325.24,297.6c0.7,1.59,1.48,3.16,2.31,4.67c0.64,1.17,1.36,2.29,2.11,3.36
							c3.51-5.69,6.61-11.63,9.28-17.76c-1.19-1.37-2.36-2.8-3.4-4.28c-1.15-1.63-2.25-3.37-3.26-5.13c-1-1.75-1.93-3.57-2.77-5.4
							c-0.84-1.83-1.62-3.69-2.25-5.59c0.69,1.87,1.54,3.69,2.44,5.48c0.9,1.79,1.88,3.54,2.94,5.24c1.06,1.69,2.21,3.36,3.41,4.91
							c1.02,1.33,2.15,2.6,3.3,3.81c2.07-4.77,3.89-9.78,5.36-14.77c-1.11-1.67-2.21-3.35-3.14-5.15c-0.53-0.91-0.96-1.88-1.46-2.8
							c-0.43-0.97-0.9-1.92-1.31-2.88c-0.82-1.92-1.62-3.88-2.32-5.86c-0.7-1.97-1.35-3.96-1.86-5.98c0.58,2,1.3,3.95,2.06,5.89
							c0.76,1.94,1.63,3.86,2.5,5.72c0.44,0.93,0.94,1.85,1.4,2.79c0.52,0.89,0.98,1.83,1.53,2.7c0.89,1.56,1.91,3.01,2.94,4.44
							c2.7-9.97,4.46-19.81,5.38-30.09c-0.65,10.35-2.16,20.27-4.6,30.35c1.59-0.59,3.17-1.3,4.7-2.2c1.76-1.03,3.49-2.21,5.14-3.56
							c1.65-1.35,3.26-2.84,4.78-4.47c1.52-1.63,2.98-3.38,4.33-5.29c-1.3,1.97-2.71,3.79-4.2,5.5c-1.49,1.7-3.07,3.27-4.7,4.7
							c-1.63,1.44-3.35,2.7-5.12,3.82c-1.69,1.07-3.44,1.92-5.23,2.63c-1.51,5.16-3.16,10.1-5.04,15.13
							c1.59,0.2,3.25,0.23,4.89,0.01c1.9-0.26,3.86-0.76,5.77-1.47c1.91-0.71,3.81-1.63,5.67-2.71c1.86-1.08,3.68-2.32,5.43-3.77
							c-1.72,1.53-3.52,2.85-5.37,4.01c-1.84,1.16-3.75,2.17-5.67,2.97c-1.91,0.8-3.9,1.39-5.85,1.73c-1.74,0.3-3.52,0.34-5.25,0.17
							c-2.53,6.25-5.5,12.32-8.88,18.15c1.47,0.24,2.98,0.4,4.51,0.43c1.92,0.04,3.87-0.04,5.83-0.28c1.96-0.24,3.95-0.6,5.94-1.1
							c1.99-0.5,3.98-1.12,5.97-1.92c-1.98,0.88-3.98,1.59-5.97,2.18c-1.99,0.59-4,1.03-5.98,1.35c-1.99,0.33-3.97,0.48-5.93,0.52
							c-1.65,0.03-3.29-0.09-4.9-0.3c-4.05,6.79-8.58,13.33-13.7,19.36c-0.76-0.67-1.13-1-1.89-1.66c5.2-5.8,9.83-12.13,14-18.71
							c-0.79-1.23-1.52-2.49-2.16-3.81c-0.77-1.59-1.49-3.21-2.13-4.85c-0.64-1.64-1.24-3.31-1.79-4.97
							c-0.55-1.66-1.08-3.33-1.54-5.01c0.52,1.65,1.12,3.29,1.74,4.92C323.87,294.39,324.54,296,325.24,297.6z"/>
					</g>
				</g>
				<g class="st19">
					<polygon class="st31" points="284.33,161.88 275.78,161.88 275.78,180.25 284.33,180.25 292.87,180.25 292.87,161.88 					"/>
					<g>
						<path class="st32" d="M363.13,222.8c-15.12,0-36.81-15.54-45.93-22.64c-4.39-3.42-5.17-9.74-1.76-14.13
							c3.42-4.39,9.74-5.17,14.13-1.76c12.64,9.83,28.12,18.44,33.06,18.44c0.04,0,0.09,0,0.13,0c4.7-2.14,16.49-18.47,24.97-34.64
							c0.65-1.24,2.34-3.78,4.09-2.47c0.57,0.42,0.63,1.24,0.65,1.94c0.25,0.03,0.43-0.22,0.55-0.43c0.7-1.18,1.6-2.26,2.74-3.02
							c1.88-1.26,3.62-1.28,5.56-0.26c4.92,2.58,6.82,8.67,4.24,13.59c-8.19,15.61-24.13,42.23-38.89,45.06
							C365.54,222.7,364.35,222.8,363.13,222.8z M362.56,202.79L362.56,202.79L362.56,202.79z"/>
					</g>
					<polygon class="st33" points="380.85,178.19 382.18,176.11 384.35,174.22 402.03,183.92 401.38,187.1 398.55,190.69 					"/>
					<path class="st34" d="M284.33,280.58h-39.06v178.1h28.25V323.14c0-8.74,4.61-16.04,10.81-18c6.2,1.95,10.81,9.26,10.81,18
						v135.54h28.25v-178.1H284.33z"/>
					<g>
						<path class="st35" d="M242.46,451.53c-2.67,0-4.83,2.16-4.83,4.83v2.87c0,2.67,2.16,4.83,4.83,4.83h31.06v-8.42v-4.11h-15.7
							H242.46z"/>
						<path class="st35" d="M326.2,451.53c2.67,0,4.83,2.16,4.83,4.83v2.87c0,2.67-2.16,4.83-4.83,4.83h-31.06v-8.42v-4.11h15.7
							H326.2z"/>
					</g>
					<polygon class="st33" points="284.33,180.25 245.27,180.25 245.27,280.58 284.33,280.62 323.38,280.58 323.38,180.25 					"/>
					<g>
						<path class="st36" d="M283.55,163.34"/>
					</g>
					<g>
						<path class="st36" d="M285.11,163.34"/>
					</g>
					<path class="st2" d="M288.35,187.52l10.82-8.59l-2.83-5.11c-0.63-1.13-2.12-1.43-3.13-0.63l-8.89,7.05L288.35,187.52z"/>
					
						<rect x="284.33" y="280.58" transform="matrix(-1 -1.224647e-16 1.224647e-16 -1 607.7103 568.1847)" class="st37" width="39.05" height="7.02"/>
					
						<rect x="310.02" y="280.24" transform="matrix(-1 -1.224647e-16 1.224647e-16 -1 621.8929 568.1845)" class="st38" width="1.85" height="7.7"/>
					<g>
						<path class="st32" d="M219.97,304.42c-1.4-1.2,0.55-7.85,0.55-7.85c-1.13,2.38-2.54,15.1-10.71,6.93
							c-2.58-2.58-2.02-7.85-1.98-9.43c2.19-78.64,23.41-100.75,25.92-103.09l11.7,14.43l0.17-0.16
							c-0.19,0.19-18.04,19.46-19.97,89.59C225.5,300.6,223.62,307.56,219.97,304.42z"/>
					</g>
					<path class="st2" d="M280.31,187.52l-10.82-8.59l2.83-5.11c0.63-1.13,2.12-1.43,3.13-0.63l8.89,7.05L280.31,187.52z"/>
					<rect x="245.27" y="280.58" class="st37" width="39.06" height="7.02"/>
					<rect x="256.79" y="280.24" class="st38" width="1.85" height="7.7"/>
					<linearGradient id="SVGID_19_" gradientUnits="userSpaceOnUse" x1="284.3275" y1="180.2486" x2="284.3275" y2="278.1871">
						<stop  offset="0" style="stop-color:#DF697B"/>
						<stop  offset="1" style="stop-color:#BE2773"/>
					</linearGradient>
					<polygon class="st39" points="284.33,278.19 294.87,272.34 285.85,189.89 288.35,187.52 284.33,180.25 280.31,187.52 
						282.81,189.89 273.79,272.34 284.33,278.19 284.33,278.19 284.33,278.19 284.33,278.19 					"/>
					<path class="st33" d="M269.48,178.94c0,0-18.1-0.14-24.21,1.31c-6.11,1.45-20.75,13.76-29.03,40.08
						c-8.28,26.32-9.76,60.28-9.76,60.28l1.78,3.08l17.84,0.54l3.02-2.51c0,0-0.77-47.37,18.34-73.27l27.66-25.04L269.48,178.94z"/>
					<rect x="277.54" y="279.66" class="st7" width="13.59" height="8.81"/>
					<g>
						<linearGradient id="SVGID_20_" gradientUnits="userSpaceOnUse" x1="348.6623" y1="173.8225" x2="348.6623" y2="299.507">
							<stop  offset="0" style="stop-color:#5B2A8D"/>
							<stop  offset="0.1693" style="stop-color:#4B2786"/>
							<stop  offset="0.4267" style="stop-color:#38247D"/>
							<stop  offset="0.6972" style="stop-color:#2E2379"/>
							<stop  offset="1" style="stop-color:#2A2277"/>
						</linearGradient>
						<path class="st40" d="M324.34,217.68v81.83h-27.99l2.83-120.57l-2.83-5.11c0,0,25.66,3.97,32.66,7.86
							c7,3.89,28.06,19.77,32.4,18.55c4.34-1.21,19.79-23.89,19.79-23.89l19.79,12.22c0,0-13.88,25.21-27.6,33.54
							c-13.71,8.33-38.57-3.62-49.12-10.07L324.34,217.68z"/>
						<path class="st41" d="M305.45,176.34c2.89,6.97,5.69,13.97,8.43,21l0.14,0.36l-0.33,0.23l-6.65,4.67l-0.03-0.96l6.71,3.94
							l0.4,0.24l-0.13,0.46c-2.12,7.68-4.4,15.32-6.61,22.98c-2.28,7.64-4.6,15.26-7.03,22.86c1.92-7.74,3.95-15.45,6.02-23.15
							c2.14-7.68,4.22-15.37,6.45-23.03l0.28,0.69l-6.66-4.02l-0.77-0.46l0.73-0.5l6.72-4.56l-0.19,0.59
							C310.37,190.6,307.87,183.48,305.45,176.34z"/>
					</g>
					<g>
						<linearGradient id="SVGID_21_" gradientUnits="userSpaceOnUse" x1="238.9433" y1="173.8225" x2="238.9433" y2="299.507">
							<stop  offset="0" style="stop-color:#5B2A8D"/>
							<stop  offset="0.1693" style="stop-color:#4B2786"/>
							<stop  offset="0.4267" style="stop-color:#38247D"/>
							<stop  offset="0.6972" style="stop-color:#2E2379"/>
							<stop  offset="1" style="stop-color:#2A2277"/>
						</linearGradient>
						<path class="st42" d="M272.31,173.82c0,0-25.66,3.97-32.66,7.86c-7,3.89-20.8,21.17-27.06,48.75c-6.26,27.58-7,47.76-7,47.76
							h24.2c0,0,1.88-30.26,7.08-43.63c5.2-13.37,7.46-16.88,7.46-16.88v81.83h27.99l-2.83-120.57L272.31,173.82z"/>
						<path class="st41" d="M263.21,176.34c-2.42,7.15-4.92,14.26-7.49,21.35l-0.19-0.59l6.72,4.56l0.73,0.5l-0.77,0.46l-6.66,4.02
							l0.28-0.69c2.23,7.65,4.3,15.35,6.45,23.03c2.07,7.7,4.1,15.41,6.02,23.15c-2.43-7.6-4.76-15.22-7.03-22.86
							c-2.21-7.66-4.49-15.3-6.61-22.98l-0.13-0.46l0.4-0.24l6.71-3.94l-0.03,0.96l-6.65-4.67l-0.33-0.23l0.14-0.36
							C257.52,190.31,260.32,183.31,263.21,176.34z"/>
					</g>
					<g>
						<path class="st32" d="M327.03,137.56c-0.58,5.25-5.48,8.38-8.73,9.9c1.73-4.03,2.76-8.44,2.93-13.07
							C322.39,133.64,327.82,130.47,327.03,137.56z"/>
						<path class="st32" d="M284.33,96.48c-20.2,0-36.93,16.36-36.93,36.56c0,0.46,0.02,0.91,0.03,1.36
							c0.17,4.63,1.19,9.04,2.93,13.07c5.6,13.02,18.54,22.14,33.61,22.14c0.12,0,0.24,0,0.36-0.01c0.12,0,0.24,0.01,0.36,0.01
							c15.07,0,28.01-9.12,33.61-22.14c1.73-4.03,2.76-8.44,2.93-13.07c0.02-0.45,0.03-0.9,0.03-1.36
							C321.26,112.84,304.52,96.48,284.33,96.48z"/>
						<path class="st32" d="M241.62,137.56c0.58,5.25,5.48,8.38,8.73,9.9c-1.73-4.03-2.76-8.44-2.93-13.07
							C246.26,133.64,240.83,130.47,241.62,137.56z"/>
						<g>
							<g>
								<path class="st31" d="M286.15,165.37h-3.64c-0.49,0-0.88-0.39-0.88-0.88s0.39-0.88,0.88-0.88h3.64
									c0.49,0,0.88,0.39,0.88,0.88S286.63,165.37,286.15,165.37z"/>
							</g>
							<g>
								<g>
									<path class="st31" d="M320.75,142.87c-0.1,0-0.2,0-0.31-0.01c-0.48-0.04-0.84-0.46-0.8-0.95c0.04-0.48,0.47-0.85,0.95-0.8
										c0.18,0.01,0.63,0.02,0.79-0.22c0.11-0.18,0.11-0.55-0.15-0.98c-0.59-1-0.6-2.12-0.03-3.07c0.65-1.09,1.94-1.76,3.3-1.7
										c0.48,0.02,0.86,0.43,0.84,0.91c-0.02,0.48-0.42,0.87-0.91,0.84c-0.71-0.01-1.41,0.31-1.73,0.85
										c-0.17,0.28-0.29,0.72,0.04,1.28c0.57,0.97,0.62,2.02,0.12,2.81C322.44,142.49,321.68,142.87,320.75,142.87z"/>
								</g>
								<g>
									<path class="st31" d="M247.9,142.87c-0.93,0-1.69-0.37-2.12-1.05c-0.5-0.79-0.45-1.84,0.12-2.81
										c0.33-0.56,0.2-1.01,0.04-1.28c-0.32-0.53-1.02-0.86-1.73-0.85c-0.48,0.04-0.89-0.36-0.91-0.84
										c-0.02-0.48,0.36-0.89,0.84-0.91c1.36-0.05,2.65,0.62,3.3,1.7c0.57,0.95,0.56,2.07-0.03,3.07
										c-0.26,0.43-0.26,0.81-0.15,0.98c0.15,0.25,0.6,0.24,0.79,0.22c0.48-0.05,0.91,0.32,0.95,0.8c0.04,0.48-0.32,0.91-0.8,0.95
										C248.11,142.86,248,142.87,247.9,142.87z"/>
								</g>
							</g>
						</g>
						<g>
							<g>
								<path class="st43" d="M305.81,130.98c-0.04,0-0.07,0-0.11-0.01l-10.62-1.3c-0.48-0.06-0.82-0.5-0.76-0.98
									c0.06-0.48,0.48-0.84,0.98-0.76l10.62,1.3c0.48,0.06,0.82,0.5,0.76,0.98C306.62,130.66,306.24,130.98,305.81,130.98z"/>
							</g>
							<g>
								<path class="st43" d="M262.85,130.98c-0.44,0-0.82-0.33-0.87-0.77c-0.06-0.48,0.28-0.92,0.76-0.98l10.62-1.3
									c0.49-0.08,0.92,0.28,0.98,0.76c0.06,0.48-0.28,0.92-0.76,0.98l-10.62,1.3C262.92,130.98,262.89,130.98,262.85,130.98z"/>
							</g>
						</g>
						<g>
							<g>
								<path class="st44" d="M284.32,162.22l-0.27,0.01c-3.66,0-11.42-3.72-11.42-7.86v-0.22h23.41v0.22
									c0,4.14-7.76,7.86-11.42,7.86L284.32,162.22z"/>
								<path class="st31" d="M295.81,154.36c0,3.86-7.46,7.64-11.2,7.64c-0.09,0-0.19,0-0.28-0.01c-0.1,0-0.19,0.01-0.28,0.01
									c-3.75,0-11.2-3.78-11.2-7.64h5.73h5.76h5.76H295.81 M296.25,153.93h-0.44h-5.73h-5.76h-5.76h-5.73h-0.44v0.44
									c0,4.26,7.91,8.08,11.64,8.08c0.1,0,0.2,0,0.3-0.01c0.06,0,0.17,0.01,0.26,0.01c3.73,0,11.64-3.82,11.64-8.08V153.93
									L296.25,153.93z"/>
							</g>
							<path class="st33" d="M284.33,154.36h-5.76h-5.73c0,0.73,0.27,1.45,0.72,2.15h21.53c0.46-0.7,0.72-1.42,0.72-2.15h-5.73
								H284.33z"/>
						</g>
						<linearGradient id="SVGID_22_" gradientUnits="userSpaceOnUse" x1="284.3276" y1="93.6207" x2="284.3276" y2="137.4872">
							<stop  offset="0" style="stop-color:#5B2A8D"/>
							<stop  offset="0.1693" style="stop-color:#4B2786"/>
							<stop  offset="0.4267" style="stop-color:#38247D"/>
							<stop  offset="0.6972" style="stop-color:#2E2379"/>
							<stop  offset="1" style="stop-color:#2A2277"/>
						</linearGradient>
						<path class="st45" d="M321.68,119.74c-0.79-3.98-1.72-7.93-2.83-11.84c-1.6-5.63-7.45-5.91-7.45-5.91s-1.48-4.98-6.11-7.11
							c-2.77-1.27-5.77-2.07-8.71-2.68c-3.43-0.72-6.93-1.07-10.44-1.15c-0.61-0.01-1.21-0.02-1.82-0.02
							c-0.61,0-1.21,0.01-1.82,0.02c-3.5,0.09-7,0.44-10.44,1.15c-2.95,0.62-18.93,6.11-22.27,15.71
							c-1.34,3.84-2.04,7.86-2.83,11.84c-0.38,1.9-2.27,13.39-2.15,13.45c0,0,2,0.98,2.63,1.68c0,0,0.4,7.03,2.39,11.34
							c0,0,1.99,0.63,3.17,0.66c1.18,0.03-1.28-3.4-2.66-6.91c-1.37-3.51-0.96-4.94-0.96-4.94s3.07-3.07,4.78-7.02
							c1.71-3.95-0.12-15.81,6.34-19.02c6.46-3.2,13.46,0,23.82,0c10.36,0,17.36-3.2,23.82,0c6.46,3.2,4.63,15.07,6.34,19.02
							s4.78,7.02,4.78,7.02s0.41,1.43-0.96,4.94c-1.37,3.51-3.84,6.94-2.66,6.91c1.18-0.03,3.17-0.66,3.17-0.66
							c2-4.31,2.39-11.34,2.39-11.34c0.63-0.7,2.63-1.68,2.63-1.68C323.96,133.13,322.06,121.63,321.68,119.74z"/>
						<g>
							<path class="st46" d="M304.19,138.51c0,2.25-1.82,4.08-4.08,4.08c-2.25,0-4.08-1.82-4.08-4.08c0-2.25,1.82-4.08,4.08-4.08
								C302.36,134.43,304.19,136.25,304.19,138.51z"/>
							<path class="st46" d="M300.11,137.13c0,0.76-0.62,1.38-1.38,1.38c-0.76,0-1.38-0.62-1.38-1.38c0-0.76,0.62-1.38,1.38-1.38
								C299.5,135.75,300.11,136.37,300.11,137.13z"/>
							<path class="st47" d="M312.4,148.78c0,1.48-2.54,2.68-5.68,2.68c-3.13,0-5.68-1.2-5.68-2.68c0-1.48,2.54-2.68,5.68-2.68
								C309.86,146.09,312.4,147.3,312.4,148.78z"/>
							<path class="st46" d="M264.47,138.51c0,2.25,1.82,4.08,4.08,4.08c2.25,0,4.08-1.82,4.08-4.08c0-2.25-1.82-4.08-4.08-4.08
								C266.29,134.43,264.47,136.25,264.47,138.51z"/>
							<path class="st47" d="M256.25,148.78c0,1.48,2.54,2.68,5.68,2.68c3.13,0,5.68-1.2,5.68-2.68c0-1.48-2.54-2.68-5.68-2.68
								C258.8,146.09,256.25,147.3,256.25,148.78z"/>
							<g>
								<path class="st48" d="M284.33,151.59c-2.69,0-5.11-2.11-3.25-2.11c1.86,0,3.25,0,3.25,0s1.39,0,3.25,0
									C289.43,149.48,287.01,151.59,284.33,151.59z"/>
								<g>
									<path class="st31" d="M293.19,130.75c-2.61-0.49-3.75,6.69-3.49,8.3C289.97,140.66,296.14,131.3,293.19,130.75z"/>
									<path class="st31" d="M275.47,130.75c2.61-0.49,3.75,6.69,3.49,8.3C278.68,140.66,272.52,131.3,275.47,130.75z"/>
								</g>
								<path class="st49" d="M287.41,146.26c0.17,1.15,0.09,2.11-0.18,2.15c-0.26,0.04-0.61-0.86-0.78-2.01
									c-0.17-1.15-0.09-2.11,0.18-2.15C286.89,144.2,287.24,145.11,287.41,146.26z"/>
							</g>
							<path class="st46" d="M268.54,137.13c0,0.76-0.62,1.38-1.38,1.38c-0.76,0-1.38-0.62-1.38-1.38c0-0.76,0.62-1.38,1.38-1.38
								C267.93,135.75,268.54,136.37,268.54,137.13z"/>
						</g>
						<linearGradient id="SVGID_23_" gradientUnits="userSpaceOnUse" x1="265.4216" y1="93.6207" x2="265.4216" y2="137.4872">
							<stop  offset="0" style="stop-color:#5B2A8D"/>
							<stop  offset="0.1693" style="stop-color:#4B2786"/>
							<stop  offset="0.4267" style="stop-color:#38247D"/>
							<stop  offset="0.6972" style="stop-color:#2E2379"/>
							<stop  offset="1" style="stop-color:#2A2277"/>
						</linearGradient>
						<path class="st50" d="M261.86,94.17c-2.37,0.65-4.74,1.32-7.16,1.78c-2.48,0.47-5.13,0.49-7.43-0.54
							c0.74,3.62,1.6,7.06,4.87,9.23c3.1,2.06,7.24,2.05,10.75,1.22c3.17-0.75,6.13-2.19,9.03-3.69c2.68-1.38,5.45-2.71,7.8-4.63
							c1.2-0.98,2.3-2.28,3.14-3.57c0.47-0.72,1.34-2.39,0.08-2.86c-0.33-0.12-0.69-0.1-1.04-0.08
							C275.15,91.47,268.39,92.39,261.86,94.17z"/>
					</g>
				</g>
				<line class="st51" x1="234.34" y1="164.38" x2="167.56" y2="164.38"/>
			</g>
			<polygon class="st41" points="428.96,418.18 321.04,418.18 326.8,368.81 423.2,368.81 			"/>
			<rect x="302.11" y="415.51" class="st17" width="145.78" height="9.2"/>
			<circle class="st52" cx="205.58" cy="352.04" r="6.68"/>
			<path class="st8" d="M225.29,352.04c0,0.98-0.8,1.78-1.78,1.78c-0.98,0-1.78-0.8-1.78-1.78s0.8-1.78,1.78-1.78
				C224.49,350.26,225.29,351.06,225.29,352.04z"/>
			<linearGradient id="SVGID_24_" gradientUnits="userSpaceOnUse" x1="531.6716" y1="152.0822" x2="531.6716" y2="190.5215">
				<stop  offset="0" style="stop-color:#56548C"/>
				<stop  offset="1" style="stop-color:#444477"/>
			</linearGradient>
			<path class="st53" d="M540.68,158.5h-17.71v2.55h17.71V158.5z M545.4,152.08h-27.45c-0.7,0-1.27,0.57-1.27,1.27v35.89
				c0,0.7,0.57,1.27,1.27,1.27h18.01c0.01,0,0.02,0,0.03,0c0.08,0,0.17-0.01,0.25-0.03c0.05-0.01,0.09-0.03,0.13-0.05
				c0.04-0.02,0.09-0.03,0.13-0.05c0.05-0.02,0.09-0.05,0.13-0.08c0.04-0.02,0.08-0.04,0.11-0.07c0.08-0.06,0.14-0.13,0.2-0.21
				l9.44-11.92c0.08-0.11,0.14-0.22,0.19-0.35c0.01-0.04,0.02-0.08,0.03-0.12c0.02-0.09,0.04-0.18,0.05-0.27
				c0-0.02,0.01-0.04,0.01-0.06v-23.97C546.67,152.65,546.1,152.08,545.4,152.08z M537.23,185.59v-6.99h5.53L537.23,185.59z
				 M544.12,176.05h-8.17c-0.7,0-1.27,0.57-1.27,1.27v10.65h-15.46v-33.34h24.9V176.05z M537,168.21h-14.03v2.55H537V168.21z
				 M540.68,163.35h-17.71v2.55h17.71V163.35z"/>
			<g>
				<g>
					<linearGradient id="SVGID_25_" gradientUnits="userSpaceOnUse" x1="483.1442" y1="152.7345" x2="483.1442" y2="186.2277">
						<stop  offset="0" style="stop-color:#56548C"/>
						<stop  offset="1" style="stop-color:#444477"/>
					</linearGradient>
					<path class="st54" d="M483.14,186.23c-9.23,0-16.75-7.51-16.75-16.75s7.51-16.75,16.75-16.75s16.75,7.51,16.75,16.75
						S492.38,186.23,483.14,186.23z M483.14,155.73c-7.58,0-13.75,6.17-13.75,13.75c0,7.58,6.17,13.75,13.75,13.75
						s13.75-6.17,13.75-13.75C496.89,161.9,490.72,155.73,483.14,155.73z"/>
				</g>
				<g>
					<linearGradient id="SVGID_26_" gradientUnits="userSpaceOnUse" x1="481.2961" y1="157.3903" x2="481.2961" y2="176.8439">
						<stop  offset="0" style="stop-color:#56548C"/>
						<stop  offset="1" style="stop-color:#444477"/>
					</linearGradient>
					<path class="st55" d="M478.77,176.84c-0.37,0-0.74-0.14-1.03-0.41c-0.6-0.57-0.63-1.52-0.06-2.12l4.65-4.92v-10.5
						c0-0.83,0.67-1.5,1.5-1.5c0.83,0,1.5,0.67,1.5,1.5v11.1c0,0.38-0.15,0.75-0.41,1.03l-5.06,5.35
						C479.56,176.69,479.16,176.84,478.77,176.84z"/>
				</g>
			</g>
			<linearGradient id="SVGID_27_" gradientUnits="userSpaceOnUse" x1="393.6824" y1="238.9393" x2="393.6824" y2="262.8755">
				<stop  offset="0" style="stop-color:#56548C"/>
				<stop  offset="1" style="stop-color:#444477"/>
			</linearGradient>
			<path class="st56" d="M411.71,240.49c0-0.06-0.01-0.11-0.02-0.17c-0.01-0.05-0.01-0.1-0.03-0.15c-0.01-0.05-0.03-0.1-0.05-0.15
				c-0.02-0.05-0.04-0.1-0.06-0.15c-0.02-0.04-0.05-0.09-0.07-0.13c-0.03-0.05-0.06-0.1-0.09-0.15c-0.01-0.02-0.02-0.03-0.03-0.05
				c-0.02-0.02-0.04-0.04-0.06-0.06c-0.04-0.04-0.08-0.08-0.12-0.12c-0.04-0.04-0.08-0.07-0.12-0.1c-0.04-0.03-0.08-0.06-0.13-0.09
				c-0.05-0.03-0.09-0.05-0.14-0.08c-0.05-0.02-0.09-0.04-0.14-0.06c-0.05-0.02-0.1-0.03-0.15-0.05c-0.05-0.01-0.1-0.02-0.15-0.03
				c-0.06-0.01-0.11-0.01-0.17-0.02c-0.03,0-0.06-0.01-0.09-0.01h-32.84c-0.03,0-0.06,0.01-0.09,0.01c-0.06,0-0.11,0.01-0.17,0.02
				c-0.05,0.01-0.1,0.02-0.15,0.03c-0.05,0.01-0.1,0.03-0.15,0.05c-0.05,0.02-0.1,0.04-0.15,0.06c-0.05,0.02-0.09,0.05-0.14,0.07
				c-0.05,0.03-0.09,0.06-0.13,0.09c-0.04,0.03-0.08,0.06-0.12,0.1c-0.04,0.04-0.08,0.08-0.12,0.12c-0.02,0.02-0.04,0.04-0.06,0.06
				c-0.01,0.02-0.02,0.03-0.03,0.05c-0.03,0.05-0.07,0.1-0.09,0.15c-0.02,0.04-0.05,0.08-0.07,0.13c-0.02,0.05-0.04,0.1-0.06,0.15
				c-0.02,0.05-0.03,0.1-0.05,0.15c-0.01,0.05-0.02,0.1-0.03,0.15c-0.01,0.06-0.02,0.11-0.02,0.17c0,0.02-0.01,0.04-0.01,0.06v20.71
				c0,0.89,0.72,1.61,1.61,1.61h32.84c0.89,0,1.61-0.72,1.61-1.61v-20.71C411.72,240.53,411.71,240.51,411.71,240.49z
				 M405.48,242.17l-11.8,9.4l-11.8-9.4H405.48z M408.49,259.65h-29.61v-15.74l13.8,10.99c0.29,0.23,0.65,0.35,1.01,0.35
				c0.36,0,0.71-0.12,1.01-0.35l13.8-10.99V259.65z"/>
			<g>
				<g>
					<g>
						<path class="st2" d="M472.71,216.65l-10.7,59.94l43.95,7.84l10.7-59.94L472.71,216.65z M466.15,274.78
							c-0.57-0.1-0.95-0.65-0.85-1.21c0.1-0.57,0.65-0.95,1.21-0.85c0.57,0.1,0.95,0.65,0.85,1.21
							C467.26,274.51,466.72,274.88,466.15,274.78z M467,269.97c-0.57-0.1-0.95-0.65-0.85-1.21c0.1-0.57,0.65-0.95,1.21-0.85
							c0.57,0.1,0.95,0.65,0.85,1.21C468.12,269.69,467.57,270.07,467,269.97z M467.86,265.16c-0.57-0.1-0.95-0.65-0.85-1.21
							c0.1-0.57,0.65-0.95,1.21-0.85c0.57,0.1,0.95,0.65,0.85,1.21C468.98,264.88,468.43,265.26,467.86,265.16z M468.72,260.34
							c-0.57-0.1-0.95-0.65-0.85-1.21c0.1-0.57,0.65-0.95,1.21-0.85c0.57,0.1,0.95,0.65,0.85,1.21
							C469.84,260.07,469.29,260.45,468.72,260.34z M469.58,255.53c-0.57-0.1-0.95-0.65-0.85-1.21c0.1-0.57,0.65-0.95,1.21-0.85
							c0.57,0.1,0.95,0.65,0.85,1.21C470.69,255.25,470.15,255.63,469.58,255.53z M470.44,250.72c-0.57-0.1-0.95-0.65-0.85-1.21
							c0.1-0.57,0.65-0.95,1.21-0.85c0.57,0.1,0.95,0.65,0.85,1.21C471.55,250.44,471.01,250.82,470.44,250.72z M471.3,245.91
							c-0.57-0.1-0.95-0.65-0.85-1.21c0.1-0.57,0.65-0.95,1.21-0.85c0.57,0.1,0.95,0.65,0.85,1.21
							C472.41,245.63,471.87,246.01,471.3,245.91z M472.16,241.09c-0.57-0.1-0.95-0.65-0.85-1.21c0.1-0.57,0.65-0.95,1.21-0.85
							c0.57,0.1,0.95,0.65,0.85,1.21C473.27,240.82,472.73,241.2,472.16,241.09z M473.02,236.28c-0.57-0.1-0.95-0.65-0.85-1.21
							s0.65-0.95,1.21-0.85c0.57,0.1,0.95,0.65,0.85,1.21C474.13,236,473.59,236.38,473.02,236.28z M473.88,231.47
							c-0.57-0.1-0.95-0.65-0.85-1.21c0.1-0.57,0.65-0.95,1.21-0.85c0.57,0.1,0.95,0.65,0.85,1.21
							C474.99,231.19,474.45,231.57,473.88,231.47z M474.73,226.66c-0.57-0.1-0.95-0.65-0.85-1.21s0.65-0.95,1.21-0.85
							c0.57,0.1,0.95,0.65,0.85,1.21C475.85,226.38,475.3,226.76,474.73,226.66z M475.59,221.84c-0.57-0.1-0.95-0.65-0.85-1.21
							c0.1-0.57,0.65-0.95,1.21-0.85c0.57,0.1,0.95,0.65,0.85,1.21C476.71,221.57,476.16,221.95,475.59,221.84z"/>
						<path class="st2" d="M474.63,215.32l-10.7,59.94l43.95,7.84l10.7-59.94L474.63,215.32z M468.06,273.45
							c-0.57-0.1-0.95-0.65-0.85-1.21c0.1-0.57,0.65-0.95,1.21-0.85c0.57,0.1,0.95,0.65,0.85,1.21
							C469.17,273.17,468.63,273.55,468.06,273.45z M468.92,268.64c-0.57-0.1-0.95-0.65-0.85-1.21c0.1-0.57,0.65-0.95,1.21-0.85
							c0.57,0.1,0.95,0.65,0.85,1.21S469.49,268.74,468.92,268.64z M469.78,263.82c-0.57-0.1-0.95-0.65-0.85-1.21
							c0.1-0.57,0.65-0.95,1.21-0.85s0.95,0.65,0.85,1.21S470.35,263.92,469.78,263.82z M470.64,259.01
							c-0.57-0.1-0.95-0.65-0.85-1.21c0.1-0.57,0.65-0.95,1.21-0.85c0.57,0.1,0.95,0.65,0.85,1.21
							C471.75,258.73,471.21,259.11,470.64,259.01z M471.5,254.2c-0.57-0.1-0.95-0.65-0.85-1.21c0.1-0.57,0.65-0.95,1.21-0.85
							c0.57,0.1,0.95,0.65,0.85,1.21C472.61,253.92,472.07,254.3,471.5,254.2z M472.35,249.38c-0.57-0.1-0.95-0.65-0.85-1.21
							c0.1-0.57,0.65-0.95,1.21-0.85c0.57,0.1,0.95,0.65,0.85,1.21C473.47,249.11,472.92,249.49,472.35,249.38z M473.21,244.57
							c-0.57-0.1-0.95-0.65-0.85-1.21c0.1-0.57,0.65-0.95,1.21-0.85s0.95,0.65,0.85,1.21C474.33,244.29,473.78,244.67,473.21,244.57
							z M474.07,239.76c-0.57-0.1-0.95-0.65-0.85-1.21c0.1-0.57,0.65-0.95,1.21-0.85s0.95,0.65,0.85,1.21
							C475.19,239.48,474.64,239.86,474.07,239.76z M474.93,234.95c-0.57-0.1-0.95-0.65-0.85-1.21c0.1-0.57,0.65-0.95,1.21-0.85
							c0.57,0.1,0.95,0.65,0.85,1.21C476.04,234.67,475.5,235.05,474.93,234.95z M475.79,230.13c-0.57-0.1-0.95-0.65-0.85-1.21
							c0.1-0.57,0.65-0.95,1.21-0.85c0.57,0.1,0.95,0.65,0.85,1.21C476.9,229.86,476.36,230.24,475.79,230.13z M476.65,225.32
							c-0.57-0.1-0.95-0.65-0.85-1.21c0.1-0.57,0.65-0.95,1.21-0.85c0.57,0.1,0.95,0.65,0.85,1.21
							C477.76,225.04,477.22,225.42,476.65,225.32z M477.51,220.51c-0.57-0.1-0.95-0.65-0.85-1.21c0.1-0.57,0.65-0.95,1.21-0.85
							c0.57,0.1,0.95,0.65,0.85,1.21C478.62,220.23,478.08,220.61,477.51,220.51z"/>
						<polyline class="st41" points="481.21,222.42 512.35,227.97 512.51,227.05 481.37,221.5 						"/>
						<polyline class="st41" points="480.13,228.46 511.27,234.01 511.43,233.09 480.29,227.54 						"/>
						<polyline class="st41" points="479.05,234.5 510.19,240.05 510.35,239.13 479.22,233.58 						"/>
						<polyline class="st41" points="477.97,240.54 509.11,246.09 509.28,245.17 478.14,239.62 						"/>
						<polyline class="st41" points="476.9,246.58 508.03,252.13 508.2,251.21 477.06,245.66 						"/>
						<polyline class="st41" points="475.82,252.62 506.96,258.17 507.12,257.25 475.98,251.7 						"/>
						<polyline class="st41" points="474.74,258.66 505.88,264.21 506.04,263.29 474.9,257.74 						"/>
						<polyline class="st41" points="473.66,264.7 494.69,268.45 494.86,267.53 473.83,263.78 						"/>
						<polyline class="st41" points="472.58,270.74 493.61,274.49 493.78,273.57 472.75,269.82 						"/>
						<path class="st57" d="M494.95,224.59l1.57-8.77c0.08-0.43,0.49-0.72,0.92-0.64c0.43,0.08,0.72,0.49,0.64,0.92l-1.53,8.55
							c-0.14,0.77-0.88,1.29-1.65,1.15c-0.77-0.14-1.29-0.88-1.15-1.65l1.55-8.68c0.09-0.53,0.39-0.97,0.8-1.25
							c0.41-0.28,0.92-0.41,1.45-0.32c0.53,0.09,0.97,0.39,1.25,0.8c0.28,0.41,0.41,0.92,0.32,1.45l-0.61,3.44l0.92,0.16l0.61-3.44
							c0.28-1.56-0.76-3.06-2.33-3.34c-1.56-0.28-3.06,0.76-3.34,2.33l-1.55,8.68c-0.23,1.28,0.62,2.5,1.91,2.73
							c1.28,0.23,2.5-0.62,2.73-1.91l1.53-8.55c0.17-0.94-0.46-1.84-1.4-2c-0.94-0.17-1.84,0.46-2,1.4l-1.57,8.77L494.95,224.59
							L494.95,224.59z"/>
					</g>
					<g>
						<g>
							
								<rect x="491.28" y="233.85" transform="matrix(0.9844 0.1757 -0.1757 0.9844 54.6165 -86.4453)" class="st2" width="48.46" height="62.74"/>
						</g>
						<g>
							
								<rect x="493.95" y="231.99" transform="matrix(0.9844 0.1757 -0.1757 0.9844 54.3308 -86.9432)" class="st2" width="48.46" height="62.74"/>
						</g>
						<g>
							<g>
								<linearGradient id="SVGID_28_" gradientUnits="userSpaceOnUse" x1="523.5739" y1="229.9888" x2="523.5739" y2="236.2802">
									<stop  offset="0" style="stop-color:#56548C"/>
									<stop  offset="1" style="stop-color:#444477"/>
								</linearGradient>
								<polygon class="st58" points="527.81,236.28 518.51,234.62 519.34,229.99 528.63,231.65 								"/>
							</g>
							<path class="st2" d="M526.6,226.1l0.68-0.74c0.61-0.67,0.8-1.59,0.51-2.45c-0.29-0.86-1-1.47-1.9-1.63
								c-0.9-0.16-1.77,0.17-2.35,0.87c-0.57,0.71-0.71,1.63-0.37,2.48l0.38,0.93l-3.11,7.56l0.77,0.32l3.24-7.88l-0.51-1.24
								c-0.23-0.56-0.14-1.17,0.24-1.64c0.38-0.47,0.96-0.69,1.56-0.58c0.59,0.11,1.07,0.51,1.26,1.08
								c0.19,0.57,0.07,1.18-0.34,1.63l-0.9,0.99l0.31,8.51l0.83-0.03L526.6,226.1z"/>
						</g>
						<g>
							
								<rect x="518.51" y="234.65" transform="matrix(0.9844 0.1757 -0.1757 0.9844 49.434 -88.2681)" class="st5" width="9.44" height="0.8"/>
						</g>
						<g>
							
								<rect x="521.65" y="222.44" transform="matrix(0.1757 -0.9844 0.9844 0.1757 192.5231 713.0818)" class="st41" width="0.83" height="38.27"/>
						</g>
						<g>
							
								<rect x="520.92" y="226.52" transform="matrix(0.1757 -0.9844 0.9844 0.1757 187.9052 715.7289)" class="st41" width="0.83" height="38.27"/>
						</g>
						<g>
							
								<rect x="520.2" y="230.61" transform="matrix(0.1757 -0.9844 0.9844 0.1757 183.2867 718.3762)" class="st41" width="0.83" height="38.27"/>
						</g>
						<g>
							
								<rect x="519.47" y="234.69" transform="matrix(0.1757 -0.9844 0.9844 0.1757 178.6689 721.0232)" class="st41" width="0.83" height="38.27"/>
						</g>
						<g>
							
								<rect x="518.74" y="238.77" transform="matrix(0.1757 -0.9844 0.9844 0.1757 174.0507 723.6701)" class="st41" width="0.83" height="38.27"/>
						</g>
						<g>
							
								<rect x="518.01" y="242.85" transform="matrix(0.1757 -0.9844 0.9844 0.1757 169.4323 726.3174)" class="st41" width="0.83" height="38.27"/>
						</g>
						<g>
							
								<rect x="517.28" y="246.93" transform="matrix(0.1757 -0.9844 0.9844 0.1757 164.8146 728.9646)" class="st41" width="0.83" height="38.27"/>
						</g>
						<g>
							<g>
								
									<rect x="503.82" y="263.41" transform="matrix(0.1757 -0.9844 0.9844 0.1757 149.8576 718.9426)" class="st41" width="0.83" height="13.14"/>
							</g>
							<g>
								
									<rect x="502.47" y="270.99" transform="matrix(0.1757 -0.9844 0.9844 0.1757 141.2888 723.8551)" class="st41" width="0.83" height="13.14"/>
							</g>
							<g>
								
									<rect x="503.14" y="267.2" transform="matrix(0.1757 -0.9844 0.9844 0.1757 145.5735 721.399)" class="st41" width="0.83" height="13.14"/>
							</g>
							<g>
								
									<rect x="501.12" y="278.56" transform="matrix(0.1757 -0.9844 0.9844 0.1757 132.72 728.7668)" class="st41" width="0.83" height="13.14"/>
							</g>
							<g>
								
									<rect x="501.79" y="274.77" transform="matrix(0.1757 -0.9844 0.9844 0.1757 137.0042 726.311)" class="st41" width="0.83" height="13.14"/>
							</g>
						</g>
						<g>
							<g>
								<g>
									<g>
										
											<rect x="523.11" y="281.72" transform="matrix(0.1757 -0.9844 0.9844 0.1757 157.9888 755.9633)" class="st4" width="14.6" height="3.83"/>
									</g>
									<g>
										
											<rect x="520.85" y="284.09" transform="matrix(0.1757 -0.9844 0.9844 0.1757 151.0831 752.4412)" class="st8" width="7.99" height="3.83"/>
									</g>
									<g>
										
											<rect x="514.58" y="281.65" transform="matrix(0.1757 -0.9844 0.9844 0.1757 149.6019 745.8043)" class="st7" width="11.13" height="3.83"/>
									</g>
									<g>
										
											<rect x="512.21" y="283.88" transform="matrix(0.1757 -0.9844 0.9844 0.1757 142.8529 742.1902)" class="st5" width="4.81" height="3.83"/>
									</g>
								</g>
							</g>
							<g>
								<polygon class="st59" points="532.28,293.24 510.22,289.3 513.77,269.4 514.59,269.55 511.18,288.63 532.43,292.42 								
									"/>
							</g>
						</g>
					</g>
				</g>
			</g>
			<g>
				<linearGradient id="SVGID_29_" gradientUnits="userSpaceOnUse" x1="357.2911" y1="87.1933" x2="357.2911" y2="141.2612">
					<stop  offset="0" style="stop-color:#EFCF64"/>
					<stop  offset="1" style="stop-color:#F8985E"/>
				</linearGradient>
				<path class="st60" d="M324.07,93.84v26.58c0,3.66,2.98,6.65,6.64,6.65h8.94v14.2l15.94-14.2h28.28c3.66,0,6.65-2.98,6.65-6.65
					V93.84c0-3.66-2.98-6.65-6.65-6.65h-53.16C327.05,87.19,324.07,90.18,324.07,93.84z"/>
				<g>
					<rect x="332" y="95.01" class="st61" width="50.59" height="2.1"/>
					<rect x="332" y="100.56" class="st61" width="50.59" height="2.1"/>
					<rect x="332" y="106.11" class="st61" width="50.59" height="2.1"/>
					<rect x="332" y="111.66" class="st61" width="50.59" height="2.1"/>
					<rect x="332" y="117.21" class="st61" width="37.98" height="2.1"/>
				</g>
			</g>
			<g>
				<g>
					<line class="st62" x1="442.29" y1="133.42" x2="442.29" y2="131.92"/>
					<line class="st63" x1="442.29" y1="129.92" x2="442.29" y2="126.93"/>
					<polyline class="st62" points="442.29,125.93 442.29,124.43 443.79,124.43 					"/>
					<line class="st64" x1="446.77" y1="124.43" x2="528.68" y2="124.43"/>
					<polyline class="st62" points="530.17,124.43 531.67,124.43 531.67,125.93 					"/>
					<line class="st65" x1="531.67" y1="128.78" x2="531.67" y2="144.49"/>
					<line class="st62" x1="531.67" y1="145.92" x2="531.67" y2="147.42"/>
					<g>
						<circle class="st66" cx="442.29" cy="133.33" r="1.88"/>
					</g>
					<g>
						<path class="st66" d="M529.79,147.32c0,1.04,0.84,1.88,1.88,1.88c1.04,0,1.88-0.84,1.88-1.88c0-1.04-0.84-1.88-1.88-1.88
							C530.63,145.44,529.79,146.29,529.79,147.32z"/>
					</g>
				</g>
			</g>
			<g>
				<g>
					<line class="st62" x1="430.73" y1="182.72" x2="430.73" y2="184.22"/>
					<line class="st67" x1="430.73" y1="187.24" x2="430.73" y2="246.2"/>
					<polyline class="st62" points="430.73,247.71 430.73,249.21 429.23,249.21 					"/>
					<line class="st68" x1="425.96" y1="249.21" x2="421.06" y2="249.21"/>
					<line class="st62" x1="419.42" y1="249.21" x2="417.92" y2="249.21"/>
					<g>
						<path class="st66" d="M428.85,182.81c0-1.04,0.84-1.88,1.88-1.88c1.04,0,1.88,0.84,1.88,1.88s-0.84,1.88-1.88,1.88
							C429.69,184.69,428.85,183.85,428.85,182.81z"/>
					</g>
					<g>
						<path class="st66" d="M418.02,247.33c-1.04,0-1.88,0.84-1.88,1.88s0.84,1.88,1.88,1.88c1.04,0,1.88-0.84,1.88-1.88
							S419.06,247.33,418.02,247.33z"/>
					</g>
				</g>
			</g>
			<g>
				<g>
					<line class="st62" x1="430.73" y1="201.07" x2="432.23" y2="201.07"/>
					<line class="st69" x1="435.14" y1="201.07" x2="509.35" y2="201.07"/>
					<polyline class="st62" points="510.8,201.07 512.3,201.07 512.3,202.57 					"/>
					<line class="st70" x1="512.3" y1="205.11" x2="512.3" y2="214.01"/>
					<line class="st62" x1="512.3" y1="215.29" x2="512.3" y2="216.79"/>
					<g>
						<path class="st66" d="M510.42,216.69c0,1.04,0.84,1.88,1.88,1.88c1.04,0,1.88-0.84,1.88-1.88c0-1.04-0.84-1.88-1.88-1.88
							C511.26,214.81,510.42,215.65,510.42,216.69z"/>
					</g>
				</g>
			</g>
			<g>
				<g>
					<line class="st62" x1="485.33" y1="124.43" x2="485.33" y2="125.93"/>
					<line class="st65" x1="485.33" y1="128.78" x2="485.33" y2="144.49"/>
					<line class="st62" x1="485.33" y1="145.92" x2="485.33" y2="147.42"/>
					<g>
						<path class="st66" d="M483.45,147.32c0,1.04,0.84,1.88,1.88,1.88c1.04,0,1.88-0.84,1.88-1.88c0-1.04-0.84-1.88-1.88-1.88
							C484.29,145.44,483.45,146.29,483.45,147.32z"/>
					</g>
				</g>
			</g>
			<linearGradient id="SVGID_30_" gradientUnits="userSpaceOnUse" x1="432.1379" y1="138.7652" x2="432.1379" y2="170.4937">
				<stop  offset="0" style="stop-color:#56548C"/>
				<stop  offset="1" style="stop-color:#444477"/>
			</linearGradient>
			<path class="st71" d="M447,160.58c0,1.76-0.77,3.34-1.99,4.43c0.17,0.02,0.33,0.03,0.51,0.03c2.46,0,4.46-2,4.46-4.46
				c0-2.46-2-4.46-4.46-4.46c-0.17,0-0.34,0.01-0.51,0.03C446.23,157.24,447,158.82,447,160.58z M441.06,165.03
				c2.46,0,4.46-2,4.46-4.46c0-2.46-2-4.46-4.46-4.46c-2.46,0-4.46,2-4.46,4.46C436.6,163.04,438.59,165.03,441.06,165.03z
				 M452.95,138.77h-41.62c-2.19,0-3.97,1.78-3.97,3.97v23.78c0,2.19,1.78,3.97,3.97,3.97h41.62c2.19,0,3.97-1.78,3.97-3.97v-23.78
				C456.92,140.55,455.14,138.77,452.95,138.77z M454.92,166.52c0,1.09-0.88,1.97-1.97,1.97h-41.62c-1.09,0-1.97-0.89-1.97-1.97
				v-14.86h45.57V166.52z M454.92,145.71h-45.57v-2.97c0-1.09,0.89-1.97,1.97-1.97h41.62c1.09,0,1.97,0.89,1.97,1.97V145.71z
				 M432.14,162.06H414.3v2.97h17.84V162.06z"/>
		</g>
		<g>
			<g>
				<linearGradient id="SVGID_31_" gradientUnits="userSpaceOnUse" x1="569.0489" y1="402.5172" x2="569.0489" y2="422.9445">
					<stop  offset="0" style="stop-color:#56548C"/>
					<stop  offset="1" style="stop-color:#2A2277"/>
				</linearGradient>
				<path class="st72" d="M637.29,400.87H488.89v2.19h8.22v19.46h-8.22v2.19h148.39c6.58,0,11.92-5.34,11.92-11.92v0
					C649.2,406.21,643.87,400.87,637.29,400.87z"/>
				<g>
					<path class="st73" d="M562.64,403.06c5.36,0,9.73,4.36,9.73,9.73c0,5.36-4.36,9.73-9.73,9.73h-68.96
						c2.8-6.49,2.8-12.97,0-19.46H562.64z"/>
					<path class="st2" d="M494.92,418.99h75.21l0,0c0.19-0.22,0.36-0.46,0.52-0.7c0,0,0-0.01,0.01-0.01H495.1
						C495.04,418.52,494.98,418.76,494.92,418.99z M495.77,413.14h76.59c0-0.12,0.02-0.23,0.02-0.35s-0.01-0.23-0.02-0.35h-76.59
						C495.77,412.67,495.77,412.91,495.77,413.14z M495.53,416.07h76.26c0.08-0.23,0.16-0.47,0.22-0.7l0,0h-76.39
						C495.6,415.6,495.56,415.83,495.53,416.07z M570.66,407.3c-0.17-0.24-0.34-0.48-0.53-0.7h-75.21c0.06,0.23,0.12,0.47,0.18,0.7
						H570.66z M495.63,410.22h76.39l0,0c-0.07-0.24-0.14-0.47-0.22-0.7h-76.26C495.56,409.75,495.6,409.98,495.63,410.22z"/>
				</g>
			</g>
			<g>
				<linearGradient id="SVGID_32_" gradientUnits="userSpaceOnUse" x1="509.6803" y1="398.6835" x2="509.6803" y2="400.8732">
					<stop  offset="0" style="stop-color:#DF697B"/>
					<stop  offset="1" style="stop-color:#BE2773"/>
				</linearGradient>
				<polygon class="st74" points="504.77,398.68 514.59,398.68 514.59,400.87 504.77,400.87 				"/>
				<path class="st75" d="M512.99,377.04h140.17c6.58,0,11.92,5.34,11.92,11.92v0c0,6.58-5.34,11.92-11.92,11.92H512.99V377.04z"/>
				<linearGradient id="SVGID_33_" gradientUnits="userSpaceOnUse" x1="563.9279" y1="377.0363" x2="563.9279" y2="400.8732">
					<stop  offset="0" style="stop-color:#DF697B"/>
					<stop  offset="1" style="stop-color:#BE2773"/>
				</linearGradient>
				<path class="st76" d="M614.86,388.95L614.86,388.95c0-6.58-5.34-11.92-11.92-11.92h-89.95v23.84h89.95
					C609.53,400.87,614.86,395.54,614.86,388.95z"/>
				<path class="st73" d="M578.52,379.23c5.36,0,9.73,4.36,9.73,9.73c0,5.36-4.36,9.73-9.73,9.73h-68.96c2.8-6.49,2.8-12.97,0-19.46
					H578.52z"/>
				<path class="st2" d="M510.8,395.15h75.21v0c0.19-0.22,0.36-0.46,0.52-0.7c0,0,0-0.01,0.01-0.01h-75.56
					C510.92,394.69,510.86,394.92,510.8,395.15z M511.65,389.31h76.59c0-0.12,0.02-0.23,0.02-0.35c0-0.12-0.01-0.23-0.02-0.35
					h-76.59C511.65,388.84,511.65,389.07,511.65,389.31z M511.41,392.23h76.26c0.08-0.23,0.16-0.47,0.22-0.7l0,0H511.5
					C511.48,391.76,511.44,392,511.41,392.23z M586.54,383.46c-0.17-0.24-0.34-0.48-0.53-0.7H510.8c0.06,0.23,0.12,0.47,0.18,0.7
					H586.54z M511.5,386.38h76.39l0,0c-0.07-0.24-0.14-0.47-0.22-0.7h-76.26C511.44,385.91,511.48,386.15,511.5,386.38z"/>
				<linearGradient id="SVGID_34_" gradientUnits="userSpaceOnUse" x1="509.6803" y1="377.0363" x2="509.6803" y2="379.226">
					<stop  offset="0" style="stop-color:#DF697B"/>
					<stop  offset="1" style="stop-color:#BE2773"/>
				</linearGradient>
				<polygon class="st77" points="504.77,377.04 514.59,377.04 514.59,379.23 504.77,379.23 				"/>
			</g>
			<g>
				<linearGradient id="SVGID_35_" gradientUnits="userSpaceOnUse" x1="499.8279" y1="355.9655" x2="499.8279" y2="387.6336">
					<stop  offset="0" style="stop-color:#EFCF64"/>
					<stop  offset="1" style="stop-color:#FF7159"/>
				</linearGradient>
				<polygon class="st78" points="494.92,374.85 504.74,374.85 504.74,377.04 494.92,377.04 				"/>
				<linearGradient id="SVGID_36_" gradientUnits="userSpaceOnUse" x1="579.1859" y1="355.9655" x2="579.1859" y2="387.6336">
					<stop  offset="0" style="stop-color:#EFCF64"/>
					<stop  offset="1" style="stop-color:#FF7159"/>
				</linearGradient>
				<path class="st79" d="M503.14,353.2h140.17c6.58,0,11.92,5.34,11.92,11.92v0c0,6.58-5.34,11.92-11.92,11.92H503.14V353.2z"/>
				<path class="st73" d="M568.67,355.39c5.36,0,9.73,4.36,9.73,9.73c0,5.36-4.36,9.73-9.73,9.73H499.7c2.8-6.49,2.8-12.97,0-19.46
					H568.67z"/>
				<path class="st2" d="M500.95,371.32h75.21c0,0,0,0,0,0c0.19-0.22,0.36-0.46,0.52-0.7c0,0,0-0.01,0.01-0.01h-75.56
					C501.07,370.85,501.01,371.08,500.95,371.32z M501.79,365.47h76.59c0-0.12,0.02-0.23,0.02-0.35c0-0.12-0.01-0.23-0.02-0.35
					h-76.59C501.8,365,501.8,365.24,501.79,365.47z M501.56,368.39h76.26c0.08-0.23,0.16-0.47,0.22-0.7l0,0h-76.39
					C501.63,367.92,501.59,368.16,501.56,368.39z M576.69,359.62c-0.17-0.24-0.34-0.48-0.53-0.7h-75.21
					c0.06,0.23,0.12,0.47,0.18,0.7H576.69z M501.65,362.55h76.39l0,0c-0.07-0.24-0.14-0.47-0.22-0.7h-76.26
					C501.59,362.08,501.63,362.31,501.65,362.55z"/>
				<linearGradient id="SVGID_37_" gradientUnits="userSpaceOnUse" x1="499.8279" y1="355.9655" x2="499.8279" y2="387.6336">
					<stop  offset="0" style="stop-color:#EFCF64"/>
					<stop  offset="1" style="stop-color:#FF7159"/>
				</linearGradient>
				<polygon class="st80" points="494.92,353.2 504.74,353.2 504.74,355.39 494.92,355.39 				"/>
			</g>
			<rect x="591.31" y="361.84" class="st2" width="14.34" height="6.55"/>
			<rect x="609.24" y="361.84" class="st2" width="39.96" height="6.55"/>
		</g>
		<rect x="187.91" y="301.05" class="st2" width="374.18" height="17.52"/>
		<rect x="220.57" y="307.73" class="st41" width="335.17" height="4.15"/>
		<linearGradient id="SVGID_38_" gradientUnits="userSpaceOnUse" x1="220.5707" y1="309.8078" x2="371.0289" y2="309.8078">
			<stop  offset="0" style="stop-color:#DF697B"/>
			<stop  offset="1" style="stop-color:#BE2773"/>
		</linearGradient>
		<rect x="220.57" y="307.73" class="st81" width="150.46" height="4.15"/>
		<polygon class="st82" points="207.25,309.81 197.13,303.97 197.13,315.65 		"/>
		<linearGradient id="SVGID_39_" gradientUnits="userSpaceOnUse" x1="365.6845" y1="309.8077" x2="376.3732" y2="309.8077">
			<stop  offset="0" style="stop-color:#DF697B"/>
			<stop  offset="1" style="stop-color:#BE2773"/>
		</linearGradient>
		<path class="st83" d="M376.37,309.81c0,2.95-2.39,5.34-5.34,5.34s-5.34-2.39-5.34-5.34s2.39-5.34,5.34-5.34
			S376.37,306.86,376.37,309.81z"/>
		<g>
			<g>
				<g>
					<path class="st2" d="M535.04,421.55c-4.27-21.61-13.34-31.38-13.34-31.38c-44.87-7.49-76.92,24.3-76.92,24.3l-0.81,9.36
						l10.32,0.89l0.81-9.44L535.04,421.55z"/>
					<path class="st41" d="M445.06,414.76c0,0,0.03-0.03,0.08-0.08c0.85-0.82,8.36-7.93,20.65-14.39
						c12.29-6.46,29.34-12.28,49.29-10.56c2.16,0.19,4.35,0.46,6.57,0.83c0.22,0.04,0.42-0.11,0.45-0.32
						c0.04-0.22-0.11-0.42-0.32-0.45c-2.24-0.37-4.45-0.65-6.63-0.84c-20.79-1.79-38.45,4.52-50.9,11.28
						c-12.46,6.76-19.72,13.96-19.73,13.97c-0.15,0.15-0.16,0.4,0,0.56C444.65,414.91,444.9,414.91,445.06,414.76L445.06,414.76z"/>
					<path class="st41" d="M445.01,414.8c0,0,0.03-0.02,0.1-0.07c1.05-0.72,10.24-6.91,23.72-12.51
						c13.48-5.61,31.26-10.63,49.47-9.05c1.95,0.17,3.9,0.41,5.86,0.74c0.22,0.04,0.42-0.11,0.45-0.32
						c0.04-0.22-0.11-0.42-0.32-0.45c-1.98-0.33-3.95-0.58-5.92-0.75c-19-1.64-37.44,3.81-51.14,9.66
						c-13.7,5.85-22.66,12.1-22.67,12.11c-0.18,0.12-0.22,0.37-0.1,0.55C444.58,414.88,444.83,414.93,445.01,414.8L445.01,414.8z"/>
					<path class="st41" d="M444.96,414.83c0,0,0.16-0.08,0.48-0.23c2.37-1.14,13.33-6.28,27.69-10.78
						c14.35-4.5,32.1-8.36,48.03-6.99c1.75,0.15,3.49,0.37,5.19,0.65c0.22,0.04,0.42-0.11,0.45-0.32c0.04-0.22-0.11-0.42-0.32-0.45
						c-1.73-0.29-3.48-0.51-5.25-0.66c-17.17-1.48-36.31,3.05-51.17,7.93c-14.86,4.89-25.43,10.14-25.44,10.15
						c-0.2,0.1-0.27,0.33-0.18,0.53C444.52,414.85,444.76,414.93,444.96,414.83L444.96,414.83z"/>
					<path class="st41" d="M444.91,414.85c0,0,0.19-0.07,0.55-0.19c2.71-0.93,15.15-5.09,30.47-8.72
						c15.32-3.63,33.53-6.7,47.73-5.47c1.56,0.13,3.07,0.32,4.52,0.56c0.22,0.04,0.42-0.11,0.45-0.32c0.04-0.22-0.11-0.42-0.32-0.45
						c-1.47-0.25-3-0.43-4.58-0.57c-15.32-1.32-35.07,2.29-51.02,6.23c-15.94,3.93-28.06,8.2-28.07,8.2
						c-0.21,0.07-0.31,0.3-0.24,0.5C444.48,414.81,444.71,414.92,444.91,414.85L444.91,414.85z"/>
					<path class="st41" d="M444.87,414.86c0,0,0.21-0.05,0.62-0.15c3.03-0.72,16.89-3.97,33.11-6.77
						c16.22-2.8,34.82-5.14,47.28-4.06c1.34,0.12,2.62,0.27,3.81,0.47c0.21,0.04,0.42-0.11,0.45-0.32c0.04-0.22-0.11-0.42-0.32-0.45
						c-1.21-0.2-2.51-0.36-3.87-0.48c-6.73-0.58-15.16-0.18-24.03,0.74c-26.62,2.77-57.22,10.25-57.23,10.25
						c-0.21,0.05-0.34,0.27-0.29,0.48C444.45,414.78,444.66,414.91,444.87,414.86L444.87,414.86z"/>
					<path class="st41" d="M444.84,414.87c0,0,0.23-0.03,0.68-0.1c3.35-0.49,18.59-2.67,35.69-4.49c8.55-0.91,17.56-1.74,25.79-2.21
						c8.22-0.48,15.65-0.61,21.02-0.15c1.18,0.1,2.25,0.23,3.22,0.39c0.21,0.04,0.42-0.11,0.45-0.32c0.04-0.22-0.11-0.42-0.32-0.45
						c-0.99-0.17-2.09-0.3-3.28-0.4c-5.8-0.5-13.9-0.31-22.79,0.25c-26.69,1.68-60.56,6.71-60.57,6.71
						c-0.22,0.03-0.36,0.23-0.33,0.45C444.42,414.75,444.62,414.9,444.84,414.87L444.84,414.87z"/>
					<path class="st41" d="M444.81,414.87c0,0,0.26-0.02,0.74-0.06c3.65-0.28,20.24-1.54,38.16-2.53c8.96-0.5,18.26-0.92,26.43-1.13
						c8.18-0.21,15.24-0.19,19.71,0.19c0.96,0.08,1.8,0.18,2.5,0.3c0.21,0.04,0.42-0.11,0.45-0.32c0.04-0.22-0.11-0.42-0.32-0.45
						c-0.73-0.12-1.59-0.22-2.56-0.31c-4.84-0.42-12.56-0.4-21.45-0.15c-26.66,0.76-63.72,3.68-63.73,3.68
						c-0.22,0.02-0.38,0.21-0.36,0.42C444.4,414.73,444.59,414.89,444.81,414.87L444.81,414.87z"/>
					<path class="st41" d="M444.79,414.87c0,0,0.28-0.01,0.81-0.01c3.96-0.07,21.88-0.39,40.61-0.53c9.36-0.07,18.92-0.1,27.04-0.03
						c8.11,0.07,14.78,0.23,18.34,0.54c0.73,0.06,1.33,0.13,1.78,0.21c0.22,0.04,0.42-0.11,0.45-0.32c0.04-0.21-0.11-0.42-0.32-0.45
						c-0.48-0.08-1.09-0.15-1.84-0.22c-3.85-0.33-11.18-0.49-20.04-0.55c-26.58-0.17-66.83,0.59-66.83,0.59
						c-0.22,0-0.39,0.18-0.39,0.4C444.39,414.7,444.57,414.88,444.79,414.87L444.79,414.87z"/>
					<path class="st41" d="M444.77,414.87c0,0,0.3,0.01,0.87,0.03c4.27,0.14,23.58,0.8,43.12,1.53c9.77,0.36,19.59,0.75,27.62,1.1
						c8.02,0.35,14.26,0.66,16.83,0.88c0.49,0.04,0.85,0.08,1.04,0.11c0.21,0.04,0.42-0.11,0.45-0.32c0.04-0.22-0.11-0.42-0.32-0.45
						c-0.24-0.04-0.6-0.08-1.1-0.12c-2.78-0.24-9.68-0.58-18.49-0.96c-26.43-1.13-69.98-2.58-69.98-2.58
						c-0.22-0.01-0.4,0.16-0.41,0.38C444.38,414.68,444.55,414.86,444.77,414.87L444.77,414.87z"/>
					<path class="st41" d="M444.76,414.87c15.16,0.64,33.71,2.06,53.6,3.77c11.88,1.03,24.24,2.16,36.64,3.3
						c0.22,0.02,0.41-0.14,0.43-0.36c0.02-0.22-0.14-0.41-0.36-0.43c-12.4-1.14-24.76-2.28-36.65-3.3
						c-19.9-1.72-38.45-3.13-53.63-3.78c-0.22-0.01-0.4,0.16-0.41,0.38C444.38,414.68,444.55,414.86,444.76,414.87L444.76,414.87z"
						/>
				</g>
				<rect x="435.81" y="413.65" class="st41" width="21.21" height="10.58"/>
				<g>
					<path class="st2" d="M357.29,421.55c4.27-21.61,13.34-31.38,13.34-31.38c44.87-7.49,76.92,24.3,76.92,24.3l0.81,9.36
						l-10.32,0.89l-0.81-9.44L357.29,421.55z"/>
					<path class="st41" d="M447.28,414.76c0,0-0.03-0.03-0.08-0.08c-0.85-0.82-8.36-7.93-20.65-14.39
						c-12.29-6.46-29.34-12.28-49.29-10.56c-2.16,0.19-4.35,0.46-6.57,0.83c-0.21,0.04-0.42-0.11-0.45-0.32
						c-0.04-0.22,0.11-0.42,0.32-0.45c2.24-0.37,4.45-0.65,6.63-0.84c20.79-1.79,38.45,4.52,50.9,11.28
						c12.46,6.76,19.72,13.96,19.73,13.97c0.15,0.15,0.16,0.4,0,0.56C447.68,414.91,447.43,414.91,447.28,414.76L447.28,414.76z"/>
					<path class="st41" d="M447.33,414.8c0,0-0.03-0.02-0.1-0.07c-1.05-0.72-10.24-6.91-23.72-12.51
						c-13.48-5.61-31.26-10.63-49.47-9.05c-1.95,0.17-3.9,0.41-5.86,0.74c-0.22,0.04-0.42-0.11-0.45-0.32
						c-0.04-0.22,0.11-0.42,0.32-0.45c1.98-0.33,3.95-0.58,5.92-0.75c19-1.64,37.44,3.81,51.14,9.66
						c13.7,5.85,22.66,12.1,22.67,12.11c0.18,0.12,0.22,0.37,0.1,0.55C447.75,414.88,447.51,414.93,447.33,414.8L447.33,414.8z"/>
					<path class="st41" d="M447.38,414.83c0,0-0.16-0.08-0.48-0.23c-2.37-1.14-13.33-6.28-27.69-10.78
						c-14.35-4.5-32.1-8.36-48.03-6.99c-1.75,0.15-3.49,0.37-5.19,0.65c-0.22,0.04-0.42-0.11-0.45-0.32
						c-0.04-0.22,0.11-0.42,0.32-0.45c1.73-0.29,3.48-0.51,5.25-0.66c17.17-1.48,36.31,3.05,51.17,7.93
						c14.86,4.89,25.43,10.14,25.44,10.15c0.2,0.1,0.27,0.33,0.18,0.53C447.81,414.85,447.57,414.93,447.38,414.83L447.38,414.83z"
						/>
					<path class="st41" d="M447.42,414.85c0,0-0.19-0.07-0.55-0.19c-2.71-0.93-15.15-5.09-30.47-8.72
						c-15.32-3.63-33.53-6.7-47.73-5.47c-1.56,0.13-3.07,0.32-4.52,0.56c-0.22,0.04-0.42-0.11-0.45-0.32
						c-0.04-0.22,0.11-0.42,0.32-0.45c1.47-0.25,3-0.43,4.58-0.57c15.32-1.32,35.07,2.29,51.02,6.23c15.94,3.93,28.06,8.2,28.07,8.2
						c0.21,0.07,0.31,0.3,0.24,0.5C447.85,414.81,447.63,414.92,447.42,414.85L447.42,414.85z"/>
					<path class="st41" d="M447.46,414.86c0,0-0.21-0.05-0.62-0.15c-3.03-0.72-16.89-3.97-33.11-6.77
						c-16.22-2.8-34.82-5.14-47.28-4.06c-1.34,0.12-2.62,0.27-3.81,0.47c-0.22,0.04-0.42-0.11-0.45-0.32
						c-0.04-0.22,0.11-0.42,0.32-0.45c1.21-0.2,2.51-0.36,3.87-0.48c6.73-0.58,15.16-0.18,24.03,0.74
						c26.62,2.77,57.22,10.25,57.23,10.25c0.21,0.05,0.34,0.27,0.29,0.48C447.89,414.78,447.67,414.91,447.46,414.86L447.46,414.86z
						"/>
					<path class="st41" d="M447.5,414.87c0,0-0.23-0.03-0.68-0.1c-3.35-0.49-18.59-2.67-35.69-4.49
						c-8.55-0.91-17.56-1.74-25.79-2.21c-8.22-0.48-15.65-0.61-21.02-0.15c-1.18,0.1-2.25,0.23-3.22,0.39
						c-0.22,0.04-0.42-0.11-0.45-0.32c-0.04-0.22,0.11-0.42,0.32-0.45c0.99-0.17,2.09-0.3,3.28-0.4c5.8-0.5,13.9-0.31,22.79,0.25
						c26.69,1.68,60.56,6.71,60.57,6.71c0.22,0.03,0.36,0.23,0.33,0.45C447.91,414.75,447.71,414.9,447.5,414.87L447.5,414.87z"/>
					<path class="st41" d="M447.52,414.87c0,0-0.26-0.02-0.74-0.06c-3.65-0.28-20.24-1.54-38.16-2.53
						c-8.96-0.5-18.26-0.92-26.43-1.13c-8.18-0.21-15.24-0.19-19.71,0.19c-0.96,0.08-1.8,0.18-2.5,0.3
						c-0.22,0.04-0.42-0.11-0.45-0.32c-0.04-0.22,0.11-0.42,0.32-0.45c0.73-0.12,1.59-0.22,2.56-0.31
						c4.84-0.42,12.56-0.4,21.45-0.15c26.66,0.76,63.72,3.68,63.73,3.68c0.22,0.02,0.38,0.21,0.36,0.42
						C447.93,414.73,447.74,414.89,447.52,414.87L447.52,414.87z"/>
					<path class="st41" d="M447.55,414.87c0,0-0.28-0.01-0.81-0.01c-3.96-0.07-21.88-0.39-40.61-0.53
						c-9.36-0.07-18.92-0.1-27.04-0.03c-8.11,0.07-14.78,0.23-18.34,0.54c-0.73,0.06-1.33,0.13-1.78,0.21
						c-0.21,0.04-0.42-0.11-0.45-0.32c-0.04-0.21,0.11-0.42,0.32-0.45c0.48-0.08,1.09-0.15,1.84-0.22
						c3.85-0.33,11.18-0.49,20.04-0.55c26.58-0.17,66.83,0.59,66.83,0.59c0.22,0,0.39,0.18,0.39,0.4
						C447.94,414.7,447.76,414.88,447.55,414.87L447.55,414.87z"/>
					<path class="st41" d="M447.57,414.87c0,0-0.3,0.01-0.87,0.03c-4.27,0.14-23.58,0.8-43.12,1.53c-9.77,0.36-19.59,0.75-27.62,1.1
						c-8.02,0.35-14.26,0.66-16.83,0.88c-0.49,0.04-0.85,0.08-1.04,0.11c-0.21,0.04-0.42-0.11-0.45-0.32
						c-0.04-0.22,0.11-0.42,0.32-0.45c0.24-0.04,0.6-0.08,1.1-0.12c2.78-0.24,9.68-0.58,18.49-0.96
						c26.43-1.13,69.98-2.58,69.98-2.58c0.22-0.01,0.4,0.16,0.41,0.38C447.96,414.68,447.79,414.86,447.57,414.87L447.57,414.87z"/>
					<path class="st41" d="M447.57,414.87c-15.16,0.64-33.71,2.06-53.6,3.77c-11.88,1.03-24.24,2.16-36.64,3.3
						c-0.22,0.02-0.41-0.14-0.43-0.36c-0.02-0.22,0.14-0.41,0.36-0.43c12.4-1.14,24.76-2.28,36.65-3.3
						c19.9-1.72,38.45-3.13,53.63-3.78c0.22-0.01,0.4,0.16,0.41,0.38C447.96,414.68,447.79,414.86,447.57,414.87L447.57,414.87z"/>
				</g>
				<rect x="435.32" y="413.65" class="st41" width="21.21" height="10.58"/>
			</g>
			<linearGradient id="SVGID_40_" gradientUnits="userSpaceOnUse" x1="355.8588" y1="420.2578" x2="536.4758" y2="420.2578">
				<stop  offset="0" style="stop-color:#DF697B"/>
				<stop  offset="1" style="stop-color:#BE2773"/>
			</linearGradient>
			<path class="st84" d="M533.27,421.89l-75.22-8.87c-1.79,0-3.24,1.45-3.24,3.24c0,3.79-3.88,6.88-8.65,6.88
				c-4.77,0-8.65-3.08-8.65-6.88c0-1.79-1.45-3.24-3.24-3.24l-75.22,8.87c-1.79,0-3.21,1.02-3.21,2.81c0,1.79,1.42,2.81,3.21,2.81
				l72.44-8.87c1.65,5.8,7.58,8.87,14.66,8.87s13.01-3.07,14.66-8.87l72.44,8.87c1.79,0,3.21-1.02,3.21-2.81
				C536.48,422.9,535.06,421.89,533.27,421.89z"/>
		</g>
		<g>
			<path class="st85" d="M287.12,417.98c0-2.54-2.04-4.59-4.59-4.59h-4.49l-11.47-0.01h-79.3l-10.87,3.81v3.48l10.87,3.81h79.3
				h11.48h4.49c2.51,0,4.57-2.06,4.59-4.59L287.12,417.98z"/>
			<linearGradient id="SVGID_41_" gradientUnits="userSpaceOnUse" x1="282.5877" y1="413.3973" x2="282.5877" y2="424.49">
				<stop  offset="0" style="stop-color:#DF697B"/>
				<stop  offset="1" style="stop-color:#BE2773"/>
			</linearGradient>
			<path class="st86" d="M282.53,413.4c2.54,0,4.59,2.04,4.59,4.59l0.01,1.92c-0.01,2.53-2.07,4.59-4.59,4.59h-4.49l-0.01-1.64
				v-2.65v-2.65l0.01-2.64l-0.01-1.51H282.53z"/>
			<polygon class="st7" points="266.58,413.38 278.04,413.4 278.06,414.9 266.58,414.9 			"/>
			<polygon class="st7" points="278.04,417.54 278.04,420.19 266.59,420.19 266.58,418.94 266.58,417.56 			"/>
			<polygon class="st7" points="278.04,422.85 278.06,424.49 266.58,424.49 266.59,422.85 			"/>
			<rect x="266.59" y="420.19" class="st87" width="11.45" height="2.65"/>
			<polygon class="st87" points="278.06,414.9 278.04,417.54 266.58,417.56 266.58,414.9 			"/>
			<linearGradient id="SVGID_42_" gradientUnits="userSpaceOnUse" x1="226.9259" y1="413.3836" x2="226.9259" y2="418.9368">
				<stop  offset="0" style="stop-color:#56548C"/>
				<stop  offset="1" style="stop-color:#444477"/>
			</linearGradient>
			<polygon class="st88" points="266.58,413.38 266.58,414.9 266.58,417.56 266.58,418.94 187.27,418.94 187.27,413.38 			"/>
			<polygon class="st89" points="266.58,418.94 266.59,420.19 266.59,422.85 266.58,424.49 187.27,424.49 187.27,418.94 			"/>
			<linearGradient id="SVGID_43_" gradientUnits="userSpaceOnUse" x1="173.9951" y1="417.1962" x2="173.9951" y2="420.6774">
				<stop  offset="0" style="stop-color:#56548C"/>
				<stop  offset="1" style="stop-color:#444477"/>
			</linearGradient>
			<polygon class="st90" points="171.59,418.94 176.4,417.2 176.4,420.68 			"/>
			<polygon class="st32" points="187.27,413.38 187.27,418.94 187.27,424.49 176.4,420.68 176.4,417.2 			"/>
		</g>
		<g>
			<g>
				<linearGradient id="SVGID_44_" gradientUnits="userSpaceOnUse" x1="596.83" y1="303.1411" x2="616.1528" y2="303.1411">
					<stop  offset="0" style="stop-color:#7680DD"/>
					<stop  offset="1" style="stop-color:#4339B1"/>
				</linearGradient>
				<path class="st91" d="M614.93,270.97L614.93,270.97L614.93,270.97c-13.65,15.41-21.21,44.21-16.88,64.34l0,0h0
					C611.7,319.9,619.26,291.1,614.93,270.97z"/>
			</g>
			<g>
				<linearGradient id="SVGID_45_" gradientUnits="userSpaceOnUse" x1="588.6081" y1="302.0569" x2="609.9504" y2="302.0569">
					<stop  offset="0" style="stop-color:#7680DD"/>
					<stop  offset="1" style="stop-color:#5E62BC"/>
				</linearGradient>
				<path class="st92" d="M598.01,260.38L598.01,260.38L598.01,260.38c-13.47,23.45-12.33,60.77,2.54,83.36l0,0h0
					C614.02,320.28,612.88,282.96,598.01,260.38z"/>
			</g>
			<g>
				<linearGradient id="SVGID_46_" gradientUnits="userSpaceOnUse" x1="596.83" y1="307.0919" x2="632.034" y2="307.0919">
					<stop  offset="0" style="stop-color:#7680DD"/>
					<stop  offset="1" style="stop-color:#5E62BC"/>
				</linearGradient>
				<path class="st93" d="M632.03,278.87L632.03,278.87L632.03,278.87c-17.61,10.66-33.37,35.93-35.2,56.44l0,0h0
					C614.44,324.65,630.2,299.38,632.03,278.87z"/>
			</g>
			<g>
				<linearGradient id="SVGID_47_" gradientUnits="userSpaceOnUse" x1="577.538" y1="304.5627" x2="603.3119" y2="304.5627">
					<stop  offset="0" style="stop-color:#7680DD"/>
					<stop  offset="1" style="stop-color:#4339B1"/>
				</linearGradient>
				<path class="st94" d="M577.68,273.84L577.68,273.84L577.68,273.84c-1.55,20.53,9.87,48.03,25.49,61.44l0,0l0,0
					C604.72,314.75,593.3,287.25,577.68,273.84z"/>
			</g>
			<g>
				<linearGradient id="SVGID_48_" gradientUnits="userSpaceOnUse" x1="564.9315" y1="304.5627" x2="600.4656" y2="304.5627">
					<stop  offset="0" style="stop-color:#7680DD"/>
					<stop  offset="1" style="stop-color:#5E62BC"/>
				</linearGradient>
				<path class="st95" d="M564.93,276.45L564.93,276.45L564.93,276.45c17.67,10.56,33.58,35.74,35.53,56.23v0h0
					C582.8,322.12,566.89,296.94,564.93,276.45z"/>
			</g>
			<linearGradient id="SVGID_49_" gradientUnits="userSpaceOnUse" x1="567.9195" y1="329.9865" x2="629.106" y2="329.9865">
				<stop  offset="0" style="stop-color:#A5B7C6"/>
				<stop  offset="0.4725" style="stop-color:#9FB3C2"/>
				<stop  offset="1" style="stop-color:#92A8BA"/>
			</linearGradient>
			<path class="st96" d="M567.92,307.09c0,0,0,25.44,11.51,45.79h38.16c11.51-20.35,11.51-45.79,11.51-45.79H567.92z"/>
			<path class="st17" d="M628.38,317.27c0.2-1.69,0.35-3.22,0.45-4.55H568.2c0.1,1.33,0.25,2.86,0.45,4.55H628.38z"/>
		</g>
	</g>
</g>
</svg>
