<?xml version="1.0" encoding="utf-8"?>
<!-- Generator: Adobe Illustrator 22.1.0, SVG Export Plug-In . SVG Version: 6.00 Build 0)  -->
<svg version="1.1" xmlns="http://www.w3.org/2000/svg" xmlns:xlink="http://www.w3.org/1999/xlink" x="0px" y="0px"
	 viewBox="0 0 750 500" style="enable-background:new 0 0 750 500;" xml:space="preserve">
<style type="text/css">
	.st0{display:none;}
	.st1{display:inline;}
	.st2{fill:#FDEFD1;}
	.st3{display:none;fill:#F2F2F2;}
	.st4{fill:#001848;}
	.st5{fill:#001891;}
	.st6{fill:url(#SVGID_1_);}
	.st7{fill:url(#SVGID_2_);}
	.st8{fill:url(#SVGID_3_);}
	.st9{fill:url(#SVGID_4_);}
	.st10{fill:url(#SVGID_5_);}
	.st11{fill:url(#SVGID_6_);}
	.st12{fill:url(#SVGID_7_);}
	.st13{fill:url(#SVGID_8_);}
	.st14{fill:url(#SVGID_9_);}
	.st15{fill:url(#SVGID_10_);}
	.st16{fill:url(#SVGID_11_);}
	.st17{fill:url(#SVGID_12_);}
	.st18{fill:url(#SVGID_13_);}
	.st19{fill:url(#SVGID_14_);}
	.st20{fill:url(#SVGID_15_);}
	.st21{fill:url(#SVGID_16_);}
	.st22{fill:url(#SVGID_17_);}
	.st23{fill:url(#SVGID_18_);}
	.st24{fill:url(#SVGID_19_);}
	.st25{fill:url(#SVGID_20_);}
	.st26{fill:url(#SVGID_21_);}
	.st27{fill:url(#SVGID_22_);}
	.st28{fill:url(#SVGID_23_);}
	.st29{fill:url(#SVGID_24_);}
	.st30{fill:url(#SVGID_25_);}
	.st31{fill:url(#SVGID_26_);}
	.st32{fill:url(#SVGID_27_);}
	.st33{fill:url(#SVGID_28_);}
	.st34{fill:url(#SVGID_29_);}
	.st35{fill:url(#SVGID_30_);}
	.st36{fill:url(#SVGID_31_);}
	.st37{fill:url(#SVGID_32_);}
	.st38{fill:url(#SVGID_33_);}
	.st39{fill:url(#SVGID_34_);}
	.st40{fill:url(#SVGID_35_);}
	.st41{fill:url(#SVGID_36_);}
	.st42{fill:url(#SVGID_37_);}
	.st43{fill:url(#SVGID_38_);}
	.st44{fill:url(#SVGID_39_);}
	.st45{fill:url(#SVGID_40_);}
	.st46{fill:#9C4469;}
	.st47{fill:url(#SVGID_41_);}
	.st48{fill:url(#SVGID_42_);}
	.st49{fill:#02387A;}
	.st50{fill:url(#SVGID_43_);}
	.st51{fill:url(#SVGID_44_);}
	.st52{fill:url(#SVGID_45_);}
	.st53{fill:url(#SVGID_46_);}
	.st54{fill:url(#SVGID_47_);}
	.st55{fill:url(#SVGID_48_);}
	.st56{fill:url(#SVGID_49_);}
	.st57{fill:url(#SVGID_50_);}
	.st58{fill:#FF151F;}
	.st59{fill:#FBD33E;}
	.st60{fill:#00B33E;}
	.st61{fill:url(#SVGID_51_);}
	.st62{fill:url(#SVGID_52_);}
	.st63{fill:url(#SVGID_53_);}
	.st64{fill:url(#SVGID_54_);}
	.st65{fill:url(#SVGID_55_);}
	.st66{fill:url(#SVGID_56_);}
	.st67{fill:url(#SVGID_57_);}
	.st68{fill:url(#SVGID_58_);}
	.st69{fill:url(#SVGID_59_);}
	.st70{fill:url(#SVGID_60_);}
	.st71{fill:#FFA898;}
	.st72{fill:url(#SVGID_61_);}
	.st73{fill:#FF8770;}
	.st74{fill:url(#SVGID_62_);}
	.st75{fill:url(#SVGID_63_);}
	.st76{fill:url(#SVGID_64_);}
	.st77{fill:#FFC250;}
	.st78{fill:url(#SVGID_65_);}
	.st79{fill:url(#SVGID_66_);}
	.st80{fill:url(#SVGID_67_);}
	.st81{fill:url(#SVGID_68_);}
	.st82{fill:url(#SVGID_69_);}
	.st83{fill:url(#SVGID_70_);}
	.st84{fill:#CE807A;}
	.st85{fill:url(#SVGID_71_);}
	.st86{fill:#BE5E55;}
	.st87{fill:url(#SVGID_72_);}
	.st88{fill:url(#SVGID_73_);}
	.st89{fill:url(#SVGID_74_);}
	.st90{fill:url(#SVGID_75_);}
	.st91{fill:#FAC8C7;}
	.st92{fill:url(#SVGID_76_);}
	.st93{fill:url(#SVGID_77_);}
	.st94{fill:url(#SVGID_78_);}
	.st95{fill:url(#SVGID_79_);}
	.st96{fill:url(#SVGID_80_);}
	.st97{fill:url(#SVGID_81_);}
	.st98{fill:url(#SVGID_82_);}
	.st99{fill:url(#SVGID_83_);}
	.st100{fill:url(#SVGID_84_);}
	.st101{fill:url(#SVGID_85_);}
	.st102{fill:url(#SVGID_86_);}
	.st103{fill:url(#SVGID_87_);}
	.st104{fill:url(#SVGID_88_);}
	.st105{fill:url(#SVGID_89_);}
	.st106{fill:url(#SVGID_90_);}
	.st107{fill:url(#SVGID_91_);}
	.st108{fill:url(#SVGID_92_);}
	.st109{fill:url(#SVGID_93_);}
	.st110{fill:url(#SVGID_94_);}
	.st111{fill:url(#SVGID_95_);}
	.st112{fill:url(#SVGID_96_);}
	.st113{fill:url(#SVGID_97_);}
	.st114{fill:url(#SVGID_98_);}
	.st115{fill:url(#SVGID_99_);}
	.st116{fill:url(#SVGID_100_);}
	.st117{fill:url(#SVGID_101_);}
	.st118{fill:url(#SVGID_102_);}
	.st119{fill:url(#SVGID_103_);}
	.st120{fill:#FFFFFF;}
	.st121{fill:#1D262D;}
</style>
<g id="BACKGROUND" class="st0">
	<g class="st1">
		<path class="st2" d="M705.3,287.8c-5.6-20.4-17.3-40.1-14.7-61c2.6-20.5,18.6-37.5,21-58c2.9-24.4-13.9-46.5-31.8-63.3
			c-21-19.7-48.6-37.3-76.9-31.7c-24.5,4.9-43.8,26.2-68.6,28.9c-21.4,2.3-41.2-9.7-60.7-18.8C415.2,56.5,345,53.7,285.8,79.3
			c-24.2,10.5-48.7,25.8-74.8,22c-21.6-3.2-39.2-19.1-60.3-25c-20.3-5.7-42.6-1.5-60.9,8.9c-34,19.3-62,58.2-48.1,97.7
			c6.1,17.4,15.9,34.1,16,52.5c0.2,21-12,40-16.7,60.5c-2,8.8-2.4,17.9-1.4,26.8c4.8,41.9,40.3,73.5,82.4,74.8
			c85.3,2.5,404.3,2.1,495.9,1.9c46.7-0.1,86.4-35.6,90.1-82.2c0.7-9.1,0.1-18.3-2.1-27.2C705.7,289.3,705.5,288.5,705.3,287.8z"/>
	</g>
</g>
<g id="OBJECTS">
	<ellipse class="st3" cx="373.1" cy="420.2" rx="322.3" ry="25.7"/>
	<g>
		<g>
			<g>
				<g>
					<path class="st4" d="M602.8,190.7c-12.2-4.6-1.2-10.1,6.4-12.2c6.2-1.7,21.7-4.6,15.4-15.2c-6.6-11.1-12.9,2.6-18.1,4.1
						c-11.7,3.4,0.5-11.2,3.4-15.2c4-5.4,12.4-16.3,2-18.2c-8.4-1.5-17,10.2-20.5,16c-2.5,4.1-8.6,23.5-14.9,19.2
						c-4.8-3.3,0.2-22.7-11.3-8.8c-4.7,5.6-3.9,14.7-6,21.2c-3.1,9.5-4.4,13.4-12.8,11c-4.4-1.3-4.5-6.7-9.9-3
						c-2.8,1.9-3.6,10.6-3.6,13.7c0.2,27.9,11.4,46.6,16.6,49c7.1,3.3,20.4-1.4,26.4-4.9c3-1.7,8.6-4.6,8.2-9
						c-0.4-4.9-8.1-4.2-8.4-7.1c-0.8-8.2,14.4-0.4,18.6-1.5c5.4-1.5,14.4-11.2,8.7-16.4c-0.6-0.5-24.3-2.2-10.7-9.8
						c7.5-4.2,15.6,7.4,22.8-0.8C625.7,190.8,607.4,192.4,602.8,190.7z"/>
				</g>
				<path class="st5" d="M600.8,195c-5.2-2.2-10.6-4.2-16.3-4.7c4-5,8.2-10,11.3-15.5c0.9-1.6-1.7-2.7-2.6-1.1
					c-0.4,0.7-0.8,1.3-1.2,2c-0.4-1.7,0.1-4.2,0.2-5.6c0.4-3.5,1.7-6.6,3.1-9.9c0.7-1.6-1.9-2.7-2.6-1.1c-1.8,4.2-3.2,8.1-3.5,12.7
					c-0.2,2.2-0.3,4.7,1,6.5c-4.3,6.4-9.7,12.3-14.2,18.5c-1.9-3-3.3-6.2-4-9.8c-0.7-3.9-0.2-7.9-0.6-11.9c-0.2-1.8-2.9-1.4-2.8,0.3
					c0.5,4.8-0.1,9.4,1.1,14.1c0.9,3.5,2.5,6.7,4.5,9.7c-5.2,7.5-9.9,15.2-13.9,23.4c-1.3,2.7-2.5,5.5-3.6,8.3
					c-2.6-3.9-4.7-7.9-6.2-12.4c-0.8-2.5-1.8-5.1-2.1-7.7c-0.3-2,0-3.8-0.8-5.7c-0.7-1.7-3.3-0.6-2.6,1c0.9,2.3,0.6,5.3,1.2,7.7
					c0.6,2.4,1.3,4.7,2.1,7c1.7,4.7,4.1,8.9,7,13c0,0.1,0.1,0.1,0.1,0.1c-1.9,4.8-3.8,9.7-6,14.4c-0.2,0.1-0.3,0.3-0.4,0.6
					c-0.2,0.5-0.6,1.3-0.8,1.9c-3.9,9.7-7.8,19.5-11.5,29.3c-0.6,1.7,1.9,2.8,2.6,1.1c3.7-9.8,7.6-19.5,11.5-29.2
					c0,0,0.1-0.1,0.1-0.1c1.2-2.5,2.4-5.1,3.5-7.8c5.1,1.3,10.7-0.2,15.4-2.1c1.7-0.7,0.6-3.3-1-2.6c-4.1,1.6-8.9,2.9-13.3,2.1
					c2.4-6,4.7-12,7.5-17.8c1.1-2.3,2.3-4.6,3.5-6.8c0.1,0.1,0.2,0.1,0.3,0.2c6.9,2.8,14.3,3.9,21.7,2.8c1.8-0.3,1.4-3-0.3-2.8
					c-6.9,1.1-13.8,0.1-20.3-2.6c0,0,0,0,0,0c3.8-6.6,8.1-13,12.6-19.2c0.8-1.1,1.6-2.1,2.4-3.1c0.2,0.4,0.5,0.7,1,0.7
					c5.5,0.4,10.7,2.4,15.8,4.5C601.3,198.3,602.4,195.7,600.8,195z"/>
			</g>
			<g>
				<g>
					<g>
						<linearGradient id="SVGID_1_" gradientUnits="userSpaceOnUse" x1="557.3059" y1="287.4771" x2="679.7465" y2="203.1125">
							<stop  offset="0" style="stop-color:#FF9300"/>
							<stop  offset="0.9857" style="stop-color:#F1D359"/>
						</linearGradient>
						<path class="st6" d="M654.3,227.6c-12.3,4.8-24.9,7.7-36.4,14.4c-11.1,6.5-21.8,13.8-31.9,21.7c-9.3,7.3-18.2,15-27.5,22.3
							c-10.9,8.5-18.5,18.8-27.8,28.7c-1.5,1.6-4.1-0.6-2.6-2.2c8.4-9,15.4-18.8,25.1-26.6c10.3-8.3,20.5-16.8,30.9-25
							c10.5-8.2,21.7-15.8,33.2-22.5c11.3-6.5,23.8-9.3,35.8-14C655.2,223.6,656.3,226.8,654.3,227.6L654.3,227.6z"/>
					</g>
					<linearGradient id="SVGID_2_" gradientUnits="userSpaceOnUse" x1="561.3346" y1="293.3229" x2="683.7744" y2="208.9589">
						<stop  offset="0" style="stop-color:#FF9300"/>
						<stop  offset="0.9857" style="stop-color:#F1D359"/>
					</linearGradient>
					<path class="st7" d="M652.1,226.6c2.6-1.2,7.3-0.7,9.4,1.3c2.5,2.3,0.2,4.6-2.5,5.1c-3,0.6-6.2-0.6-9.1-1.1
						c-3.1-0.6-6.4,0.1-9.2-0.9c1.8-1.4,5.1-2.2,7.2-2.7c2.3-0.6,4.4-1.7,6.6-2.3"/>
					<linearGradient id="SVGID_3_" gradientUnits="userSpaceOnUse" x1="558.7967" y1="289.6405" x2="681.237" y2="205.2761">
						<stop  offset="0" style="stop-color:#FF9300"/>
						<stop  offset="0.9857" style="stop-color:#F1D359"/>
					</linearGradient>
					<path class="st8" d="M646.7,229c4.7-1.6,11.6-1.1,14.8-5.7c2.1-3,1.4-5.7-2.4-6c-2.9-0.2-5.3,1.7-7.1,3.6
						c-2.4,2.5-5.2,5.7-6.9,8.6"/>
					<linearGradient id="SVGID_4_" gradientUnits="userSpaceOnUse" x1="554.0612" y1="282.7682" x2="676.5019" y2="198.4035">
						<stop  offset="0" style="stop-color:#FF9300"/>
						<stop  offset="0.9857" style="stop-color:#F1D359"/>
					</linearGradient>
					<path class="st9" d="M633.7,231.9c1.7-5.4,3.7-12.3,8.9-15.5c3.3-2,3.9,1.9,3.1,4.2c-1.8,5.2-6.9,9.6-11.5,12.3L633.7,231.9z"
						/>
					<linearGradient id="SVGID_5_" gradientUnits="userSpaceOnUse" x1="551.2664" y1="278.7122" x2="673.7072" y2="194.3476">
						<stop  offset="0" style="stop-color:#FF9300"/>
						<stop  offset="0.9857" style="stop-color:#F1D359"/>
					</linearGradient>
					<path class="st10" d="M621.6,237c1-6.9,2.1-15.5,7.8-20.4c3.6-3.1,5.1,1.6,4.5,4.5c-1.2,6.6-6.5,12.8-11.5,17L621.6,237z"/>
					<linearGradient id="SVGID_6_" gradientUnits="userSpaceOnUse" x1="549.6293" y1="276.336" x2="672.0696" y2="191.9716">
						<stop  offset="0" style="stop-color:#FF9300"/>
						<stop  offset="0.9857" style="stop-color:#F1D359"/>
					</linearGradient>
					<path class="st11" d="M595.6,253.3c-0.2-6.9-0.6-15.7,4.1-21.5c3-3.6,5.3,0.7,5.2,3.6c-0.1,6.7-4.2,13.8-8.4,18.7L595.6,253.3z
						"/>
					<linearGradient id="SVGID_7_" gradientUnits="userSpaceOnUse" x1="548.4135" y1="274.571" x2="670.8533" y2="190.2069">
						<stop  offset="0" style="stop-color:#FF9300"/>
						<stop  offset="0.9857" style="stop-color:#F1D359"/>
					</linearGradient>
					<path class="st12" d="M574.8,269.6c-2.4-7.8-5.6-17.6-2-25.8c2.2-5.1,6.2-0.8,7.1,2.5c2,7.7-0.4,17-3.7,24L574.8,269.6z"/>
					<linearGradient id="SVGID_8_" gradientUnits="userSpaceOnUse" x1="550.6486" y1="277.8152" x2="673.0892" y2="193.4506">
						<stop  offset="0" style="stop-color:#FF9300"/>
						<stop  offset="0.9857" style="stop-color:#F1D359"/>
					</linearGradient>
					<path class="st13" d="M604.3,246.8c2.2-7.7,4.8-17.4,12-22c4.5-2.9,5.5,2.7,4.4,6c-2.4,7.3-9.4,13.5-15.7,17.4L604.3,246.8z"/>
					<linearGradient id="SVGID_9_" gradientUnits="userSpaceOnUse" x1="561.5878" y1="293.6917" x2="684.028" y2="209.3275">
						<stop  offset="0" style="stop-color:#FF9300"/>
						<stop  offset="0.9857" style="stop-color:#F1D359"/>
					</linearGradient>
					<path class="st14" d="M634.8,234.7c4.8,3.1,10.7,7.1,16.8,6.2c3.8-0.5,1.7-4-0.3-5.2c-4.7-2.8-11.4-2.9-16.7-2.1L634.8,234.7z"
						/>
					<linearGradient id="SVGID_10_" gradientUnits="userSpaceOnUse" x1="556.7531" y1="286.6743" x2="679.1931" y2="202.3101">
						<stop  offset="0" style="stop-color:#FF9300"/>
						<stop  offset="0.9857" style="stop-color:#F1D359"/>
					</linearGradient>
					<path class="st15" d="M606.7,245.3c6.2,1.8,14,4.3,20.3,1.4c4-1.8,0.6-4.9-2-5.6c-6-1.5-13.4,0.5-18.9,3.1L606.7,245.3z"/>
					<linearGradient id="SVGID_11_" gradientUnits="userSpaceOnUse" x1="558.8046" y1="289.6524" x2="681.2455" y2="205.2876">
						<stop  offset="0" style="stop-color:#FF9300"/>
						<stop  offset="0.9857" style="stop-color:#F1D359"/>
					</linearGradient>
					<path class="st16" d="M592.5,258.9c6.6,1.9,15,4.6,21.8,1.5c4.3-1.9,0.7-5.3-2.2-6c-6.5-1.6-14.4,0.5-20.2,3.3L592.5,258.9z"/>
					<linearGradient id="SVGID_12_" gradientUnits="userSpaceOnUse" x1="560.2803" y1="291.794" x2="682.7207" y2="207.4295">
						<stop  offset="0" style="stop-color:#FF9300"/>
						<stop  offset="0.9857" style="stop-color:#F1D359"/>
					</linearGradient>
					<path class="st17" d="M577.7,270.2c8.9,2.2,20,5.3,29.3,0.8c5.9-2.8,1.1-7-2.7-7.8c-8.7-1.8-19.4,1.4-27.4,5.4L577.7,270.2z"/>
					<linearGradient id="SVGID_13_" gradientUnits="userSpaceOnUse" x1="548.8126" y1="275.1508" x2="671.2534" y2="190.7861">
						<stop  offset="0" style="stop-color:#FF9300"/>
						<stop  offset="0.9857" style="stop-color:#F1D359"/>
					</linearGradient>
					<path class="st18" d="M585.7,261.5c-1.5-4.2-3.8-8-4-12.6c-0.1-4,1.6-7.7,4.2-10.6c1.1-1.3,2.3-3.1,4.2-3.3
						c2.7-0.3,1.5,2.5,1,4.3c-1.1,3.7-1.9,7.5-2.6,11.3c-0.4,2.1-0.8,4-1.3,6c-0.4,1.3-0.3,3.9-0.9,4.8"/>
					<linearGradient id="SVGID_14_" gradientUnits="userSpaceOnUse" x1="562.0004" y1="294.2903" x2="684.4408" y2="209.9259">
						<stop  offset="0" style="stop-color:#FF9300"/>
						<stop  offset="0.9857" style="stop-color:#F1D359"/>
					</linearGradient>
					<path class="st19" d="M594.9,275.7c-5,0.1-20.9,1.6-27.1,1.7c-1.4,1.1-2.8,2.2-4.3,3.3c10,2.4,26.5,4,30.9,3
						c1.9-0.4,5.8-2.1,6.5-4C602.1,276.2,597.1,275.7,594.9,275.7z"/>
					<linearGradient id="SVGID_15_" gradientUnits="userSpaceOnUse" x1="566.3622" y1="300.6209" x2="688.803" y2="216.2562">
						<stop  offset="0" style="stop-color:#FF9300"/>
						<stop  offset="0.9857" style="stop-color:#F1D359"/>
					</linearGradient>
					<path class="st20" d="M580.6,300.1c-5.9-1.3-25.5-4-32.9-5.6c-2,1-4,1.9-6.1,2.8c11.3,5.7,30.6,12.3,36.2,12.2
						c2.4,0,7.5-0.9,8.9-3C589.2,302.8,583.2,300.7,580.6,300.1z"/>
					<linearGradient id="SVGID_16_" gradientUnits="userSpaceOnUse" x1="548.4148" y1="274.5731" x2="670.8548" y2="190.2089">
						<stop  offset="0" style="stop-color:#FF9300"/>
						<stop  offset="0.9857" style="stop-color:#F1D359"/>
					</linearGradient>
					<path class="st21" d="M560.1,282.4c-0.8-2.7-7.6-10.6-4.6-25.1c0.4-2.1,1.2-4.8,3.4-5.6c3.1-1.1,3.3,2.3,3.4,4.5
						c0.2,4.3-0.4,20.5,0,24.6"/>
					<linearGradient id="SVGID_17_" gradientUnits="userSpaceOnUse" x1="564.4968" y1="297.9134" x2="686.9372" y2="213.549">
						<stop  offset="0" style="stop-color:#FF9300"/>
						<stop  offset="0.9857" style="stop-color:#F1D359"/>
					</linearGradient>
					<path class="st22" d="M551.9,289.6c3,0.9,6,2.7,9.1,3.7c3.3,1.1,21.8,4.2,27.6,3c2.5-0.5,7.5-0.3,8.1-3.6
						c0.6-3.1-3.2-5.1-5.6-5.9c-5.7-1.9-32.5,0-39.3,1.5"/>
					<linearGradient id="SVGID_18_" gradientUnits="userSpaceOnUse" x1="547.3001" y1="272.9554" x2="669.7401" y2="188.5913">
						<stop  offset="0" style="stop-color:#FF9300"/>
						<stop  offset="0.9857" style="stop-color:#F1D359"/>
					</linearGradient>
					<path class="st23" d="M549.5,290.7c-7-10-9.8-30.6-8.1-32.7c3.7-4.5,8.4,2.5,9.3,6c2.1,7.7,0.2,25.9-1.1,26.1"/>
				</g>
			</g>
			<g>
				<linearGradient id="SVGID_19_" gradientUnits="userSpaceOnUse" x1="495.6389" y1="314.947" x2="646.4496" y2="281.3507">
					<stop  offset="0" style="stop-color:#A3CEFC"/>
					<stop  offset="0.9708" style="stop-color:#7D8AC5"/>
				</linearGradient>
				<path class="st24" d="M531.3,306.6c-4.6,3.8-10.6,8.6-15.4,12.1c-6.3,4.6-6.3,9.1-0.9,14.5c6.7,6.7,18.5,10.3,27.7,11.8
					c3.2,0.5,3.9,0.3,3.9-3.4c0-2.7-0.3-5.2-0.1-8c0.5-5.3,1.3-9.8,4.4-14.2c4.9-6.9,5.3,1.7,3.9,5.6c-1.6,4.6-2.7,9.6-2.8,14.6
					c-0.1,8.6,28-4.3,32.1-9.2c-3.2-2.4-7-12.5-4.5-16.5c2.2-3.5,3.1,0.3,3.6,2.6c0.5,2.7,0.8,5.2,2.4,7.4
					c6.4,9,19.9-14.8,22.4-19.7c3.3-6.4,7.2-7.4,13.8-7.6c-4.8-6.2-11.7-15.3-20.1-15.6c-4.1-0.2-7.5,2.7-10.7,4.8
					c-2.2,1.4-9.4,5.1-5.6-0.4c2.7-3.8,7.9-5.1,10.5-9.1c-2.2-2.7-9.6-7.7-13.2-6.8c-4.3,1-5.6,9.4-8.4,12.4
					c-3.1-5.2,2.8-10.4,4.9-14.6c-5.7-4.1-17.2-9.2-24.7-7.2c-10.8,2.9-0.7,16.9,1.3,19.3c1.5,1.7,3.9,4.8-0.2,3.5
					c-3.6-1.2-8.1-9-9.6-12.4c-0.7-1.7-0.8-6.4-2.4-7.4c-1.7-1.2-30.5,11.6-33.8,21.2C506.8,294.2,522.9,305.4,531.3,306.6z"/>
			</g>
		</g>
		<g>
			<g>
				<g>
					<path class="st4" d="M126.5,116.8c12.2-4.5,1.3-10-6.4-12.3c-6.2-1.8-21.6-4.8-15.3-15.3c6.7-11,12.9,2.7,18.1,4.3
						c11.7,3.5-0.4-11.2-3.3-15.2c-3.9-5.4-12.2-16.4-1.9-18.2c8.4-1.4,17,10.3,20.4,16.1c2.4,4.2,8.4,23.6,14.8,19.4
						c4.8-3.2,0-22.7,11.3-8.7c4.6,5.7,3.8,14.8,5.8,21.2c3,9.5,4.3,13.4,12.7,11c4.4-1.2,4.5-6.7,9.9-3c2.8,1.9,3.5,10.7,3.5,13.7
						c-0.4,27.9-11.7,46.5-17,48.9c-7.1,3.2-20.3-1.6-26.4-5.1c-3-1.8-8.5-4.7-8.1-9.1c0.5-4.9,8.1-4.2,8.4-7.1
						c0.9-8.2-14.4-0.5-18.5-1.7c-5.4-1.6-14.4-11.3-8.6-16.4c0.6-0.5,24.3-2.1,10.8-9.7c-7.5-4.2-15.6,7.3-22.8-1
						C103.6,116.8,121.9,118.5,126.5,116.8z"/>
				</g>
				<path class="st5" d="M128.5,121.2c5.2-2.2,10.7-4.1,16.4-4.6c-4-5-8.1-10-11.1-15.6c-0.8-1.6,1.7-2.6,2.6-1.1
					c0.4,0.7,0.8,1.3,1.2,2c0.5-1.7-0.1-4.2-0.2-5.6c-0.4-3.5-1.7-6.7-3-9.9c-0.7-1.7,1.9-2.7,2.6-1.1c1.8,4.2,3.1,8.2,3.4,12.7
					c0.1,2.2,0.3,4.7-1.1,6.5c4.3,6.4,9.6,12.4,14,18.6c1.9-3,3.4-6.2,4.1-9.8c0.7-3.9,0.3-7.9,0.7-11.9c0.2-1.8,3-1.4,2.8,0.4
					c-0.5,4.8,0,9.4-1.2,14.1c-0.9,3.5-2.6,6.6-4.6,9.6c5.1,7.5,9.8,15.3,13.7,23.5c1.3,2.7,2.5,5.5,3.6,8.3
					c2.6-3.9,4.8-7.9,6.3-12.3c0.8-2.5,1.8-5.1,2.1-7.7c0.3-2,0.1-3.8,0.9-5.7c0.7-1.6,3.3-0.6,2.6,1.1c-1,2.3-0.7,5.3-1.3,7.7
					c-0.6,2.4-1.3,4.7-2.2,7c-1.7,4.7-4.2,8.9-7.1,12.9c0,0.1-0.1,0.1-0.1,0.1c1.9,4.8,3.8,9.7,5.9,14.4c0.2,0.1,0.3,0.3,0.4,0.6
					c0.2,0.5,0.6,1.3,0.7,1.9c3.8,9.8,7.6,19.6,11.3,29.4c0.6,1.7-1.9,2.8-2.6,1.1c-3.7-9.8-7.5-19.5-11.2-29.3c0,0-0.1-0.1-0.1-0.1
					c-1.2-2.6-2.3-5.2-3.4-7.8c-5.1,1.2-10.7-0.3-15.4-2.2c-1.7-0.7-0.6-3.3,1.1-2.6c4.1,1.7,8.8,3,13.3,2.2
					c-2.4-6-4.6-12.1-7.4-17.9c-1.1-2.3-2.2-4.6-3.5-6.9c-0.1,0.1-0.2,0.1-0.3,0.2c-6.9,2.7-14.4,3.8-21.8,2.6
					c-1.8-0.3-1.4-3.1,0.4-2.8c6.9,1.1,13.8,0.2,20.3-2.4c0,0,0,0,0,0c-3.8-6.7-8-13-12.4-19.3c-0.8-1.1-1.5-2.1-2.3-3.1
					c-0.2,0.4-0.5,0.7-1,0.7c-5.5,0.4-10.7,2.3-15.8,4.4C127.9,124.4,126.8,121.8,128.5,121.2z"/>
			</g>
			<g>
				<g>
					<g>
						
							<linearGradient id="SVGID_20_" gradientUnits="userSpaceOnUse" x1="122.5952" y1="220.7157" x2="151.7123" y2="-2.5162" gradientTransform="matrix(0.9901 -0.1405 0.1405 0.9901 -18.9491 27.2723)">
							<stop  offset="0" style="stop-color:#FF9300"/>
							<stop  offset="0.9857" style="stop-color:#F1D359"/>
						</linearGradient>
						<path class="st25" d="M70.4,131.9c12.3,4.9,24.8,7.8,36.3,14.6c11,6.5,21.7,13.9,31.7,21.9c9.2,7.4,18.1,15.2,27.3,22.5
							c10.8,8.5,18.4,18.9,27.6,28.9c1.5,1.6,4.1-0.5,2.6-2.2c-8.4-9.1-15.2-18.9-24.9-26.8c-10.2-8.4-20.4-17-30.7-25.2
							c-10.4-8.3-21.6-16-33.1-22.7c-11.3-6.6-23.7-9.5-35.7-14.3C69.5,127.9,68.3,131.1,70.4,131.9L70.4,131.9z"/>
					</g>
					
						<linearGradient id="SVGID_21_" gradientUnits="userSpaceOnUse" x1="63.6777" y1="213.0274" x2="92.7939" y2="-10.1972" gradientTransform="matrix(0.9901 -0.1405 0.1405 0.9901 -18.9491 27.2723)">
						<stop  offset="0" style="stop-color:#FF9300"/>
						<stop  offset="0.9857" style="stop-color:#F1D359"/>
					</linearGradient>
					<path class="st26" d="M72.6,131c-2.6-1.2-7.3-0.8-9.5,1.2c-2.5,2.3-0.2,4.6,2.5,5.2c3,0.6,6.2-0.5,9.1-1.1
						c3.1-0.6,6.4,0.1,9.2-0.8c-1.7-1.4-5.1-2.2-7.2-2.8c-2.3-0.6-4.3-1.7-6.6-2.3"/>
					
						<linearGradient id="SVGID_22_" gradientUnits="userSpaceOnUse" x1="61.5741" y1="212.756" x2="90.691" y2="-10.4742" gradientTransform="matrix(0.9901 -0.1405 0.1405 0.9901 -18.9491 27.2723)">
						<stop  offset="0" style="stop-color:#FF9300"/>
						<stop  offset="0.9857" style="stop-color:#F1D359"/>
					</linearGradient>
					<path class="st27" d="M78,133.3c-4.7-1.7-11.6-1.2-14.8-5.8c-2.1-3-1.3-5.7,2.5-6c2.9-0.2,5.2,1.7,7.1,3.7
						c2.3,2.5,5.1,5.8,6.8,8.6"/>
					
						<linearGradient id="SVGID_23_" gradientUnits="userSpaceOnUse" x1="75.4275" y1="214.5623" x2="104.5444" y2="-8.6672" gradientTransform="matrix(0.9901 -0.1405 0.1405 0.9901 -18.9491 27.2723)">
						<stop  offset="0" style="stop-color:#FF9300"/>
						<stop  offset="0.9857" style="stop-color:#F1D359"/>
					</linearGradient>
					<path class="st28" d="M90.9,136.3c-1.7-5.4-3.6-12.3-8.8-15.6c-3.2-2.1-3.9,1.9-3.1,4.2c1.8,5.2,6.8,9.6,11.4,12.4L90.9,136.3z
						"/>
					
						<linearGradient id="SVGID_24_" gradientUnits="userSpaceOnUse" x1="87.362" y1="216.1186" x2="116.4785" y2="-7.1087" gradientTransform="matrix(0.9901 -0.1405 0.1405 0.9901 -18.9491 27.2723)">
						<stop  offset="0" style="stop-color:#FF9300"/>
						<stop  offset="0.9857" style="stop-color:#F1D359"/>
					</linearGradient>
					<path class="st29" d="M103,141.6c-1-6.9-2-15.5-7.7-20.5c-3.5-3.1-5.1,1.6-4.6,4.5c1.2,6.6,6.4,12.9,11.4,17.1L103,141.6z"/>
					
						<linearGradient id="SVGID_25_" gradientUnits="userSpaceOnUse" x1="114.4175" y1="219.6475" x2="143.5339" y2="-3.5786" gradientTransform="matrix(0.9901 -0.1405 0.1405 0.9901 -18.9491 27.2723)">
						<stop  offset="0" style="stop-color:#FF9300"/>
						<stop  offset="0.9857" style="stop-color:#F1D359"/>
					</linearGradient>
					<path class="st30" d="M128.8,158.1c0.2-6.9,0.7-15.6-4-21.5c-2.9-3.7-5.3,0.7-5.3,3.6c0,6.7,4.1,13.8,8.2,18.8L128.8,158.1z"/>
					
						<linearGradient id="SVGID_26_" gradientUnits="userSpaceOnUse" x1="138.3951" y1="222.7752" x2="167.5113" y2="-0.45" gradientTransform="matrix(0.9901 -0.1405 0.1405 0.9901 -18.9491 27.2723)">
						<stop  offset="0" style="stop-color:#FF9300"/>
						<stop  offset="0.9857" style="stop-color:#F1D359"/>
					</linearGradient>
					<path class="st31" d="M149.5,174.5c2.4-7.8,5.8-17.6,2.2-25.8c-2.2-5.1-6.2-0.9-7.1,2.5c-2.1,7.6,0.3,17,3.5,24L149.5,174.5z"
						/>
					
						<linearGradient id="SVGID_27_" gradientUnits="userSpaceOnUse" x1="102.1883" y1="218.053" x2="131.3049" y2="-5.1748" gradientTransform="matrix(0.9901 -0.1405 0.1405 0.9901 -18.9491 27.2723)">
						<stop  offset="0" style="stop-color:#FF9300"/>
						<stop  offset="0.9857" style="stop-color:#F1D359"/>
					</linearGradient>
					<path class="st32" d="M120.2,151.4c-2.2-7.7-4.7-17.4-11.9-22.1c-4.5-2.9-5.5,2.7-4.4,5.9c2.4,7.3,9.3,13.6,15.5,17.5
						L120.2,151.4z"/>
					
						<linearGradient id="SVGID_28_" gradientUnits="userSpaceOnUse" x1="71.0146" y1="213.9836" x2="100.1303" y2="-9.2374" gradientTransform="matrix(0.9901 -0.1405 0.1405 0.9901 -18.9491 27.2723)">
						<stop  offset="0" style="stop-color:#FF9300"/>
						<stop  offset="0.9857" style="stop-color:#F1D359"/>
					</linearGradient>
					<path class="st33" d="M89.8,139.2c-4.8,3-10.8,7-16.8,6.1c-3.8-0.6-1.7-4,0.4-5.2c4.7-2.8,11.4-2.8,16.7-2L89.8,139.2z"/>
					
						<linearGradient id="SVGID_29_" gradientUnits="userSpaceOnUse" x1="97.3153" y1="217.4165" x2="126.4319" y2="-5.8109" gradientTransform="matrix(0.9901 -0.1405 0.1405 0.9901 -18.9491 27.2723)">
						<stop  offset="0" style="stop-color:#FF9300"/>
						<stop  offset="0.9857" style="stop-color:#F1D359"/>
					</linearGradient>
					<path class="st34" d="M117.8,150c-6.2,1.8-14,4.2-20.3,1.2c-4-1.8-0.6-4.9,2.1-5.6c6.1-1.5,13.4,0.6,18.8,3.2L117.8,150z"/>
					
						<linearGradient id="SVGID_30_" gradientUnits="userSpaceOnUse" x1="110.3442" y1="219.1161" x2="139.4606" y2="-4.1098" gradientTransform="matrix(0.9901 -0.1405 0.1405 0.9901 -18.9491 27.2723)">
						<stop  offset="0" style="stop-color:#FF9300"/>
						<stop  offset="0.9857" style="stop-color:#F1D359"/>
					</linearGradient>
					<path class="st35" d="M131.9,163.7c-6.7,1.9-15,4.5-21.8,1.3c-4.3-2-0.6-5.3,2.2-6c6.5-1.6,14.3,0.6,20.2,3.5L131.9,163.7z"/>
					
						<linearGradient id="SVGID_31_" gradientUnits="userSpaceOnUse" x1="120.7489" y1="220.474" x2="149.8656" y2="-2.7543" gradientTransform="matrix(0.9901 -0.1405 0.1405 0.9901 -18.9491 27.2723)">
						<stop  offset="0" style="stop-color:#FF9300"/>
						<stop  offset="0.9857" style="stop-color:#F1D359"/>
					</linearGradient>
					<path class="st36" d="M146.6,175.1c-8.9,2.1-20,5.1-29.3,0.6c-5.8-2.8-1.1-7,2.7-7.8c8.7-1.8,19.4,1.6,27.4,5.6L146.6,175.1z"
						/>
					
						<linearGradient id="SVGID_32_" gradientUnits="userSpaceOnUse" x1="127.7903" y1="221.3922" x2="156.9068" y2="-1.8344" gradientTransform="matrix(0.9901 -0.1405 0.1405 0.9901 -18.9491 27.2723)">
						<stop  offset="0" style="stop-color:#FF9300"/>
						<stop  offset="0.9857" style="stop-color:#F1D359"/>
					</linearGradient>
					<path class="st37" d="M138.7,166.3c1.6-4.2,3.9-7.9,4.1-12.5c0.2-4-1.6-7.7-4.1-10.7c-1.1-1.3-2.3-3.1-4.2-3.3
						c-2.7-0.3-1.6,2.5-1.1,4.3c1,3.7,1.9,7.6,2.5,11.3c0.3,2.1,0.7,4,1.3,6c0.3,1.3,0.3,3.9,0.9,4.8"/>
					
						<linearGradient id="SVGID_33_" gradientUnits="userSpaceOnUse" x1="131.5063" y1="221.8772" x2="160.6231" y2="-1.3521" gradientTransform="matrix(0.9901 -0.1405 0.1405 0.9901 -18.9491 27.2723)">
						<stop  offset="0" style="stop-color:#FF9300"/>
						<stop  offset="0.9857" style="stop-color:#F1D359"/>
					</linearGradient>
					<path class="st38" d="M129.4,180.5c5,0.1,20.9,1.8,27.1,1.9c1.4,1.1,2.8,2.2,4.3,3.4c-10,2.4-26.6,3.8-30.9,2.7
						c-1.9-0.5-5.8-2.1-6.4-4.1C122.2,180.9,127.2,180.4,129.4,180.5z"/>
					
						<linearGradient id="SVGID_34_" gradientUnits="userSpaceOnUse" x1="148.7723" y1="224.1283" x2="177.8874" y2="0.9123" gradientTransform="matrix(0.9901 -0.1405 0.1405 0.9901 -18.9491 27.2723)">
						<stop  offset="0" style="stop-color:#FF9300"/>
						<stop  offset="0.9857" style="stop-color:#F1D359"/>
					</linearGradient>
					<path class="st39" d="M143.5,205c6-1.3,25.5-3.8,32.9-5.4c2,1,4,1.9,6,2.8c-11.4,5.6-30.7,12-36.2,12c-2.4,0-7.5-0.9-8.8-3
						C134.9,207.6,140.9,205.6,143.5,205z"/>
					
						<linearGradient id="SVGID_35_" gradientUnits="userSpaceOnUse" x1="155.3437" y1="224.9863" x2="184.46" y2="1.7605" gradientTransform="matrix(0.9901 -0.1405 0.1405 0.9901 -18.9491 27.2723)">
						<stop  offset="0" style="stop-color:#FF9300"/>
						<stop  offset="0.9857" style="stop-color:#F1D359"/>
					</linearGradient>
					<path class="st40" d="M164.2,187.4c0.8-2.7,7.7-10.5,4.8-25.1c-0.4-2.1-1.1-4.8-3.3-5.6c-3-1.1-3.3,2.3-3.4,4.5
						c-0.2,4.3,0.2,20.5-0.2,24.6"/>
					
						<linearGradient id="SVGID_36_" gradientUnits="userSpaceOnUse" x1="139.2049" y1="222.8809" x2="168.3213" y2="-0.3449" gradientTransform="matrix(0.9901 -0.1405 0.1405 0.9901 -18.9491 27.2723)">
						<stop  offset="0" style="stop-color:#FF9300"/>
						<stop  offset="0.9857" style="stop-color:#F1D359"/>
					</linearGradient>
					<path class="st41" d="M172.2,194.7c-3,0.8-6,2.7-9.1,3.7c-3.3,1-21.8,4-27.7,2.8c-2.5-0.5-7.5-0.4-8.1-3.6
						c-0.6-3.1,3.2-5,5.7-5.8c5.7-1.8,32.5,0.3,39.3,1.7"/>
					
						<linearGradient id="SVGID_37_" gradientUnits="userSpaceOnUse" x1="167.4788" y1="226.5694" x2="196.5951" y2="3.3444" gradientTransform="matrix(0.9901 -0.1405 0.1405 0.9901 -18.9491 27.2723)">
						<stop  offset="0" style="stop-color:#FF9300"/>
						<stop  offset="0.9857" style="stop-color:#F1D359"/>
					</linearGradient>
					<path class="st42" d="M174.7,195.8c7.1-9.9,10-30.5,8.3-32.6c-3.7-4.6-8.4,2.5-9.4,5.9c-2.1,7.7-0.4,25.9,0.9,26.1"/>
				</g>
			</g>
			<g>
				
					<linearGradient id="SVGID_38_" gradientUnits="userSpaceOnUse" x1="251.6756" y1="196.0694" x2="114.3039" y2="96.0269" gradientTransform="matrix(-2.284400e-02 0.9997 -0.9997 -2.284400e-02 401.8951 -52.3641)">
					<stop  offset="0" style="stop-color:#A3CEFC"/>
					<stop  offset="0.9708" style="stop-color:#7D8AC5"/>
				</linearGradient>
				<path class="st43" d="M211.5,190.1c-4.5,3.9-10.3,9-14.5,13.1c-5.6,5.4-10,4.6-14.4-1.6c-5.4-7.7-7-20-6.9-29.3
					c0-3.3,0.4-3.8,4-3.3c2.7,0.4,5.1,1.2,7.9,1.4c5.3,0.4,9.9,0.4,14.8-1.9c7.6-3.7-0.7-5.6-4.9-4.8c-4.8,0.8-9.9,1.1-14.9,0.2
					c-8.5-1.4,9-26.8,14.5-30.1c1.9,3.6,11.2,9,15.5,7.2c3.8-1.6,0.2-3.1-2-4c-2.5-1-4.9-1.7-6.8-3.6c-7.8-7.9,17.9-17.1,23.2-18.7
					c6.9-2.2,8.5-5.8,9.9-12.3c5.3,5.7,13,14.1,11.9,22.4c-0.5,4-4,6.9-6.6,9.7c-1.8,1.9-6.6,8.4-0.6,5.5c4.2-2,6.4-6.9,10.7-8.8
					c2.3,2.6,5.9,10.8,4.5,14.2c-1.7,4.1-10.3,3.9-13.6,6.1c4.6,3.9,10.7-1,15.3-2.3c3.1,6.3,6.1,18.5,2.8,25.5
					c-4.7,10.2-16.8-2.2-18.8-4.6c-1.4-1.8-4.1-4.7-3.4-0.4c0.6,3.7,7.5,9.6,10.6,11.6c1.5,1,6.1,1.9,6.9,3.6
					c0.9,1.9-16.7,28.1-26.6,29.7C219.5,216.3,211.3,198.6,211.5,190.1z"/>
			</g>
		</g>
	</g>
	<g>
		<g>
			<linearGradient id="SVGID_39_" gradientUnits="userSpaceOnUse" x1="50.811" y1="268.0338" x2="361.102" y2="268.0338">
				<stop  offset="0" style="stop-color:#FF9300"/>
				<stop  offset="0.9857" style="stop-color:#F1D359"/>
			</linearGradient>
			<path class="st44" d="M361.1,258.2v19.8c0,5-4,9-9,9H59.8c-5,0-9-4-9-9v-19.8c0-5,4-9,9-9h292.2
				C357.1,249.1,361.1,253.2,361.1,258.2z"/>
			<linearGradient id="SVGID_40_" gradientUnits="userSpaceOnUse" x1="109.9303" y1="268.0338" x2="361.102" y2="268.0338">
				<stop  offset="0" style="stop-color:#FF9300"/>
				<stop  offset="0.9857" style="stop-color:#F1D359"/>
			</linearGradient>
			<path class="st45" d="M361.1,258.2v19.8c0,5-4,9-9,9H128.8c-10.4,0-18.9-8.5-18.9-18.9c0-5.2,2.1-10,5.5-13.4
				c3.4-3.4,8.1-5.5,13.4-5.5h223.2C357.1,249.1,361.1,253.2,361.1,258.2z"/>
		</g>
		<g>
			<rect x="52.1" y="286.9" class="st46" width="310.3" height="6.2"/>
			<rect x="52.1" y="318.6" class="st46" width="310.3" height="6.2"/>
			<linearGradient id="SVGID_41_" gradientUnits="userSpaceOnUse" x1="232.6028" y1="305.857" x2="0.2793" y2="305.857">
				<stop  offset="3.108970e-02" style="stop-color:#DDDBFF"/>
				<stop  offset="0.5784" style="stop-color:#ECECF6"/>
				<stop  offset="1" style="stop-color:#F2F2F2"/>
			</linearGradient>
			<rect x="57.4" y="293.1" class="st47" width="299.6" height="25.5"/>
		</g>
		<g>
			<linearGradient id="SVGID_42_" gradientUnits="userSpaceOnUse" x1="50.811" y1="343.6793" x2="361.102" y2="343.6793">
				<stop  offset="0" style="stop-color:#182DB3"/>
				<stop  offset="6.718338e-03" style="stop-color:#182DB1"/>
				<stop  offset="0.1206" style="stop-color:#102691"/>
				<stop  offset="0.2427" style="stop-color:#0A2176"/>
				<stop  offset="0.377" style="stop-color:#061D62"/>
				<stop  offset="0.5278" style="stop-color:#021A53"/>
				<stop  offset="0.7088" style="stop-color:#01194B"/>
				<stop  offset="1" style="stop-color:#001848"/>
			</linearGradient>
			<path class="st48" d="M361.1,333.8v19.8c0,5-4,9-9,9H59.8c-5,0-9-4-9-9v-19.8c0-5,4-9,9-9h292.2
				C357.1,324.8,361.1,328.8,361.1,333.8z"/>
			<path class="st49" d="M361.1,333.8v19.8c0,5-4,9-9,9H128.8c-10.4,0-18.9-8.5-18.9-18.9c0-5.2,2.1-10,5.5-13.4
				c3.4-3.4,8.1-5.5,13.4-5.5h223.2C357.1,324.8,361.1,328.8,361.1,333.8z"/>
		</g>
		<g>
			<linearGradient id="SVGID_43_" gradientUnits="userSpaceOnUse" x1="52.0566" y1="365.6661" x2="362.3476" y2="365.6661">
				<stop  offset="0" style="stop-color:#FF9300"/>
				<stop  offset="0.9857" style="stop-color:#F1D359"/>
			</linearGradient>
			<rect x="52.1" y="362.6" class="st50" width="310.3" height="6.2"/>
			<linearGradient id="SVGID_44_" gradientUnits="userSpaceOnUse" x1="52.0566" y1="397.3377" x2="362.3476" y2="397.3377">
				<stop  offset="0" style="stop-color:#FF9300"/>
				<stop  offset="0.9857" style="stop-color:#F1D359"/>
			</linearGradient>
			<rect x="52.1" y="394.3" class="st51" width="310.3" height="6.2"/>
			<linearGradient id="SVGID_45_" gradientUnits="userSpaceOnUse" x1="-28.0583" y1="381.5024" x2="271.5536" y2="381.5024">
				<stop  offset="0" style="stop-color:#F2F2F2"/>
				<stop  offset="0.4216" style="stop-color:#ECECF6"/>
				<stop  offset="0.9689" style="stop-color:#DDDBFF"/>
			</linearGradient>
			<rect x="57.4" y="368.7" class="st52" width="299.6" height="25.5"/>
		</g>
		<g>
			<path class="st46" d="M58.8,213.6v29.2h230.3v6.3H55.8c-1.7,0-3.2-1.8-3.2-4.1v-33.7c0-2.3,1.4-4.1,3.2-4.1h233.3v6.3H58.8z"/>
			<linearGradient id="SVGID_46_" gradientUnits="userSpaceOnUse" x1="33.3794" y1="228.1631" x2="259.3464" y2="228.1631">
				<stop  offset="3.108970e-02" style="stop-color:#DDDBFF"/>
				<stop  offset="0.5784" style="stop-color:#ECECF6"/>
				<stop  offset="1" style="stop-color:#F2F2F2"/>
			</linearGradient>
			<rect x="58.8" y="213.6" class="st53" width="226" height="29.2"/>
		</g>
	</g>
	<g>
		<g>
			<linearGradient id="SVGID_47_" gradientUnits="userSpaceOnUse" x1="375" y1="424.3636" x2="375" y2="230.3778">
				<stop  offset="0" style="stop-color:#001848"/>
				<stop  offset="0.2994" style="stop-color:#071E64"/>
				<stop  offset="0.6435" style="stop-color:#0D237F"/>
				<stop  offset="0.8469" style="stop-color:#0F2589"/>
				<stop  offset="0.9341" style="stop-color:#14299F"/>
				<stop  offset="1" style="stop-color:#182DB3"/>
			</linearGradient>
			<path class="st54" d="M539.5,382.6H210.5c-4.1,0-7.5-3.3-7.5-7.5V168.8c0-4.1,3.3-7.5,7.5-7.5h328.9c4.1,0,7.5,3.3,7.5,7.5v206.3
				C546.9,379.2,543.6,382.6,539.5,382.6z"/>
			<linearGradient id="SVGID_48_" gradientUnits="userSpaceOnUse" x1="375" y1="386.7878" x2="375" y2="192.5713">
				<stop  offset="3.108970e-02" style="stop-color:#DDDBFF"/>
				<stop  offset="0.5784" style="stop-color:#ECECF6"/>
				<stop  offset="1" style="stop-color:#F2F2F2"/>
			</linearGradient>
			<rect x="219.4" y="177.5" class="st55" width="311.3" height="188.9"/>
			<g>
				<linearGradient id="SVGID_49_" gradientUnits="userSpaceOnUse" x1="219.3707" y1="181.6834" x2="530.6293" y2="181.6834">
					<stop  offset="0" style="stop-color:#FF9300"/>
					<stop  offset="0.9857" style="stop-color:#F1D359"/>
				</linearGradient>
				<rect x="219.4" y="177.5" class="st56" width="311.3" height="8.4"/>
				<linearGradient id="SVGID_50_" gradientUnits="userSpaceOnUse" x1="219.3707" y1="187.7039" x2="530.6293" y2="187.7039">
					<stop  offset="0" style="stop-color:#A3CEFC"/>
					<stop  offset="0.9708" style="stop-color:#7D8AC5"/>
				</linearGradient>
				<rect x="219.4" y="183.5" class="st57" width="311.3" height="8.4"/>
				<g>
					<path class="st58" d="M224.9,187.6c0,1-0.8,1.7-1.7,1.7c-1,0-1.7-0.8-1.7-1.7s0.8-1.7,1.7-1.7
						C224.1,185.9,224.9,186.7,224.9,187.6z"/>
					<path class="st59" d="M230.8,187.6c0,1-0.8,1.7-1.7,1.7c-1,0-1.7-0.8-1.7-1.7s0.8-1.7,1.7-1.7
						C230,185.9,230.8,186.7,230.8,187.6z"/>
					<path class="st60" d="M236.5,187.6c0,1-0.8,1.7-1.7,1.7c-1,0-1.7-0.8-1.7-1.7s0.8-1.7,1.7-1.7
						C235.7,185.9,236.5,186.7,236.5,187.6z"/>
				</g>
			</g>
		</g>
		<linearGradient id="SVGID_51_" gradientUnits="userSpaceOnUse" x1="375" y1="403.7577" x2="375" y2="374.0485">
			<stop  offset="0" style="stop-color:#001848"/>
			<stop  offset="0.2994" style="stop-color:#071E64"/>
			<stop  offset="0.6435" style="stop-color:#0D237F"/>
			<stop  offset="0.8469" style="stop-color:#0F2589"/>
			<stop  offset="0.9341" style="stop-color:#14299F"/>
			<stop  offset="1" style="stop-color:#182DB3"/>
		</linearGradient>
		<path class="st61" d="M554.8,400.8H195.2c-4,0-7.3-3.3-7.3-7.3V389c0-4,3.3-7.3,7.3-7.3h359.6c4,0,7.3,3.3,7.3,7.3v4.4
			C562.1,397.5,558.8,400.8,554.8,400.8z"/>
		<g>
			<g>
				<linearGradient id="SVGID_52_" gradientUnits="userSpaceOnUse" x1="375.5615" y1="310.3128" x2="389.1418" y2="165.8681">
					<stop  offset="3.108970e-02" style="stop-color:#DDDBFF"/>
					<stop  offset="0.5784" style="stop-color:#ECECF6"/>
					<stop  offset="1" style="stop-color:#F2F2F2"/>
				</linearGradient>
				<rect x="240.9" y="312.6" class="st62" width="268.3" height="7.5"/>
				<linearGradient id="SVGID_53_" gradientUnits="userSpaceOnUse" x1="376.9564" y1="310.444" x2="390.5367" y2="165.9993">
					<stop  offset="3.108970e-02" style="stop-color:#DDDBFF"/>
					<stop  offset="0.5784" style="stop-color:#ECECF6"/>
					<stop  offset="1" style="stop-color:#F2F2F2"/>
				</linearGradient>
				<rect x="240.9" y="327.5" class="st63" width="268.3" height="7.5"/>
			</g>
			<g>
				<linearGradient id="SVGID_54_" gradientUnits="userSpaceOnUse" x1="365.9049" y1="309.4053" x2="379.4852" y2="164.9606">
					<stop  offset="3.108970e-02" style="stop-color:#DDDBFF"/>
					<stop  offset="0.5784" style="stop-color:#ECECF6"/>
					<stop  offset="1" style="stop-color:#F2F2F2"/>
				</linearGradient>
				<rect x="240.9" y="208.9" class="st64" width="268.3" height="7.5"/>
				<linearGradient id="SVGID_55_" gradientUnits="userSpaceOnUse" x1="367.2998" y1="309.536" x2="380.88" y2="165.0918">
					<stop  offset="3.108970e-02" style="stop-color:#DDDBFF"/>
					<stop  offset="0.5784" style="stop-color:#ECECF6"/>
					<stop  offset="1" style="stop-color:#F2F2F2"/>
				</linearGradient>
				<rect x="240.9" y="223.9" class="st65" width="268.3" height="7.5"/>
			</g>
			<linearGradient id="SVGID_56_" gradientUnits="userSpaceOnUse" x1="280.7419" y1="301.3982" x2="294.3222" y2="156.9539">
				<stop  offset="3.108970e-02" style="stop-color:#DDDBFF"/>
				<stop  offset="0.5784" style="stop-color:#ECECF6"/>
				<stop  offset="1" style="stop-color:#F2F2F2"/>
			</linearGradient>
			<rect x="240.9" y="240.2" class="st66" width="85.3" height="63.4"/>
			<g>
				<linearGradient id="SVGID_57_" gradientUnits="userSpaceOnUse" x1="417.6834" y1="314.2731" x2="431.2637" y2="169.8283">
					<stop  offset="3.108970e-02" style="stop-color:#DDDBFF"/>
					<stop  offset="0.5784" style="stop-color:#ECECF6"/>
					<stop  offset="1" style="stop-color:#F2F2F2"/>
				</linearGradient>
				<rect x="332.5" y="277.5" class="st67" width="176.6" height="6.9"/>
				<linearGradient id="SVGID_58_" gradientUnits="userSpaceOnUse" x1="396.6615" y1="312.2967" x2="410.2418" y2="167.8518">
					<stop  offset="3.108970e-02" style="stop-color:#DDDBFF"/>
					<stop  offset="0.5784" style="stop-color:#ECECF6"/>
					<stop  offset="1" style="stop-color:#F2F2F2"/>
				</linearGradient>
				<rect x="332.5" y="293" class="st68" width="131.3" height="7.1"/>
			</g>
			<g>
				<linearGradient id="SVGID_59_" gradientUnits="userSpaceOnUse" x1="414.2017" y1="313.9458" x2="427.782" y2="169.501">
					<stop  offset="3.108970e-02" style="stop-color:#DDDBFF"/>
					<stop  offset="0.5784" style="stop-color:#ECECF6"/>
					<stop  offset="1" style="stop-color:#F2F2F2"/>
				</linearGradient>
				<rect x="332.5" y="240.2" class="st69" width="176.6" height="6.9"/>
				<linearGradient id="SVGID_60_" gradientUnits="userSpaceOnUse" x1="378.1385" y1="310.5553" x2="391.7188" y2="166.1106">
					<stop  offset="3.108970e-02" style="stop-color:#DDDBFF"/>
					<stop  offset="0.5784" style="stop-color:#ECECF6"/>
					<stop  offset="1" style="stop-color:#F2F2F2"/>
				</linearGradient>
				<rect x="332.5" y="255.8" class="st70" width="100.9" height="6.9"/>
			</g>
		</g>
	</g>
	<g>
		<g>
			<g>
				<path class="st46" d="M626.7,275.1c2.8-6.4,8.1-5.6,8.9-5.9c1.8-0.6,3.9-0.7,5.8-0.4c5.7,0.9,9.7,6,11.1,11.5
					c0.5,1.9,1,3.7,1.7,5.5c0.3,0.7,0.5,1.5,0.8,2.3c0.8,2.2,2.8,11.7-0.7,11.3c-0.1,1.9,1.3,4.9,1.8,6.8c0.6,2.4,1.1,4.8,1.4,7.3
					c0.3,2.6,0.4,5.3-1.4,7c-1.5,1.4-2.9,0.6-4-1.2c-0.2,3.8-1.7,5.7-4.4,6.1c-4.1,0.7-6.7-2-8.3-7.4c-1.5,3.1-4.3,3.3-6.8,2.9
					c-1.6-0.2-6.8-3-5-6.4c-0.6,0.9-2-0.7-2.3-1.5c-0.8-1.7-0.4-4.2-0.4-6c0.1-2.8-0.4-5.1-0.7-7.7
					C622.9,284.2,625.8,277.2,626.7,275.1z"/>
			</g>
			<path class="st71" d="M602.7,300.6l7.7,10.7c0,0,0,0,0,0c-0.1,3-0.7,7.6-3.3,10.4c-5.9-2.4-10.1-23.2-10.1-23.2
				c-0.1-0.4-0.4-0.6-0.7-0.9c-0.3-0.2-0.6-0.3-1-0.3c-4.5-0.1-8.8-5.4-9.2-7.5c-0.5-2.5,2.7-4.1,4.5-2.2c0.8,0.9,3.4,3,5.1,4.6
				c0.2,0.2,0.6,0,0.6-0.3c0.1-3.4,1.7-4.8,2.1-2.5l0.4,5.6l1.6,2.2L602.7,300.6z"/>
			<linearGradient id="SVGID_61_" gradientUnits="userSpaceOnUse" x1="610.0267" y1="309.693" x2="633.9766" y2="309.693">
				<stop  offset="0" style="stop-color:#FF9300"/>
				<stop  offset="0.2224" style="stop-color:#FD9001"/>
				<stop  offset="0.4085" style="stop-color:#F78506"/>
				<stop  offset="0.5815" style="stop-color:#ED740D"/>
				<stop  offset="0.7466" style="stop-color:#DF5C17"/>
				<stop  offset="0.9047" style="stop-color:#CD3C24"/>
				<stop  offset="0.9941" style="stop-color:#C1272D"/>
			</linearGradient>
			<path class="st72" d="M640.1,305.9c0,0.8-0.2,1.7-0.7,2.6c-0.6,1.2-1.6,2.1-2.9,2.6c0,0-12.1,4.7-20.4,8l0.7-10.6l15.3-7.5
				C636.1,299,640.1,302.1,640.1,305.9z"/>
			<path class="st73" d="M593.5,420.2l-0.5-1.1c0,0,0.1,0.1,0.1,0.1C593.3,419.6,593.4,419.9,593.5,420.2z"/>
			<g>
				<path class="st73" d="M593.7,408.5c-0.3,3.9-0.5,7.5-0.7,10.5l0,0.1l-4.5,0.1l0-0.1c-3.1-17.9-8.7-54.1-8.7-54.1
					c-1.2-4.5-1.2-10.7,2.4-13.4c0.9-0.7,1.9-1.2,2.9-1.5v0l0.2-0.1c0,0,0,0,0,0c0.8-0.2,1.6-0.3,2.4-0.3l10.8-0.2
					c0,0.1,0.2,0.4,0.5,1.1c1.1,2.4,4,8.4,5.8,12c-4.6,0.1-9.2,0.3-13.7,0.8C596.1,364.8,594.9,390,593.7,408.5z"/>
				<path class="st4" d="M589.5,425.2l-5.5,0l-4.4,0c-2-0.2-3.2-1.3-1-2.4l9.9-3.5l4.5-0.1l0.5,1.1c0,0.1,0.1,0.3,0.1,0.4
					C593.9,423,592.1,425.3,589.5,425.2z"/>
			</g>
			<g>
				<g>
					<path class="st71" d="M573.4,420.8c0,0-0.1,0.1-0.1,0.1c0,0,0,0.1,0,0.1c-1.4-0.7-2.7-1.5-4.1-2.2c0,0,0-0.1,0-0.1
						c1.2-3.1,3.6-8.8,4.8-11.6c5.3-12.2,10.9-32.8,12.9-42.8c1.4-7.1,2-8.8,4.1-10.8c2.1-2,5.1-3,8-2.6c0,0,0,0,0,0
						c0.5,0.1,1.9,0.2,1.9,0.2s7.7,13.6,7.8,14.4c-1.7-0.1-8.4-0.6-10.1-0.7C603.2,378.9,581.1,409,573.4,420.8z"/>
				</g>
				<path class="st4" d="M569.7,425.6c-3.5-1.6-7.7-4.1-11.3-5.5c-0.9-0.3-1.2-0.4-1.5-1.2c-0.3-0.8,1-1.4,1.7-1.5
					c2.3,0.3,6.7,1,8.5,1.2c1.8,0.2,0.9,0.1,2.2,0.3c1.3,0.7,2.7,1.5,4,2.2c0,0.1,0,0.5,0,0.7C573,424,572.9,427,569.7,425.6z"/>
			</g>
			<path class="st73" d="M640.1,298.7l-1.4-6.9l-6.2,0.3c0.9,2.8,1.3,5.5,0.4,7.7L640.1,298.7z"/>
			<path class="st71" d="M642.5,277.4c-0.5-3.3-1.9-6.2-3.9-7.3c-3-1.5-8.4,2.7-11.7,5.8c-1.9,1.8-3.6,3.7-5.1,5.8
				c-0.3,0.4-0.5,0.8-0.6,0.9c-0.1,0.4,0.4,0.8,0.8,1.1c0,0,0.1,0,0.1,0c-0.6,4.1,0.9,8.4,4.2,10.6c2.9,1.9,9,0.5,12.3-2.4
				C644.2,287.1,642.9,279.7,642.5,277.4z"/>
			<g>
				<path class="st4" d="M625.4,287c1-0.3,2.2-0.9,2.7-2.6c0-0.1,0-0.3-0.2-0.3c-0.1,0-0.3,0-0.3,0.2c-1,2.9-4,2.3-4.2,2.3
					c-0.1,0-0.3,0.1-0.3,0.2c0,0.1,0.1,0.3,0.2,0.3C623.4,287.1,624.3,287.3,625.4,287z"/>
			</g>
			<g>
				<path class="st4" d="M626.4,280.9c-0.3,0.8-0.8,1.3-1.2,1.2c-0.4-0.1-0.5-0.9-0.2-1.7c0.3-0.8,0.8-1.3,1.2-1.2
					C626.5,279.3,626.6,280,626.4,280.9z"/>
			</g>
			<g>
				<path class="st4" d="M628.7,278.9C628.7,278.9,628.7,278.9,628.7,278.9c0.2,0,0.3-0.2,0.2-0.3c-0.2-1.7-1.6-2-2.3-1.9
					c-0.1,0-0.2,0.1-0.2,0.3c0,0.1,0.1,0.2,0.3,0.2c0,0,1.5-0.1,1.8,1.5C628.5,278.8,628.6,278.9,628.7,278.9z"/>
			</g>
			<linearGradient id="SVGID_62_" gradientUnits="userSpaceOnUse" x1="628.0042" y1="322.4445" x2="654.1472" y2="322.4445">
				<stop  offset="0" style="stop-color:#FF9300"/>
				<stop  offset="0.194" style="stop-color:#EB700F"/>
				<stop  offset="0.4114" style="stop-color:#D9501C"/>
				<stop  offset="0.622" style="stop-color:#CC3A25"/>
				<stop  offset="0.8204" style="stop-color:#C42C2B"/>
				<stop  offset="0.9941" style="stop-color:#C1272D"/>
			</linearGradient>
			<path class="st74" d="M621.7,348.3c0,0,7.5,1.4,16.5-0.2l4.2-1c-4.4-9.8,1.4-24,0.8-34.6c-0.5-10.2-3.2-16.5-3.2-16.5l-7.1,3.9
				l-13,11.5c-1.5,1.3-2.6,3.1-2.8,5.1c-0.4,2.9,0.8,5.9,3.3,7.8c0.5,0.4,1,2.1,1,2.7C622.7,338.8,621.7,348.3,621.7,348.3z"/>
			<path class="st71" d="M622.1,326.1c1.6,1.6,4.6,5.2,3.7,10.3c-6,2-22.4-11.9-22.4-11.9c-0.2-0.1-1-0.7-1-0.7s-0.9,0.7-1.1,0.8
				c-3.6,2.7-10.3,1.2-11.9-0.2c-1.9-1.7-0.4-4.9,2.1-4.5c1.2,0.2,4.5,0.3,6.9,0.4c0.3,0,0.5-0.3,0.3-0.5c-2-2.8-1.7-4.8,0.1-3.3
				l3.8,4.2l2.6,0.8l4,1.2l12.9,3.7L622.1,326.1z"/>
			<linearGradient id="SVGID_63_" gradientUnits="userSpaceOnUse" x1="650.9983" y1="300.7371" x2="616.5568" y2="328.3254">
				<stop  offset="5.849520e-03" style="stop-color:#C1272D"/>
				<stop  offset="9.533642e-02" style="stop-color:#CD3C24"/>
				<stop  offset="0.2534" style="stop-color:#DF5C17"/>
				<stop  offset="0.4185" style="stop-color:#ED740D"/>
				<stop  offset="0.5915" style="stop-color:#F78506"/>
				<stop  offset="0.7776" style="stop-color:#FD9001"/>
				<stop  offset="1" style="stop-color:#FF9300"/>
			</linearGradient>
			<path class="st75" d="M642.2,309.7c0,0-6.4,11-10.9,18.7c-1.2-4.3-2.9-7.9-5.1-10.7l6.3-13.2c2.3-4.8,9.4-3.9,10.4,1.3
				C643.1,307.2,642.8,308.6,642.2,309.7z"/>
			<linearGradient id="SVGID_64_" gradientUnits="userSpaceOnUse" x1="660.1342" y1="357.168" x2="598.2686" y2="357.168">
				<stop  offset="0" style="stop-color:#001848"/>
				<stop  offset="0.2994" style="stop-color:#071E64"/>
				<stop  offset="0.6435" style="stop-color:#0D237F"/>
				<stop  offset="0.8469" style="stop-color:#0F2589"/>
				<stop  offset="0.9341" style="stop-color:#14299F"/>
				<stop  offset="1" style="stop-color:#182DB3"/>
			</linearGradient>
			<path class="st76" d="M645.6,359.1c-0.1,0.6-0.3,1.1-0.5,1.6c-2.1,4.6-7.6,5.7-12.2,6.2c0,0-0.1,0-0.1,0
				c-1.1,0.1-2.2,0.2-3.3,0.2c-6.5,0.3-13-0.2-19.4-1.1c-1.3-0.2-2.6-0.4-3.8-0.6c0,0-0.2-0.4-0.5-1c-0.2-0.5-0.5-1.1-0.9-1.8
				c-1.8-3.6-4.7-9.6-5.8-12c-0.3-0.6-0.5-1-0.5-1l0.2,0l23-1.2c0.7,0.1,1.4,0.2,2.2,0.3l18.5-1.6c0,0.1,0.1,0.1,0.1,0.2
				c0.1,0.1,0.2,0.3,0.3,0.4c0,0.1,0.1,0.2,0.1,0.3C644.7,351.2,646.4,355.3,645.6,359.1z"/>
			<g>
				<path class="st46" d="M637.7,278c-1.8,0.4-4.2,0.2-4.4-2.2c-1,1.5-4.7,2.1-5-0.2c-1.9,2.3-6.3,1-5.6-2.3
					c0.5-2.4,4.4-5.7,6.7-6.3c5.8-1.4,12.2,2.7,15.7,6.9c0.9,1.1,1.5,2.8,1.2,4.3c-0.3,1.3-5,12.8-4.1,5.8
					C642.3,283.9,637.6,281,637.7,278z"/>
			</g>
			<g>
				<g>
					<path class="st46" d="M648.3,298.2c-0.5-2.1-0.4-4.1-0.6-6.3c-0.5-5.3-2.3-11.4-5.7-15.6c-2.6-3.2-6.7-6.2-10.5-3.1
						c-1.6,1.3-1.8,4.1-1.8,6c0,1.7,0.7,2.5,1.5,3.5c0,0.6,0.4,1.1,1.3,1.4c0,0,0,0,0,0c-1.7,2-1.4,4.3,1.4,4.8
						c-1.4,2.2-0.3,4.4,2.4,4.3c-1.7,2.2-1.1,4.1,1.9,4.2c-0.4,2.4-0.1,3.7,2.2,5c1.1,0.6,1.8,1.3,2.6,2.3c0.6,0.8,0.9,1.6,2,1.7
						c2,0.1,3.2-1.9,3.5-3.6C648.9,301.3,648.7,299.7,648.3,298.2z"/>
				</g>
			</g>
			<path class="st77" d="M631.2,328.4c-2.4,4-4.2,7.2-4.3,7.3c-0.3,0.3-0.7,0.5-1.1,0.7c0.9-5.1-2.1-8.6-3.7-10.3l4-8.4
				C628.3,320.5,630,324.1,631.2,328.4z"/>
			<path class="st77" d="M616.8,308.5c0.6,3.1,0.3,6.7-0.7,10.6c-4.3,1.6-7.5,2.9-7.7,3c-0.5,0.1-0.9,0-1.4-0.2
				c2.6-2.8,3.2-7.4,3.3-10.4l0.1,0.2L616.8,308.5z"/>
		</g>
		<g>
			<linearGradient id="SVGID_65_" gradientUnits="userSpaceOnUse" x1="644.9304" y1="291.7244" x2="633.5694" y2="407.2272">
				<stop  offset="0" style="stop-color:#A3CEFC"/>
				<stop  offset="0.9708" style="stop-color:#7D8AC5"/>
			</linearGradient>
			<polygon class="st78" points="630.6,422.9 638.6,422.9 638.6,371 630.6,371 			"/>
			
				<linearGradient id="SVGID_66_" gradientUnits="userSpaceOnUse" x1="213.9182" y1="246.9957" x2="202.5571" y2="362.4992" gradientTransform="matrix(-1 0 0 1 830.877 0)">
				<stop  offset="0" style="stop-color:#A3CEFC"/>
				<stop  offset="0.9708" style="stop-color:#7D8AC5"/>
			</linearGradient>
			<path class="st79" d="M617.1,426.3h35l0,0c0-3.7-3-6.7-6.7-6.7h-21.6C620.1,419.6,617.1,422.6,617.1,426.3L617.1,426.3z"/>
			<linearGradient id="SVGID_67_" gradientUnits="userSpaceOnUse" x1="637.7689" y1="413.3825" x2="624.5145" y2="337.1696">
				<stop  offset="1.282050e-03" style="stop-color:#C1272D"/>
				<stop  offset="0.2953" style="stop-color:#C12A2F"/>
				<stop  offset="0.5412" style="stop-color:#C03537"/>
				<stop  offset="0.769" style="stop-color:#BF4644"/>
				<stop  offset="0.9844" style="stop-color:#BE5E55"/>
			</linearGradient>
			<path class="st80" d="M609.2,375.9h42.3c2.9,0,5.2-2.3,5.2-5.2v-0.1c0-2.9-2.3-5.2-5.2-5.2h-42.3c-2.9,0-5.2,2.3-5.2,5.2v0.1
				C604,373.6,606.4,375.9,609.2,375.9z"/>
			<linearGradient id="SVGID_68_" gradientUnits="userSpaceOnUse" x1="662.4632" y1="409.088" x2="649.2088" y2="332.8753">
				<stop  offset="1.282050e-03" style="stop-color:#C1272D"/>
				<stop  offset="0.2953" style="stop-color:#C12A2F"/>
				<stop  offset="0.5412" style="stop-color:#C03537"/>
				<stop  offset="0.769" style="stop-color:#BF4644"/>
				<stop  offset="0.9844" style="stop-color:#BE5E55"/>
			</linearGradient>
			<path class="st81" d="M656.5,349.9c10.1-44-1.7-44-7.7-44c-6.1,0-9.1,29.4-9.1,44c0,14.6,2,22.3,11,22.3
				C659,372.2,653.2,364.1,656.5,349.9z"/>
			<linearGradient id="SVGID_69_" gradientUnits="userSpaceOnUse" x1="633.184" y1="414.1801" x2="619.9295" y2="337.967">
				<stop  offset="1.282050e-03" style="stop-color:#C1272D"/>
				<stop  offset="0.2953" style="stop-color:#C12A2F"/>
				<stop  offset="0.5412" style="stop-color:#C03537"/>
				<stop  offset="0.769" style="stop-color:#BF4644"/>
				<stop  offset="0.9844" style="stop-color:#BE5E55"/>
			</linearGradient>
			<polygon class="st82" points="622.2,369.4 625.6,369.4 625.6,352.5 622.2,352.5 			"/>
			<linearGradient id="SVGID_70_" gradientUnits="userSpaceOnUse" x1="642.8371" y1="412.5009" x2="629.5828" y2="336.2882">
				<stop  offset="1.282050e-03" style="stop-color:#C1272D"/>
				<stop  offset="0.2953" style="stop-color:#C12A2F"/>
				<stop  offset="0.5412" style="stop-color:#C03537"/>
				<stop  offset="0.769" style="stop-color:#BF4644"/>
				<stop  offset="0.9844" style="stop-color:#BE5E55"/>
			</linearGradient>
			<path class="st83" d="M648.2,354.4h-29.5c-1.5,0-2.6-1.2-2.6-2.6l0,0c0-1.5,1.2-2.6,2.6-2.6h29.5V354.4z"/>
		</g>
	</g>
	<g>
		<g>
			<path class="st4" d="M513.2,281.3c-1.1-4.3-3.4-8.4-3.5-12.9c-0.2-4.6,1.8-8.9,1.9-13.5c0.2-5.1-1.7-14.5-4.9-18.1
				c-6.3-7.1-20.2-8.1-25.8,2.9c-2.2,4.3-2,9.5-1.4,14.4c0.6,4.9,1.5,9.9,0.4,14.7c-1.8,7.9-8.6,14-8.6,22.1c0,4.1,2,8,4.6,11
				c2.6,2.9,5.9,5,9.3,7c0.6,0.3,1.2,0.7,1.8,0.7c1.3,0.1,2.4-0.9,3.5-1.7c4.5-3.3,10.3-3.4,15.1-6.2c5.9-3.5,9.3-11.4,8-18.6
				C513.4,282.5,513.3,281.9,513.2,281.3z"/>
		</g>
		<g>
			<path class="st84" d="M462.6,256.5c-1.6-2-1.9-4.8-0.8-7.2l9.4-18.4c0,0-3.9-3.1-3.3-7.8c0.1-1,1.2-1.5,2.1-1.1
				c1.2,0.6,2.8,2.2,3.7,5.8l1.2-2.6c0.3-0.6,1.1-0.7,1.4-0.1c0.4,0.6,0.4,1.9-1.1,4.3l-7.1,21.9c-0.1,0.3,0,0.5,0.2,0.7
				C467.5,255.1,465.6,256.6,462.6,256.5z"/>
			<linearGradient id="SVGID_71_" gradientUnits="userSpaceOnUse" x1="478.5056" y1="258.2625" x2="468.1379" y2="285.4996">
				<stop  offset="5.849520e-03" style="stop-color:#C1272D"/>
				<stop  offset="9.533642e-02" style="stop-color:#CD3C24"/>
				<stop  offset="0.2534" style="stop-color:#DF5C17"/>
				<stop  offset="0.4185" style="stop-color:#ED740D"/>
				<stop  offset="0.5915" style="stop-color:#F78506"/>
				<stop  offset="0.7776" style="stop-color:#FD9001"/>
				<stop  offset="1" style="stop-color:#FF9300"/>
			</linearGradient>
			<path class="st85" d="M486.4,265.8l-3.6,9l-16-14.3c0.1,0,0.3-0.1,0.4-0.2c1.8-1,3.1-2.8,3.8-5.6c0-0.2,0.1-0.3,0-0.5
				L486.4,265.8z"/>
			<g>
				<path class="st71" d="M492.4,322.5c0,0.2-0.1,0.4-0.1,0.7c-0.1,0.6-0.2,1.2-0.3,1.9c-0.1-0.6-0.2-1.2-0.3-1.8l0.3-0.4
					L492.4,322.5z"/>
				<path class="st4" d="M483,404.3c0,0.2-0.3,0.8-0.3,0.8l-6.9,5.5c-0.7,0.5-0.5,1.6,0.3,1.9c0.1,0,0.2,0.1,0.3,0.1
					c1.9,0.5,5.4,0.6,6.7-0.9c0.6-0.7,1.4-1.1,2.3-1l0.3,0c2.3,0,1.6-2.6,1.1-4.9l0-1.4L483,404.3z"/>
			</g>
			<g>
				<path class="st71" d="M492.3,323.1c-0.1,0.6-0.2,1.2-0.3,1.9c-0.1-0.6-0.2-1.2-0.3-1.8c0-0.3-0.1-0.5-0.1-0.8l0.4,0.4
					L492.3,323.1z"/>
				<path class="st4" d="M507.4,405.3c-0.4,2.2-0.9,4.7,1.2,4.6l0.3,0c0.8,0,1.7,0.3,2.2,0.9c1.3,1.4,4.6,1.2,6.4,0.6
					c0.1,0,0.2-0.1,0.3-0.1c0.8-0.3,0.9-1.3,0.2-1.8l-6.8-5c0,0-0.2-0.8-0.2-1l-3.4,0.1L507.4,405.3z"/>
			</g>
			<path class="st84" d="M505.9,331c-1-9.3-1.9-16.6-2.8-19.7c-0.5-1.6-1-3-1.5-4.1c-0.5-0.9-0.8-1.8-1.1-2.7
				c-0.4-1.1-0.6-2.2-0.7-3.3c-0.1-0.5-0.1-1.1-0.1-1.6c0-1.3,0.1-2.5,0.5-3.4l3.9-6.8c1.7-3,2.7-6.4,3-9.8c0.1-0.6,0.1-1.2,0.1-1.8
				c0-0.6,0-1.3-0.1-1.9v-0.1c0,0,0-0.1,0-0.2c0-0.3-0.1-0.8-0.2-1.5c-0.4-2.6-1.2-5.1-2.5-7.4l-2.5-0.7l-2.2-0.6l-2-0.5
				c0-0.2,0-0.5,0-0.7c0-0.2,0-0.3,0-0.5c0-0.8,0-1.5,0-2.2l-0.1-2.5l-6.1,1.1c0.4,0.8,0.4,1.9,0.2,3.2c0,0.2-0.1,0.3-0.1,0.5
				c0,0.2-0.1,0.4-0.2,0.6c0,0.2-0.1,0.3-0.2,0.5c-0.1,0.1-0.1,0.3-0.2,0.4l-0.3,0l-1.9,0.2l-2.4,0.2l-2.9,7.2l-1.4,3.6
				c-1.2,3-1.3,6.2-0.3,9.3l0.4,1.2l1.6,4.6c0.3,1,0.5,2.1,0.5,3.1c0,2-0.6,3.9-1.7,5.5c-0.3,0.4-0.6,0.8-1,1.2
				c-0.5,0.5-1,1.1-1.4,1.7c-1,1.4-1.9,3-2.7,4.7c-1.6,3.7-2.5,7.8-2.2,11.2l1,11.6l6.6,73.6l3.8,0.1c0,0,5.7-32.2-0.4-36.9
				c0.5-4.2,1.1-14.7,2.4-24.6c0.5-3.4,0.7-7.2,0.9-10.6c0.2-3.6,0.4-6.8,0.7-8.9c0.2,1.3,1,4.6,2,8.8c2.8,11,7.6,28.4,8.7,31.8
				c-3.6,2.1,2.6,24.6,6.6,39.7l3.4-0.1C510.9,393.8,508.4,355.6,505.9,331z"/>
			<path class="st86" d="M497.6,263.8c-1,0.4-2,0.7-3.1,0.7c-1.1,0-2.1-0.2-3-0.6c0.1-0.2,0.1-0.3,0.1-0.5c0.3-1.3,0.2-2.4-0.2-3.2
				l6.1-1.1l0.1,2.5C497.6,262.2,497.6,263,497.6,263.8z"/>
			<path class="st84" d="M504.8,246.5c-0.4,0-0.9,0.1-1.4,0.4c-0.6-2.9-2.1-5.9-4-8c-0.8-1-1.7-1.7-2.7-2.1
				c-0.5-0.3-1.1-0.4-1.6-0.5c-0.4,0-0.7,0-1.1,0c-0.4,0-0.7,0-1.1,0c-0.5,0-1.1,0.2-1.6,0.5c-1,0.4-1.9,1.1-2.6,2.1
				c-1.9,2.1-3.4,5.1-4,8c-0.5-0.3-1-0.4-1.4-0.4c-1.4,0.1-1.9,2.4-1.5,4.1c0.5,2.2,2.1,2.9,3.7,3.3c0.7,1.4,1.7,2.8,2.8,4
				c1.2,1.4,2.7,2.4,4.5,2.9c0.1,0,0.1,0,0.2,0c0.1,0,0.2,0.1,0.3,0.1c0.1,0,0.1,0,0.2,0c0.1,0,0.1,0,0.2,0c0.1,0,0.3,0,0.4,0
				c0.1,0,0.3,0,0.4,0c0.1,0,0.1,0,0.2,0c0.1,0,0.1,0,0.2,0c0.1,0,0.2,0,0.3-0.1c0.1,0,0.1,0,0.2,0c1.8-0.4,3.3-1.5,4.5-2.9
				c1.1-1.2,2.1-2.6,2.8-4c1.5-0.4,3.2-1.1,3.7-3.3C506.7,248.8,506.3,246.6,504.8,246.5z"/>
			<g>
				<path class="st4" d="M495.6,235.9c1.2,2.4,0,5.4-2,7c-1.8,1.5-4.2,2.2-5.9,3.9c-1.5,1.5-2.1,3.7-2.7,5.8c-0.3-1.7-0.6-3.3-1-5
					c-0.3-1.5-0.6-3-0.4-4.5c0.3-2.6,2-4.8,3.9-6.6c0.8-0.7,1.6-1.5,2.5-2c3.6-1.9,9.5-1,12,2.4c2.5,3.4,3,6.7,0.7,17.1
					c0.3-8.6-5.1-7.3-6.7-16.1"/>
			</g>
			<g>
				<path class="st4" d="M494.8,256.1c1-0.3,2.1-1,2.6-2.7c0-0.1,0-0.3-0.2-0.3c-0.1,0-0.3,0-0.3,0.2c-0.8,3-3.9,2.5-4,2.5
					c-0.1,0-0.3,0.1-0.3,0.2c0,0.1,0.1,0.3,0.2,0.3C492.8,256.3,493.8,256.5,494.8,256.1z"/>
			</g>
			<g>
				<path class="st4" d="M498.1,250c-0.1,0.9-0.4,1.5-0.9,1.5c-0.4,0-0.7-0.7-0.6-1.6c0.1-0.9,0.4-1.5,0.9-1.5
					C497.9,248.4,498.2,249.1,498.1,250z"/>
			</g>
			<g>
				<path class="st4" d="M491,249.9c-0.1,0.9-0.4,1.5-0.9,1.5c-0.4,0-0.7-0.7-0.6-1.6c0.1-0.9,0.4-1.5,0.9-1.5
					C490.8,248.3,491.1,249,491,249.9z"/>
			</g>
			<g>
				<path class="st4" d="M499.2,247.8C499.2,247.8,499.2,247.8,499.2,247.8c0.2-0.1,0.2-0.2,0.2-0.3c-0.7-1.6-2.1-1.5-2.7-1.3
					c-0.1,0-0.2,0.2-0.2,0.3c0,0.1,0.2,0.2,0.3,0.2c0,0,1.4-0.5,2.1,1C498.9,247.7,499.1,247.8,499.2,247.8z"/>
			</g>
			<g>
				<path class="st4" d="M489.6,247.2c0.1,0,0.1-0.1,0.2-0.2l0,0c0-0.1,0.3-0.8,1.3-0.6c0.1,0,0.3,0,0.3-0.2c0-0.1,0-0.3-0.2-0.3
					c-1.1-0.3-1.7,0.4-1.9,0.9c0,0.1,0,0.3,0.2,0.3C489.5,247.2,489.5,247.2,489.6,247.2z"/>
			</g>
			<path class="st46" d="M507,277.9c0,0.6,0,1.2-0.1,1.8c-0.3,3.4-1.3,6.8-3,9.8l-3.9,6.8c-0.4,0.9-0.5,2.1-0.5,3.4
				c0,0.5,0.1,1.1,0.1,1.6c0.1,1.1,0.4,2.2,0.7,3.3c-3.9,0.8-14.8,2.7-20.2-1.4c0.4-0.6,0.9-1.2,1.4-1.7c0.4-0.4,0.7-0.8,1-1.2
				c1.1-1.6,1.7-3.6,1.7-5.5c0-1.1-0.2-2.1-0.5-3.1l-1.6-4.6l-0.4-1.2c-1-3-0.9-6.3,0.3-9.3l1.4-3.6c2.2-0.8,5,1.8,9.3,2
				c3.9,0.2,9.1-2.1,14,0.9C506.9,276.6,507,277.2,507,277.9z"/>
			<linearGradient id="SVGID_72_" gradientUnits="userSpaceOnUse" x1="490.6135" y1="300.0076" x2="490.6135" y2="341.2244">
				<stop  offset="0" style="stop-color:#001848"/>
				<stop  offset="0.2994" style="stop-color:#071E64"/>
				<stop  offset="0.6435" style="stop-color:#0D237F"/>
				<stop  offset="0.8469" style="stop-color:#0F2589"/>
				<stop  offset="0.9341" style="stop-color:#14299F"/>
				<stop  offset="1" style="stop-color:#182DB3"/>
			</linearGradient>
			<path class="st87" d="M505.9,331l-13.5,1.1c-1.1-4.2-1.8-7.5-2-8.8c-0.3,2.1-0.4,5.3-0.7,8.9c-4.4,0.1-10.9-1.1-13.3-1.6l-1-11.6
				c-0.3-3.4,0.6-7.5,2.2-11.2c1.1-2.5,2.5-4.8,4.1-6.4c0.4-0.4,0.7-0.8,1-1.2c4,3.9,11.8,3.5,17.1,1c0.3,2.1,0.9,4.1,1.9,6
				c0.6,1.1,1.1,2.5,1.5,4.1C504,314.4,504.9,321.7,505.9,331z"/>
			<g>
				<linearGradient id="SVGID_73_" gradientUnits="userSpaceOnUse" x1="513.0629" y1="269.1402" x2="495.1392" y2="303.4061">
					<stop  offset="5.849520e-03" style="stop-color:#C1272D"/>
					<stop  offset="9.533642e-02" style="stop-color:#CD3C24"/>
					<stop  offset="0.2534" style="stop-color:#DF5C17"/>
					<stop  offset="0.4185" style="stop-color:#ED740D"/>
					<stop  offset="0.5915" style="stop-color:#F78506"/>
					<stop  offset="0.7776" style="stop-color:#FD9001"/>
					<stop  offset="1" style="stop-color:#FF9300"/>
				</linearGradient>
				<path class="st88" d="M507,310.3l-6.3,1.7c-5.8-11.2-6.2-23.3-5.6-31.4c0.3-4,1.7-7.8,4-11.1c1-1.5,0.7-3.2,0.5-4l2.2,0.6
					l2.5,0.7c1.3,2.3,2.3,4.6,2.8,7.2c0.1,0.6,0.2,1.3,0.2,2.1c0.1,3.8-0.4,7.7-1.6,11.4C503.1,294.9,502.2,298.8,507,310.3z"/>
				<linearGradient id="SVGID_74_" gradientUnits="userSpaceOnUse" x1="495.6245" y1="263.0635" x2="485.2569" y2="290.3004">
					<stop  offset="5.849520e-03" style="stop-color:#C1272D"/>
					<stop  offset="9.533642e-02" style="stop-color:#CD3C24"/>
					<stop  offset="0.2534" style="stop-color:#DF5C17"/>
					<stop  offset="0.4185" style="stop-color:#ED740D"/>
					<stop  offset="0.5915" style="stop-color:#F78506"/>
					<stop  offset="0.7776" style="stop-color:#FD9001"/>
					<stop  offset="1" style="stop-color:#FF9300"/>
				</linearGradient>
				<path class="st89" d="M486.4,292l-0.3,18.7c0,0-6-0.1-8.5-2.7c-0.6-0.6-1-1.4-1-2.3c3.9-3.5,6-9.4,5.7-18.6l-0.4-1.2
					c-1-3-1.1-6.5,0.1-9.5l4.5-10.6l2.4-0.2l1.9-0.2c-0.5,0.6-1,1.7-1.1,2.8c-0.3,2.9-0.9,5.8-2,8.5c-1,2.3-1.6,5.2-1.3,8.6
					C486.4,287.5,486.4,289.7,486.4,292z"/>
			</g>
			<path class="st77" d="M471.1,254.6c-0.7,2.9-2,4.6-3.8,5.6c-0.1,0.1-0.3,0.1-0.4,0.2c-0.7,0.2-1.4-0.1-1.9-0.7l-2.4-3.3h0
				c2.9,0.2,4.8-1.4,5.8-4.4l1.6,0.6c0.7,0.2,1.1,0.8,1.1,1.5C471.2,254.3,471.2,254.4,471.1,254.6z"/>
			<linearGradient id="SVGID_75_" gradientUnits="userSpaceOnUse" x1="512.4204" y1="268.8041" x2="494.4968" y2="303.0699">
				<stop  offset="5.849520e-03" style="stop-color:#C1272D"/>
				<stop  offset="9.533642e-02" style="stop-color:#CD3C24"/>
				<stop  offset="0.2534" style="stop-color:#DF5C17"/>
				<stop  offset="0.4185" style="stop-color:#ED740D"/>
				<stop  offset="0.5915" style="stop-color:#F78506"/>
				<stop  offset="0.7776" style="stop-color:#FD9001"/>
				<stop  offset="1" style="stop-color:#FF9300"/>
			</linearGradient>
			<path class="st90" d="M516.3,286.4c-3.9,0.1-5.6,3.3-6.3,6.6l-10.3-18.9l1.2-8.3c0,0,5.3,0.4,7.3,4.6L516.3,286.4z"/>
			<path class="st77" d="M517,296.9c-2.3,0.8-5-0.1-6.3-2.5l-0.7-1.3c0.7-3.3,2.3-6.6,6.3-6.6l0.5,1.1l0.9-1
				C517.3,287,513.1,292.1,517,296.9z"/>
			<path class="st91" d="M517.7,286.5C517.7,286.5,517.7,286.5,517.7,286.5l-0.9,1l-0.5-1.1C516.7,286.4,517.2,286.4,517.7,286.5z"
				/>
			<g>
				<path class="st84" d="M541.5,266.5l-2.3,1.8c-0.7,0.5-1.5,0.8-2.3,0.9c0.1-0.2,0.1-0.3,0.2-0.4c0.3-0.7,1.1-1.8,0.5-2
					c-1,0.2-4.5,3.1-5.2,4.1l-1.2,1.4l-13.4,14.4c0,0,0,0,0,0c-0.4,0.4-4.5,5.6-0.7,10.4c1-0.3,1.9-0.9,2.6-1.8l15.5-22.6
					c7.2,0.3,7.6-3.7,7.7-5C542.8,266.7,542.1,266.2,541.5,266.5z"/>
			</g>
			<g>
				<path class="st4" d="M492.7,254c-1.2-0.2-1.3-0.7-1.3-0.8c0-0.1,0-0.1,0-0.2l1.6-2.3c0.1-0.1,0.2-0.2,0.4-0.1
					c0.1,0.1,0.2,0.3,0.1,0.4l-1.5,2.2c0.1,0.1,0.5,0.4,1.5,0.4c0.2,0,0.3,0.1,0.3,0.3c0,0.1-0.1,0.3-0.3,0.3
					C493.2,254.1,492.9,254.1,492.7,254z"/>
			</g>
		</g>
	</g>
	<g>
		<linearGradient id="SVGID_76_" gradientUnits="userSpaceOnUse" x1="390.6107" y1="437.0553" x2="390.6107" y2="363.3854">
			<stop  offset="0" style="stop-color:#A3CEFC"/>
			<stop  offset="0.9708" style="stop-color:#7D8AC5"/>
		</linearGradient>
		<path class="st92" d="M324.5,346h132.3v8.1h-5.6V432c0,0.5-0.4,0.8-0.9,0.8h-6.1c-0.5,0-0.9-0.4-0.9-0.8V354h-97.8v78
			c0,0.4-0.4,0.8-0.8,0.8h-6.2c-0.5,0-0.8-0.3-0.8-0.8v-78h-13V346z"/>
		<linearGradient id="SVGID_77_" gradientUnits="userSpaceOnUse" x1="390.6095" y1="358.055" x2="390.6095" y2="341.525">
			<stop  offset="0" style="stop-color:#001848"/>
			<stop  offset="0.2994" style="stop-color:#071E64"/>
			<stop  offset="0.6435" style="stop-color:#0D237F"/>
			<stop  offset="0.8469" style="stop-color:#0F2589"/>
			<stop  offset="0.9341" style="stop-color:#14299F"/>
			<stop  offset="1" style="stop-color:#182DB3"/>
		</linearGradient>
		<path class="st93" d="M318.7,346.5h143.7c1.4,0,2.5-1.1,2.5-2.3l0,0c0-1.3-1.1-2.3-2.5-2.3H318.7c-1.4,0-2.5,1.1-2.5,2.3l0,0
			C316.2,345.4,317.4,346.5,318.7,346.5z"/>
	</g>
	<g>
		<linearGradient id="SVGID_78_" gradientUnits="userSpaceOnUse" x1="210.4488" y1="437.0553" x2="210.4488" y2="363.3854">
			<stop  offset="0" style="stop-color:#A3CEFC"/>
			<stop  offset="0.9708" style="stop-color:#7D8AC5"/>
		</linearGradient>
		<path class="st94" d="M144.3,346h132.3v8.1H271V432c0,0.5-0.4,0.8-0.9,0.8H264c-0.5,0-0.9-0.4-0.9-0.8V354h-97.8v78
			c0,0.4-0.4,0.8-0.8,0.8h-6.2c-0.5,0-0.8-0.3-0.8-0.8v-78h-13V346z"/>
		<linearGradient id="SVGID_79_" gradientUnits="userSpaceOnUse" x1="210.4475" y1="358.055" x2="210.4475" y2="341.525">
			<stop  offset="0" style="stop-color:#001848"/>
			<stop  offset="0.2994" style="stop-color:#071E64"/>
			<stop  offset="0.6435" style="stop-color:#0D237F"/>
			<stop  offset="0.8469" style="stop-color:#0F2589"/>
			<stop  offset="0.9341" style="stop-color:#14299F"/>
			<stop  offset="1" style="stop-color:#182DB3"/>
		</linearGradient>
		<path class="st95" d="M138.6,346.5h143.7c1.4,0,2.5-1.1,2.5-2.3l0,0c0-1.3-1.1-2.3-2.5-2.3H138.6c-1.4,0-2.5,1.1-2.5,2.3l0,0
			C136.1,345.4,137.2,346.5,138.6,346.5z"/>
	</g>
	<g>
		<linearGradient id="SVGID_80_" gradientUnits="userSpaceOnUse" x1="571.6717" y1="430.1847" x2="571.6717" y2="356.5149">
			<stop  offset="0" style="stop-color:#A3CEFC"/>
			<stop  offset="0.9708" style="stop-color:#7D8AC5"/>
		</linearGradient>
		<path class="st96" d="M529.7,339.1h83.9v8.1H608v77.9c0,0.5-0.4,0.8-0.9,0.8H601c-0.5,0-0.9-0.4-0.9-0.8v-77.9h-49.4v78
			c0,0.4-0.4,0.8-0.8,0.8h-6.2c-0.5,0-0.8-0.3-0.8-0.8v-78h-13V339.1z"/>
		<linearGradient id="SVGID_81_" gradientUnits="userSpaceOnUse" x1="571.6704" y1="351.1847" x2="571.6704" y2="334.6544">
			<stop  offset="0" style="stop-color:#001848"/>
			<stop  offset="0.2994" style="stop-color:#071E64"/>
			<stop  offset="0.6435" style="stop-color:#0D237F"/>
			<stop  offset="0.8469" style="stop-color:#0F2589"/>
			<stop  offset="0.9341" style="stop-color:#14299F"/>
			<stop  offset="1" style="stop-color:#182DB3"/>
		</linearGradient>
		<path class="st97" d="M524,339.6h95.4c1.4,0,2.5-1.1,2.5-2.3l0,0c0-1.3-1.1-2.3-2.5-2.3H524c-1.4,0-2.5,1.1-2.5,2.3l0,0
			C521.5,338.6,522.6,339.6,524,339.6z"/>
	</g>
	<g>
		<g>
			<g>
				<path class="st86" d="M381.1,297.6c0,0-3.8,7.3-6.1,13.8c-1,3.1,6.3,8.5,6.7,8.4c0.4-0.1,0.8-0.4,0.9-0.9
					c0.5-3.4,1.8-9.2,5.3-13.2L381.1,297.6z"/>
				<g>
					<path class="st84" d="M377.6,301.7c1.4,4.4,5.2,8.5,8.8,8.4c4-0.1,7.4-3.2,9-7.1c0,0,0.1,0,0.1,0c0.5,0,1.9,0,2-0.5
						c0.1-0.4-0.9-4.8-0.8-5.6c0.1-2,0-3.8-0.1-5.3c-0.8-6.9-4.1-8.8-8.1-9.1c-3.4-0.2-7.5,3.7-9.9,8.1
						C378.2,291.5,375.9,296.4,377.6,301.7z"/>
					<g>
						<path class="st4" d="M393.5,298.5c-0.2,0.9,0,1.6,0.4,1.7c0.4,0.1,0.9-0.5,1.1-1.4c0.2-0.9,0-1.6-0.4-1.7
							C394.1,297,393.7,297.6,393.5,298.5z"/>
					</g>
					<g>
						<path class="st4" d="M392.5,295.5C392.5,295.5,392.5,295.5,392.5,295.5c-0.1-0.1-0.2-0.3-0.1-0.4c1.1-1.3,2.5-0.9,3-0.5
							c0.1,0.1,0.1,0.2,0.1,0.4c-0.1,0.1-0.2,0.1-0.4,0.1c0,0-1.3-0.9-2.3,0.4C392.7,295.6,392.6,295.6,392.5,295.5z"/>
					</g>
					<g>
						<path class="st4" d="M393.2,304.1C393.2,304.1,393.2,304.2,393.2,304.1c0,0.2-0.2,0.3-0.3,0.2c-1.7-0.3-1.9-1.8-1.8-2.5
							c0-0.1,0.2-0.2,0.3-0.2c0.1,0,0.2,0.1,0.2,0.3c0,0-0.2,1.5,1.4,1.9C393.1,303.9,393.2,304,393.2,304.1z"/>
					</g>
				</g>
				<path class="st4" d="M396.8,298.7c0.1-1.4-1-2.7-2.4-2.9l-1.8-0.2c-1.5-0.2-2.9,0.9-3,2.4c-0.2,1.5,0.9,2.9,2.4,3l1.8,0.2
					c1.2,0.1,2.3-0.5,2.8-1.5c0.4,0,0.7-0.1,0.8-0.4C397.4,298.9,397.2,298.6,396.8,298.7z M393.9,300.5l-1.8-0.2
					c-1.1-0.1-1.9-1.1-1.7-2.2c0.1-1.1,1.1-1.9,2.2-1.7l1.8,0.2c1.1,0.1,1.9,1.1,1.7,2.2C395.9,299.8,395,300.6,393.9,300.5z"/>
				
					<rect x="385.4" y="296.2" transform="matrix(0.9272 0.3745 -0.3745 0.9272 139.3065 -123.711)" class="st4" width="5.2" height="0.6"/>
				<g>
					<path class="st4" d="M403.1,295.2c-2.9,1.7-6.4-0.1-8.8-1.8c-0.2-0.1-0.4-0.3-0.6-0.4c-2.7-1.6-6.1-0.5-7.8,2.1
						c-1,1.5-1.9,3.5-2,5.3c-0.1,2.9-5.2,5.5-7.1,1.1c-1.8-4-2.8-9.6,0.4-16.8c0.5-1.1,1.1-2.1,2.2-2.7c-0.7,1.4-0.3,2-0.2,2.4
						c0.3-0.6,1.4-2.5,3-3.4c1.8-0.9,3.6-1.6,5.7-1.7c-0.6,0.4-1.1,0.6-1.2,1.3c0,0,2.3-1.1,4-1c3.3,0,5.7,1.7,7.5,4
						c0.9,1.2,1.8,3.5,3,4.4c1.2,1,2.8,1.5,4.5,1.2C406.6,291.9,405.1,294.1,403.1,295.2z"/>
				</g>
				<path class="st84" d="M386.3,297.3c0.6,1.6,0.3,3.3-0.8,3.7c-1.1,0.4-2.5-0.5-3.1-2.2c-0.6-1.6-0.3-3.3,0.8-3.7
					C384.2,294.7,385.6,295.7,386.3,297.3z"/>
			</g>
			<g>
				<g>
					<linearGradient id="SVGID_82_" gradientUnits="userSpaceOnUse" x1="383.3642" y1="400.7494" x2="408.8187" y2="401.3554">
						<stop  offset="0" style="stop-color:#001848"/>
						<stop  offset="0.2994" style="stop-color:#071E64"/>
						<stop  offset="0.6435" style="stop-color:#0D237F"/>
						<stop  offset="0.8469" style="stop-color:#0F2589"/>
						<stop  offset="0.9341" style="stop-color:#14299F"/>
						<stop  offset="1" style="stop-color:#182DB3"/>
					</linearGradient>
					<polygon class="st98" points="412.7,379 393.1,424.7 388.7,423.9 400.7,377.5 					"/>
					<path class="st4" d="M388.7,423.9l4.3,0.7l0.9,3c0,0,13.2-1.2,14.1,4.5l-9.1,0.6c-2,0.1-4-0.1-5.9-0.7l-4.6-1.5
						c-1.2-0.4-1.8-1.7-1.3-2.8L388.7,423.9z"/>
				</g>
				<g>
					<linearGradient id="SVGID_83_" gradientUnits="userSpaceOnUse" x1="388.5029" y1="394.8525" x2="432.7453" y2="398.4889">
						<stop  offset="0" style="stop-color:#001848"/>
						<stop  offset="0.2994" style="stop-color:#071E64"/>
						<stop  offset="0.6435" style="stop-color:#0D237F"/>
						<stop  offset="0.8469" style="stop-color:#0F2589"/>
						<stop  offset="0.9341" style="stop-color:#14299F"/>
						<stop  offset="1" style="stop-color:#182DB3"/>
					</linearGradient>
					<path class="st99" d="M377,363.6l38,3.7c9.3,0.9,15.8,9.7,13.9,18.9c-3.5,17-8.4,40.7-8.4,41.1c0,0.6-4.2,0-4.2,0l-1-45.2
						l-40.8-0.8c-5.2-0.1-9-4.8-8-9.9l0,0C367.4,366.6,371.9,363.1,377,363.6z"/>
					<path class="st4" d="M416.2,426.8h4.2v2.5c0,0,14.5-0.9,14.7,3.6h-17.5c-0.8,0-1.4-0.6-1.4-1.4V426.8z"/>
				</g>
				<linearGradient id="SVGID_84_" gradientUnits="userSpaceOnUse" x1="357.9594" y1="340.8847" x2="432.4594" y2="364.5514">
					<stop  offset="5.849520e-03" style="stop-color:#C1272D"/>
					<stop  offset="9.533642e-02" style="stop-color:#CD3C24"/>
					<stop  offset="0.2534" style="stop-color:#DF5C17"/>
					<stop  offset="0.4185" style="stop-color:#ED740D"/>
					<stop  offset="0.5915" style="stop-color:#F78506"/>
					<stop  offset="0.7776" style="stop-color:#FD9001"/>
					<stop  offset="1" style="stop-color:#FF9300"/>
				</linearGradient>
				<path class="st100" d="M362.7,314.6c-1.3,1.1-2.5,2.4-3.6,3.9c-4.5,6.1-6.8,14.2-6.6,22.6c0.7,29.1,8.2,42.6,22.9,39.6
					c6.5-1.3,10.6-8.7,9.2-16.7l0,0c-2.1-11.7,0.3-23.5,6.4-32.3l0,0c2.1-3.1,2.1-7.6,0-11l0,0c-2-3-7-7.2-7-7.2l-8.5-3.8
					C375.5,309.8,367.2,310.7,362.7,314.6z"/>
			</g>
			<g>
				<g>
					
						<linearGradient id="SVGID_85_" gradientUnits="userSpaceOnUse" x1="280.8921" y1="90.3872" x2="294.588" y2="90.3872" gradientTransform="matrix(0.1346 -0.9909 0.9909 0.1346 300.4462 595.2135)">
						<stop  offset="0" style="stop-color:#001848"/>
						<stop  offset="0.2994" style="stop-color:#071E64"/>
						<stop  offset="0.6435" style="stop-color:#0D237F"/>
						<stop  offset="0.8469" style="stop-color:#0F2589"/>
						<stop  offset="0.9341" style="stop-color:#14299F"/>
						<stop  offset="1" style="stop-color:#182DB3"/>
					</linearGradient>
					<path class="st101" d="M436.3,328.7l0.3,1.5l-1.4-0.5L421,315.7c-0.3-0.3-0.3-0.8,0-1.1l0,0c0.3-0.3,0.8-0.3,1.1,0L436.3,328.7
						z"/>
				</g>
				<linearGradient id="SVGID_86_" gradientUnits="userSpaceOnUse" x1="372.5124" y1="324.0153" x2="399.5153" y2="328.1158">
					<stop  offset="5.849520e-03" style="stop-color:#C1272D"/>
					<stop  offset="9.533642e-02" style="stop-color:#CD3C24"/>
					<stop  offset="0.2534" style="stop-color:#DF5C17"/>
					<stop  offset="0.4185" style="stop-color:#ED740D"/>
					<stop  offset="0.5915" style="stop-color:#F78506"/>
					<stop  offset="0.7776" style="stop-color:#FD9001"/>
					<stop  offset="1" style="stop-color:#FF9300"/>
				</linearGradient>
				<path class="st102" d="M404.5,331.1c-1.3,2-4.1,6.8-3.4,11.2c-6.3-0.9-12.4-3.5-17.5-7.8c-3.2-2.7-7-6-8.8-7.9
					c-2.7-3.1-3.9-7.3-2.9-11.3c1.2-4.9,4.5-6,10.6-2.5c2,1.2,3.8,2.6,5.4,4.2l9.1,9C399.1,328.3,401.7,330,404.5,331.1z"/>
				<path class="st84" d="M435.4,323.5c-1.8-2.4-3.4-3.7-4.4-2.8c-0.7,0.5-1.1,1.4-1.2,2.7l-1.5,1.2c-0.5,0.4-0.6,1.2-0.2,1.7
					c0.2,0.3,0.6,0.7,1.1,1.1l-0.8,0.7c-4.3,3.3-9.4,4.9-14.5,4.9c-1.5,0-2.9-0.1-4.4-0.4c-1.6,3.2-1.4,6.9-0.7,9.9
					c8.3-0.6,16.4-4.2,22.5-10.7c0.3-0.3,0.5-0.6,0.8-0.9l0,0l0,0c0.5-0.6,1-1.2,1.7-1.7C435,328.2,437.1,325.9,435.4,323.5z"/>
			</g>
			<path class="st77" d="M408.8,342.6c-2.6,0.2-5.2,0.1-7.7-0.3c-0.6-4.3,2.1-9.2,3.4-11.2c1.6,0.7,3.3,1.2,5,1.5
				C407.8,335.8,408.1,339.6,408.8,342.6z"/>
		</g>
		<g>
			<linearGradient id="SVGID_87_" gradientUnits="userSpaceOnUse" x1="329.5198" y1="406.8557" x2="381.1176" y2="407.8024">
				<stop  offset="0" style="stop-color:#A3CEFC"/>
				<stop  offset="0.9708" style="stop-color:#7D8AC5"/>
			</linearGradient>
			<polygon class="st103" points="368.3,433.6 376.4,433.6 376.4,381.6 368.3,381.6 			"/>
			
				<linearGradient id="SVGID_88_" gradientUnits="userSpaceOnUse" x1="258.9019" y1="430.0321" x2="310.4994" y2="430.9789" gradientTransform="matrix(-1 0 0 1 830.877 0)">
				<stop  offset="0" style="stop-color:#A3CEFC"/>
				<stop  offset="0.9708" style="stop-color:#7D8AC5"/>
			</linearGradient>
			<path class="st104" d="M354.8,437h35l0,0c0-3.7-3-6.7-6.7-6.7h-21.6C357.8,430.3,354.8,433.3,354.8,437L354.8,437z"/>
			
				<linearGradient id="SVGID_89_" gradientUnits="userSpaceOnUse" x1="442.3597" y1="429.9364" x2="450.407" y2="297.8654" gradientTransform="matrix(-1 0 0 1 830.877 0)">
				<stop  offset="1.282050e-03" style="stop-color:#C1272D"/>
				<stop  offset="0.2953" style="stop-color:#C12A2F"/>
				<stop  offset="0.5412" style="stop-color:#C03537"/>
				<stop  offset="0.769" style="stop-color:#BF4644"/>
				<stop  offset="0.9844" style="stop-color:#BE5E55"/>
			</linearGradient>
			<rect x="382.8" y="355.5" class="st105" width="3.4" height="16.9"/>
			<linearGradient id="SVGID_90_" gradientUnits="userSpaceOnUse" x1="371.8913" y1="426.8437" x2="379.9384" y2="294.7739">
				<stop  offset="1.282050e-03" style="stop-color:#C1272D"/>
				<stop  offset="0.2953" style="stop-color:#C12A2F"/>
				<stop  offset="0.5412" style="stop-color:#C03537"/>
				<stop  offset="0.769" style="stop-color:#BF4644"/>
				<stop  offset="0.9844" style="stop-color:#BE5E55"/>
			</linearGradient>
			<path class="st106" d="M360.3,357.5h29.5c1.5,0,2.6-1.2,2.6-2.6l0,0c0-1.5-1.2-2.6-2.6-2.6h-29.5V357.5z"/>
			<linearGradient id="SVGID_91_" gradientUnits="userSpaceOnUse" x1="361.998" y1="431.2924" x2="370.0453" y2="299.2215">
				<stop  offset="1.282050e-03" style="stop-color:#C1272D"/>
				<stop  offset="0.2953" style="stop-color:#C12A2F"/>
				<stop  offset="0.5412" style="stop-color:#C03537"/>
				<stop  offset="0.769" style="stop-color:#BF4644"/>
				<stop  offset="0.9844" style="stop-color:#BE5E55"/>
			</linearGradient>
			<path class="st107" d="M382.8,365.9h-5.5c-4.1,0-7.5-3.1-7.8-7.2l1.3-17.1c0.9-11-7.8-20.4-18.9-20.4l0,0
				c-12,0-20.9,11-18.5,22.7c3.5,17,8.8,37.7,14.2,39.9c2.8,1.2,5.8,1.8,9,1.8h39.8c1.7,0,3.1-1.4,3.1-3.1l0,0
				C399.5,373.4,392,365.9,382.8,365.9z"/>
		</g>
	</g>
	<g>
		<g>
			<g>
				<linearGradient id="SVGID_92_" gradientUnits="userSpaceOnUse" x1="240.4351" y1="331.2165" x2="253.0832" y2="331.2165">
					<stop  offset="0" style="stop-color:#001848"/>
					<stop  offset="0.2994" style="stop-color:#071E64"/>
					<stop  offset="0.6435" style="stop-color:#0D237F"/>
					<stop  offset="0.8469" style="stop-color:#0F2589"/>
					<stop  offset="0.9341" style="stop-color:#14299F"/>
					<stop  offset="1" style="stop-color:#182DB3"/>
				</linearGradient>
				<path class="st108" d="M241.6,339.2l-1.1-0.9l11.4-14.9c0.2-0.3,0.7-0.4,1-0.1l0,0c0.3,0.2,0.4,0.7,0.1,1L241.6,339.2z"/>
				<linearGradient id="SVGID_93_" gradientUnits="userSpaceOnUse" x1="232.5558" y1="341.2648" x2="254.7827" y2="341.2648">
					<stop  offset="0" style="stop-color:#A3CEFC"/>
					<stop  offset="0.9708" style="stop-color:#7D8AC5"/>
				</linearGradient>
				<path class="st109" d="M253.7,340.7h-20.1c-0.6,0-1.1,0.5-1.1,1.1l0,0h22.2l0,0C254.8,341.2,254.3,340.7,253.7,340.7z"/>
			</g>
			<g>
				<g>
					<path class="st71" d="M220.6,398.3c-1.7,6.3-3.4,11.7-4.4,14.6c-0.5,1.5-0.5,3-0.1,4.5c1.1,3.7,1.2,7.1,1.6,9.7
						c0.3,1.4,0.6,2.5,1.3,3.4c2,2.5-4.5,3.3-7,2.2c-2.5-1.1-1-9.4-1-9.4s-3.5-5-0.1-8c0-0.1,0-0.2,0-0.3
						c-0.3-6.1-0.5-12.4-0.6-18.4c-0.2-14.4,0.6-26.5,4.2-27.1c-0.3-0.1-2.7-0.9-2.9-1c-5.3-1.7-8.8-4.4-9.7-8.7
						c0,0,21.4-1.8,22.7,7.2C225.8,375.4,223.3,388,220.6,398.3z"/>
					<path class="st71" d="M248.9,414.2c-2.4-2.5-5.7-5.7-7.5-12.2v0c0,0,0,0,0,0c-3.6-4.7-7.6-9.5-11.4-14.3
						c-9.4-11.7-17.8-23.2-17.6-32.2c0-1.6,0.7-3,1.8-4.1c1.1-1,2.6-1.7,4.2-1.7c3.5,0,6.7,2.1,8,5.3l11.2,27l7.2,17.3l0,0
						c3.5,2.9,5.6,4.9,7,7.5c0.8,1.4,1.4,2.9,1.9,4.9C254.7,414.9,251.2,416.6,248.9,414.2z"/>
				</g>
				<g>
					<path class="st71" d="M208.1,287.7c-0.7-3.4-0.2-7.1,1.6-10.1c1.2-2,2.7-3.4,4.3-3.7c3.6-0.7,8.4-0.2,9.6,8.1
						c0.1,1.1,0.6,2.1,1.4,2.8c0.8,0.8,1.4,1.8-0.9,2.1c0.1,4-2.3,8.2-6.1,9.2c-2,0.6-4.4-0.5-6.5-2.3c-1.7-1.5-2.9-3.6-3.3-5.8
						L208.1,287.7z"/>
					<path class="st4" d="M220.7,282.9c0.1,0.8,0.5,1.4,0.8,1.3c0.3,0,0.5-0.7,0.3-1.5c-0.1-0.8-0.5-1.4-0.8-1.3
						C220.7,281.4,220.5,282.1,220.7,282.9z"/>
					<g>
						<path class="st4" d="M218.4,280.7c0.1,0,0.2-0.1,0.3-0.2c0.6-1.8,2.3-1.4,2.4-1.3c0.2,0,0.3,0,0.4-0.2c0-0.2,0-0.3-0.2-0.4
							c-0.8-0.2-2.5-0.1-3.1,1.7c-0.1,0.2,0,0.3,0.2,0.4C218.3,280.7,218.4,280.7,218.4,280.7z"/>
					</g>
					<g>
						<path class="st4" d="M222.9,288.6c-0.1-0.1-0.2-0.2-0.3-0.1c-1.9,0.2-2.2-1.5-2.2-1.5c0-0.2-0.2-0.3-0.4-0.2
							c-0.2,0-0.3,0.2-0.2,0.3c0.1,0.8,0.9,2.3,2.9,2c0.2,0,0.3-0.2,0.3-0.3C223,288.7,222.9,288.6,222.9,288.6z"/>
					</g>
				</g>
				<path class="st71" d="M209.9,291.4c0,0-1.7,9.6-1.7,9.5l7.7,0.7c0,0-0.5-4.6,1.1-7.7L209.9,291.4z"/>
				<path class="st4" d="M212,432.7c-2.5-1.1-1-9.4-1-9.4s-3.5-5-0.1-8c0-0.1,0,0.1,0,0c2.5-0.3,5,0.2,5.3,5.7
					c0.1,1.1,0.2,2.2,0.4,3.3c0.3,1.1,0.6,2.3,1.1,2.8c0.3,1.4,0.6,2.5,1.3,3.4C221.1,432.9,214.5,433.8,212,432.7z"/>
				<path class="st4" d="M248.9,414.2c-2.4-2.5-5.7-5.7-7.5-12.2v0c0.4-0.5,3.4-2.7,3.4-2.7s1.5,1.2,1.7,1.3
					c2.4,2.2,4.6,4.4,5.4,6.1c0.8,1.4,1.4,2.9,1.9,4.9C254.7,414.9,251.2,416.6,248.9,414.2z"/>
				<linearGradient id="SVGID_94_" gradientUnits="userSpaceOnUse" x1="198.8819" y1="322.4001" x2="238.755" y2="322.4001">
					<stop  offset="5.849520e-03" style="stop-color:#C1272D"/>
					<stop  offset="0.3243" style="stop-color:#D74E1D"/>
					<stop  offset="0.7766" style="stop-color:#F48008"/>
					<stop  offset="1" style="stop-color:#FF9300"/>
				</linearGradient>
				<path class="st110" d="M228.9,328.9c-0.5-4-0.8-8-0.9-12c0-1.2,0-2.4,0-3.6c0-0.2,0-0.3,0-0.5c0-0.1,0-0.2,0-0.2
					c-0.2,0.1-0.6,0.4-1,0.6c0.5-0.3,0.8-0.5,1-0.6c-0.3-4.8-3.5-8.9-8-10.6c-0.3-0.1-0.7-0.2-1-0.3l-0.7-1.6c0,0-0.5-1.6-2.2-2.3
					l-0.1,0l-6.8-2.5h0l-0.1,0c-0.3-0.1-0.7,0.1-0.8,0.5l-0.3,3.4v0c0,0.5-0.5,1-1,1.1c-4.1,0.5-7.6,3.6-8.6,7.7
					c-2.8,11.2-2,24.7-8.8,42l20.5-1.1c0.3-4.1,4.6-20.9,4.6-20.9s3.8,0,5.1-4.4c0.3-1,0.5-2,0.6-3v0c0.1-0.4,0.1-0.8,0.1-1.2
					c0,0,0,0,0,0c0,0,0,0,0,0l1.3,14.4c2.5-1,5.3-1.4,7.7,0L228.9,328.9z M220.5,318.3c0.1-0.6,0.3-1.2,0.7-1.8
					C220.8,317,220.6,317.6,220.5,318.3z M221.2,316.5C221.2,316.5,221.2,316.5,221.2,316.5C221.2,316.5,221.2,316.5,221.2,316.5z"
					/>
				<path class="st71" d="M249.3,335.4c-0.3,3.7-5.5,2.9-5.5,2.9l-14.7,6.9c-0.8,0.4-1.6,0.5-2.3,0.4c0.3-3.6,2-6.7,3.3-8.5l0,0.2
					l11.3-2.8l1-0.3c-0.1-0.6-0.1-1.1-0.1-1.5c0.1-0.6,0.6-1.1,1.2-1l1.8,0c0.8-0.9,1.7-1.3,2.5-1.2
					C249.2,330.7,249.5,332.6,249.3,335.4z"/>
			</g>
			<path class="st4" d="M219.9,365h-26c-4.5,0-8.1-3.7-8.1-8.2l0,0c0-4.5,3.6-8.2,8.1-8.2h26c4.5,0,8.1,3.7,8.1,8.2l0,0
				C228,361.3,224.4,365,219.9,365z"/>
			<path class="st77" d="M230,337.2c-1.3,1.9-3,4.9-3.3,8.5c-2.1-0.2-3.9-1.8-4.1-4l-0.7-8.2c2.5-1,5.3-1.4,7.7,0L230,337.2z"/>
			<g>
				<path class="st46" d="M223.8,271.8c-0.7-0.3-1.4-0.5-2.2-0.7c-2.5-0.6-5-1-7.5-1.3c-3.2-0.3-6.7-0.3-9.4,1.4
					c-4,2.6-4.9,7.9-7.5,11.8c-1.6,2.4-3.9,4.4-6.1,6.3c-1.7,1.5-3.5,3.4-3.5,5.7c0,2.7,2.5,4.7,3.4,7.2c0.8,2.3,0.1,5.1-1.7,6.8
					c-2.9,2.7-7.6,2.2-11,4.2c-1.1,0.7-2.2,1.9-2.1,3.2c0.1,1.4,1.4,2.3,2.1,3.5c0.7,1.3,0.6,3-0.2,4.2c-0.8,1.2-2.4,1.9-3.8,1.8
					c0.9,1.8,2.8,3,4.7,3.7c1.9,0.7,4,0.9,6,1.2c4.9,0.9,9.7,2.5,14.6,3.5c4.9,1,10.1,1.3,14.8-0.5c-1.9-0.6-3.6-1.7-5-3.1
					c-0.6-0.6-1.1-1.4-0.7-2.1c0.2-0.3,0.5-0.5,0.9-0.7c3.1-1.6,6.5-2.9,8.5-5.9c1.4-2.1,3.2-6.2,1.1-8.3c-0.9-2-2.6-3.7-2.9-5.8
					c-0.3-2,0.8-3.9,1.3-5.8c1.4-4.9-0.2-10.5-4.1-13.8c-0.7-0.6-1.5-1.2-2-2.1c-0.4-0.8-0.4-2.1,0.5-2.6c0.7-0.4,1.5-0.1,2.1,0.4
					c0.5,0.5,0.8,1.2,1.1,2c1.2-3.3,3.1-6.4,5.5-9c0.6,0.6,1.5,0.7,2.2,0.3c0.7-0.4,1.1-1.3,0.9-2c0.7,0.1,1.3,0.4,1.7,0.9
					c0.9-1,0.5-2.7-0.4-3.6C224.8,272.4,224.3,272,223.8,271.8z"/>
			</g>
		</g>
		<g>
			<linearGradient id="SVGID_95_" gradientUnits="userSpaceOnUse" x1="147.6518" y1="407.779" x2="217.7112" y2="404.4654">
				<stop  offset="0" style="stop-color:#A3CEFC"/>
				<stop  offset="0.9708" style="stop-color:#7D8AC5"/>
			</linearGradient>
			<polygon class="st111" points="200.4,431.1 208.4,431.1 208.4,379.1 200.4,379.1 			"/>
			
				<linearGradient id="SVGID_96_" gradientUnits="userSpaceOnUse" x1="107.0707" y1="455.8076" x2="177.1298" y2="452.494" gradientTransform="matrix(-1 0 0 1 830.877 0)">
				<stop  offset="0" style="stop-color:#A3CEFC"/>
				<stop  offset="0.9708" style="stop-color:#7D8AC5"/>
			</linearGradient>
			<path class="st112" d="M186.9,434.4h35l0,0c0-3.7-3-6.7-6.7-6.7h-21.6C189.9,427.7,186.9,430.7,186.9,434.4L186.9,434.4z"/>
			
				<linearGradient id="SVGID_97_" gradientUnits="userSpaceOnUse" x1="609.8209" y1="435.0468" x2="617.8682" y2="302.9759" gradientTransform="matrix(-1 0 0 1 830.877 0)">
				<stop  offset="1.282050e-03" style="stop-color:#C1272D"/>
				<stop  offset="0.2953" style="stop-color:#C12A2F"/>
				<stop  offset="0.5412" style="stop-color:#C03537"/>
				<stop  offset="0.769" style="stop-color:#BF4644"/>
				<stop  offset="0.9844" style="stop-color:#BE5E55"/>
			</linearGradient>
			<rect x="214.9" y="353" class="st113" width="3.4" height="16.9"/>
			<linearGradient id="SVGID_98_" gradientUnits="userSpaceOnUse" x1="203.8569" y1="426.0463" x2="211.9042" y2="293.9745">
				<stop  offset="1.282050e-03" style="stop-color:#C1272D"/>
				<stop  offset="0.2953" style="stop-color:#C12A2F"/>
				<stop  offset="0.5412" style="stop-color:#C03537"/>
				<stop  offset="0.769" style="stop-color:#BF4644"/>
				<stop  offset="0.9844" style="stop-color:#BE5E55"/>
			</linearGradient>
			<path class="st114" d="M192.3,354.9h29.5c1.5,0,2.6-1.2,2.6-2.7l0,0c0-1.5-1.2-2.6-2.6-2.6h-29.5V354.9z"/>
			<linearGradient id="SVGID_99_" gradientUnits="userSpaceOnUse" x1="193.5422" y1="437.4127" x2="201.5894" y2="305.3419">
				<stop  offset="1.282050e-03" style="stop-color:#C1272D"/>
				<stop  offset="0.2953" style="stop-color:#C12A2F"/>
				<stop  offset="0.5412" style="stop-color:#C03537"/>
				<stop  offset="0.769" style="stop-color:#BF4644"/>
				<stop  offset="0.9844" style="stop-color:#BE5E55"/>
			</linearGradient>
			<path class="st115" d="M214.8,363.3h-5.5c-4.1,0-7.5-3.1-7.8-7.2l1.3-17.1c0.9-11-7.8-20.4-18.9-20.4l0,0
				c-12,0-20.9,11-18.5,22.7c3.5,17,8.8,37.7,14.2,39.9c2.8,1.2,5.8,1.8,9,1.8h39.8c1.7,0,3.1-1.4,3.1-3.1l0,0
				C231.6,370.8,224.1,363.3,214.8,363.3z"/>
		</g>
	</g>
	<g>
		<linearGradient id="SVGID_100_" gradientUnits="userSpaceOnUse" x1="352.8841" y1="92.0588" x2="352.8841" y2="128.6755">
			<stop  offset="5.849520e-03" style="stop-color:#C1272D"/>
			<stop  offset="9.533642e-02" style="stop-color:#CD3C24"/>
			<stop  offset="0.2534" style="stop-color:#DF5C17"/>
			<stop  offset="0.4185" style="stop-color:#ED740D"/>
			<stop  offset="0.5915" style="stop-color:#F78506"/>
			<stop  offset="0.7776" style="stop-color:#FD9001"/>
			<stop  offset="1" style="stop-color:#FF9300"/>
		</linearGradient>
		<path class="st116" d="M366.6,95.7l-2.9,15.6l-12.2,9.6l-8.8,6.9c-3.3-0.8-4.6-4.8-2.4-7.4l4.3-5.1c0.1-0.2,0.3-0.4,0.4-0.5
			c3.2-3.8,6-7.9,8.7-12.1C359.6,93.3,366.6,95.7,366.6,95.7z"/>
		<g>
			<path class="st77" d="M387.5,75.3c0.1-2.2,0.1-4.5-0.8-6.6c-0.7-1.7-2.4-3.6-3.9-4.7c-2.2-1.7-10.1-3.2-14.6,1.6
				c-1,1-2.3,2-3.1,3.1c-1.5,2-2.3,4.4-2.3,6.9c0,3,0.4,6,0.9,9c0.3,2.1,0.8,4.2,0.5,6.3c-0.3,2-0.9,3.8-1.2,5.8
				c-0.7,5.1,1.4,10.7,6.3,12.9c1.8,0.9,3.9,1.6,5.9,2.1c1.7,0.5,3.4,0.6,5.1,1.1c0.8,0.3,1.8,0.6,2.4,1.2c0.9,0.8,0.2,1.5,0.5,2.4
				c2.7-1,5-4,6.2-6.6c1.4-2.8,1.8-6.2,0.3-9.3C382.3,86,387.3,78.1,387.5,75.3z"/>
		</g>
		<linearGradient id="SVGID_101_" gradientUnits="userSpaceOnUse" x1="397.1156" y1="92.0588" x2="397.1156" y2="128.6755">
			<stop  offset="5.849520e-03" style="stop-color:#C1272D"/>
			<stop  offset="9.533642e-02" style="stop-color:#CD3C24"/>
			<stop  offset="0.2534" style="stop-color:#DF5C17"/>
			<stop  offset="0.4185" style="stop-color:#ED740D"/>
			<stop  offset="0.5915" style="stop-color:#F78506"/>
			<stop  offset="0.7776" style="stop-color:#FD9001"/>
			<stop  offset="1" style="stop-color:#FF9300"/>
		</linearGradient>
		<path class="st117" d="M407.3,127.8l-9.6-7.5l-11.4-9l-2.9-15.6c0,0,7-2.3,12.9,7c2.6,4.1,5.4,8.2,8.5,12c0.2,0.2,0.4,0.5,0.6,0.7
			l4.3,5.1C411.9,123,410.6,127,407.3,127.8z"/>
		<path class="st77" d="M407.3,127.8l-9.6-7.5c1.1-3,3.9-5.2,7.1-5.6c0.2,0.2,0.4,0.5,0.6,0.7l4.3,5.1
			C411.9,123,410.6,127,407.3,127.8z"/>
		<path class="st4" d="M389.1,144.2l-24.8,0.6c-6.7,0.1-9.8,8.5-4.7,12.9l3.6,3.1l24.2,0.1C387.4,160.9,398.3,145.7,389.1,144.2z"/>
		<path class="st73" d="M386.1,105.4c-0.2,0.6-1.2,1.2-2.5,1.6c-5.5,1.9-18.2,2.2-19.3-0.3l3.2-9.5c0-0.1,0-0.1,0.1-0.2l0.5-1.6
			l1.2-0.1c0.5-0.1,1-0.3,1.3-0.5c0.7-0.4,1-1,1.2-1.9c0,0,0,0,0,0c0-0.3,0.1-0.6,0.1-0.9c0-1-0.1-1.9-0.5-2.6l6.7-1.6l0.2,2.7
			c0,0.5,0.1,1,0.1,1.5c0,0.5,0.1,0.9,0.1,1.4c0,0.7,0.5,1.3,1.2,1.4l1.5,0.2l3.4,7.2L386.1,105.4z"/>
		<path class="st46" d="M383.6,133.3c-0.4-0.6-0.6-1.3-0.7-2.1c0-0.4,0-0.8,0-1.2c0-0.9,0.1-1.7,0.3-2.4l1.7-3.4l2.1-4.1
			c2-4,3.4-9.1,1.4-12.9c-1.9-3.8-1.1-9.5-2.5-11.7c-1.3-0.4-2.8-0.5-4.4-0.4h0l-1.8-0.2c0,0,4.3,11.4-3.9,12
			c-8.1,0.5-6.6-11.5-6.6-11.5l-1.2,0.1c-0.7,0-1.3,0-2,0.1c-1.3,0.1-2.6,0.2-3.5,0.5l0.3,3.1l0.1,4.7c-0.1,1.3-0.4,2.5-0.8,3.7
			c-0.5,1.5-0.8,3-0.8,4.6c0,1.8,0.4,3.6,1.1,5.3l2.2,5.3l0.3,0.8c0.4,1.1,0.7,2.2,0.7,3.3c0.1,1.6-0.2,3.2-0.8,4.6l-8.4,13.6
			c12.9,9,24.3,9.5,33.9-1L383.6,133.3z"/>
		<g>
			<linearGradient id="SVGID_102_" gradientUnits="userSpaceOnUse" x1="362.635" y1="92.0588" x2="362.635" y2="128.6757">
				<stop  offset="5.849520e-03" style="stop-color:#C1272D"/>
				<stop  offset="9.533642e-02" style="stop-color:#CD3C24"/>
				<stop  offset="0.2534" style="stop-color:#DF5C17"/>
				<stop  offset="0.4185" style="stop-color:#ED740D"/>
				<stop  offset="0.5915" style="stop-color:#F78506"/>
				<stop  offset="0.7776" style="stop-color:#FD9001"/>
				<stop  offset="1" style="stop-color:#FF9300"/>
			</linearGradient>
			<path class="st118" d="M362.6,131.2c1-4.5,0.6-9.3-1.2-13.6c-0.7-1.7-1-3.5-1-5.3c0-1.5,0.3-3.1,0.8-4.6c0.4-1.2,0.7-2.5,0.8-3.8
				l-0.1-4.7l-0.3-3.1c1-0.3,2.2-0.5,3.5-0.5c0.6,0,1.3-0.1,2-0.1l1.2-0.1c0,0-0.2,1.5-0.1,3.3c0.1,1.5-0.5,3.3-0.7,4.8
				c-0.2,1.7-0.4,3.4-0.6,5.1c-0.3,3.4-0.5,6.8-0.6,10.2c-0.1,6.6,0.3,13.3,1.2,19.9c0.6,4.4,1.5,8.8,2.6,13.1
				c-5.2-1-10.2-3.3-14.5-6.6c-1.4-1.1,2.1-4.4,2.8-5.2C360.5,137.4,361.9,134.4,362.6,131.2z"/>
			<linearGradient id="SVGID_103_" gradientUnits="userSpaceOnUse" x1="385.4349" y1="92.0589" x2="385.4349" y2="128.6757">
				<stop  offset="5.849520e-03" style="stop-color:#C1272D"/>
				<stop  offset="9.533642e-02" style="stop-color:#CD3C24"/>
				<stop  offset="0.2534" style="stop-color:#DF5C17"/>
				<stop  offset="0.4185" style="stop-color:#ED740D"/>
				<stop  offset="0.5915" style="stop-color:#F78506"/>
				<stop  offset="0.7776" style="stop-color:#FD9001"/>
				<stop  offset="1" style="stop-color:#FF9300"/>
			</linearGradient>
			<path class="st119" d="M391.4,144.2c-3.7,4.1-7.7,6.5-11.9,7.4c10.5-51.1,1.3-56.7,1.3-56.7l1.8,0.2h0c1.6-0.1,3.1,0,4.4,0.4
				c1.4,2.3,0.6,7.9,2.5,11.7c1.6,3.2,0.9,7.1-0.3,10.3c-0.9,2.4-2.3,4.6-3.1,7.1c-1.5,5.2-0.4,10.8,2.6,15.2
				C389,140.2,391.7,143.8,391.4,144.2z"/>
		</g>
		<g>
			<path class="st71" d="M386.7,75.5c-0.5,0-1,0.1-1.5,0.4c-0.7-3-2.3-6.3-4.2-8.5c-0.8-1.1-1.8-1.8-2.8-2.3
				c-0.6-0.3-1.1-0.5-1.7-0.5c-0.4,0-0.8,0-1.2,0c-0.4,0-0.8,0-1.2,0c-0.6,0-1.1,0.2-1.7,0.5c-1,0.4-2,1.1-2.8,2.3
				c-2,2.2-3.6,5.4-4.2,8.5c-0.5-0.3-1-0.5-1.5-0.4c-1.5,0.1-2,2.5-1.6,4.3c0.5,2.3,2.3,3,3.9,3.5c0.7,1.5,1.8,3,3,4.3
				c1.3,1.5,2.9,2.6,4.7,3c0.1,0,0.1,0,0.2,0c0.1,0,0.2,0.1,0.3,0.1c0.1,0,0.1,0,0.2,0c0.1,0,0.1,0,0.2,0c0.1,0,0.3,0,0.4,0
				c0.1,0,0.3,0,0.4,0c0.1,0,0.1,0,0.2,0c0.1,0,0.1,0,0.2,0c0.1,0,0.2-0.1,0.3-0.1c0.1,0,0.1,0,0.2,0c1.9-0.4,3.5-1.6,4.7-3
				c1.2-1.2,2.2-2.7,3-4.3c1.6-0.5,3.3-1.2,3.9-3.5C388.7,78,388.3,75.6,386.7,75.5z"/>
			<g>
				<path class="st4" d="M376.1,85.8c1.1-0.3,2.2-1.1,2.7-2.9c0-0.1,0-0.3-0.2-0.3c-0.1,0-0.3,0-0.3,0.2c-0.9,3.1-4.1,2.7-4.2,2.7
					c-0.1,0-0.3,0.1-0.3,0.2c0,0.1,0.1,0.3,0.2,0.3C374,86,375,86.1,376.1,85.8z"/>
			</g>
			<g>
				<path class="st4" d="M379.5,79.2c0,0.7-0.4,1.2-0.8,1.2c-0.4,0-0.7-0.6-0.6-1.3c0-0.7,0.4-1.2,0.8-1.2
					C379.3,78,379.6,78.5,379.5,79.2z"/>
			</g>
			<g>
				<path class="st4" d="M371.9,79.1c0,0.7-0.4,1.2-0.8,1.2c-0.4,0-0.7-0.6-0.6-1.3c0-0.7,0.4-1.2,0.8-1.2
					C371.7,77.8,372,78.4,371.9,79.1z"/>
			</g>
			<g>
				<path class="st4" d="M380.8,76.9C380.8,76.9,380.8,76.9,380.8,76.9c0.2-0.1,0.2-0.2,0.2-0.4c-0.7-1.6-2.2-1.6-2.9-1.3
					c-0.1,0.1-0.2,0.2-0.2,0.3c0.1,0.1,0.2,0.2,0.3,0.2c0,0,1.5-0.5,2.2,1C380.5,76.9,380.6,76.9,380.8,76.9z"/>
			</g>
			<g>
				<path class="st4" d="M372.6,75.8C372.6,75.8,372.6,75.8,372.6,75.8c0.1-0.2,0-0.3-0.1-0.4c-1.6-0.8-2.7,0.2-3.1,0.8
					c-0.1,0.1,0,0.3,0.1,0.4c0.1,0.1,0.3,0,0.4-0.1c0,0,0.8-1.4,2.4-0.6C372.3,76,372.5,76,372.6,75.8z"/>
			</g>
			<g>
				<path class="st4" d="M374.2,83.3c-1.2-0.2-1.3-0.7-1.3-0.8c0-0.1,0-0.1,0-0.2l1.6-2.3c0.1-0.1,0.2-0.2,0.4-0.1
					c0.1,0.1,0.2,0.3,0.1,0.4l-1.5,2.2c0.1,0.1,0.5,0.4,1.5,0.4c0.2,0,0.3,0.1,0.3,0.3c0,0.1-0.1,0.3-0.3,0.3
					C374.6,83.3,374.4,83.3,374.2,83.3z"/>
			</g>
			<path class="st4" d="M380.6,78.2h-2c-1.6,0-2.8,0.9-2.9,2.1c-0.4-0.2-0.8-0.3-1.3-0.2c-0.3,0-0.6,0.1-0.8,0.2
				c-0.1-1.1-1.4-2-2.9-2h-2c-1.6,0-2.9,1-2.9,2.2s1.3,2.2,2.9,2.2h2c1.3,0,2.5-0.7,2.8-1.6c0.1-0.1,0.5-0.3,1-0.3
				c0.5,0,0.9,0.2,1.4,0.5c0.4,0.9,1.5,1.5,2.7,1.5h2c1.6,0,2.9-1,2.9-2.2S382.2,78.2,380.6,78.2z M370.7,82h-2
				c-1.2,0-2.1-0.7-2.1-1.6c0-0.9,0.9-1.6,2.1-1.6h2c1.2,0,2.1,0.7,2.1,1.6C372.9,81.3,371.9,82,370.7,82z M380.6,82h-2
				c-1.2,0-2.1-0.7-2.1-1.6c0-0.9,0.9-1.6,2.1-1.6h2c1.2,0,2.1,0.7,2.1,1.6C382.7,81.3,381.8,82,380.6,82z"/>
			<polygon class="st4" points="383.1,79.8 383.5,80.4 385.3,75.9 385.3,74.8 			"/>
		</g>
		<g>
			<path class="st71" d="M408.4,128.1l-11.9,7.8l-3.2,2.1l-1.8,1.2l-1.2-3.1c0.2-0.1,0.3-0.2,0.5-0.4l0.2-0.2l2.1-2.4
				c0,0,10.1-16.8,15.7-13.9C411.6,121.5,411.5,126.1,408.4,128.1z"/>
			<path class="st71" d="M391.4,139.3l-0.3,0.2c-0.4,0.3-0.9,0.4-1.4,0.5l-5.3,0.1c0.8,1.9-6.7,5.7-8.2,3.2c0,0,3.7-6.3,4.4-7
				l0.8-0.8c0.9-0.8,2.1-1.1,3.3-0.7l4.2,1.4c0.5,0.2,1,0.1,1.4-0.1L391.4,139.3z"/>
		</g>
		<g>
			<path class="st77" d="M351.5,120.8l-8.8,6.9c-3.3-0.8-4.6-4.8-2.4-7.4l4.3-5.1c0.1-0.2,0.3-0.4,0.4-0.5
				C348.1,115.5,350.6,117.8,351.5,120.8z"/>
		</g>
		<g>
			<path class="st71" d="M341.6,128.1l11.9,7.8l3.2,2.1l1.8,1.2l1.2-3.1c-0.2-0.1-0.3-0.2-0.5-0.4l-0.2-0.2l-2.1-2.4
				c0,0-10.1-16.8-15.7-13.9C338.4,121.5,338.5,126.1,341.6,128.1z"/>
			<path class="st71" d="M358.6,139.3l0.3,0.2c0.4,0.3,0.9,0.4,1.4,0.5l5.3,0.1c-0.8,1.9,6.7,5.7,8.2,3.2c0,0-3.7-6.3-4.4-7
				l-0.8-0.8c-0.9-0.8-2.1-1.1-3.3-0.7l-4.2,1.4c-0.5,0.2-1,0.1-1.4-0.1L358.6,139.3z"/>
		</g>
		<g>
			<path class="st4" d="M393.4,127h-37.6c-1.2,0-2.1,1.1-2,2.3l2.9,19.5c-0.7,0.2-1.3,0.8-1.3,1.6l0,0c0,0.9,0.7,1.6,1.6,1.6h34.8
				c0.9,0,1.6-0.7,1.6-1.6l0,0c0-0.9-0.7-1.6-1.6-1.6l3.4-19.4C395.6,128.1,394.7,127,393.4,127z"/>
			<path class="st120" d="M377,137.7c0.9,0.9,0.9,2.4,0,3.4c-0.9,0.9-2.4,0.9-3.4,0c-0.9-0.9-0.9-2.4,0-3.4
				C374.5,136.7,376,136.7,377,137.7z"/>
		</g>
		<g>
			<g>
				<path class="st71" d="M391.2,199.9l-3.5,2.8c0,0,0,0,0-0.1c-3.7-4.8-12.9-17.9-16.8-22.7c-9.5-12-15.2-20.5-15-29.8
					c0.1-1.6,0.8-3.1,1.9-4.2c1.1-1.1,2.6-1.7,4.3-1.7c3.6,0,6.8,2.1,8.2,5.4l8.6,24.4L391.2,199.9z"/>
				<path class="st4" d="M400.3,212.6c-1.5-5.4-3.3-7.8-8.1-11.8c0,0,0,0,0,0c-0.3-0.3-0.6-0.5-1-0.8l0,0l0,0l-3.5,2.8
					c0.2,0.7,0.4,1.3,0.6,1.9c1.9,5.4,4.8,8.3,7,10.6C397.7,217.7,401.2,215.9,400.3,212.6z"/>
			</g>
			<path class="st71" d="M393.8,150.2c0.3,9.2-5.5,17.8-15,29.8c-3.9,4.8-13.1,17.9-16.8,22.7c0,0,0,0,0,0.1l-3.6-2.8c0,0,0,0,0,0
				l0,0l12.5-25.8l8.6-24.4c1.4-3.3,4.6-5.4,8.2-5.4c1.6,0,3.1,0.7,4.3,1.7C393,147.1,393.7,148.6,393.8,150.2z"/>
			<path class="st4" d="M358.4,200c-0.6,0.5-1.2,1-1.7,1.5c-4.2,3.7-5.9,6.1-7.3,11.2c-0.9,3.3,2.6,5.1,5,2.6
				c2.1-2.2,4.8-4.9,6.7-9.8c0.3-0.8,0.6-1.7,0.9-2.6L358.4,200z"/>
		</g>
		<g>
			<path class="st77" d="M385.4,69.6c-0.8-2.1-2.7-4.6-5.2-4.5c0-1-0.2-2-1.2-3.1c-0.7-0.8-1.6-1.1-2.6-1.2
				c-2-0.2-13.2,1.1-13.2,13.9c0,2.1,1.1,6.3,1.6,8.3c0.4,1.5,1,3.1,1.2,4.6c0.4,2.5-0.3,4-0.9,6.2c-0.5,1.8-0.2,3.9,0.8,5.3
				c2.2,3,5.8,5.3,9.2,5c-1.4-1.2-3.3-1.9-3.7-4.3c-0.4-2.3,1.1-2.9,1.9-4.6c1.8-3.6-2.8-6.2-4.1-8.6c-1.6-2.8-1.1-8.2,0.6-10.8
				c2.1-3.2,5.1-2.7,7.6-4.9c0.4-0.4,0.8-0.7,1.1-1.2c0.3,0.4,0.6,0.7,0.9,1c0.6,0.7,1.5,1.2,2.3,1.6c0.9,0.4,1.9,0.6,2.4,1.6
				c0.4,0.7,0.2,1.8,0.2,2.6C386.7,75,386.4,72,385.4,69.6z"/>
		</g>
	</g>
</g>
<g id="DESIGNED_BY_FREEPIK" class="st0">
	<g class="st1">
		<g>
			<g id="XMLID_319_">
				<g id="XMLID_338_">
					<path id="XMLID_346_" class="st121" d="M385.1,465.5c-0.4,0.4-0.8,0.9-1.1,1.5l-0.5-0.2c-0.1-0.3-0.3-0.5-0.7-0.5
						c-0.3,0-0.6,0.3-0.5,0.7c0,0.3,0.3,0.6,0.7,0.5c0.1,0,0.1,0,0.2-0.1l0.5,0.2c-0.3,0.6-0.4,1.1-0.5,1.7l0.7,0.1
						c0.2-1.3,0.8-2.5,1.8-3.5L385.1,465.5z"/>
					<path id="XMLID_345_" class="st121" d="M390.6,463.2c-0.2,0-0.3,0-0.5,0l-0.1-0.6c0.2-0.1,0.3-0.4,0.3-0.6
						c0-0.4-0.4-0.7-0.8-0.6c-0.4,0-0.7,0.4-0.6,0.8c0,0.3,0.2,0.5,0.4,0.6l0.1,0.6c-0.7,0.1-1.4,0.3-2.1,0.6l0.3,0.7
						c0.9-0.4,1.9-0.7,3-0.7c0.5,0,1,0.1,1.5,0.2l0.2-0.7C391.7,463.2,391.1,463.2,390.6,463.2z"/>
					<path id="XMLID_344_" class="st121" d="M397.2,465.7c0.3,0,0.6-0.3,0.5-0.7c0-0.3-0.3-0.6-0.7-0.5c-0.3,0-0.5,0.3-0.5,0.6
						l-0.4,0.4c-0.4-0.4-0.9-0.8-1.4-1.1l-0.4,0.6c1.1,0.7,2,1.7,2.6,2.9l0.7-0.3c-0.3-0.6-0.6-1.1-0.9-1.5l0.4-0.4
						C397.1,465.7,397.1,465.7,397.2,465.7z"/>
					<path id="XMLID_343_" class="st121" d="M390,473.4c-0.4,0-0.8,0-1.2,0c-0.9,0-1.7-0.1-2.5-0.2c-0.4-0.1-0.8-0.2-1.3-0.3
						c1,1.9,3.1,3.1,5.4,3.1c2.9,0,5.3-1.9,5.9-4.5c-0.7,0.5-1.5,0.8-2.5,1.1C392.8,473,391.5,473.3,390,473.4z"/>
					<path id="XMLID_339_" class="st121" d="M390.6,464.7c-3.4,0-6.1,2.7-6.1,5.9c0,0.4,0,0.8,0.1,1.3c0.7,0.5,2.7,0.9,5.3,0.7
						c2.9-0.2,5.3-1,6.7-2.2c0-0.2,0-0.4,0-0.6C396.2,466.9,393.6,464.7,390.6,464.7z M388.4,471.2c-1,0-1.8-0.8-1.8-1.8
						c0-1,0.8-1.8,1.8-1.8c1,0,1.8,0.8,1.8,1.8C390.3,470.4,389.5,471.2,388.4,471.2z M393.2,470.3c-0.8,0-1.4-0.6-1.4-1.4
						s0.6-1.4,1.4-1.4c0.8,0,1.4,0.6,1.4,1.4S393.9,470.3,393.2,470.3z"/>
				</g>
				<path id="XMLID_336_" class="st121" d="M406.6,466.5c-0.3-0.1-0.8-0.3-1.4-0.2c-0.6,0.1-0.8,0.3-0.8,1v0.9h2.2v1.7h-2.2v5.5
					h-1.9v-5.5h-1.3v-1.7h1.3v-0.9c0-1.7,0.9-2.8,2.6-2.8c0.6,0,1.2,0.1,1.6,0.3V466.5z"/>
				<path id="XMLID_334_" class="st121" d="M411.3,469.9c-0.2,0-0.4,0-0.5,0c-0.9,0-1.5,0.5-1.5,1.6v3.9h-1.9v-7.2h1.9v0.8
					c0.5-0.7,1.1-1,2-1c0.4,0,0.8,0.1,1.1,0.3L411.3,469.9z"/>
				<path id="XMLID_331_" class="st121" d="M419,471.8c0,0.2,0,0.5,0,0.7h-5.1c0.2,1,0.9,1.5,1.8,1.5c0.6,0,1.3-0.3,1.8-0.7l1.1,1.2
					c-0.8,0.7-1.9,1.1-3.1,1.1c-2.2,0-3.7-1.5-3.7-3.8c0-2.3,1.5-3.8,3.6-3.8C417.5,468,419,469.5,419,471.8z M413.9,471.1h3.2
					c-0.2-0.9-0.7-1.4-1.6-1.4C414.6,469.7,414,470.2,413.9,471.1z"/>
				<path id="XMLID_328_" class="st121" d="M426.6,471.8c0,0.2,0,0.5,0,0.7h-5.1c0.2,1,0.9,1.5,1.8,1.5c0.6,0,1.3-0.3,1.8-0.7
					l1.1,1.2c-0.8,0.7-1.9,1.1-3.1,1.1c-2.2,0-3.7-1.5-3.7-3.8c0-2.3,1.5-3.8,3.6-3.8C425.2,468,426.6,469.5,426.6,471.8z
					 M421.5,471.1h3.2c-0.2-0.9-0.7-1.4-1.6-1.4C422.2,469.7,421.7,470.2,421.5,471.1z"/>
				<path id="XMLID_325_" class="st121" d="M435,471.8c0,2.2-1.5,3.8-3.5,3.8c-1,0-1.6-0.4-2.1-0.9v3.7h-1.9v-10.1h1.9v0.8
					c0.5-0.6,1.2-1,2.1-1C433.5,468,435,469.6,435,471.8z M429.3,471.8c0,1.1,0.7,2,1.8,2c1.1,0,1.8-0.9,1.8-2s-0.7-2-1.8-2
					C430,469.8,429.3,470.6,429.3,471.8z"/>
				<path id="XMLID_322_" class="st121" d="M438.1,465.8c0,0.7-0.5,1.2-1.2,1.2c-0.7,0-1.2-0.5-1.2-1.2c0-0.7,0.5-1.2,1.2-1.2
					C437.5,464.6,438.1,465.1,438.1,465.8z M437.8,475.4h-1.9v-7.2h1.9V475.4z"/>
				<path id="XMLID_320_" class="st121" d="M441,470.7l2.7-2.6h2.4l-3.5,3.4l3.5,3.8h-2.4l-2.7-2.9v2.9h-1.9v-10.7h1.9V470.7z"/>
			</g>
			<g>
				<path class="st121" d="M309.4,475.3v-1.1c-0.5,0.7-1.4,1.2-2.4,1.2c-1.8,0-3.1-1.4-3.1-3.7c0-2.3,1.3-3.7,3.1-3.7
					c1,0,1.8,0.5,2.4,1.2v-3.8h1.1v9.8H309.4z M309.4,473.4v-3.2c-0.4-0.6-1.2-1.1-2.1-1.1c-1.4,0-2.3,1.2-2.3,2.7
					c0,1.6,0.8,2.7,2.3,2.7C308.2,474.5,309,474,309.4,473.4z"/>
				<path class="st121" d="M311.9,471.7c0-2.1,1.5-3.7,3.5-3.7c2.1,0,3.4,1.7,3.4,3.8v0.3h-5.7c0.1,1.3,1,2.4,2.5,2.4
					c0.8,0,1.6-0.3,2.2-0.9l0.5,0.7c-0.7,0.7-1.7,1.1-2.8,1.1C313.4,475.5,311.9,474,311.9,471.7z M315.4,468.9
					c-1.5,0-2.3,1.3-2.3,2.4h4.6C317.7,470.2,317,468.9,315.4,468.9z"/>
				<path class="st121" d="M319.6,474.4l0.6-0.8c0.5,0.5,1.4,1,2.3,1c1.1,0,1.7-0.5,1.7-1.2c0-1.7-4.4-0.7-4.4-3.3c0-1.1,1-2,2.6-2
					c1.2,0,2.1,0.5,2.6,1l-0.5,0.8c-0.4-0.5-1.2-0.9-2.1-0.9c-1,0-1.6,0.5-1.6,1.1c0,1.6,4.4,0.5,4.4,3.3c0,1.2-1,2.1-2.8,2.1
					C321.3,475.5,320.3,475.1,319.6,474.4z"/>
				<path class="st121" d="M326.5,466.5c0-0.4,0.3-0.7,0.7-0.7c0.4,0,0.7,0.3,0.7,0.7c0,0.4-0.3,0.7-0.7,0.7
					C326.8,467.2,326.5,466.9,326.5,466.5z M326.7,475.3v-7.1h1.1v7.1H326.7z"/>
				<path class="st121" d="M329.6,477.1l0.6-0.8c0.6,0.7,1.3,1,2.3,1c1.2,0,2.3-0.6,2.3-2.1v-1c-0.5,0.7-1.4,1.3-2.4,1.3
					c-1.8,0-3.1-1.4-3.1-3.7c0-2.3,1.3-3.7,3.1-3.7c1,0,1.8,0.5,2.4,1.2v-1.1h1.1v6.9c0,2.3-1.6,3.1-3.4,3.1
					C331.2,478.2,330.4,477.9,329.6,477.1z M334.7,473.3v-3.1c-0.4-0.6-1.2-1.1-2.1-1.1c-1.4,0-2.3,1.1-2.3,2.7
					c0,1.6,0.8,2.7,2.3,2.7C333.5,474.4,334.3,473.9,334.7,473.3z"/>
				<path class="st121" d="M342.4,475.3v-4.6c0-1.2-0.6-1.6-1.6-1.6c-0.9,0-1.7,0.5-2.1,1.1v5.2h-1.1v-7.1h1.1v1
					c0.5-0.6,1.5-1.2,2.5-1.2c1.5,0,2.3,0.7,2.3,2.3v5H342.4z"/>
				<path class="st121" d="M344.9,471.7c0-2.1,1.5-3.7,3.5-3.7c2.1,0,3.4,1.7,3.4,3.8v0.3h-5.7c0.1,1.3,1,2.4,2.5,2.4
					c0.8,0,1.6-0.3,2.2-0.9l0.5,0.7c-0.7,0.7-1.7,1.1-2.8,1.1C346.4,475.5,344.9,474,344.9,471.7z M348.4,468.9
					c-1.5,0-2.3,1.3-2.3,2.4h4.6C350.7,470.2,350,468.9,348.4,468.9z"/>
				<path class="st121" d="M358.4,475.3v-1.1c-0.5,0.7-1.4,1.2-2.4,1.2c-1.8,0-3.1-1.4-3.1-3.7c0-2.3,1.3-3.7,3.1-3.7
					c1,0,1.8,0.5,2.4,1.2v-3.8h1.1v9.8H358.4z M358.4,473.4v-3.2c-0.4-0.6-1.2-1.1-2.1-1.1c-1.4,0-2.3,1.2-2.3,2.7
					c0,1.6,0.8,2.7,2.3,2.7C357.1,474.5,358,474,358.4,473.4z"/>
				<path class="st121" d="M364.7,475.3v-9.8h1.1v3.8c0.6-0.8,1.4-1.2,2.4-1.2c1.8,0,3.1,1.5,3.1,3.7c0,2.3-1.3,3.7-3.1,3.7
					c-1,0-1.9-0.5-2.4-1.2v1.1H364.7z M367.9,474.5c1.4,0,2.3-1.2,2.3-2.7c0-1.6-0.8-2.7-2.3-2.7c-0.9,0-1.7,0.5-2.1,1.1v3.2
					C366.2,474,367,474.5,367.9,474.5z"/>
				<path class="st121" d="M372.5,477.1c0.2,0.1,0.4,0.1,0.6,0.1c0.5,0,0.8-0.2,1.1-0.7l0.5-1.1l-3-7.1h1.2l2.4,5.8l2.3-5.8h1.2
					l-3.5,8.5c-0.4,1-1.1,1.4-2.1,1.4c-0.2,0-0.6,0-0.8-0.1L372.5,477.1z"/>
			</g>
		</g>
	</g>
</g>
</svg>
