<?xml version="1.0" encoding="utf-8"?>
<!-- Generator: Adobe Illustrator 24.1.1, SVG Export Plug-In . SVG Version: 6.00 Build 0)  -->
<svg version="1.1" xmlns="http://www.w3.org/2000/svg" xmlns:xlink="http://www.w3.org/1999/xlink" x="0px" y="0px"
	 viewBox="0 0 750 500" style="enable-background:new 0 0 750 500;" xml:space="preserve">
<style type="text/css">
	.st0{display:none;}
	.st1{display:inline;fill:#F9FBFC;}
	.st2{display:inline;fill:#11477C;}
	.st3{font-family:'FiraSans-BookItalic';}
	.st4{font-size:32.2654px;}
	.st5{font-family:'FiraSans-ThinItalic';}
	.st6{display:inline;}
	.st7{fill:none;}
	.st8{fill:#11477C;}
	.st9{font-size:10.0827px;}
	.st10{fill:#D85700;}
	.st11{fill:#FFFFFF;}
	.st12{font-family:'FiraSans-Regular';}
	.st13{font-size:10.0957px;}
	.st14{font-family:'FiraSans-SemiBold';}
	.st15{font-size:7.8039px;}
	.st16{fill:#758D9E;}
	.st17{fill:#FC802D;}
	.st18{fill:#E17327;}
	.st19{fill:#DFEAED;}
	.st20{fill:#3D8DC4;}
	.st21{fill:#2672B2;}
	.st22{fill:#1B699E;}
	.st23{fill:#A5B7C6;}
	.st24{fill:#C3D3DD;}
	.st25{fill:#1D262D;}
	.st26{enable-background:new    ;}
	.st27{fill:#455B68;}
	.st28{fill:#37454F;}
	.st29{fill:#F99958;}
	.st30{fill:#B6C9CE;}
	.st31{fill:#96521F;}
	.st32{fill:#D4E3E8;}
	.st33{fill:#CAD9DD;}
	.st34{fill:#DCE8EF;}
	.st35{fill:#F0F5F7;}
	.st36{fill:#D1D3D4;}
	.st37{fill:#21649B;}
	.st38{fill:#EFC87E;}
	.st39{fill:#C4C4C4;}
	.st40{fill:#ECECEC;}
	.st41{fill:#6DC1B4;}
	.st42{fill:#424E57;}
	.st43{fill:#FFC8AF;}
	.st44{fill:#F4B298;}
	.st45{opacity:0.33;fill:#DDCACA;}
	.st46{fill:#B3ADEC;}
	.st47{fill:#78BA9A;}
	.st48{fill:#FFA938;}
	.st49{fill:#E1806D;}
	.st50{fill:#6756AD;}
	.st51{fill:#EFEBEB;}
	.st52{fill:#37366A;}
	.st53{font-family:'Montserrat-Regular';}
	.st54{font-size:7.6227px;}
	.st55{fill:#A43F60;}
	.st56{fill:#F3F4E9;}
	.st57{font-size:5.6781px;}
	.st58{opacity:0.57;}
	.st59{font-size:5.1876px;}
	.st60{fill:none;stroke:#37366A;stroke-width:0.5;stroke-miterlimit:10;}
	.st61{opacity:0.52;}
	.st62{fill:none;stroke:#50C3E2;stroke-width:0.5;stroke-miterlimit:10;}
	.st63{opacity:0.25;fill:#6756AD;}
	.st64{fill:#F5BA9A;}
	.st65{fill:#594656;}
	.st66{fill:#B96944;}
	.st67{fill:#53648C;}
	.st68{fill:#5D95BA;}
	.st69{fill:#8FCAEC;}
	.st70{fill:#F49E78;}
	.st71{fill:#514540;}
	.st72{opacity:0.28;}
	.st73{fill:#F28279;}
</style>
<g id="BACKGROUND" class="st0">
	<rect class="st1" width="750" height="500"/>
</g>
<g id="OBJECTS">
	<g class="st0">
		<text transform="matrix(1 0 0 1 55.2817 187.9303)" class="st2 st3 st4">online</text>
		<text transform="matrix(1 0 0 1 55.2827 222.9342)" class="st2 st5 st4">courses</text>
		<g class="st6">
			<rect x="59.03" y="251.96" class="st7" width="227.29" height="87.8"/>
			<text transform="matrix(1 0 0 1 59.0327 259.1212)"><tspan x="0" y="0" class="st8 st3 st9">Lorem ipsum dolor sit amet, consectetuer adipiscing </tspan><tspan x="0" y="12.1" class="st8 st3 st9">elit, sed diam nonummy nibh euismod tincidunt ut </tspan><tspan x="0" y="24.2" class="st8 st3 st9">laoreet dolore magna aliquam erat volutpat. Ut wisi </tspan><tspan x="0" y="36.3" class="st8 st3 st9">enim ad minim veniam, quis nostrud exerci tation </tspan><tspan x="0" y="48.4" class="st8 st3 st9">ullamcorper suscipit lobortis nisl ut. Sed diam </tspan><tspan x="0" y="60.5" class="st8 st3 st9">nonummy nibh euismod tincidunt ut laoreet dolore. </tspan></text>
		</g>
		<g class="st6">
			<path class="st10" d="M121.34,397.33H71.25c-6.75,0-12.22-5.47-12.22-12.22l0,0c0-6.75,5.47-12.22,12.22-12.22h50.09
				c6.75,0,12.22,5.47,12.22,12.22l0,0C133.56,391.86,128.09,397.33,121.34,397.33z"/>
			<g>
				<text transform="matrix(1.0002 0 0 1 70.7153 388.7868)" class="st11 st12 st13">READ MORE</text>
			</g>
		</g>
		<g class="st6">
			<text transform="matrix(1.0002 0 0 1 364.9125 64.0104)" class="st8 st14 st15">ABOUT</text>
			<text transform="matrix(1.0002 0 0 1 439.977 64.0104)" class="st8 st14 st15">NEWS</text>
			<text transform="matrix(1.0002 0 0 1 508.9457 64.0104)" class="st8 st14 st15">PRICING</text>
			<text transform="matrix(1.0002 0 0 1 587.0766 64.0104)" class="st8 st14 st15">BLOG</text>
			<g>
				<g>
					<path class="st8" d="M686.12,69.86h-32.86c-4.75,0-8.6-3.85-8.6-8.59l0,0c0-4.75,3.85-8.59,8.6-8.59h32.86
						c4.75,0,8.6,3.85,8.6,8.59l0,0C694.72,66.01,690.87,69.86,686.12,69.86z"/>
				</g>
				<text transform="matrix(1.0002 0 0 1 655.4077 64.0104)" class="st11 st14 st15">SIGN UP</text>
			</g>
		</g>
		<g class="st6">
			<g>
				<g>
					<path class="st16" d="M99.17,55.49c-0.54,1.66-2.11,2.85-3.94,2.85c-2.29,0-4.14-1.86-4.14-4.14c0-2.29,1.86-4.14,4.14-4.14
						c1.84,0,3.39,1.18,3.93,2.83h-1.98c-0.33-0.72-1.14-1.17-1.95-1.17c-1.3,0-2.34,1.13-2.34,2.49c0,1.37,1.04,2.49,2.34,2.49
						c0.83,0,1.63-0.49,1.97-1.2H99.17z"/>
					<path class="st16" d="M104.03,58.35c-2.23,0-4.14-1.92-4.14-4.14c0-2.23,1.92-4.14,4.14-4.14c2.23,0,4.14,1.92,4.14,4.14
						C108.17,56.43,106.25,58.35,104.03,58.35z M104.03,51.82c-1.24,0-2.37,1.12-2.37,2.37c0,1.24,1.13,2.38,2.37,2.38
						c1.24,0,2.37-1.14,2.37-2.38C106.4,52.95,105.27,51.82,104.03,51.82z"/>
					<path class="st16" d="M117.39,58.23l-0.95-5.55l-1.57,5.55h-1.74l-1.57-5.55l-0.95,5.55h-1.95l1.56-8.05h2.11l1.68,5.65
						l1.67-5.65h2.11l1.56,8.05H117.39z"/>
					<path class="st16" d="M121.89,58.23h-1.78v-8.05h1.34h0.44h1.24c1.3,0,2.46,1.05,2.46,2.58c0,1.63-1.16,2.59-2.46,2.59h-1.24
						V58.23z M121.89,51.58v2.38h0.95c0.52,0,1.07-0.43,1.07-1.2c0-0.73-0.54-1.18-1.07-1.18H121.89z"/>
					<path class="st16" d="M131.12,58.23l-0.58-1.62h-3.07l-0.58,1.62h-1.91l3.27-8.05h1.5l3.27,8.05H131.12z M129,52.29l-1.02,2.87
						h2.04L129,52.29z"/>
					<path class="st16" d="M138.35,58.23l-2.77-5.02v5.02h-1.78v-8.05h1.78l2.77,5.02v-5.02h1.78v8.05H138.35z"/>
					<path class="st16" d="M143.9,54.38l-2.97-4.2h2.12l1.74,2.78l1.74-2.78h2.12l-2.97,4.2v3.85h-1.78V54.38z"/>
					<path class="st16" d="M91.38,64.39h1.78v6.44h2.89v1.61h-4.67V64.39z"/>
					<path class="st16" d="M100.44,72.56c-2.23,0-4.14-1.92-4.14-4.14c0-2.23,1.92-4.14,4.14-4.14c2.23,0,4.14,1.92,4.14,4.14
						C104.58,70.65,102.66,72.56,100.44,72.56z M100.44,66.04c-1.24,0-2.37,1.13-2.37,2.37s1.13,2.38,2.37,2.38
						c1.24,0,2.37-1.14,2.37-2.38S101.68,66.04,100.44,66.04z"/>
					<path class="st16" d="M107.39,68.44c0,1.36,1.07,2.51,2.34,2.51c0.78,0,1.78-0.25,2.21-1.47h-2.05v-1.34h3.97v0.27
						c0,2.29-1.84,4.14-4.13,4.14c-2.27,0-4.14-1.87-4.14-4.14s1.87-4.14,4.14-4.14c1.78,0,3.37,1.16,3.93,2.83h-1.95
						c-0.39-0.85-1.2-1.17-1.98-1.17C108.46,65.93,107.39,67.08,107.39,68.44z"/>
					<path class="st16" d="M118.85,72.56c-2.23,0-4.14-1.92-4.14-4.14c0-2.23,1.92-4.14,4.14-4.14c2.23,0,4.14,1.92,4.14,4.14
						C122.99,70.65,121.07,72.56,118.85,72.56z M118.85,66.04c-1.24,0-2.37,1.13-2.37,2.37s1.13,2.38,2.37,2.38
						c1.24,0,2.37-1.14,2.37-2.38S120.09,66.04,118.85,66.04z"/>
				</g>
			</g>
			<g>
				<g>
					<path class="st10" d="M73.2,75.04h-7.03c-5.8,0-10.51-4.7-10.51-10.51v-7.03c0-5.8,4.7-10.51,10.51-10.51h7.03
						C79,47,83.7,51.7,83.7,57.51v7.03C83.7,70.34,79,75.04,73.2,75.04z M65.08,70.46h9.2c2.68,0,4.84-2.17,4.84-4.84v-9.2
						c0-2.68-2.17-4.84-4.84-4.84h-9.2c-2.68,0-4.84,2.17-4.84,4.84v9.2C60.24,68.3,62.41,70.46,65.08,70.46z"/>
				</g>
			</g>
		</g>
	</g>
	<g class="st0">
		<g class="st6">
			<g>
				<g>
					<polygon class="st17" points="381.54,154.32 400.69,165.37 396.9,167.56 377.76,156.51 					"/>
				</g>
				<g>
					<polygon class="st18" points="396.9,271.06 453.89,238.16 453.89,134.66 396.9,167.56 					"/>
				</g>
				<g>
					<polygon class="st10" points="377.76,260.01 396.9,271.06 396.9,167.56 377.76,156.51 					"/>
				</g>
				<g>
					<polygon class="st19" points="381.28,227.04 393.38,234.03 393.38,188.64 381.28,181.66 					"/>
				</g>
				<g>
					<polygon class="st17" points="393.11,165.37 450.1,132.47 453.89,134.66 396.9,167.56 					"/>
				</g>
				<g>
					<polygon class="st17" points="377.76,156.51 434.74,123.61 438.53,125.79 381.54,158.69 					"/>
				</g>
				<g>
					<path class="st8" d="M382.1,244.83c0,3.33,2.34,7.39,5.23,9.06c2.89,1.67,5.23,0.32,5.23-3.02s-2.34-7.39-5.23-9.06
						C384.44,240.14,382.1,241.49,382.1,244.83z"/>
				</g>
				<g>
					<polygon class="st10" points="438.53,125.79 438.53,139.15 396.9,163.19 385.33,156.51 					"/>
				</g>
				<g>
					<polygon class="st19" points="445.62,135.06 434.05,128.38 385.33,156.51 396.9,163.19 					"/>
				</g>
			</g>
			<g>
				<g>
					<polygon class="st20" points="400.69,165.37 419.83,176.42 416.04,178.61 396.9,167.56 					"/>
				</g>
				<g>
					<polygon class="st21" points="416.04,282.11 473.03,249.21 473.03,145.71 416.04,178.61 					"/>
				</g>
				<g>
					<polygon class="st22" points="396.9,271.06 416.04,282.11 416.04,178.61 396.9,167.56 					"/>
				</g>
				<g>
					<polygon class="st19" points="400.42,238.09 412.52,245.08 412.52,199.69 400.42,192.71 					"/>
				</g>
				<g>
					<polygon class="st20" points="412.25,176.42 469.24,143.52 473.03,145.71 416.04,178.61 					"/>
				</g>
				<g>
					<polygon class="st20" points="396.9,167.56 453.89,134.66 457.67,136.84 400.69,169.75 					"/>
				</g>
				<g>
					<path class="st8" d="M401.24,255.88c0,3.33,2.34,7.39,5.23,9.06c2.89,1.67,5.23,0.32,5.23-3.02c0-3.33-2.34-7.39-5.23-9.06
						C403.58,251.19,401.24,252.54,401.24,255.88z"/>
				</g>
				<g>
					<polygon class="st21" points="457.67,136.84 457.67,150.2 416.04,174.24 404.47,167.56 					"/>
				</g>
				<g>
					<polygon class="st19" points="464.76,146.11 453.2,139.43 404.47,167.56 416.04,174.24 					"/>
				</g>
			</g>
		</g>
		<g class="st6">
			<g>
				<path class="st23" d="M641.94,325.56l-5.71,3.32c1.03-0.6,1.67-1.87,1.67-3.68l5.71-3.32
					C643.61,323.69,642.97,324.96,641.94,325.56z"/>
			</g>
			<g>
				<g>
					<path class="st23" d="M473.86,96.22l5.71-3.32c1.04-0.61,2.49-0.52,4.09,0.41l-5.71,3.32C476.35,95.7,474.9,95.61,473.86,96.22
						z"/>
				</g>
				<g>
					<g>
						<polygon class="st24" points="638.23,195.77 643.94,192.45 643.62,321.88 637.91,325.2 						"/>
					</g>
					<g>
						<polygon class="st23" points="477.95,96.63 483.66,93.31 638.21,182.54 632.51,185.86 						"/>
					</g>
					<g>
						<path class="st24" d="M632.51,185.86l5.71-3.32c3.15,1.82,5.73,6.26,5.72,9.91l-5.71,3.32
							C638.24,192.12,635.66,187.68,632.51,185.86z"/>
					</g>
					<g>
						<path class="st25" d="M632.51,185.86c3.15,1.82,5.73,6.26,5.72,9.91l-0.32,129.43c-0.01,3.65-2.6,5.1-5.76,3.28l-154.56-89.23
							c-3.18-1.84-5.73-6.26-5.72-9.91l0.32-129.43c0.01-3.65,2.58-5.12,5.76-3.28L632.51,185.86z"/>
					</g>
					<g>
						<polygon class="st8" points="477.91,109.64 477.63,226.23 632.19,315.46 632.47,198.87 						"/>
					</g>
				</g>
			</g>
			<g>
				<g>
					<g>
						<path class="st24" d="M634.53,331.82l-0.02,6.6c0,1.19-0.78,2.39-2.34,3.29l0.02-6.6
							C633.74,334.2,634.52,333.01,634.53,331.82z"/>
					</g>
					<g>
						<path class="st16" d="M521.4,399.33l-0.02,6.6c-3.13,1.82-8.29,1.82-11.44,0l0.02-6.6
							C513.11,401.15,518.26,401.15,521.4,399.33z"/>
					</g>
					<g>
						<path class="st16" d="M352.99,313.37l0.02-6.6c0,1.21,0.79,2.41,2.39,3.34l-0.02,6.6
							C353.78,315.78,352.99,314.57,352.99,313.37z"/>
					</g>
					<g>
						<polygon class="st24" points="632.19,335.11 632.17,341.71 521.38,405.93 521.4,399.33 						"/>
					</g>
					<g>
						<polygon class="st16" points="509.95,399.33 509.94,405.93 355.38,316.7 355.4,310.1 						"/>
					</g>
					<g>
						<path class="st23" d="M632.15,328.48c3.15,1.82,3.17,4.81,0.04,6.63L521.4,399.33c-3.13,1.82-8.29,1.82-11.44,0L355.4,310.1
							c-3.18-1.84-3.17-4.81-0.04-6.63l110.79-64.22c3.13-1.82,8.26-1.84,11.44,0L632.15,328.48z"/>
					</g>
				</g>
				<g>
					<g class="st26">
						<g>
							<g>
								<path class="st24" d="M506.76,345.21l-56.97-32.89c-1.58-0.91-4.13-0.93-5.72,0l-29.43,16.94c-1.57,0.91-1.56,2.4,0.02,3.31
									l56.97,32.89c1.6,0.93,4.15,0.91,5.72,0l29.43-16.94C508.37,347.6,508.37,346.13,506.76,345.21"/>
							</g>
						</g>
					</g>
				</g>
				<g>
					<g class="st26">
						<g>
							<g>
								<polygon class="st27" points="479.29,249.33 479.29,250.98 468.88,257.03 468.89,255.38 								"/>
							</g>
						</g>
						<g>
							<g>
								<polygon class="st25" points="468.89,255.38 468.88,257.03 458.64,251.12 458.65,249.47 								"/>
							</g>
						</g>
						<g>
							<g>
								<polygon class="st28" points="479.29,249.33 468.89,255.38 458.65,249.47 469.05,243.42 								"/>
							</g>
						</g>
					</g>
					<g class="st26">
						<g>
							<g>
								<polygon class="st27" points="492.43,256.92 492.42,258.57 482.02,264.61 482.02,262.96 								"/>
							</g>
						</g>
						<g>
							<g>
								<polygon class="st25" points="482.02,262.96 482.02,264.61 471.75,258.69 471.76,257.04 								"/>
							</g>
						</g>
						<g>
							<g>
								<polygon class="st28" points="492.43,256.92 482.02,262.96 471.76,257.04 482.16,250.99 								"/>
							</g>
						</g>
					</g>
					<g class="st26">
						<g>
							<g>
								<polygon class="st27" points="505.54,264.49 505.53,266.14 495.13,272.18 495.13,270.53 								"/>
							</g>
						</g>
						<g>
							<g>
								<polygon class="st25" points="495.13,270.53 495.13,272.18 484.89,266.27 484.89,264.62 								"/>
							</g>
						</g>
						<g>
							<g>
								<polygon class="st28" points="505.54,264.49 495.13,270.53 484.89,264.62 495.3,258.57 								"/>
							</g>
						</g>
					</g>
					<g class="st26">
						<g>
							<g>
								<polygon class="st27" points="518.65,272.06 518.64,273.71 508.24,279.75 508.24,278.1 								"/>
							</g>
						</g>
						<g>
							<g>
								<polygon class="st25" points="508.24,278.1 508.24,279.75 498,273.84 498,272.19 								"/>
							</g>
						</g>
						<g>
							<g>
								<polygon class="st28" points="518.65,272.06 508.24,278.1 498,272.19 508.41,266.14 								"/>
							</g>
						</g>
					</g>
					<g class="st26">
						<g>
							<g>
								<polygon class="st27" points="531.76,279.62 531.75,281.28 521.35,287.32 521.35,285.67 								"/>
							</g>
						</g>
						<g>
							<g>
								<polygon class="st25" points="521.35,285.67 521.35,287.32 511.11,281.41 511.11,279.76 								"/>
							</g>
						</g>
						<g>
							<g>
								<polygon class="st28" points="531.76,279.62 521.35,285.67 511.11,279.76 521.52,273.71 								"/>
							</g>
						</g>
					</g>
					<g class="st26">
						<g>
							<g>
								<polygon class="st27" points="544.89,287.21 544.89,288.86 534.48,294.91 534.49,293.26 								"/>
							</g>
						</g>
						<g>
							<g>
								<polygon class="st25" points="534.49,293.26 534.48,294.91 524.24,288.99 524.25,287.34 								"/>
							</g>
						</g>
						<g>
							<g>
								<polygon class="st28" points="544.89,287.21 534.49,293.26 524.25,287.34 534.65,281.3 								"/>
							</g>
						</g>
					</g>
					<g class="st26">
						<g>
							<g>
								<polygon class="st27" points="558,294.78 558,296.43 547.6,302.47 547.6,300.82 								"/>
							</g>
						</g>
						<g>
							<g>
								<polygon class="st25" points="547.6,300.82 547.6,302.47 537.36,296.56 537.36,294.91 								"/>
							</g>
						</g>
						<g>
							<g>
								<polygon class="st28" points="558,294.78 547.6,300.82 537.36,294.91 547.76,288.87 								"/>
							</g>
						</g>
					</g>
					<g class="st26">
						<g>
							<g>
								<polygon class="st27" points="571.11,302.35 571.11,304 560.71,310.04 560.71,308.39 								"/>
							</g>
						</g>
						<g>
							<g>
								<polygon class="st25" points="560.71,308.39 560.71,310.04 550.47,304.13 550.47,302.48 								"/>
							</g>
						</g>
						<g>
							<g>
								<polygon class="st28" points="571.11,302.35 560.71,308.39 550.47,302.48 560.87,296.43 								"/>
							</g>
						</g>
					</g>
					<g class="st26">
						<g>
							<g>
								<polygon class="st27" points="584.25,309.93 584.25,311.58 573.84,317.63 573.85,315.98 								"/>
							</g>
						</g>
						<g>
							<g>
								<polygon class="st25" points="573.85,315.98 573.84,317.63 563.58,311.7 563.58,310.05 								"/>
							</g>
						</g>
						<g>
							<g>
								<polygon class="st28" points="584.25,309.93 573.85,315.98 563.58,310.05 573.99,304 								"/>
							</g>
						</g>
					</g>
					<g class="st26">
						<g>
							<g>
								<polygon class="st27" points="597.36,317.5 597.36,319.15 586.95,325.2 586.96,323.55 								"/>
							</g>
						</g>
						<g>
							<g>
								<polygon class="st25" points="586.96,323.55 586.95,325.2 576.71,319.29 576.72,317.63 								"/>
							</g>
						</g>
						<g>
							<g>
								<polygon class="st28" points="597.36,317.5 586.96,323.55 576.72,317.63 587.12,311.59 								"/>
							</g>
						</g>
					</g>
					<g class="st26">
						<g>
							<g>
								<polygon class="st27" points="623.61,332.65 623.6,334.3 613.2,340.35 613.2,338.7 								"/>
							</g>
						</g>
						<g>
							<g>
								<polygon class="st25" points="613.2,338.7 613.2,340.35 589.82,326.85 589.83,325.2 								"/>
							</g>
						</g>
						<g>
							<g>
								<polygon class="st28" points="623.61,332.65 613.2,338.7 589.83,325.2 600.23,319.16 								"/>
							</g>
						</g>
					</g>
					<g class="st26">
						<g>
							<g>
								<polygon class="st27" points="479.17,264.62 479.17,266.27 468.79,272.3 468.79,270.65 								"/>
							</g>
						</g>
						<g>
							<g>
								<polygon class="st25" points="468.79,270.65 468.79,272.3 445.41,258.81 445.42,257.16 								"/>
							</g>
						</g>
						<g>
							<g>
								<polygon class="st28" points="479.17,264.62 468.79,270.65 445.42,257.16 455.8,251.12 								"/>
							</g>
						</g>
					</g>
					<g class="st26">
						<g>
							<g>
								<polygon class="st27" points="492.28,272.19 492.28,273.84 481.9,279.87 481.9,278.22 								"/>
							</g>
						</g>
						<g>
							<g>
								<polygon class="st25" points="481.9,278.22 481.9,279.87 471.66,273.96 471.66,272.31 								"/>
							</g>
						</g>
						<g>
							<g>
								<polygon class="st28" points="492.28,272.19 481.9,278.22 471.66,272.31 482.04,266.28 								"/>
							</g>
						</g>
					</g>
					<g class="st26">
						<g>
							<g>
								<polygon class="st27" points="505.39,279.76 505.39,281.41 495.01,287.44 495.01,285.79 								"/>
							</g>
						</g>
						<g>
							<g>
								<polygon class="st25" points="495.01,285.79 495.01,287.44 484.77,281.53 484.77,279.88 								"/>
							</g>
						</g>
						<g>
							<g>
								<polygon class="st28" points="505.39,279.76 495.01,285.79 484.77,279.88 495.15,273.85 								"/>
							</g>
						</g>
					</g>
					<g class="st26">
						<g>
							<g>
								<polygon class="st27" points="518.5,287.33 518.5,288.98 508.12,295.01 508.12,293.36 								"/>
							</g>
						</g>
						<g>
							<g>
								<polygon class="st25" points="508.12,293.36 508.12,295.01 497.88,289.1 497.88,287.45 								"/>
							</g>
						</g>
						<g>
							<g>
								<polygon class="st28" points="518.5,287.33 508.12,293.36 497.88,287.45 508.26,281.42 								"/>
							</g>
						</g>
					</g>
					<g class="st26">
						<g>
							<g>
								<polygon class="st27" points="531.64,294.91 531.63,296.56 521.25,302.59 521.26,300.94 								"/>
							</g>
						</g>
						<g>
							<g>
								<polygon class="st25" points="521.26,300.94 521.25,302.59 511.01,296.68 511.02,295.03 								"/>
							</g>
						</g>
						<g>
							<g>
								<polygon class="st28" points="531.64,294.91 521.26,300.94 511.02,295.03 521.4,289 								"/>
							</g>
						</g>
					</g>
					<g class="st26">
						<g>
							<g>
								<polygon class="st27" points="544.75,302.48 544.74,304.13 534.36,310.16 534.37,308.51 								"/>
							</g>
						</g>
						<g>
							<g>
								<polygon class="st25" points="534.37,308.51 534.36,310.16 524.12,304.25 524.13,302.6 								"/>
							</g>
						</g>
						<g>
							<g>
								<polygon class="st28" points="544.75,302.48 534.37,308.51 524.13,302.6 534.51,296.57 								"/>
							</g>
						</g>
					</g>
					<g class="st26">
						<g>
							<g>
								<polygon class="st27" points="557.86,310.05 557.85,311.7 547.47,317.73 547.48,316.08 								"/>
							</g>
						</g>
						<g>
							<g>
								<polygon class="st25" points="547.48,316.08 547.47,317.73 537.23,311.82 537.24,310.17 								"/>
							</g>
						</g>
						<g>
							<g>
								<polygon class="st28" points="557.86,310.05 547.48,316.08 537.24,310.17 547.62,304.14 								"/>
							</g>
						</g>
					</g>
					<g class="st26">
						<g>
							<g>
								<polygon class="st27" points="570.99,317.63 570.99,319.29 560.61,325.32 560.62,323.67 								"/>
							</g>
						</g>
						<g>
							<g>
								<polygon class="st25" points="560.62,323.67 560.61,325.32 550.35,319.39 550.35,317.74 								"/>
							</g>
						</g>
						<g>
							<g>
								<polygon class="st28" points="570.99,317.63 560.62,323.67 550.35,317.74 560.73,311.71 								"/>
							</g>
						</g>
					</g>
					<g class="st26">
						<g>
							<g>
								<polygon class="st27" points="584.1,325.2 584.1,326.85 573.72,332.89 573.73,331.24 								"/>
							</g>
						</g>
						<g>
							<g>
								<polygon class="st25" points="573.73,331.24 573.72,332.89 563.48,326.97 563.49,325.32 								"/>
							</g>
						</g>
						<g>
							<g>
								<polygon class="st28" points="584.1,325.2 573.73,331.24 563.49,325.32 573.86,319.29 								"/>
							</g>
						</g>
					</g>
					<g class="st26">
						<g>
							<g>
								<polygon class="st27" points="597.22,332.77 597.21,334.42 586.83,340.46 586.84,338.8 								"/>
							</g>
						</g>
						<g>
							<g>
								<polygon class="st25" points="586.84,338.8 586.83,340.46 576.59,334.54 576.6,332.89 								"/>
							</g>
						</g>
						<g>
							<g>
								<polygon class="st28" points="597.22,332.77 586.84,338.8 576.6,332.89 586.97,326.86 								"/>
							</g>
						</g>
					</g>
					<g class="st26">
						<g>
							<g>
								<polygon class="st27" points="610.35,340.36 610.35,342.01 599.97,348.04 599.97,346.39 								"/>
							</g>
						</g>
						<g>
							<g>
								<polygon class="st25" points="599.97,346.39 599.97,348.04 589.7,342.11 589.71,340.46 								"/>
							</g>
						</g>
						<g>
							<g>
								<polygon class="st28" points="610.35,340.36 599.97,346.39 589.71,340.46 600.09,334.43 								"/>
							</g>
						</g>
					</g>
					<g class="st26">
						<g>
							<g>
								<polygon class="st27" points="465.94,272.31 465.94,273.96 455.56,279.99 455.56,278.34 								"/>
							</g>
						</g>
						<g>
							<g>
								<polygon class="st25" points="455.56,278.34 455.56,279.99 432.18,266.5 432.19,264.84 								"/>
							</g>
						</g>
						<g>
							<g>
								<polygon class="st28" points="465.94,272.31 455.56,278.34 432.19,264.84 442.56,258.81 								"/>
							</g>
						</g>
					</g>
					<g class="st26">
						<g>
							<g>
								<polygon class="st27" points="479.05,279.88 479.05,281.53 468.67,287.56 468.67,285.91 								"/>
							</g>
						</g>
						<g>
							<g>
								<polygon class="st25" points="468.67,285.91 468.67,287.56 458.43,281.65 458.43,280 								"/>
							</g>
						</g>
						<g>
							<g>
								<polygon class="st28" points="479.05,279.88 468.67,285.91 458.43,280 468.81,273.97 								"/>
							</g>
						</g>
					</g>
					<g class="st26">
						<g>
							<g>
								<polygon class="st27" points="492.16,287.45 492.16,289.1 481.78,295.13 481.78,293.48 								"/>
							</g>
						</g>
						<g>
							<g>
								<polygon class="st25" points="481.78,293.48 481.78,295.13 471.54,289.22 471.54,287.57 								"/>
							</g>
						</g>
						<g>
							<g>
								<polygon class="st28" points="492.16,287.45 481.78,293.48 471.54,287.57 481.92,281.54 								"/>
							</g>
						</g>
					</g>
					<g class="st26">
						<g>
							<g>
								<polygon class="st27" points="505.27,295.02 505.27,296.67 494.89,302.7 494.89,301.05 								"/>
							</g>
						</g>
						<g>
							<g>
								<polygon class="st25" points="494.89,301.05 494.89,302.7 484.65,296.79 484.65,295.14 								"/>
							</g>
						</g>
						<g>
							<g>
								<polygon class="st28" points="505.27,295.02 494.89,301.05 484.65,295.14 495.03,289.1 								"/>
							</g>
						</g>
					</g>
					<g class="st26">
						<g>
							<g>
								<polygon class="st27" points="518.41,302.6 518.4,304.25 508.02,310.28 508.03,308.63 								"/>
							</g>
						</g>
						<g>
							<g>
								<polygon class="st25" points="508.03,308.63 508.02,310.28 497.78,304.37 497.79,302.72 								"/>
							</g>
						</g>
						<g>
							<g>
								<polygon class="st28" points="518.41,302.6 508.03,308.63 497.79,302.72 508.17,296.69 								"/>
							</g>
						</g>
					</g>
					<g class="st26">
						<g>
							<g>
								<polygon class="st27" points="531.52,310.17 531.51,311.82 521.13,317.85 521.14,316.2 								"/>
							</g>
						</g>
						<g>
							<g>
								<polygon class="st25" points="521.14,316.2 521.13,317.85 510.89,311.94 510.9,310.29 								"/>
							</g>
						</g>
						<g>
							<g>
								<polygon class="st28" points="531.52,310.17 521.14,316.2 510.9,310.29 521.28,304.26 								"/>
							</g>
						</g>
					</g>
					<g class="st26">
						<g>
							<g>
								<polygon class="st27" points="544.63,317.74 544.62,319.39 534.24,325.42 534.25,323.77 								"/>
							</g>
						</g>
						<g>
							<g>
								<polygon class="st25" points="534.25,323.77 534.24,325.42 524,319.51 524.01,317.86 								"/>
							</g>
						</g>
						<g>
							<g>
								<polygon class="st28" points="544.63,317.74 534.25,323.77 524.01,317.86 534.39,311.83 								"/>
							</g>
						</g>
					</g>
					<g class="st26">
						<g>
							<g>
								<polygon class="st27" points="557.76,325.32 557.76,326.97 547.38,333.01 547.39,331.36 								"/>
							</g>
						</g>
						<g>
							<g>
								<polygon class="st25" points="547.39,331.36 547.38,333.01 537.11,327.08 537.12,325.43 								"/>
							</g>
						</g>
						<g>
							<g>
								<polygon class="st28" points="557.76,325.32 547.39,331.36 537.12,325.43 547.5,319.4 								"/>
							</g>
						</g>
					</g>
					<g class="st26">
						<g>
							<g>
								<polygon class="st27" points="570.87,332.89 570.87,334.54 560.49,340.57 560.5,338.92 								"/>
							</g>
						</g>
						<g>
							<g>
								<polygon class="st25" points="560.5,338.92 560.49,340.57 550.25,334.66 550.26,333.01 								"/>
							</g>
						</g>
						<g>
							<g>
								<polygon class="st28" points="570.87,332.89 560.5,338.92 550.26,333.01 560.63,326.98 								"/>
							</g>
						</g>
					</g>
					<g class="st26">
						<g>
							<g>
								<polygon class="st27" points="597.12,348.05 597.12,349.7 586.74,355.73 586.74,354.08 								"/>
							</g>
						</g>
						<g>
							<g>
								<polygon class="st25" points="586.74,354.08 586.74,355.73 563.36,342.23 563.37,340.58 								"/>
							</g>
						</g>
						<g>
							<g>
								<polygon class="st28" points="597.12,348.05 586.74,354.08 563.37,340.58 573.74,334.55 								"/>
							</g>
						</g>
					</g>
					<g class="st26">
						<g>
							<g>
								<polygon class="st27" points="465.82,287.57 465.82,289.22 455.44,295.25 455.44,293.6 								"/>
							</g>
						</g>
						<g>
							<g>
								<polygon class="st25" points="455.44,293.6 455.44,295.25 418.95,274.18 418.96,272.53 								"/>
							</g>
						</g>
						<g>
							<g>
								<polygon class="st28" points="465.82,287.57 455.44,293.6 418.96,272.53 429.33,266.5 								"/>
							</g>
						</g>
					</g>
					<g class="st26">
						<g>
							<g>
								<polygon class="st27" points="478.93,295.14 478.93,296.79 468.55,302.82 468.55,301.17 								"/>
							</g>
						</g>
						<g>
							<g>
								<polygon class="st25" points="468.55,301.17 468.55,302.82 458.31,296.91 458.31,295.26 								"/>
							</g>
						</g>
						<g>
							<g>
								<polygon class="st28" points="478.93,295.14 468.55,301.17 458.31,295.26 468.69,289.22 								"/>
							</g>
						</g>
					</g>
					<g class="st26">
						<g>
							<g>
								<polygon class="st27" points="492.04,302.71 492.04,304.36 481.66,310.39 481.66,308.74 								"/>
							</g>
						</g>
						<g>
							<g>
								<polygon class="st25" points="481.66,308.74 481.66,310.39 471.42,304.48 471.42,302.83 								"/>
							</g>
						</g>
						<g>
							<g>
								<polygon class="st28" points="492.04,302.71 481.66,308.74 471.42,302.83 481.8,296.79 								"/>
							</g>
						</g>
					</g>
					<g class="st26">
						<g>
							<g>
								<polygon class="st27" points="505.18,310.29 505.17,311.94 494.79,317.97 494.8,316.32 								"/>
							</g>
						</g>
						<g>
							<g>
								<polygon class="st25" points="494.8,316.32 494.79,317.97 484.55,312.06 484.56,310.41 								"/>
							</g>
						</g>
						<g>
							<g>
								<polygon class="st28" points="505.18,310.29 494.8,316.32 484.56,310.41 494.94,304.38 								"/>
							</g>
						</g>
					</g>
					<g class="st26">
						<g>
							<g>
								<polygon class="st27" points="518.29,317.86 518.28,319.51 507.9,325.54 507.91,323.89 								"/>
							</g>
						</g>
						<g>
							<g>
								<polygon class="st25" points="507.91,323.89 507.9,325.54 497.66,319.63 497.67,317.98 								"/>
							</g>
						</g>
						<g>
							<g>
								<polygon class="st28" points="518.29,317.86 507.91,323.89 497.67,317.98 508.05,311.95 								"/>
							</g>
						</g>
					</g>
					<g class="st26">
						<g>
							<g>
								<polygon class="st27" points="531.4,325.43 531.39,327.08 521.01,333.11 521.02,331.46 								"/>
							</g>
						</g>
						<g>
							<g>
								<polygon class="st25" points="521.02,331.46 521.01,333.11 510.77,327.2 510.78,325.55 								"/>
							</g>
						</g>
						<g>
							<g>
								<polygon class="st28" points="531.4,325.43 521.02,331.46 510.78,325.55 521.16,319.52 								"/>
							</g>
						</g>
					</g>
					<g class="st26">
						<g>
							<g>
								<polygon class="st27" points="544.53,333.01 544.53,334.66 534.15,340.69 534.15,339.04 								"/>
							</g>
						</g>
						<g>
							<g>
								<polygon class="st25" points="534.15,339.04 534.15,340.69 523.88,334.77 523.89,333.12 								"/>
							</g>
						</g>
						<g>
							<g>
								<polygon class="st28" points="544.53,333.01 534.15,339.04 523.89,333.12 534.27,327.09 								"/>
							</g>
						</g>
					</g>
					<g class="st26">
						<g>
							<g>
								<polygon class="st27" points="557.64,340.58 557.64,342.23 547.26,348.26 547.26,346.61 								"/>
							</g>
						</g>
						<g>
							<g>
								<polygon class="st25" points="547.26,346.61 547.26,348.26 537.02,342.35 537.02,340.7 								"/>
							</g>
						</g>
						<g>
							<g>
								<polygon class="st28" points="557.64,340.58 547.26,346.61 537.02,340.7 547.4,334.67 								"/>
							</g>
						</g>
					</g>
					<g class="st26">
						<g>
							<g>
								<polygon class="st27" points="583.89,355.73 583.89,357.39 573.51,363.42 573.51,361.77 								"/>
							</g>
						</g>
						<g>
							<g>
								<polygon class="st25" points="573.51,361.77 573.51,363.42 550.13,349.92 550.14,348.27 								"/>
							</g>
						</g>
						<g>
							<g>
								<polygon class="st28" points="583.89,355.73 573.51,361.77 550.14,348.27 560.51,342.24 								"/>
							</g>
						</g>
					</g>
					<g class="st26">
						<g>
							<g>
								<polygon class="st27" points="426.34,280.1 426.34,281.75 415.93,287.8 415.94,286.15 								"/>
							</g>
						</g>
						<g>
							<g>
								<polygon class="st25" points="415.94,286.15 415.93,287.8 405.69,281.89 405.7,280.24 								"/>
							</g>
						</g>
						<g>
							<g>
								<polygon class="st28" points="426.34,280.1 415.94,286.15 405.7,280.24 416.1,274.19 								"/>
							</g>
						</g>
					</g>
					<g class="st26">
						<g>
							<g>
								<polygon class="st27" points="439.48,287.69 439.48,289.34 429.07,295.38 429.08,293.73 								"/>
							</g>
						</g>
						<g>
							<g>
								<polygon class="st25" points="429.08,293.73 429.07,295.38 418.8,289.46 418.81,287.81 								"/>
							</g>
						</g>
						<g>
							<g>
								<polygon class="st28" points="439.48,287.69 429.08,293.73 418.81,287.81 429.21,281.76 								"/>
							</g>
						</g>
					</g>
					<g class="st26">
						<g>
							<g>
								<polygon class="st27" points="452.59,295.26 452.59,296.91 442.18,302.95 442.19,301.3 								"/>
							</g>
						</g>
						<g>
							<g>
								<polygon class="st25" points="442.19,301.3 442.18,302.95 431.94,297.04 431.95,295.39 								"/>
							</g>
						</g>
						<g>
							<g>
								<polygon class="st28" points="452.59,295.26 442.19,301.3 431.95,295.39 442.35,289.34 								"/>
							</g>
						</g>
					</g>
					<g class="st26">
						<g>
							<g>
								<polygon class="st27" points="518.17,333.12 518.16,334.77 507.76,340.81 507.76,339.16 								"/>
							</g>
						</g>
						<g>
							<g>
								<polygon class="st25" points="507.76,339.16 507.76,340.81 445.05,304.61 445.06,302.96 								"/>
							</g>
						</g>
						<g>
							<g>
								<polygon class="st28" points="518.17,333.12 507.76,339.16 445.06,302.96 455.46,296.91 								"/>
							</g>
						</g>
					</g>
					<g class="st26">
						<g>
							<g>
								<polygon class="st27" points="531.3,340.7 531.3,342.35 520.89,348.4 520.9,346.75 								"/>
							</g>
						</g>
						<g>
							<g>
								<polygon class="st25" points="520.9,346.75 520.89,348.4 510.63,342.47 510.63,340.82 								"/>
							</g>
						</g>
						<g>
							<g>
								<polygon class="st28" points="531.3,340.7 520.9,346.75 510.63,340.82 521.04,334.77 								"/>
							</g>
						</g>
					</g>
					<g class="st26">
						<g>
							<g>
								<polygon class="st27" points="544.41,348.27 544.41,349.92 534,355.97 534.01,354.32 								"/>
							</g>
						</g>
						<g>
							<g>
								<polygon class="st25" points="534.01,354.32 534,355.97 523.76,350.06 523.77,348.4 								"/>
							</g>
						</g>
						<g>
							<g>
								<polygon class="st28" points="544.41,348.27 534.01,354.32 523.77,348.4 534.17,342.36 								"/>
							</g>
						</g>
					</g>
					<g class="st26">
						<g>
							<g>
								<polygon class="st27" points="570.66,363.42 570.65,365.07 560.25,371.12 560.26,369.47 								"/>
							</g>
						</g>
						<g>
							<g>
								<polygon class="st25" points="560.26,369.47 560.25,371.12 536.87,357.62 536.88,355.97 								"/>
							</g>
						</g>
						<g>
							<g>
								<polygon class="st28" points="570.66,363.42 560.26,369.47 536.88,355.97 547.28,349.93 								"/>
							</g>
						</g>
					</g>
				</g>
			</g>
		</g>
		<g class="st6">
			<g>
				<path class="st10" d="M540.41,185c21.46,12.39,38.81,42.44,38.74,67.1c-0.07,24.66-17.53,34.59-38.99,22.2
					c-21.46-12.39-38.81-42.42-38.74-67.08C501.49,182.56,518.95,172.61,540.41,185z"/>
			</g>
			<g>
				<path class="st17" d="M576.08,272.21l-8.25,4.8c6.97-4.05,11.29-12.66,11.33-24.91c0.07-24.66-17.28-54.71-38.74-67.1l8.25-4.8
					c21.46,12.39,38.81,42.44,38.74,67.1C587.37,259.55,583.05,268.16,576.08,272.21z"/>
			</g>
			<g>
				<g>
					<polygon class="st24" points="525.85,212.15 534.11,207.35 560.75,240.49 552.5,245.28 					"/>
				</g>
				<g>
					<polygon class="st23" points="525.85,212.15 552.5,245.28 525.75,247.57 					"/>
				</g>
			</g>
			<g>
				<path class="st17" d="M512.76,182.29l8.25-4.8c7.07-4.11,16.85-3.53,27.65,2.71l-8.25,4.8
					C529.61,178.76,519.83,178.19,512.76,182.29z"/>
			</g>
		</g>
		<g class="st6">
			<g>
				<polygon class="st29" points="633.46,410.18 704.78,369.01 660.27,343.31 588.95,384.48 				"/>
			</g>
			<g>
				<polygon class="st17" points="704.78,372.21 633.46,413.39 633.46,410.18 704.78,369.01 				"/>
			</g>
			<g>
				<polygon class="st10" points="633.46,413.39 588.95,387.69 588.95,384.48 633.46,410.18 				"/>
			</g>
			<g>
				<polygon class="st18" points="633.46,394.82 704.78,353.64 660.27,327.94 588.95,369.12 				"/>
			</g>
			<g>
				<polygon class="st10" points="593.06,371.49 593.06,390.17 588.95,387.8 588.95,369.12 				"/>
			</g>
			<g>
				<polygon class="st19" points="633.46,398.02 633.46,407.99 702.79,367.92 702.79,357.95 				"/>
			</g>
			<g>
				<polygon class="st10" points="633.46,398.02 588.95,372.32 588.95,369.12 633.46,394.82 				"/>
			</g>
			<g>
				<polygon class="st17" points="704.78,356.84 633.46,398.02 633.46,394.82 704.78,353.64 				"/>
			</g>
			<g>
				<g>
					<polygon class="st30" points="633.46,398.02 593.06,374.68 593.06,384.66 633.46,407.99 					"/>
				</g>
			</g>
			<g>
				<polygon class="st31" points="627.26,391.24 698.58,350.06 690.54,345.42 619.22,386.59 				"/>
			</g>
		</g>
		<g class="st6">
			<g>
				<polygon class="st20" points="633.46,391.67 704.78,350.49 660.27,324.79 588.95,365.97 				"/>
			</g>
			<g>
				<polygon class="st21" points="704.78,353.7 633.46,394.87 633.46,391.67 704.78,350.49 				"/>
			</g>
			<g>
				<polygon class="st22" points="633.46,394.87 588.95,369.17 588.95,365.97 633.46,391.67 				"/>
			</g>
			<g>
				<polygon class="st20" points="633.46,376.3 704.78,335.12 660.27,309.42 588.95,350.6 				"/>
			</g>
			<g>
				<polygon class="st22" points="593.06,352.97 593.06,371.66 588.95,369.28 588.95,350.6 				"/>
			</g>
			<g>
				<polygon class="st19" points="633.46,379.51 633.46,389.48 702.79,349.41 702.79,339.43 				"/>
			</g>
			<g>
				<polygon class="st22" points="633.46,379.51 588.95,353.81 588.95,350.6 633.46,376.3 				"/>
			</g>
			<g>
				<polygon class="st21" points="704.78,338.33 633.46,379.51 633.46,376.3 704.78,335.12 				"/>
			</g>
			<g>
				<g>
					<polygon class="st30" points="633.46,379.51 593.06,356.17 593.06,366.14 633.46,389.48 					"/>
				</g>
			</g>
			<g>
				<polygon class="st32" points="627.26,372.72 698.58,331.55 690.54,326.9 619.22,368.08 				"/>
			</g>
		</g>
		<g class="st6">
			<g>
				<g>
					<polygon class="st32" points="437.27,390.11 423.06,398.32 324.57,341.46 338.79,333.25 					"/>
				</g>
				<g>
					<polygon class="st33" points="345.19,329.56 443.67,386.42 437.27,390.11 338.79,333.25 					"/>
				</g>
			</g>
			<g>
				<polygon class="st19" points="324.57,345 423.06,401.86 423.06,398.32 324.57,341.46 				"/>
			</g>
			<g>
				<polygon class="st30" points="443.67,386.42 423.06,398.32 423.06,401.86 443.67,389.96 				"/>
			</g>
			<g>
				<g>
					<polygon class="st33" points="401.81,381.38 397.76,383.71 396.46,382.96 400.51,380.63 					"/>
				</g>
				<g>
					<polygon class="st33" points="397.21,375.73 390.57,379.56 389.28,378.81 395.92,374.98 					"/>
				</g>
				<g>
					<polygon class="st33" points="387.43,373.08 383.39,375.41 382.09,374.66 386.13,372.33 					"/>
				</g>
				<g>
					<polygon class="st33" points="411.59,384.03 404.95,387.86 403.65,387.11 410.29,383.28 					"/>
				</g>
				<g>
					<polygon class="st33" points="425.97,392.33 419.33,396.17 418.03,395.42 424.67,391.58 					"/>
				</g>
				<g>
					<polygon class="st33" points="416.18,389.68 412.14,392.02 410.84,391.26 414.89,388.93 					"/>
				</g>
				<g>
					<polygon class="st33" points="382.84,367.43 376.2,371.26 374.9,370.51 381.54,366.68 					"/>
				</g>
				<g>
					<polygon class="st33" points="344.29,348.17 340.25,350.51 338.95,349.76 342.99,347.42 					"/>
				</g>
				<g>
					<polygon class="st33" points="339.7,342.52 333.06,346.36 331.76,345.61 338.4,341.77 					"/>
				</g>
				<g>
					<polygon class="st33" points="373.05,364.78 369.01,367.11 367.71,366.36 371.75,364.03 					"/>
				</g>
				<g>
					<polygon class="st33" points="354.08,350.83 347.44,354.66 346.14,353.91 352.78,350.08 					"/>
				</g>
				<g>
					<polygon class="st33" points="368.46,359.13 361.82,362.96 360.52,362.21 367.16,358.38 					"/>
				</g>
				<g>
					<polygon class="st33" points="358.67,356.48 354.63,358.81 353.33,358.06 357.37,355.73 					"/>
				</g>
			</g>
		</g>
		<g class="st6">
			<g>
				<g>
					<polygon class="st34" points="584.75,431.73 590.88,404.11 540.11,404.11 546.24,431.73 					"/>
				</g>
				<g>
					<ellipse class="st35" cx="565.49" cy="402.22" rx="25.6" ry="14.78"/>
				</g>
				<g>
					<path class="st24" d="M565.49,414.44c-6.4,0-12.37-1.42-16.82-3.99c-4.01-2.32-6.22-5.24-6.22-8.24c0-3,2.21-5.92,6.22-8.24
						c4.45-2.57,10.43-3.99,16.82-3.99c6.4,0,12.37,1.42,16.82,3.99c4.01,2.32,6.22,5.24,6.22,8.24c0,3-2.21,5.92-6.22,8.24
						C577.86,413.03,571.89,414.44,565.49,414.44z"/>
				</g>
				<g>
					<path class="st8" d="M582.32,400.7c-4.45-2.57-10.43-3.99-16.82-3.99c-6.4,0-12.37,1.42-16.82,3.99
						c-2.48,1.43-4.27,3.1-5.28,4.88c1.01,1.77,2.79,3.44,5.28,4.88c4.45,2.57,10.43,3.99,16.82,3.99c6.4,0,12.37-1.42,16.82-3.99
						c2.48-1.43,4.27-3.1,5.28-4.88C586.59,403.81,584.8,402.14,582.32,400.7z"/>
				</g>
				<g>
					<path class="st34" d="M579.22,438.22c-7.58,4.38-19.87,4.38-27.46,0c-7.58-4.38-7.58-11.47,0-15.85
						c7.58-4.38,19.87-4.38,27.46,0C586.8,426.75,586.8,433.85,579.22,438.22z"/>
				</g>
			</g>
			<g>
				<path class="st20" d="M563.81,388.05v17.22c0,0.25,0.16,0.5,0.49,0.69c0.66,0.38,1.72,0.38,2.38,0
					c0.33-0.19,0.49-0.44,0.49-0.69v-17.22H563.81z"/>
			</g>
			<g>
				<path class="st17" d="M588.02,376.69c0,12.44-10.08,22.52-22.52,22.52c-12.44,0-22.52-10.08-22.52-22.52
					c0-12.44,22.52-43.71,22.52-43.71S588.02,364.25,588.02,376.69z"/>
			</g>
			<g>
				<path class="st36" d="M576.63,349.96c0.53,2.72,0.82,5.53,0.82,8.4c0,16.47-9.19,30.79-22.72,38.12
					c3.2,1.74,6.87,2.74,10.77,2.74c12.44,0,22.52-10.08,22.52-22.52C588.02,370.42,582.3,359.38,576.63,349.96z"/>
			</g>
		</g>
		<g class="st6">
			<g>
				<g id="XMLID_508_">
					<g>
						<g>
							<polygon class="st37" points="533.22,440.29 533.22,444.82 476.24,477.5 476.24,472.96 							"/>
						</g>
						<g>
							<polygon class="st8" points="533.22,440.29 476.24,472.96 420.31,440.67 477.3,407.99 							"/>
						</g>
						<g>
							<polygon class="st25" points="476.24,472.96 476.24,477.5 420.31,445.19 420.31,440.67 							"/>
						</g>
					</g>
				</g>
			</g>
			<g>
				<g>
					<path class="st32" d="M476.43,458.36c-7.57,0-14.8-1.77-20.36-4.98c-6.89-3.98-10.68-9.73-10.68-16.19
						c0-6.46,3.79-12.21,10.68-16.19c5.56-3.21,12.79-4.98,20.36-4.98c7.57,0,14.8,1.77,20.36,4.98
						c6.89,3.98,10.68,9.73,10.68,16.19c0,6.46-3.79,12.21-10.68,16.19C491.24,456.59,484,458.36,476.43,458.36z"/>
				</g>
				<g>
					<path class="st24" d="M476.43,456.86c-7.57,0-14.8-1.77-20.36-4.98c-6.89-3.98-10.68-9.73-10.68-16.19s3.79-12.21,10.68-16.19
						c5.56-3.21,12.79-4.98,20.36-4.98c7.57,0,14.8,1.77,20.36,4.98c6.89,3.98,10.68,9.73,10.68,16.19
						c0,6.46-3.79,12.21-10.68,16.19C491.24,455.09,484,456.86,476.43,456.86z"/>
				</g>
				<g>
					<path class="st19" d="M497.62,433.76l-0.05-3.91c3.33-0.04,5.97-3.7,7.34-7.11c1.66-4.15,1.58-8.1,0.46-9.2
						c-2.53-2.47-6.9,1.24-6.95,1.28l-2.56-2.96c2.45-2.13,8.16-5.1,12.24-1.12c2.89,2.83,2.31,8.79,0.44,13.45
						C506.17,430.13,502.09,433.71,497.62,433.76z"/>
				</g>
				<g>
					<path class="st34" d="M453.06,413.05v22.64c0,3.45,2.28,6.91,6.85,9.54c9.13,5.27,23.93,5.27,33.06,0
						c4.56-2.64,6.85-6.09,6.85-9.54l0,0v-22.64H453.06z"/>
				</g>
				<g>
					<path class="st35" d="M492.96,422.59c-9.13,5.27-23.93,5.27-33.06,0c-9.13-5.27-9.13-13.82,0-19.09
						c9.13-5.27,23.93-5.27,33.06,0C502.09,408.78,502.09,417.32,492.96,422.59z"/>
				</g>
				<g>
					<path class="st24" d="M476.43,424.63c-5.91,0-11.44-1.31-15.57-3.7c-3.8-2.19-5.89-4.99-5.89-7.88c0-2.89,2.09-5.69,5.89-7.88
						c4.13-2.38,9.66-3.7,15.57-3.7c5.91,0,11.44,1.31,15.57,3.7c3.8,2.19,5.89,4.99,5.89,7.88c0,2.89-2.09,5.69-5.89,7.88
						C487.87,423.32,482.35,424.63,476.43,424.63z"/>
				</g>
				<g>
					<path class="st8" d="M492,413.19c-4.13-2.38-9.66-3.7-15.57-3.7c-5.91,0-11.44,1.31-15.57,3.7c-1.99,1.15-3.49,2.46-4.49,3.87
						c1,1.41,2.5,2.72,4.49,3.87c4.13,2.38,9.66,3.7,15.57,3.7c5.91,0,11.44-1.31,15.57-3.7c1.99-1.15,3.49-2.46,4.49-3.87
						C495.5,415.66,493.99,414.34,492,413.19z"/>
				</g>
			</g>
		</g>
		<g class="st6">
			<g>
				<g>
					<polygon class="st38" points="306.2,356.76 313.8,365.48 317.55,358.99 					"/>
				</g>
				<g>
					<polygon class="st8" points="306.2,356.76 308.29,359.15 309.32,357.37 					"/>
				</g>
			</g>
			<g>
				<path class="st21" d="M317.55,358.99c-0.48-0.28-1.15-0.24-1.89,0.19c-1.47,0.85-2.65,2.9-2.65,4.59c0,0.84,0.3,1.43,0.77,1.7
					l55.54,32.28c-0.48-0.28-0.77-0.87-0.77-1.7c0-1.69,1.18-3.74,2.65-4.59c0.74-0.43,1.41-0.47,1.89-0.19L317.55,358.99z"/>
			</g>
			<g>
				<g>
					<path class="st22" d="M371.2,391.45c1.47-0.85,2.67-0.17,2.67,1.52c0,1.69-1.19,3.74-2.65,4.59c-1.47,0.85-2.66,0.17-2.66-1.52
						C368.54,394.35,369.73,392.3,371.2,391.45z"/>
				</g>
			</g>
		</g>
		<g class="st6">
			<g>
				<g>
					<polygon class="st38" points="333.05,361.37 340.65,370.09 344.4,363.6 					"/>
				</g>
				<g>
					<polygon class="st8" points="333.05,361.37 335.13,363.77 336.16,361.98 					"/>
				</g>
			</g>
			<g>
				<path class="st17" d="M344.4,363.6c-0.48-0.28-1.16-0.24-1.89,0.19c-1.47,0.85-2.65,2.9-2.65,4.59c0,0.84,0.3,1.43,0.77,1.7
					l35.84,20.86c-0.48-0.28-0.77-0.87-0.77-1.7c0-1.69,1.18-3.74,2.65-4.59c0.74-0.43,1.41-0.47,1.89-0.19L344.4,363.6z"/>
			</g>
			<g>
				<g>
					<path class="st10" d="M378.34,384.64c1.47-0.85,2.67-0.17,2.67,1.52c0,1.69-1.19,3.74-2.65,4.59
						c-1.47,0.85-2.66,0.17-2.66-1.52C375.69,387.54,376.87,385.49,378.34,384.64z"/>
				</g>
			</g>
		</g>
		<g class="st6">
			<g>
				<path class="st39" d="M337.35,392.81c-1.01-0.58-1.52-1.35-1.52-2.12l-0.01,4.26c0,0.77,0.5,1.54,1.52,2.12l2.45,1.42l0.01-4.26
					L337.35,392.81z"/>
			</g>
			<g>
				<polygon class="st40" points="347.05,390.02 347.04,394.28 339.8,398.49 339.81,394.23 				"/>
			</g>
			<g>
				<path class="st40" d="M347.05,390.02l-7.24,4.21l-2.45-1.42c-2.01-1.16-2.02-3.05-0.02-4.21c2-1.16,5.26-1.16,7.27,0
					L347.05,390.02z"/>
			</g>
			<g>
				<polygon class="st41" points="352.1,392.94 352.09,397.2 344.85,401.41 344.86,397.15 				"/>
			</g>
			<g>
				<polygon class="st10" points="344.86,397.15 344.85,401.41 339.8,398.49 339.81,394.23 				"/>
			</g>
			<g>
				<polygon class="st17" points="352.1,392.94 344.86,397.15 339.81,394.23 347.05,390.02 				"/>
			</g>
			<g>
				<path class="st39" d="M354.58,398.56c-2,1.16-5.26,1.16-7.27,0l-2.45-1.42l-0.01,4.26l2.45,1.42c2.01,1.16,5.27,1.16,7.27,0
					c0.99-0.58,1.49-1.33,1.49-2.09l0.01-4.26C356.07,397.23,355.57,397.99,354.58,398.56z"/>
			</g>
			<g>
				<path class="st40" d="M354.56,394.35c2.01,1.16,2.03,3.05,0.02,4.21c-2,1.16-5.26,1.16-7.27,0l-2.45-1.42l7.24-4.21
					L354.56,394.35z"/>
			</g>
		</g>
		<g class="st6">
			<g>
				<g class="st26">
					<g>
						<g>
							<path class="st27" d="M678.05,305.46l-0.1,34.76c-0.01,5.02-3.31,10.02-9.9,13.85c-13.26,7.71-34.82,7.71-48.17,0
								c-6.71-3.88-10.07-8.97-10.05-14.05l0.1-34.76c-0.01,5.08,3.34,10.17,10.05,14.05c13.35,7.71,34.91,7.71,48.17,0
								C674.73,315.48,678.03,310.48,678.05,305.46z"/>
						</g>
					</g>
					<g>
						<g>
							<path class="st42" d="M667.99,291.41c13.35,7.71,13.42,20.2,0.16,27.9c-13.26,7.71-34.82,7.71-48.17,0
								c-13.34-7.7-13.41-20.19-0.15-27.9C633.08,283.71,654.65,283.71,667.99,291.41z"/>
						</g>
					</g>
				</g>
			</g>
			<g>
				<path class="st25" d="M668.15,319.31c-6.62,3.85-15.31,5.77-24.01,5.78v34.75c8.67-0.02,17.32-1.95,23.91-5.78
					c6.59-3.83,9.88-8.84,9.9-13.85l0.1-34.76C678.03,310.48,674.73,315.48,668.15,319.31z"/>
			</g>
			<g>
				<g class="st26">
					<g>
						<g>
							<polygon class="st28" points="708.26,308.39 644.15,345.65 579.62,308.39 643.73,271.13 							"/>
						</g>
					</g>
					<g>
						<g>
							<polygon class="st27" points="708.26,308.39 708.25,311.24 644.14,348.5 644.15,345.65 							"/>
						</g>
					</g>
					<g>
						<g>
							<polygon class="st25" points="644.15,345.65 644.14,348.5 579.61,311.24 579.62,308.39 							"/>
						</g>
					</g>
				</g>
			</g>
			<g>
				<g>
					<path class="st38" d="M678,355.46c0.83,0.48,0.83,1.25,0.01,1.73c-0.82,0.48-2.16,0.48-2.99,0c-0.83-0.48-0.83-1.25-0.01-1.73
						C675.84,354.98,677.17,354.98,678,355.46z"/>
				</g>
			</g>
			<g>
				<g>
					<path class="st29" d="M680.11,363.8c0-0.15-0.03-0.29-0.09-0.44l-1.41-6.96l-4.21,0.11l-1.39,6.83
						c-0.06,0.15-0.09,0.3-0.09,0.45l0,0l0,0c0,0.53,0.36,1.07,1.06,1.47c1.41,0.81,3.69,0.82,5.09,0
						C679.77,364.86,680.11,364.33,680.11,363.8L680.11,363.8L680.11,363.8z"/>
				</g>
				<g class="st26">
					<g>
						<g>
							<path class="st10" d="M678.62,353.09l-0.01,3.32c0,0.31-0.2,0.62-0.61,0.86c-0.82,0.48-2.16,0.48-2.99,0
								c-0.41-0.24-0.62-0.55-0.62-0.87l0.01-3.32c0,0.31,0.21,0.63,0.62,0.87c0.83,0.48,2.16,0.48,2.99,0
								C678.42,353.71,678.62,353.4,678.62,353.09z"/>
						</g>
					</g>
					<g>
						<g>
							<path class="st17" d="M678,352.22c0.83,0.48,0.83,1.25,0.01,1.73c-0.82,0.48-2.16,0.48-2.99,0
								c-0.83-0.48-0.83-1.25-0.01-1.73C675.84,351.74,677.17,351.74,678,352.22z"/>
						</g>
					</g>
				</g>
			</g>
			<g>
				<g>
					<path class="st17" d="M676.43,353.81c-0.37-0.02-0.73-0.11-1.01-0.27c-0.3-0.17-0.46-0.39-0.47-0.62v-0.11l-0.1-28.45
						l1.48,0.86L676.43,353.81z"/>
				</g>
				<g>
					<path class="st38" d="M676.33,322.8l1.48,0.86c-0.16-0.09-0.38-0.08-0.62,0.06l-1.48-0.86
						C675.95,322.72,676.17,322.71,676.33,322.8z"/>
				</g>
				<g>
					<path class="st29" d="M678.16,352.85v0.08c-0.01,0.22-0.17,0.44-0.46,0.61c-0.35,0.2-0.82,0.29-1.27,0.27l-0.1-28.59
						c0-0.55,0.39-1.22,0.86-1.5c0.14-0.08,0.28-0.12,0.39-0.12c0.03,0,0.06,0,0.09,0.01h0.01c0.02,0.01,0.05,0.01,0.07,0.02
						c0.01,0,0.01,0,0.02,0.01c0.01,0,0.01,0.01,0.02,0.01c0.16,0.09,0.26,0.28,0.27,0.56L678.16,352.85z"/>
				</g>
				<g>
					<path class="st38" d="M676.33,325.22l-1.48-0.86c0-0.55,0.39-1.22,0.87-1.5l1.48,0.86
						C676.71,323.99,676.32,324.66,676.33,325.22z"/>
				</g>
			</g>
			<g>
				<g>
					<path class="st17" d="M643.54,305.41l0,1.71c0,0.18,0.12,0.36,0.36,0.5l-0.01-1.71C643.66,305.77,643.54,305.59,643.54,305.41z
						"/>
				</g>
				<g>
					<polygon class="st17" points="643.89,305.9 643.9,307.61 675.95,326.24 675.95,324.53 					"/>
				</g>
				<g>
					<path class="st29" d="M678.05,325.74l-0.01-1.71c0,0.18-0.12,0.37-0.36,0.5c-0.48,0.28-1.25,0.28-1.73,0l0,1.71
						c0.48,0.28,1.25,0.28,1.73,0C677.93,326.1,678.05,325.92,678.05,325.74z"/>
				</g>
				<g>
					<path class="st29" d="M643.9,304.9c-0.48,0.28-0.48,0.73-0.01,1l32.06,18.63c0.48,0.28,1.25,0.28,1.73,0
						c0.48-0.28,0.48-0.73,0.01-1l-32.06-18.63C645.15,304.63,644.38,304.62,643.9,304.9z"/>
				</g>
				<g>
					<polygon class="st17" points="676.33,326.39 676.33,324.68 675.95,324.53 675.78,324.92 675.88,326.1 675.95,326.24 					"/>
				</g>
			</g>
		</g>
		<g class="st6">
			<g>
				<g>
					<path class="st43" d="M341.82,212.6c-1.3-3.27-3.57-5.01-5.58-3.78c-2.01,1.23,1.11,10.11,2.11,13.17
						c1,3.06,1.33,4.87,2.24,5.58c0.91,0.71,9.34,10.71,9.34,10.71s-0.57,2.49-0.18,3.71c0.39,1.22,0.91,2.69,1.32,2.52
						c0.41-0.17,0.25-2.2,0.59-2.26c0.34-0.06,0.7,1.82,0.62,2.37c-0.08,0.55-1.3,2.55-0.97,2.99c0.33,0.44,1.83-0.75,2.57-1.65
						c0.74-0.9,1.08-2.14,1-2.82c-0.07-0.68-0.31-2.16-0.31-2.16l-1.86-3.49l-6.66-11.96L341.82,212.6z"/>
				</g>
				<g>
					<path class="st10" d="M343.23,216.92c0,0,2.19,6.57,2.99,8.02c0.8,1.45,1.76,3,1.76,3s-0.76,1.9-2.38,2.68
						c-1.61,0.78-1.61,0.78-1.61,0.78s-2.65-2.01-3.02-2.93c-0.38-0.92,0.61-7.44,0.61-7.44L343.23,216.92z"/>
				</g>
				<g>
					<path class="st29" d="M347.98,227.94c0,0,0.92,0.29,0.89,1.42c0,0-0.29,0.88-1.45,2.02c-1.16,1.14-2.63,1.52-2.63,1.52
						s-0.75-0.65-1.24-1.89c0,0,2.24-1.07,3-1.76C347.31,228.56,347.98,227.94,347.98,227.94z"/>
				</g>
			</g>
			<g>
				<path class="st44" d="M347.11,304.39c0.21,1.76-5.09,1.33-6.52,0.44c-1.43-0.89-2.54-2.65-3.54-3.42
					c-0.99-0.78-1.87-0.78-1.99-1.55c-0.03-0.23-0.09-0.86-0.15-1.74c-0.16-2.13-0.33-5.7-0.19-8.2c0.23-3.54-0.29-11.7,0.33-15.91
					c0.09-0.6,0.16-1.22,0.23-1.87c0.3-3.22,0.32-6.95,0.41-9.15c0.12-2.65-0.52-13.17-0.52-13.17s-0.66-12.15-0.66-15.02
					c0-0.97,0.78-1.5,1.83-1.76c2.05-0.56,5.13-0.12,5.13-0.12c3.64,17.23,2.17,26.95,2.09,32.37c-0.07,4.86-1.43,7.95-1.99,13.36
					c-0.56,5.41-1.66,13.03-1.43,15.8c0.15,1.86,3.15,4.93,5.17,7.26C346.29,302.86,347.03,303.81,347.11,304.39z"/>
			</g>
			<g>
				<path class="st43" d="M339.49,246.4c-1.11,3.42-4.43,3.75-3.98,9.28c0.44,5.51,0.77,12.03-0.12,16.01
					c-0.04,0.15-0.07,0.3-0.11,0.45v0.01c-0.86,3.82-1.91,7.55-2.54,14.78c-0.66,7.52-0.66,15.14-0.44,17.01
					c0.11,0.87,0.57,2.7,0.94,4.53c0.45,2.11,0.8,4.21,0.38,4.86c-0.77,1.21-5.41,0-6.07-1.11c-0.66-1.1-0.45-3.53-0.45-4.85
					c0-0.24-0.04-1.11-0.12-2.41c-0.34-5.91-1.27-20.66-1.09-24.1c0.21-4.2,1.43-10.83,1.1-15.57c-0.33-4.76-1.99-8.51-1.43-16.79
					c0.54-8.28,3.64-8.95,3.86-13.25c0.15-2.69,4.02-2.62,6.92-2.2h0.01c1.74,0.27,3.13,0.65,3.13,0.65S340.59,242.97,339.49,246.4z
					"/>
			</g>
			<g>
				<path class="st21" d="M342.41,232.68c0,0-2.68,3.98-12.98,2.57c0,0-4.5,5.22-4.75,11.1c-0.25,5.88,0.5,15.08,0.5,15.08
					s3.64,1.57,10.52,1.57c6.88,0,8.86-2.15,8.86-2.15s-0.41-17.07-0.83-21.46C343.32,235,342.41,232.68,342.41,232.68z"/>
			</g>
			<g>
				<path class="st43" d="M321.41,219.38c0.75-4.85,2.65-6.21,6.96-9.53c4.31-3.31,9.15-5.01,11.64-1.16s3.69,8.99,3.69,9.9
					c0,0.91-1.49,3.02-1.45,4.22c0.04,1.2,0.17,9.86,0.17,9.86s-1.28,3.31-7.12,3.69c-5.84,0.37-6.38-0.5-6.38-0.5
					s-0.75-4.56-1.28-7.25C327.09,225.93,320.91,222.67,321.41,219.38z"/>
			</g>
			<g>
				<path class="st34" d="M328.91,235.87c0,0,0.54,0.87,6.38,0.5c5.84-0.37,7.12-3.69,7.12-3.69s-0.12-8.66-0.17-9.86
					c-0.04-1.2,1.45-3.31,1.45-4.22c0-0.91-1.2-6.05-3.69-9.9c-0.89-1.39-2.1-2.04-3.47-2.18c0.2,0.24,2.5,3.01,2.45,4.7
					c-0.06,1.77-5.19,5.25-7.23,5.25c-2.02,0-3.18-3.44-6.02-4.54c-2.49,2.07-3.75,3.74-4.32,7.45c-0.51,3.29,5.67,6.54,6.21,9.24
					C328.16,231.31,328.91,235.87,328.91,235.87z"/>
			</g>
			<g>
				<path class="st44" d="M336.61,206.13c0,0-0.04,3.52-0.17,4.56c-0.12,1.04-2.98,1.04-4.22,1.04c-1.24,0-2.11-0.79-2.15-1.99
					c-0.04-1.2,0.03-6.74,0.03-6.74s1.63,0.28,4.03,1.44C336.53,205.59,336.61,206.13,336.61,206.13z"/>
			</g>
			<g>
				<path class="st17" d="M334.08,210.12c0,0,0.66,1.82,1.1,2.98c0.44,1.16,2.1,19.16,1.44,25.24c-0.66,6.07-2.1,8.28-3.31,8.62
					c-1.21,0.33-8.62-3.31-8.62-3.31s3.09-7.73,2.87-10.6c-0.22-2.87-3.76-8.17-4.97-12.37c-1.21-4.2-0.72-4.58-0.11-5.8
					c0.61-1.21,4.31-4.8,4.31-4.8l4.86,0.66L334.08,210.12z"/>
			</g>
			<g>
				<path class="st29" d="M334.08,210.12c0,0-0.99,2.37-0.99,3.15c0,0.77-6.3-3.2-6.3-3.2l0.33-1.71L334.08,210.12z"/>
			</g>
			<g>
				<path class="st43" d="M339.48,194.38c0.39,1.21,0,2.93,0.11,3.48c0.11,0.55,0.44,1.1,0.44,1.99c0,0.88,0.06,5.58-0.88,6.19
					c-0.94,0.61-6.13-0.22-7.18-1.05c-1.05-0.83-1.88-1.99-1.88-1.99s-1.16,0.11-1.88-0.83c-0.72-0.94-2.54-4.69-1.33-8.78
					c1.21-4.09,7.79-4.25,10.11-2.6C339.32,192.44,339.48,194.38,339.48,194.38z"/>
			</g>
			<g>
				<path class="st8" d="M347.11,304.39c0.21,1.76-5.09,1.33-6.52,0.44c-1.43-0.89-2.54-2.65-3.54-3.42
					c-0.99-0.78-1.87-0.78-1.99-1.55c-0.03-0.23-0.09-0.86-0.15-1.74c1.95,1.44,6.71,4.8,8.5,4.56c1.11-0.16,1.68-0.52,1.91-0.97
					C346.29,302.86,347.03,303.81,347.11,304.39z"/>
			</g>
			<g>
				<path class="st8" d="M333.63,313.34c-0.77,1.21-5.41,0-6.07-1.11c-0.66-1.1-0.45-3.53-0.45-4.85c0-0.24-0.04-1.11-0.12-2.41
					c0.13,0.53,0.25,1.1,0.34,1.68c0.38,2.49,0.61,3.49,3.75,3.87c1.38,0.17,1.95-0.85,2.16-2.04
					C333.7,310.58,334.04,312.69,333.63,313.34z"/>
			</g>
			<g>
				<path class="st43" d="M320.93,222.71c0.44-4.14,0.77-7.18,2.93-7.57c2.15-0.39,3.48,2.32,2.93,6.85
					c-0.55,4.53-1.49,10.44-1.49,10.44s1.27,14.91,1.44,15.46c0.17,0.55,1.22,0.94,1.71,1.66c0.5,0.72,1.22,3.65,0.72,3.92
					c-0.5,0.28-1.05-1.49-1.44-1.27c-0.39,0.22-0.06,1.99,0.22,2.76c0.28,0.77,0.99,1.6,0.55,1.88c-0.44,0.28-2.98-0.61-3.7-1.88
					c-0.72-1.27-1.1-4.64-1.05-5.58c0.06-0.94-2.98-14.97-3.15-16.02C320.43,232.32,320.93,222.71,320.93,222.71z"/>
			</g>
			<g>
				<path class="st10" d="M321.04,217.9c0.53-2.55,1.66-3.98,4.25-3.53c2.6,0.44,3.09,4.8,2.37,8.17
					c-0.72,3.37-1.88,9.72-1.88,10.22c0,0.5,0.5,6.19,0.5,6.19s-1.88,1.71-4.8,1.16c0,0-1.33-5.52-1.33-6.85
					C320.16,231.93,320.05,222.71,321.04,217.9z"/>
			</g>
			<g>
				<path class="st29" d="M326.18,237.65c-0.94,0.64-2.76,1.99-5,1.13c0,0-0.17,0.47-0.08,1.13c0.08,0.66,0.39,1.02,0.39,1.02
					s1.05,0.47,2.73,0.06c1.68-0.41,2.37-1.27,2.37-1.27s0.08-0.58-0.11-1.24C326.29,237.81,326.18,237.65,326.18,237.65z"/>
			</g>
			<g>
				<path class="st17" d="M336.51,208.63c0,0,1.49,1.85,2.82,4.25c1.33,2.4,1.82,5.38,1.82,6.46c0,1.08,0.94,12.45,1.44,16.35
					c0.5,3.89,1.38,9.08,1.38,9.08s1.74,0.41,1.08-5.8c-0.66-6.21-2.15-12.76-2.07-15.16c0.08-2.4,1.57-3.15,1.41-5.55
					c-0.17-2.4-3.62-10.08-5.05-10.91c-1.44-0.83-2.78-0.84-2.78-0.84L336.51,208.63z"/>
			</g>
			<g>
				<path class="st29" d="M336.51,208.63c0,0,1.55,0.44,1.71,1.93c0,0,0.33-1.05-0.06-2.04c-0.39-0.99-1.62-2-1.62-2L336.51,208.63z
					"/>
			</g>
			<g>
				<path class="st8" d="M338.74,192.75c0,0-1.66,5.22-7.95,7.95c0,0-0.79-2.73-2.03-1.86c-1.24,0.87-1.2,2.03-0.75,2.73
					c0.46,0.7,1.01,1.64,2.08,1.42c0,0,0.09,4.92,0.03,5.83c-0.06,0.91-4.85,2.82-4.85,2.82s-0.87-12.23,0.57-17.04
					c1.44-4.8,4.86-5.47,7.46-4.75C335.9,190.57,338.74,192.75,338.74,192.75z"/>
			</g>
			<g>
				<path class="st8" d="M330.96,189.72c1.99-1.12,4.22-0.7,5.84,0.04c1.62,0.75,2.82,2.2,3.02,3.19c0.21,0.99-0.14,3.27-0.14,3.27
					s-0.27-2.11-0.48-2.78c-0.21-0.66-0.46-0.7-0.46-0.7s-2.32-1.66-3.75-2.28C332.36,189.33,330.96,189.72,330.96,189.72z"/>
			</g>
		</g>
		<g class="st6">
			<g>
				<g>
					<path class="st8" d="M389.32,427.83c0,0,7.43-2.13,9.03-1.33c1.59,0.8,0.37,3.88-3.08,5.85c-3.45,1.97-5.32,3.19-7.15,3.67
						c-1.83,0.48-4.7,0.53-5.12-1.28c-0.43-1.81-0.21-3.99,0.27-4.78C383.74,429.16,389.32,427.83,389.32,427.83z"/>
				</g>
				<g>
					<path class="st44" d="M389.99,427.34v1.65c0,0-0.64,2.34-3.32,2.32c-3.05-0.02-3.12-1.61-3.12-1.61l0.09-2.29"/>
				</g>
				<g>
					<path class="st8" d="M399.91,434.29c0,0,8.34-2.38,10.12-1.49c1.79,0.89,0.42,4.35-3.46,6.56c-3.87,2.21-5.97,3.58-8.02,4.11
						s-5.27,0.6-5.75-1.43c-0.48-2.03-0.24-4.47,0.3-5.36C393.64,435.78,399.91,434.29,399.91,434.29z"/>
				</g>
				<g>
					<path class="st44" d="M399.91,433.34v2.98c0,0-0.36,1.97-3.29,2.15c-2.92,0.18-3.52-1.79-3.52-1.79v-2.31l4.41-0.67
						L399.91,433.34z"/>
				</g>
				<g>
					<path class="st22" d="M383.02,373.31c-0.79,3.81,1.45,8.21,1.57,9.88c0.12,1.67-1.11,14.07-1.82,22.89s-0.1,22.95-0.1,22.95
						s1.27,1.85,4.1,1.31c2.83-0.54,4.43-1.91,4.43-1.91s1.97-29.74,2.56-33.2c0.6-3.46,1.63-17.28,1.71-19.43
						C395.55,373.66,384.65,365.5,383.02,373.31z"/>
				</g>
				<g>
					<path class="st21" d="M406.31,377.03c0.21,12.96-1.82,26.66-2.05,28.21c-0.24,1.55-2.58,29.68-2.58,29.68
						s-2.43,5.48-10.06,1.37c0,0,0.79-25.76,0.93-30.14c0.14-4.37,0.85-13.43,0.55-17.96c-0.29-4.53-2.84-5.72-3.12-11.68
						c0,0,1-5.48,8.17-5.01C405.33,371.99,406.31,377.03,406.31,377.03z"/>
				</g>
			</g>
			<g>
				<path class="st17" d="M409.03,342.34c0.85-5.18-1.95-8.03-8.22-11.71c-2.59-1.52-12.25-8.14-16.99-2.24
					c-4.74,5.9,0.27,19.13,0,26.64c-0.27,7.51-1.43,17.34-1.43,17.34s2.41,4.92,11.18,5.72c8.76,0.8,14.3-1.61,14.3-1.61
					S406.52,357.54,409.03,342.34z"/>
			</g>
			<g>
				<path class="st8" d="M407.65,356.91c0,0-2.77,3.22-9.07,3.93v3.52c0,0,4.56-0.46,8.94-2.15c0,0,0.49-1.31,0.64-3.16
					C408.31,357.21,407.65,356.91,407.65,356.91z"/>
			</g>
			<g id="XMLID_72_">
				<g>
					<g>
						<path class="st37" d="M397.02,337.11c0.21,0.44,0.39,1.09,0.54,1.9c-3.58-3.12-5.55,10.17-7.52,10.63
							c-1.96,0.44-9.56-2.25-11.5-6.28c-1.46-5.44,0.92-9.37,2.12-11.51C381.98,329.47,395.31,333.54,397.02,337.11z"/>
					</g>
					<g>
						<path class="st8" d="M398.56,362.15c0.06,4.21,0.24,10.38-4.41,10.47c-4.65,0.09-14.49-4.38-15.02-6.35
							c-0.36-1.3-1.14-13.19-0.6-22.9c1.95,4.03,9.54,6.72,11.5,6.28c1.97-0.46,3.95-13.75,7.52-10.63
							C398.66,344.75,398.5,358.47,398.56,362.15z"/>
					</g>
				</g>
			</g>
			<g>
				<path class="st8" d="M397.7,339.84c0,0,1.76-4.86,4.27-5.31c2.51-0.45,4.71,0.35,4.71,0.35s0.26-0.75-0.81-1.6
					c-1.07-0.85-3.66-1.8-3.66-1.8s-3.8-0.88-7.71,3.3c0,0,1.71,0.72,2.25,1.88C397.28,337.82,397.7,339.84,397.7,339.84z"/>
			</g>
			<g>
				<path class="st8" d="M387.46,331.89c0,0,0.57-4.87,2.58-5.9c0,0-0.52-0.4-1.29-0.4c-0.77,0-2.73,1.04-2.73,1.04
					s-1.79,1.11-2.69,4.53C383.33,331.16,386.64,331.66,387.46,331.89z"/>
			</g>
			<g>
				<path class="st43" d="M391.08,325.08c0,0-0.06,2.21,0,2.68c0.06,0.48,2.38,2.03,4.71,2.26c2.32,0.24,3.54-0.28,3.54-0.28v-3
					c0,0,3.49,0.15,3.97-0.76c0.48-0.91,1.37-5.44,1.01-6.39c-0.36-0.95-0.72-1.79-0.72-2.32c0-0.54,0.36-2.26,0.24-2.98
					s-1.07-2.62-1.07-2.62s1.59-1.97-2.78-3.28c-4.37-1.31-10.15,0.12-10.87,1.43c-0.72,1.31-0.65,2.26-0.65,2.26
					s-2.36,2.03-1.78,4.05c0.58,2.03,3.62,7.63,3.62,7.63L391.08,325.08z"/>
			</g>
			<g>
				<path class="st8" d="M399.98,308.39c-4.37-1.31-10.15,0.12-10.87,1.43c-0.72,1.31-0.65,2.26-0.65,2.26s-2.36,2.03-1.78,4.05
					c0.58,2.03,3.62,7.63,3.62,7.63l0.77,1.31c0,0,4.83-0.77,5.36-1.43c0.54-0.66,1.55-3.4,2.13-3.16c0.58,0.24,0.67,2.21,0.67,2.21
					h0.73c0,0,0.11-2.32,0.01-2.86c-0.1-0.54,0.88-1.49,0.99-2.26c0.12-0.77-0.36-2.92-0.38-3.4c-0.02-0.48,2.17-2.5,2.17-2.5
					S404.35,309.7,399.98,308.39z"/>
			</g>
			<g>
				<path class="st43" d="M418.67,378.27c-0.17-0.57-1.99-5.68-1.99-5.68l-5.88-14.79c-0.41-1.04-0.93-1.84-1.52-2.45
					c0.34-5.61-1.11-15.51-1.11-15.51s-5.34-3.69-7.06,2.65c0,0,0.61,9.85,0.79,14.03c0,0,0,0.01-0.01,0.01l0.03,0.45
					c0.02,0.52,0.03,0.92,0.03,1.15c0,0.14,0.02,0.26,0.05,0.38l0,0.02c0.01,0.02,0.02,0.04,0.03,0.06c0.03,0.1,0.08,0.19,0.13,0.28
					c0.01,0.02,0.02,0.03,0.02,0.05v0.01c2.1,4.25,9.96,15.85,10.06,16.39c0,0-0.39,1.97,0.27,2.69c0.66,0.72,1.37,0.83,1.49,1.37
					c0.13,0.53,0.06,2.62,0.19,3.16c0.11,0.53,2.37,2.67,3.22,2.07c0,0,0.72-1.96,0.89-2.5
					C418.5,381.59,418.86,378.84,418.67,378.27z"/>
			</g>
			<g>
				<path class="st10" d="M409.67,348.33c-0.04-3.71-0.2-8.81-0.69-10.49c-0.81-2.73-6.54-4.77-8.37,1.5
					c-0.94,3.21-0.72,7.88-0.01,11.93C400.63,351.27,407.76,352.74,409.67,348.33z"/>
			</g>
		</g>
		<g class="st6">
			<path class="st8" d="M605.16,224.81c-1.57-0.91-2.84-0.17-2.84,1.64c0,1.81,1.27,4.01,2.84,4.92c1.57,0.91,2.84,0.17,2.84-1.64
				C608,227.92,606.73,225.72,605.16,224.81z M598.52,216.25l2.5,4.46c1.08-0.57,2.52-0.46,4.14,0.47c1.61,0.93,3.06,2.5,4.14,4.31
				l2.5-1.57c-1.73-2.9-4.06-5.43-6.64-6.92C602.58,215.51,600.25,215.34,598.52,216.25z M605.16,199.44
				c-6.66-3.84-12.69-4.3-17.15-1.94l2.5,4.46c3.81-2.01,8.96-1.62,14.65,1.66c5.69,3.29,10.84,8.84,14.65,15.26l2.5-1.57
				C617.85,209.8,611.82,203.29,605.16,199.44z M593.33,207l2.5,4.46c2.43-1.28,5.7-1.04,9.32,1.05c3.63,2.09,6.9,5.63,9.33,9.72
				l2.5-1.57c-3.07-5.17-7.23-9.67-11.83-12.32C600.57,205.68,596.41,205.38,593.33,207z"/>
		</g>
		<g class="st6">
			<g>
				<path class="st8" d="M482.77,190.56c-2.05,1.77-2.01,6.11,0.07,10.24c2.37,4.68,6.42,7.56,9.34,7l4.5,7.79
					c0.19,0.33,0.5,0.51,0.69,0.4l1.26-0.73c0.19-0.11,0.19-0.46,0-0.79l-4.5-7.79c1.82-2.1,1.53-6.58-0.88-10.75
					C490.32,190.84,485.43,188.25,482.77,190.56z M491.3,204.02c-1.67,0.96-4.38-0.6-6.04-3.49c-1.67-2.89-1.67-6.02,0-6.98
					c1.67-0.96,4.38,0.6,6.04,3.49C492.97,199.93,492.97,203.06,491.3,204.02z"/>
			</g>
		</g>
		<g class="st6">
			<g>
				<polygon class="st8" points="499.99,133.63 491.61,123.2 491.61,134.38 				"/>
			</g>
			<g>
				<polygon class="st8" points="492.92,132.54 484.03,127.41 484.03,121.42 492.92,126.55 				"/>
			</g>
		</g>
		<g class="st6">
			<g>
				<g>
					<path class="st8" d="M503.45,171.84l-18.1-10.45c-0.49-0.28-0.89-0.97-0.89-1.54v-13.18c0-0.57,0.4-0.8,0.89-0.51l18.1,10.45
						c0.49,0.28,0.89,0.97,0.89,1.54v13.18C504.34,171.9,503.94,172.13,503.45,171.84z M486.24,159.85l16.32,9.42v-11.13
						l-16.32-9.42V159.85z"/>
				</g>
			</g>
			<g>
				<g>
					<path class="st8" d="M494.4,161.76c-0.2-0.11-0.39-0.3-0.55-0.54l-9.05-13.55c-0.38-0.58-0.45-1.26-0.14-1.53
						c0.31-0.27,0.87-0.02,1.25,0.56l8.5,12.72l8.5-2.91c0.39-0.13,0.95,0.27,1.25,0.89c0.31,0.62,0.24,1.23-0.14,1.36l-9.05,3.1
						C494.79,161.91,494.6,161.87,494.4,161.76z"/>
				</g>
			</g>
		</g>
		<g class="st6">
			<g>
				<polygon class="st8" points="592.84,252.46 604.58,252.46 604.58,266.02 				"/>
			</g>
			<g>
				<polygon class="st8" points="605.74,259.91 617.48,259.91 617.48,273.47 				"/>
			</g>
		</g>
		<g class="st6">
			<path class="st8" d="M573.59,181.15c-0.77,0.05-1.66-0.18-2.6-0.72c-0.94-0.54-1.83-1.34-2.6-2.28
				c-2.65-0.33-4.53,1.56-4.53,5.05v0.35c1.9,3.04,4.4,5.65,7.14,7.23c2.74,1.58,5.23,1.85,7.14,1.01v-0.35
				C578.13,187.95,576.25,183.88,573.59,181.15z M570.99,168.79c-2.59-1.5-4.7-0.28-4.7,2.71c0,3,2.11,6.64,4.7,8.14
				c2.6,1.5,4.7,0.28,4.7-2.71C575.69,173.93,573.59,170.29,570.99,168.79z"/>
		</g>
	</g>
	<g>
		<path class="st45" d="M10.18,155.61l206.93-0.44l-52.79-7.34c0,0,2.15-40.37-23.7-32.3c-25.86,8.07-26.93,25.69-26.93,25.69
			s-9.7-16.15-23.7-10.28c-14,5.87-20.47,16.15-20.47,16.15s-5.03-11.62-14-12.28c-7.68-0.56-22.28,10.49-29.93,16.71L10.18,155.61z
			"/>
		<path class="st45" d="M579.3,221.11l170.7-0.33l-43.55-5.45c0,0,1.78-30-19.55-24c-21.33,6-22.22,19.09-22.22,19.09
			s-8-12-19.55-7.64c-11.55,4.36-16.88,12-16.88,12s-4.15-8.63-11.55-9.12c-6.33-0.42-18.38,7.79-24.69,12.41L579.3,221.11z"/>
		<path class="st45" d="M301.59,54.42l170.7-0.36L428.75,48c0,0,1.78-33.31-19.55-26.64c-21.33,6.66-22.22,21.19-22.22,21.19
			s-8-13.32-19.55-8.48c-11.55,4.84-16.88,13.32-16.88,13.32s-4.15-9.59-11.55-10.13c-6.33-0.46-18.38,8.65-24.69,13.78
			L301.59,54.42z"/>
	</g>
	<g>
		<path class="st46" d="M601.88,34.28l-12.98,3.07l-5.63-11.05C572.88,5.92,540.09-4.91,510.2,2.16
			c-29.9,7.07-45.77,29.41-35.38,49.79L480.45,63l-13.02,3.08c-10.13,2.4-15.57,10.03-12.05,16.94l36.64,71.91
			c3.57,7.01,14.8,10.73,24.92,8.33l134.45-31.81c10.29-2.43,15.74-10.09,12.16-17.1l-36.64-71.91
			C623.4,35.54,612.17,31.85,601.88,34.28z M499.32,46.16c-5.69-11.17,3-23.41,19.39-27.29c16.38-3.88,34.34,2.06,40.03,13.23
			l5.63,11.05l-59.43,14.06L499.32,46.16z M577.24,111.7l9.36,18.36c0.4,0.78-0.28,1.57-1.43,1.85l-12.9,3.05
			c-0.99,0.23-2.25-0.1-2.65-0.88l-9.36-18.36c-10.01-0.25-19.33-4.54-22.85-11.45c-4.53-8.88,2.4-18.63,15.48-21.72
			c13.07-3.09,27.36,1.64,31.89,10.52C588.29,99.97,584.89,107.28,577.24,111.7z"/>
		<g>
			<path class="st47" d="M512.95,389.53c-3.19-4.24,4.28-8.79,11.17-9.62c6.89-0.84,14.69-0.2,20.18-3.16
				c7.32-3.95,6.95-12.57,15.06-15.73c6.51-2.53,15.14-0.12,22.04-2.12c8.57-2.49,10.98-10.63,19.39-13.36
				c6.7-2.18,15.47,0.28,18.89,4.78c3.42,4.49,1.85,10.3-2.9,14.19c-3.71,3.05-9.2,5.18-11.51,8.81
				c-3.61,5.69,2.09,12.58-1.23,18.35c-6.13,10.66-35.12,7.45-40.15,18.37c-1.12,2.43-0.65,5.05-0.94,7.59
				c-0.87,7.56-8.69,14.16-18.34,17.92c-9.66,3.76-20.95,5.07-32.05,5.6c-4.53,0.22-9.31,0.28-13.36-1.14
				c-3.8-1.33-6.45-3.81-8.52-6.37C477.35,417.18,471.86,395.71,512.95,389.53"/>
		</g>
		<g>
			<path class="st48" d="M299.18,380.77c7.17-3.23,3.18-11.16-3.45-14.88c-6.63-3.72-15.54-6.24-18.79-11.66
				c-4.34-7.23,3.68-16.3-2.21-23c-4.73-5.38-16.09-6.34-21.7-11.31c-6.97-6.18-2.36-15.87-8.94-22.25
				c-5.25-5.08-16.8-6.05-24.43-2.65c-7.63,3.4-11.08,10.26-9.44,16.37c1.28,4.78,5.27,9.32,4.52,14.15
				c-1.17,7.57-13.35,12.6-14.9,20.14c-2.86,13.92,30.98,22.38,26.72,36.13c-0.95,3.06-3.77,5.67-5.7,8.51
				c-5.75,8.44-3.22,18.71,3.78,26.7c7,7.99,17.93,14.02,29.33,19.14c4.66,2.09,9.72,4.12,15.29,4.26
				c5.25,0.13,10.27-1.43,14.74-3.32C312.82,424.95,337.67,404.24,299.18,380.77"/>
		</g>
		<g>
			<g>
				<path class="st49" d="M487.2,398.22c10.02-2.95,19.05-8.39,26.53-13.66c20.18-14.19,32.69-32.73,39.27-51.82
					c5.95-17.27,7.28-35.12,6.04-52.8c-0.11-1.5-3.53-1.51-3.43,0c2.8,39.71-8.77,88.43-60.92,112.6c-2.91,1.35-5.97,2.7-9.22,3.66
					C483.45,396.8,485.2,398.81,487.2,398.22L487.2,398.22z"/>
			</g>
			<path class="st49" d="M553.48,326.07c0,0,3.3-12.86,28.31-14.9C581.79,311.17,572.67,326.39,553.48,326.07z"/>
			<path class="st49" d="M545.28,345.08c0,0,7.62-11.98,32.63-9.98C577.92,335.1,563.83,348.45,545.28,345.08z"/>
			<path class="st49" d="M534.66,361.84c0,0,11.37-10.51,35.09-4.75C569.75,357.09,551.63,367.95,534.66,361.84z"/>
			<path class="st49" d="M557.32,306.1c0,0,3.25-12.64,27.83-14.65C585.16,291.45,576.19,306.41,557.32,306.1z"/>
			<path class="st49" d="M557.66,284.12c0,0-14-8.59-3.43-23.85C554.23,260.27,568.07,273.4,557.66,284.12z"/>
			<path class="st49" d="M557.74,297.15c0,0-18.53-2.33-21.24-19.1C536.51,278.05,558.38,284.3,557.74,297.15z"/>
			<path class="st49" d="M555.89,316.42c0,0-18.53-2.33-21.24-19.1C534.66,297.32,556.54,303.57,555.89,316.42z"/>
			<path class="st49" d="M551.08,334.46c0,0-18.24-3.21-19.22-20.07C531.87,314.39,553.05,321.67,551.08,334.46z"/>
			<path class="st49" d="M542.68,352.49c0,0-18.24-3.21-19.22-20.07C523.46,332.42,544.64,339.7,542.68,352.49z"/>
		</g>
		<g>
			<path class="st50" d="M508.49,443.48H284.58c-11.68,0-21.15-9.47-21.15-21.15v-313.4c0-11.68,9.47-21.15,21.15-21.15h223.92
				c11.68,0,21.15,9.47,21.15,21.15v313.4C529.64,434.01,520.17,443.48,508.49,443.48z"/>
			<path class="st51" d="M502.54,430.9H290.53c-8.18,0-14.81-6.63-14.81-14.81V113.05c0-8.18,6.63-14.81,14.81-14.81h212.01
				c8.18,0,14.81,6.63,14.81,14.81v303.04C517.35,424.27,510.72,430.9,502.54,430.9z"/>
			<path class="st50" d="M468.84,98.24h-15.71c-4.82,0-8.73,2.66-8.73,5.95v4.25c0,3.29-3.91,5.95-8.73,5.95h-70.08
				c-4.82,0-8.73-2.66-8.73-5.95v-4.25c0-3.29-3.91-5.95-8.73-5.95h-44.62v-3.05h165.33V98.24z"/>
			<g>
				<g>
					<g>
						<path class="st52" d="M403.25,149.51c1.03-0.37,1.73-1.1,1.73-1.95c0-1.23-1.46-2.22-3.25-2.22c-1.8,0-3.25,0.99-3.25,2.22
							c0,0.85,0.71,1.57,1.73,1.95c-2.05,0.44-3.55,1.76-3.55,3.3v1.74h10.15v-1.74C406.8,151.27,405.3,149.95,403.25,149.51z"/>
						<g>
							<text transform="matrix(1.4676 0 0 1 358.4238 166.8047)" class="st52 st53 st54">Create Account</text>
						</g>
					</g>
					<g>
						<path class="st55" d="M443.74,382.12h-96.91c-1,0-1.82-0.55-1.82-1.24v-12.91c0-0.68,0.81-1.24,1.82-1.24h96.91
							c1,0,1.82,0.55,1.82,1.24v12.91C445.55,381.56,444.74,382.12,443.74,382.12z"/>
						<g>
							<text transform="matrix(1.4676 0 0 1 377.9316 376.0928)" class="st56 st53 st57">Register</text>
						</g>
					</g>
					<g>
						<g class="st58">
							<text transform="matrix(1.4676 0 0 1 309.7695 187.4785)" class="st52 st53 st59">Email Address</text>
						</g>
						<g>
							<text transform="matrix(1.4676 0 0 1 318.3271 204.4102)" class="st52 st53 st59">youremail@gmail.c</text>
						</g>
						<path class="st60" d="M490.93,212h-178.4c-1.52,0-2.76-1.24-2.76-2.76v-13.37c0-1.52,1.24-2.76,2.76-2.76h178.4
							c1.52,0,2.76,1.24,2.76,2.76v13.37C493.69,210.77,492.45,212,490.93,212z"/>
					</g>
					<g>
						<g>
							<g class="st61">
								<text transform="matrix(1.4676 0 0 1 309.7695 229.5098)" class="st52 st53 st59">Country</text>
							</g>
							<g>
								<g>
									<text transform="matrix(1.4676 0 0 1 318.3271 246.2783)" class="st52 st53 st59">Your text</text>
								</g>
								<path class="st60" d="M490.93,254.2h-178.4c-1.52,0-2.76-1.24-2.76-2.76v-13.37c0-1.52,1.24-2.76,2.76-2.76h178.4
									c1.52,0,2.76,1.24,2.76,2.76v13.37C493.69,252.96,492.45,254.2,490.93,254.2z"/>
							</g>
						</g>
					</g>
					<g>
						<g>
							<g class="st61">
								<text transform="matrix(1.4676 0 0 1 309.7695 273.8896)" class="st52 st53 st59">City</text>
							</g>
							<g>
								<g>
									<text transform="matrix(1.4676 0 0 1 318.3271 290.6602)" class="st52 st53 st59">Your City</text>
								</g>
								<path class="st60" d="M490.93,298.58h-178.4c-1.52,0-2.76-1.24-2.76-2.76v-13.37c0-1.52,1.24-2.76,2.76-2.76h178.4
									c1.52,0,2.76,1.24,2.76,2.76v13.37C493.69,297.34,492.45,298.58,490.93,298.58z"/>
							</g>
						</g>
					</g>
					<g>
						<g>
							<g class="st61">
								<text transform="matrix(1.4676 0 0 1 309.7695 318.4863)" class="st52 st53 st59">Password</text>
							</g>
							<g>
								<g>
									<text transform="matrix(1.4676 0 0 1 318.3271 335.2549)" class="st52 st53 st59">Entry password</text>
								</g>
								<path class="st60" d="M490.93,343.17h-178.4c-1.52,0-2.76-1.24-2.76-2.76v-13.37c0-1.52,1.24-2.76,2.76-2.76h178.4
									c1.52,0,2.76,1.24,2.76,2.76v13.37C493.69,341.94,492.45,343.17,490.93,343.17z"/>
							</g>
						</g>
					</g>
				</g>
				<line class="st62" x1="393.67" y1="198.21" x2="393.67" y2="204.87"/>
			</g>
		</g>
	</g>
	<g>
		<path class="st63" d="M488.66,497.33c0-1.47-52.97-2.67-118.31-2.67c-65.34,0-118.31,1.19-118.31,2.67
			c0,1.47,52.97,2.67,118.31,2.67C435.69,500,488.66,498.81,488.66,497.33z"/>
		<g>
			<path class="st64" d="M382.85,326.76c0,0,11.76,12.37,14.42,7.01c2.66-5.36,4.29-8.64,4.29-8.64s-3.34-3.73-5.11-2.58
				c-1.85,1.2-4.25-0.98-4.25-0.98L382.85,326.76z"/>
			<g>
				<path class="st64" d="M440.96,262.79l4.86-19.22c3.19-0.7,6.47-2.38,5.34-4.98c-0.56-1.3-2.05-1.98-3.81-2.44
					c-0.66-0.17-4.06-0.84-4.29,0.06c0-0.01,1.85-6.93,1.85-6.93l-33.08-10.88c0,0-3.02,13.8-3.05,13.96
					c0.05-0.21-3.22-0.71-3.66-0.68c-1.66,0.12-3.28,1.18-3.93,2.17c-1.72,2.61,1.61,5.92,5.77,5.97c0,0,0.57,6.19,2.67,8.39
					c2.11,2.2,11.83,3.71,11.83,3.71l-1.07,8.37L440.96,262.79z"/>
			</g>
			<g>
				<path class="st48" d="M452.13,264.36c-14.95-2.86-35.95-5.37-35.95-5.37l-13.93,67.59l58.68-1.23L452.13,264.36z"/>
			</g>
			<g>
				<path class="st48" d="M452.13,264.36c19.52,3.48,38.79,6.12,58.86,7.53c-4.47-13.85-6.92-24.45-12.76-36.21
					c5.58-0.96,16.46-2.86,22.04-3.82c0,0,18.48,43.87,12.87,49.72c-9.55,9.95-57.09,3.4-57.09,3.4l-22.49-2.73L452.13,264.36z"/>
			</g>
			<g>
				<path class="st48" d="M351.63,279.24c0,0,62.99-21,65.88-20.22c2.9,0.77,5.35,10.51,5.35,10.51s-22.83,9.9-58.14,21.08
					l32.12,29.79l-16,7.82c0,0-44.1-33.77-42.42-40.75C339.71,282.08,351.63,279.24,351.63,279.24z"/>
			</g>
			<path class="st64" d="M519.32,232.02c0,0-2.61-12.42-2.92-12.77c-0.31-0.35-0.31-2.55-4.99-2.02c0,0-0.31-3.93-3.02-4.01
				c-2.7-0.07-5.72,0.43-5.72,0.43s-3.04-10.09-5.02-11.84c-2.16-1.91-5.17,3.12-0.49,15.42c0,0,2.59,8.36,1.82,8.67
				c-2.09,0.83-4.97,0.68-8.95-3.96c-4.23-4.93-9.5-3.26-6.9,0.57c2.6,3.83,6.28,8.78,8.68,10.12c2.39,1.35,7.44,1.14,7.44,1.14
				l0.74,1.6L519.32,232.02z"/>
			<g>
				<path class="st65" d="M460.94,325.35c-7.07,73.15-31.06,163.42-31.06,163.42l23.5,6.78h-50.05l32.83-159.63h-11.24
					l-83.03,159.74h-49.99l28.44-7.07l83-167.19L460.94,325.35z"/>
			</g>
			<path class="st66" d="M448.9,236.66c2.8-3.81,6.07-13.06-2.42-15.63c-4.41-1.33-8.98-3.26-12.35-4.8
				c-5.18-2.36-11.61-3.3-17.61-2.16c-0.96,0.18-1.9,0.41-2.79,0.71c-5.93,1.98-9.93,12.72-9.93,12.72l5.83,0.99
				c0,0,6.5,19.69,17.19,23.74l10.68,1.54l6.32,0.97L448.9,236.66z"/>
			<g>
				<g>
					<path class="st66" d="M440.9,219.66c0.05-1.21-0.03-2.41-0.21-3.61c-0.06-0.38-0.63-0.22-0.57,0.16
						c0.17,1.14,0.23,2.29,0.19,3.45C440.29,220.05,440.89,220.05,440.9,219.66L440.9,219.66z"/>
				</g>
			</g>
			<g>
				<g>
					<path class="st66" d="M440.96,219.77c0.64-0.26,0.92-0.85,1.33-1.36c0.52-0.64,1.1-1.23,1.72-1.77
						c0.29-0.25-0.14-0.67-0.42-0.42c-0.51,0.45-1,0.93-1.45,1.45c-0.38,0.43-0.81,1.32-1.34,1.53
						C440.45,219.34,440.6,219.92,440.96,219.77L440.96,219.77z"/>
				</g>
			</g>
		</g>
	</g>
	<g>
		<path class="st63" d="M236.62,477.93c0-1.47-52.97-2.67-118.31-2.67S0,476.46,0,477.93c0,1.47,52.97,2.67,118.31,2.67
			S236.62,479.4,236.62,477.93z"/>
		<g>
			<path class="st65" d="M159.01,198.05c-2.22-0.35-4.29-0.4-7.13-0.58c-4.23-0.27-8.1,1.6-11.3,3.51c-3.2,1.9-5.51,4.4-7.59,6.93
				c-2.12,2.58-4.1,5.58-2.85,8.41c0.32,0.72,0.84,1.42,0.83,2.18c-0.05,2.34-4.79,3.23-6.27,5.34c-1.83,2.61,1.91,6.14-0.63,8.46
				c-1.27,1.16-3.7,1.53-4.9,2.72c-0.94,0.94-0.9,2.16-0.83,3.3c0.02,0.23,0.05,0.49,0.3,0.65c0.21,0.13,0.52,0.16,0.8,0.18
				c13.55,0.89,26.96-1.11,40.51-0.22c1.64,0.11,3.29,0.21,4.92,0.08c2.34-0.19,4.54-0.86,6.68-1.52
				c11.71-3.64,23.44-4.58,34.88-8.59c0.48-0.17,0.99-0.36,1.23-0.69c0.18-0.25,0.18-0.55,0.14-0.83c-0.31-2.06-2.54-3.92-5.43-4.54
				c-2.98-0.64-6.56-0.08-9.05-1.37c-1.8-0.93-2.45-2.56-2.68-4.09c-0.48-3.1,0.04-6.7-3.26-8.86c-2.58-1.7-6.73-1.88-9.32-3.57
				c-1.48-0.96-2.27-2.3-3.47-3.43C171.11,198.22,165.17,196.29,159.01,198.05"/>
			<g>
				<path class="st67" d="M136.37,304.75L60.83,467.64l-29.73,7.81h44.12l85.28-153.46c0.55-0.99,1.93-1.64,3.48-1.64l0,0
					c2.21,0,3.93,1.31,3.7,2.8l-22.47,152.29h44.66l-29.82-6.72c0,0,27.78-88.55,33.96-116.26c6.18-27.71-2.78-47.29-2.78-47.29
					S162.28,298.93,136.37,304.75z"/>
			</g>
			<g>
				<path class="st49" d="M137.25,246.13c6.92-4.93,34.45-5.5,44.4-2.71c9.95,2.78,28.26,38.8,28.26,38.8l-18.21,4.87l-11.3-30.11
					l-35.41-3.32L137.25,246.13z"/>
			</g>
			<g>
				<path class="st49" d="M183.77,261.4c0,0,3.1-4.99,3.76-8.83c0.66-3.85-7.02-7.61-7.02-7.61l-41.66,7.36l2.59,16.91l-6.11,34.17
					l52.93,1.34l-5.32-43.18"/>
			</g>
			<g>
				<path class="st68" d="M142.03,262.38c-0.18,0-0.36-0.04-0.51-0.11c-0.37-0.19-0.45-0.55-0.17-0.81l2.96-2.69
					c0.28-0.25,0.81-0.31,1.18-0.12c0.38,0.19,0.45,0.55,0.17,0.81l-2.96,2.69C142.54,262.3,142.29,262.38,142.03,262.38z"/>
			</g>
			<g>
				<path class="st69" d="M115.59,309.21c3.18-1.26,6.37-2.53,9.55-3.79"/>
			</g>
			<g>
				<path class="st64" d="M156.82,242.06c-0.58-3.77,2.25-7.59-6.68-10.03c-12.31-3.36-14.95-32.27,7.28-32.34
					c22.23-0.07,21.14,19.02,21.05,24.69c-0.09,5.67-7.41,7.11-9.24,9.16c-1.83,2.05-0.25,8.52-0.25,8.52H156.82z"/>
			</g>
			<g>
				<path class="st64" d="M144.21,220.16c0,1.86-1.91,3.36-4.27,3.36c-2.36,0-4.27-1.51-4.27-3.36c0-1.86,1.91-3.36,4.27-3.36
					C142.3,216.8,144.21,218.31,144.21,220.16z"/>
			</g>
			<g>
				<ellipse class="st64" cx="179.82" cy="217.57" rx="4.27" ry="3.36"/>
			</g>
			<path class="st46" d="M271.86,278.79l-6.59-11.38L78.91,317.26c-7.19-6.62-18.74-10.92-31.76-10.92
				c-21.81,0-39.49,12.05-39.49,26.91s17.68,26.91,39.49,26.91s39.49-12.05,39.49-26.91c0-1.1-0.11-2.19-0.3-3.26l141.92-39.16
				l7.79,11.68l17.31-5.4l-6.09-9.3l5.61-2.02l6.6,8.94l12.38-4.51l-6.86-9.53L271.86,278.79z M47.15,350.77
				c-14.21,0-25.72-7.85-25.72-17.53c0-9.68,11.52-17.53,25.72-17.53c14.21,0,25.72,7.85,25.72,17.53
				C72.87,342.93,61.36,350.77,47.15,350.77z"/>
			<g>
				<path class="st49" d="M137.25,246.13c0,0-46.99,28.51-47.25,33.8c-0.26,5.29,27.68,33.12,27.68,33.12l13.97-6.02l-19.56-24.95
					l31.83-20.68c0,0,1.04,4.8,3.59,6.11l1.42-19.02L137.25,246.13z"/>
			</g>
			<path class="st65" d="M174.02,206.34c-6.11,0.21-33.18,2.09-33.18,2.09s3.96-11.07,16.59-11.51
				C174.02,196.35,174.02,206.34,174.02,206.34z"/>
			<path class="st65" d="M140.87,218.04c0,0,21.94-1.4,25.78-8.46c0,0,7.28,6.34,11.55,6.03c0,0,0.7-8.35-1.95-9.48
				c-2.65-1.13-36.31,1.2-36.31,1.2S139.08,212.67,140.87,218.04z"/>
			<path class="st64" d="M118.28,312.71c0,0,5.99,8.61,6.34,8.82c0.34,0.21,1.07,1.8,4.29,0.7c0,0,1.53,2.81,3.51,2.44
				c1.99-0.36,4.01-1.19,4.01-1.19s2.41,2.18,4.19,1.03c2.08-1.35,0.11-2.85-1.37-4.47c0,0-4.64-5.67-4.18-6.01
				c1.24-0.92,3.38-1.26,7.81,1.5c4.7,2.93,7.97,0.91,4.82-1.47c-3.15-2.38-7.46-5.4-9.64-6.01c-2.18-0.61-5.78,0.31-5.78,0.31
				l-1.07-1.05L118.28,312.71z"/>
			<path class="st49" d="M214.34,294.66c0,0-3.36,6.52-9.24,7.61c-5.88,1.09-38.83,5.65-38.83,5.65v-8.88L214.34,294.66z"/>
			<path class="st64" d="M166.26,300.11h-2.51c0,0-0.56-1.2-0.92-1.6c-1.03-1.14-14.83-2.34-14.57-1.1
				c0.25,1.23,2.52,1.53,7.39,2.15c0,0-18.19,3.01-16.48,3.99c1.71,0.98,13.06-1.28,13.06-1.28s-12.31,2.73-11.44,4.59
				c0.5,1.07,12.98-1.44,12.98-1.44s-12.71,3.1-10.45,4.14c2.25,1.04,16.3-1.31,17.65-1.64c1.35-0.33,1.87-2.11,1.87-2.11l3.43-0.4
				V300.11z"/>
			<g>
				<path class="st65" d="M155.91,193.54c0.48,1.37,0.68,3.08,1.84,4.28c0.48,0.5,1.66,0.03,1.17-0.47
					c-1.07-1.11-1.26-2.79-1.7-4.06C157.01,192.71,155.7,192.96,155.91,193.54L155.91,193.54z"/>
			</g>
			<g>
				<path class="st65" d="M158.86,197.9c0.69-0.84,1.44-1.66,2.23-2.46c0.49-0.5-0.69-0.96-1.17-0.47c-0.79,0.8-1.54,1.62-2.23,2.46
					C157.26,197.96,158.43,198.42,158.86,197.9L158.86,197.9z"/>
			</g>
			<g>
				<path class="st70" d="M161.49,217.39c-0.05,1.07-0.01,2.13,0.17,3.19c0.09,0.54,0.02,1.51,0.57,1.93
					c0.32,0.24,0.98,0.22,1.38,0.26c1.49,0.16,2.99,0.27,4.49,0.41c-0.08-0.13-0.16-0.26-0.24-0.4c-1.27,0.82-2.64,1.43-4.25,1.89
					c-0.4,0.12-0.06,0.52,0.34,0.4c1.67-0.48,3.08-1.12,4.39-1.96c0.24-0.15,0.03-0.37-0.24-0.4c-1.56-0.14-4.73-0.02-5.54-1.14
					c-0.76-1.05-0.44-3.05-0.39-4.18C162.19,217.09,161.51,217.09,161.49,217.39L161.49,217.39z"/>
			</g>
			<g>
				<path class="st71" d="M168.48,220.58c0.2-1.06-0.79-3.53,1.16-4.04c1.74-0.45,2.83,0.53,3.11,1.53c0.17,0.63,0.33,1.25,0.5,1.88
					c0.08,0.29,0.73,0.17,0.66-0.12c-0.41-1.54-0.51-4.16-3.87-3.85c-3.13,0.29-1.99,3.25-2.24,4.61
					C167.74,220.88,168.42,220.87,168.48,220.58L168.48,220.58z"/>
			</g>
			<g>
				<path class="st71" d="M150.92,221.21c0.2-1.06-0.79-3.53,1.16-4.04c1.74-0.45,2.83,0.53,3.11,1.53c0.17,0.63,0.33,1.25,0.5,1.88
					c0.08,0.29,0.73,0.17,0.66-0.12c-0.41-1.54-0.51-4.16-3.87-3.85c-3.13,0.29-1.99,3.25-2.24,4.61
					C150.19,221.51,150.87,221.51,150.92,221.21L150.92,221.21z"/>
			</g>
			<g>
				<path class="st70" d="M155.56,223.9c0.73,3.86,10.31,4.63,13.83,2.29c0.31-0.21-0.17-0.54-0.48-0.33
					c-2.94,1.95-12.02,1.5-12.67-1.96C156.19,223.61,155.5,223.61,155.56,223.9L155.56,223.9z"/>
			</g>
			<g>
				<path class="st70" d="M155.42,224.55c0.2-0.41,0.8-0.67,1.43-0.6c0.43,0.05,0.61-0.4,0.18-0.45c-1.01-0.11-1.95,0.26-2.27,0.93
					C154.63,224.71,155.29,224.83,155.42,224.55L155.42,224.55z"/>
			</g>
			<g class="st72">
				<path class="st73" d="M154.57,222.36c0.3,0.52-1.04,1.36-3.08,1.66c-0.99,0.15-2.02,0.13-2.6,0c-0.56-0.13-0.96-0.26-1.17-0.51
					c-0.09-0.12-0.08-0.28,0.06-0.44c0.14-0.17,0.42-0.33,0.75-0.46c0.69-0.26,1.41-0.43,2.33-0.57
					C152.65,221.79,154.27,221.84,154.57,222.36z"/>
			</g>
			<g class="st72">
				<path class="st73" d="M176.89,221.3c0.3,0.52-1.04,1.36-3.08,1.66c-0.99,0.15-2.02,0.13-2.6,0c-0.56-0.13-0.96-0.26-1.17-0.51
					c-0.09-0.12-0.08-0.28,0.06-0.44c0.14-0.17,0.42-0.33,0.75-0.46c0.69-0.26,1.41-0.43,2.33-0.57
					C174.96,220.73,176.59,220.78,176.89,221.3z"/>
			</g>
			<g>
				<path class="st70" d="M139.66,218.42c-1.34,0.03-2.05,0.88-1.93,1.73c0.12,0.86,1.01,1.52,2.29,1.58c0.44,0.02,0.43-0.44,0-0.46
					c-1.8-0.09-2.37-2.34-0.36-2.39C140.1,218.87,140.1,218.41,139.66,218.42L139.66,218.42z"/>
			</g>
			<g>
				<path class="st70" d="M137.84,219.69c0.65,0.55,1.63,0.84,2.66,0.8c0.43-0.02,0.44-0.48,0-0.46c-0.87,0.04-1.64-0.2-2.18-0.66
					C138.05,219.12,137.57,219.45,137.84,219.69L137.84,219.69z"/>
			</g>
			<g>
				<path class="st70" d="M179.49,219.22c1.47,0.24,2.29-0.67,2.47-1.54c0.2-0.96-0.66-1.89-2.16-1.98c-0.44-0.03-0.43,0.44,0,0.46
					c0.95,0.06,1.59,0.71,1.51,1.32c-0.08,0.59-0.51,1.48-1.65,1.3C179.24,218.7,179.06,219.15,179.49,219.22L179.49,219.22z"/>
			</g>
			<g>
				<path class="st70" d="M179.9,217.85c0.64-0.39,1.05-0.9,1.17-1.49c0.06-0.29-0.59-0.42-0.66-0.12c-0.11,0.51-0.43,0.94-1,1.28
					C179.09,217.72,179.57,218.05,179.9,217.85L179.9,217.85z"/>
			</g>
		</g>
	</g>
</g>
</svg>
