<?xml version="1.0" encoding="utf-8"?>
<!-- Generator: Adobe Illustrator 22.1.0, SVG Export Plug-In . SVG Version: 6.00 Build 0)  -->
<svg version="1.1" xmlns="http://www.w3.org/2000/svg" xmlns:xlink="http://www.w3.org/1999/xlink" x="0px" y="0px"
	 viewBox="0 0 500 500" style="enable-background:new 0 0 500 500;" xml:space="preserve">
<style type="text/css">
	.st0{display:none;}
	.st1{display:inline;fill:#FFFFFF;}
	.st2{display:inline;fill:#417DE3;}
	.st3{font-family:'Metropolis-Light';}
	.st4{font-size:20px;}
	.st5{font-family:'Metropolis-Bold';}
	.st6{display:none;fill:#E2F4FC;}
	.st7{fill:#1E4360;}
	.st8{fill:#FFFFFF;}
	.st9{opacity:0.5;fill:#E6E8ED;}
	.st10{opacity:0.5;fill:#C3CBDB;}
	.st11{fill:#417DE3;}
	.st12{fill:#123349;}
	.st13{fill:#67C4C7;}
	.st14{fill:#EFAFC0;}
	.st15{fill:#DBA731;}
	.st16{fill:#F3C450;}
	.st17{opacity:0.5;fill:#D98E9D;}
	.st18{fill:none;}
	.st19{fill:#E0E4ED;}
	.st20{fill:#EDF1F6;}
	.st21{fill:#9292AA;}
	.st22{fill:#F5C451;}
	.st23{fill:#5E9EFC;}
	.st24{fill:#165CC1;}
	.st25{fill:#3E79B5;}
	.st26{fill:#58A5AE;}
	.st27{fill:#D98E9D;}
	.st28{fill:#A8A5C4;}
	.st29{fill:#CFCCDF;}
	.st30{fill:#F7F7F7;}
	.st31{opacity:0.5;}
	.st32{fill:#C3CBDB;}
	.st33{display:inline;}
	.st34{fill:#1D262D;}
</style>
<g id="BACKGROUND" class="st0">
	<rect class="st1" width="500" height="500"/>
</g>
<g id="OBJECTS">
	<text transform="matrix(1 0 0 1 165.0015 76.5007)" class="st0"><tspan x="0" y="0" class="st2 st3 st4">ONLINE </tspan><tspan x="68.4" y="0" class="st2 st5 st4">EDUCATION</tspan></text>
	<g>
		<path class="st6" d="M187.8,137.4c-10.4,15-19.7,30.8-33,43.3c-25.5,24-62,32.5-90.7,52.7c-16.5,11.6-31.2,30.2-27.5,50
			c3.4,18.4,21.2,30.3,30.3,46.7c7.8,14,8.9,30.9,15.5,45.5c8.8,19.8,27.4,34.3,48.1,40.7c34.2,10.6,66.4-4,100.5-6.5
			c38.7-2.8,77.2,6,115.8,3c30.6-2.4,53-15.5,59.3-46.9c3.2-16.1,3-33,8.5-48.4c6.6-18.8,20.8-33.7,32.4-49.8s21.4-35.9,17.1-55.3
			c-4.4-19.9-22.5-33.8-40.9-42.5c-18.4-8.7-38.6-14.1-55.3-25.7c-18.9-13.3-32.2-33.9-52.3-45.3c-41.4-23.5-94.8-5.8-121.9,30.2
			C191.7,131.9,189.7,134.6,187.8,137.4z"/>
		<g>
			<g>
				<path class="st7" d="M87.7,346.9V144c0-6.6,5.4-12,12-12h308.8c6.6,0,12,5.4,12,12v203c0,6.6-5.4,12-12,12H99.6
					C93,358.9,87.7,353.6,87.7,346.9z"/>
				<path class="st8" d="M400.1,347.8H101.8c-1.6,0-3-1.3-3-3V146.1c0-1.6,1.3-3,3-3h298.3c1.6,0,3,1.3,3,3v198.8
					C403.1,346.5,401.7,347.8,400.1,347.8z"/>
				<rect x="106.6" y="155.2" class="st9" width="244.3" height="11.8"/>
				<rect x="106.6" y="177.9" class="st9" width="96.1" height="43.6"/>
				<rect x="106.6" y="231.7" class="st9" width="96.1" height="43.6"/>
				<rect x="106.6" y="285.4" class="st9" width="96.1" height="43.6"/>
				<rect x="211.3" y="177.9" class="st9" width="182.8" height="151.1"/>
				<circle class="st10" cx="124.1" cy="199.7" r="13"/>
				<circle class="st10" cx="124.1" cy="253.4" r="13"/>
				<circle class="st10" cx="124.1" cy="307.2" r="13"/>
				<ellipse transform="matrix(0.2306 -0.973 0.973 0.2306 138.75 496.2394)" class="st11" cx="383.2" cy="160.4" rx="9" ry="9"/>
			</g>
			<path class="st12" d="M416.6,249.4c0,2.9-2.3,5.2-5.2,5.2s-5.2-2.3-5.2-5.2c0-2.9,2.3-5.2,5.2-5.2S416.6,246.5,416.6,249.4z"/>
			<rect x="221.4" y="190.2" class="st11" width="163.1" height="72.9"/>
			<polygon class="st8" points="322,228.5 295.2,213 295.2,243.9 			"/>
			<rect x="220.1" y="275.4" class="st10" width="161.8" height="7.4"/>
			<rect x="220.1" y="290.2" class="st10" width="161.8" height="7.4"/>
			<rect x="220.1" y="305.1" class="st10" width="161.8" height="7.4"/>
		</g>
		<g>
			<path class="st13" d="M215.1,197.9h49.8c2.4,0,4.4,2,4.4,4.4v28.5c0,2.4-2,4.4-4.4,4.4h-36.3l-6.6,6v-6h-6.9
				c-2.4,0-4.4-2-4.4-4.4v-28.5C210.7,199.9,212.7,197.9,215.1,197.9z"/>
			<g>
				<g>
					<path class="st13" d="M247.9,225.3l-0.4,0.2c-4.9,2.5-10.6,2.5-15.5,0l-0.4-0.2v-12h16.3V225.3z"/>
					<path class="st8" d="M239.8,228.8c-2.9,0-5.8-0.7-8.4-2l-0.4-0.2c-0.5-0.3-0.8-0.8-0.8-1.3v-12c0-0.8,0.7-1.5,1.5-1.5h16.3
						c0.8,0,1.5,0.7,1.5,1.5v12c0,0.6-0.3,1.1-0.8,1.3l-0.4,0.2C245.5,228.2,242.6,228.8,239.8,228.8z M233.1,224.4
						c4.2,2,9.2,2,13.4,0v-9.6h-13.4V224.4z"/>
				</g>
				<g>
					<polygon class="st13" points="239.8,206.1 224.2,212.3 239.8,218.5 255.3,212.3 					"/>
					<path class="st8" d="M239.8,220c-0.2,0-0.4,0-0.5-0.1l-15.6-6.2c-0.6-0.2-0.9-0.8-0.9-1.4c0-0.6,0.4-1.1,0.9-1.4l15.6-6.2
						c0.3-0.1,0.7-0.1,1.1,0l15.6,6.2c0.6,0.2,0.9,0.8,0.9,1.4c0,0.6-0.4,1.1-0.9,1.4l-15.6,6.2C240.1,220,239.9,220,239.8,220z
						 M228.1,212.3l11.6,4.6l11.6-4.6l-11.6-4.6L228.1,212.3z"/>
				</g>
				<g>
					<rect x="251" y="214" class="st8" width="1.6" height="15.9"/>
				</g>
			</g>
		</g>
		<g>
			<path class="st14" d="M199.1,373.7l0.2,0.5l0.3-10.1l4.8,0.7l-1.3,8.9C202.9,374.6,200,373.8,199.1,373.7z"/>
			<path class="st14" d="M189.3,376.9l0.2,0.5l0.3-10.1l4.8,0.7l-1.3,8.9C193.2,377.9,190.3,377.1,189.3,376.9z"/>
			<g>
				<path class="st15" d="M205.9,370.7l0.6-2.6c1.8-8.3,7.8-35.6,7.4-41.1c-0.6-9-5-27.4-5.2-28.1l-1.3-5.5l-11,2.7l1.3,5.5
					c0,0.2,4.4,18.2,4.9,26.2c0.1,3-3.6,22.1-7.2,38l-0.6,2.6L205.9,370.7z"/>
			</g>
			<path class="st14" d="M237.7,264.1c1-0.5,1.5-1.6,2.1-2.6c0-1.2,0.1-2.4,0.1-3.6c0-0.1,0-0.2,0-0.3c0.1-0.3,0.6-0.3,0.8-0.1
				c0.2,0.2,0.3,0.6,0.3,0.9c0.1,0.4,0.2,0.9,0.3,1.3c0.1,0,0.1-0.1,0.2-0.1c0.7-0.6,1.5-1.2,2.4-1.6c0.9-0.4,1.9-0.5,2.8-0.2
				c0.2,0.1,0.3,0.3,0.1,0.5c-0.1,0.2-0.4,0.2-0.6,0.3c-0.7,0.1-1.4,0.4-2,0.8c-0.1,0.1,0,0.3,0.1,0.2c1.7-0.8,2.8-0.4,2.9-0.3
				c0.1,0.1,0,0.2-0.1,0.3c-0.1,0.1-0.6,0.2-0.8,0.3c-0.8,0.2-1.3,0.7-1.3,0.7s-0.4,0.6,1.4-0.2c0.2-0.1,0.5-0.2,0.7-0.1
				c0,0,0.1,0,0.1,0.1c0,0,0,0.1,0,0.1c0,0.2-0.1,0.3-0.2,0.4c-0.1,0.1-0.3,0.2-0.4,0.3c-0.7,0.4-1.4,0.7-2,1.1
				c0.2-0.1,1.6-0.6,1.8-0.6c0.1,0,0.2,0,0.2,0.1c0.1,0.1,0,0.3-0.1,0.4c-0.5,0.7-2.4,1.8-3.1,2.2c-0.8,0.4-1.8,0.6-2.4,1.2
				c-0.7,0.7-1.6,1.4-2.6,1.4C237.6,266.9,237.6,265.1,237.7,264.1z"/>
			<path class="st16" d="M190.6,308.5h-4.5v-18.2h22.1v0.6C208.2,300.6,200.3,308.5,190.6,308.5z"/>
			<path class="st7" d="M203.3,259.5c0,0,13.1,13.9,17.4,14.1c4.2,0.2,17.3-10.9,17.3-10.9l3.7,4.7c0,0-16.4,19.2-23.2,17.2
				c-6.7-2-15.8-15.4-15.8-15.4L203.3,259.5z"/>
			<g>
				<path class="st16" d="M198.1,371.8l0-5.7c0-1.4,0-35.6-0.3-40.8c-0.5-8.3-0.5-23.4-0.5-23.6v-5.7h-11.4v5.7
					c0,0.6,0,15.6,0.5,24.3c0.3,4.1,0.3,30.3,0.3,40.1l0,5.7L198.1,371.8z"/>
			</g>
			<path class="st7" d="M208.9,272.2c-0.5-4.5-2.3-13.7-9.8-14.2c-7.7-0.5-12.4,5.3-13.8,9.6c-1.4,4.2-0.1,27.5-0.1,27.5l0.2,3.5
				l23.1-0.5l0.2-3.6C208.7,294.5,209.5,278,208.9,272.2z"/>
			<path class="st14" d="M199.2,263.2h-1.6c-1.5,0-2.8-1.2-2.8-2.8v-12.9h7.2v12.9C202,261.9,200.7,263.2,199.2,263.2z"/>
			<path class="st17" d="M194.8,250.2c1,2.5,3,6.3,7.2,7.2v-9.9h-6.5l-0.7,0.3V250.2z"/>
			<path class="st14" d="M203.6,236.8H202c-3.3,0-5.9,2.7-5.9,5.9v5.6c0,3.3,2.7,6,6,6h2.9c2.5,0,4.6-2.1,4.6-4.6v-7
				C209.6,239.5,206.9,236.8,203.6,236.8z"/>
			<path class="st14" d="M198.5,247.1c0,1.8-1.4,3.2-3.2,3.2c-1.8,0-3.2-1.4-3.2-3.2c0-1.8,1.4-3.2,3.2-3.2
				C197,243.9,198.5,245.4,198.5,247.1z"/>
			<path class="st18" d="M196.1,244.3c0.2,1.2,0.4,2.3,0.5,3.5c0.1-0.1,0.4-0.2,0.5-0.1"/>
			<path class="st8" d="M204.5,250l-3.3-1.3c0,0,0.3,1.9,1.4,2.3C203.6,251.3,204.5,250,204.5,250z"/>
			<path class="st7" d="M202.2,244.4c0,0.4-0.3,0.6-0.6,0.6c-0.4,0-0.6-0.3-0.6-0.6s0.3-0.6,0.6-0.6
				C202,243.8,202.2,244.1,202.2,244.4z"/>
			<path class="st7" d="M206.8,244.4c0,0.4-0.3,0.6-0.6,0.6c-0.4,0-0.6-0.3-0.6-0.6s0.3-0.6,0.6-0.6
				C206.5,243.8,206.8,244.1,206.8,244.4z"/>
			<polygon class="st8" points="200.9,258.8 194.1,259 194.6,261.7 204.3,269.7 203.8,261.8 			"/>
			<path class="st8" d="M194.8,257c0,0,3.6,2.6,7.3,0.5l0.1,1.3l1.6,3l-3-2.3l-2.3,3.7l-4.1-4.4L194.8,257z"/>
			<path class="st7" d="M197,241.6c0.2,0.9,0.7,1.8,1.3,2.5c-0.2,1.1-0.4,2.3-0.4,3.4c-0.3,0-0.7-0.1-1.1-0.1c0-1.1-0.2-2.1-0.5-3.1
				c-0.7-0.1-1.4-0.3-2.2-0.2c-0.3-0.9-0.7-1.7-1.1-2.6c-0.3-0.5-0.2-0.9-0.3-1.5c-0.1-1.2,0.8-2.3,1.7-3.1c0.9-0.8,2.1-1.2,3.3-1.2
				c3.5-2,7.7-3,11.6-2.4c0.6,0.1,1.2,0.2,1.7,0.5c0.8,0.4,1.2,1.2,1.5,2c0.5,1.4,0.4,3.1-0.5,4.3c-0.7,0.8-1.9,1-3,0.9
				c-0.7-0.1-1.3-0.3-2-0.5c-1.5-0.5-2.9-0.9-4.4-1.4c-0.1,0-0.3-0.1-0.2-0.3C201.2,240.3,198.9,241.4,197,241.6z"/>
			<g>
				<path class="st7" d="M193.7,375.9c0,0-0.8-1.9,0.2-2c1.1-0.2,1.6,0.5,1.6,0.5l2.6,2.9l1.4,2.1l-2-0.9L193.7,375.9z"/>
				<path class="st11" d="M189.5,375c0,0,0.9,2.1,1.8,1.7c0.5-0.2,1.4-1.9,2.1-1.7c0.7,0.2,3.2,2.1,4.2,2.6c1,0.5-2-3.3-2-3.3
					s2.5,2.6,3.4,3c0.9,0.4,8.2,2.2,8.4,4.5l-0.1,1.5c0,0-2.4,2.2-8,0.4c-5.7-1.8-8.9-2.1-9.9-2.5
					C188.3,380.9,188.7,375.1,189.5,375z"/>
				<path class="st19" d="M200.3,383c-2.7-0.4-7.2-2.3-8.9-2.5c-1-0.1-2-0.4-2.7-0.7c0.1,0.8,0.2,1.3,0.5,1.4c1,0.4,4.2,0.7,9.9,2.5
					c5.7,1.8,8-0.4,8-0.4l0.1-1.5C206.7,383.1,203,383.4,200.3,383z"/>
				<g>
					<path class="st20" d="M195.1,377.4c0,0-0.1,0-0.1,0c-0.1-0.1-0.2-0.2-0.1-0.4c0-0.1,0.7-1.2,1.5-1.4c0.4-0.1,0.7,0,1,0.3
						c0.1,0.1,0.1,0.3,0,0.4c-0.1,0.1-0.3,0.1-0.4,0c-0.2-0.1-0.4-0.2-0.6-0.2c-0.5,0.1-1,0.8-1.2,1.1
						C195.3,377.4,195.2,377.4,195.1,377.4z"/>
				</g>
				<g>
					<path class="st20" d="M196,378.2c0,0-0.1,0-0.1,0c-0.1-0.1-0.2-0.2-0.1-0.4c0-0.1,0.7-1.2,1.5-1.4c0.4-0.1,0.7,0,1,0.3
						c0.1,0.1,0.1,0.3,0,0.4c-0.1,0.1-0.3,0.1-0.4,0c-0.2-0.1-0.4-0.2-0.6-0.2c-0.5,0.1-1,0.8-1.2,1.1
						C196.2,378.1,196.1,378.2,196,378.2z"/>
				</g>
				<g>
					<path class="st20" d="M197.1,378.7c0,0-0.1,0-0.1,0c-0.1-0.1-0.2-0.2-0.1-0.4c0,0,0.7-1.2,1.5-1.4c0.4-0.1,0.7,0,1,0.3
						c0.1,0.1,0.1,0.3,0,0.4c-0.1,0.1-0.3,0.1-0.4,0c-0.2-0.1-0.4-0.2-0.6-0.2c-0.5,0.1-1,0.8-1.2,1.1
						C197.3,378.7,197.2,378.7,197.1,378.7z"/>
				</g>
				<g>
					<path class="st20" d="M198.2,379.2c0,0-0.1,0-0.1,0c-0.1-0.1-0.2-0.2-0.1-0.4c0,0,0.7-1.2,1.5-1.4c0.4-0.1,0.7,0,1,0.3
						c0.1,0.1,0.1,0.3,0,0.4c-0.1,0.1-0.3,0.1-0.4,0c-0.2-0.1-0.4-0.2-0.6-0.2c-0.5,0.1-1,0.8-1.2,1.1
						C198.4,379.2,198.3,379.2,198.2,379.2z"/>
				</g>
			</g>
			<g>
				<path class="st7" d="M203.4,371.9c0,0-0.8-1.9,0.2-2c1.1-0.2,1.6,0.5,1.6,0.5l2.6,2.9l1.4,2.1l-2-0.9L203.4,371.9z"/>
				<path class="st11" d="M199.3,371.1c0,0,0.9,2.1,1.8,1.7c0.5-0.2,1.4-1.9,2.1-1.7c0.7,0.2,3.2,2.1,4.2,2.6c1,0.5-2-3.3-2-3.3
					s2.5,2.6,3.4,3c0.9,0.4,8.2,2.2,8.4,4.5l-0.1,1.5c0,0-2.4,2.2-8,0.4c-5.7-1.8-8.9-2.1-9.9-2.5
					C198,376.9,198.5,371.1,199.3,371.1z"/>
				<path class="st19" d="M210.1,379c-2.7-0.4-7.2-2.3-8.9-2.5c-1-0.1-2-0.4-2.7-0.7c0.1,0.8,0.2,1.3,0.5,1.4c1,0.4,4.2,0.7,9.9,2.5
					c5.7,1.8,8-0.4,8-0.4l0.1-1.5C216.5,379.1,212.8,379.5,210.1,379z"/>
				<g>
					<path class="st20" d="M204.9,373.4c0,0-0.1,0-0.1,0c-0.1-0.1-0.2-0.2-0.1-0.4c0,0,0.7-1.2,1.5-1.4c0.4-0.1,0.7,0,1,0.3
						c0.1,0.1,0.1,0.3,0,0.4c-0.1,0.1-0.3,0.1-0.4,0c-0.2-0.1-0.4-0.2-0.6-0.2c-0.5,0.1-1,0.8-1.2,1.1
						C205.1,373.4,205,373.4,204.9,373.4z"/>
				</g>
				<g>
					<path class="st20" d="M205.8,374.2c0,0-0.1,0-0.1,0c-0.1-0.1-0.2-0.2-0.1-0.4c0,0,0.7-1.2,1.5-1.4c0.4-0.1,0.7,0,1,0.3
						c0.1,0.1,0.1,0.3,0,0.4c-0.1,0.1-0.3,0.1-0.4,0c-0.2-0.1-0.4-0.2-0.6-0.2c-0.5,0.1-1,0.8-1.2,1.1
						C206,374.2,205.9,374.2,205.8,374.2z"/>
				</g>
				<g>
					<path class="st20" d="M206.9,374.8c0,0-0.1,0-0.1,0c-0.1-0.1-0.2-0.2-0.1-0.4c0,0,0.7-1.2,1.5-1.4c0.4-0.1,0.7,0,1,0.3
						c0.1,0.1,0.1,0.3,0,0.4c-0.1,0.1-0.3,0.1-0.4,0c-0.2-0.1-0.4-0.2-0.6-0.2c-0.5,0.1-1,0.8-1.2,1.1
						C207.1,374.7,207,374.8,206.9,374.8z"/>
				</g>
				<g>
					<path class="st20" d="M208,375.2c0,0-0.1,0-0.1,0c-0.1-0.1-0.2-0.2-0.1-0.4c0,0,0.7-1.2,1.5-1.4c0.4-0.1,0.7,0,1,0.3
						c0.1,0.1,0.1,0.3,0,0.4c-0.1,0.1-0.3,0.1-0.4,0c-0.2-0.1-0.4-0.2-0.6-0.2c-0.5,0.1-1,0.8-1.2,1.1
						C208.2,375.2,208.1,375.2,208,375.2z"/>
				</g>
			</g>
			<path class="st7" d="M194.2,258.9c-0.5-1.1-8.2,3-9.5,5.3c-1.3,2.2-7.6,16.4-8.1,17.3c-0.5,1-18.4,3.5-18.4,3.5l1.4,4
				c0,0,15.1,0.3,20.2-0.8c5.1-1.1,11-7.9,11-7.9S195.1,260.8,194.2,258.9z"/>
			<g>
				<path class="st7" d="M173.4,285.5h-23.2c-1,0-1.9-0.7-2.2-1.7l-4.1-15.4c-0.4-1.4,0.7-2.8,2.2-2.8h20.2c1,0,1.9,0.7,2.2,1.7
					L173.4,285.5z"/>
				<path class="st8" d="M150.2,284.4c-0.5,0-1-0.3-1.1-0.8l-4.1-15.4c-0.1-0.3,0-0.7,0.2-1c0.2-0.3,0.5-0.4,0.9-0.4h20.2
					c0.5,0,1,0.3,1.1,0.8l4.5,16.8H150.2z"/>
				<path class="st21" d="M180,285.5h-30c-0.5,0-0.9-0.4-0.9-0.9l0,0c0-0.5,0.4-0.9,0.9-0.9h30c0.5,0,0.9,0.4,0.9,0.9l0,0
					C180.9,285.2,180.5,285.5,180,285.5z"/>
			</g>
			<path class="st14" d="M160,286.3c-0.6-0.5-1.5-0.4-2.1-0.8c-0.7-0.5-1.6-0.5-2.4-0.4c-0.1-0.2-0.2-0.3-0.3-0.5
				c-0.1-0.2-0.2-0.4-0.4-0.5c-0.2-0.1-0.5-0.1-0.6,0.2c0,0.1,0,0.2,0,0.3c0.1,0.2,0.1,0.4,0.1,0.7c-0.2,0-0.5,0-0.7,0.1
				c-0.3-0.3-0.5-0.7-0.8-1c-0.1-0.1-0.2-0.2-0.3-0.3c-0.1-0.1-0.3-0.1-0.4,0c-0.1,0.1-0.2,0.2-0.2,0.3c-0.1,0.2-0.1,0.4-0.1,0.6
				c-0.1-0.1-0.2-0.1-0.2-0.2c-0.3-0.2-0.8-1.4-1.2-1.4c-0.4,0-0.6,0.4-0.6,0.8c0,0.6,0.4,1.2,0.9,1.5c0.5,0.4,1.1,0.5,1.7,0.7
				c1.3,0.4,2.8,0.4,4,0.7c1.5,0.4,2.8,1.2,4.4,1.2C160.6,287.8,160.5,286.7,160,286.3z"/>
			<polygon class="st13" points="202,260 200.3,258.9 200.1,258.9 199.2,261.5 201.2,262.5 201.3,267.2 204.3,269.7 204.1,266.5 
				202,262.8 			"/>
			<g>
				<path class="st11" d="M151,271.1l2.1,8.1h15.1l-1.8-8C166.3,271.1,150.9,271.2,151,271.1z"/>
				<polygon class="st8" points="160.6,274.9 158.5,273.8 159,276 				"/>
			</g>
		</g>
		<g>
			<path class="st22" d="M187.1,175.8h-75.7c-3.7,0-6.7,3-6.7,6.7v43.4c0,3.7,3,6.7,6.7,6.7h55.2l10,9.2v-9.2h10.5
				c3.7,0,6.7-3,6.7-6.7v-43.4C193.9,178.8,190.8,175.8,187.1,175.8z"/>
			<rect x="118.2" y="187.9" class="st8" width="62.1" height="3.7"/>
			<rect x="118.2" y="197.9" class="st8" width="62.1" height="3.7"/>
			<rect x="118.2" y="208" class="st8" width="62.1" height="3.7"/>
			<rect x="118.2" y="217.1" class="st8" width="27.8" height="3.7"/>
		</g>
		<g>
			<g>
				<path class="st13" d="M385.9,238.6h54.8c2.7,0,4.9,2.2,4.9,4.9v31.4c0,2.7-2.2,4.9-4.9,4.9h-40l-7.2,6.7v-6.7h-7.6
					c-2.7,0-4.9-2.2-4.9-4.9v-31.4C381,240.8,383.2,238.6,385.9,238.6z"/>
				<rect x="390.8" y="247.4" class="st8" width="45" height="2.6"/>
				<rect x="390.8" y="254.6" class="st8" width="45" height="2.6"/>
				<rect x="390.8" y="261.9" class="st8" width="45" height="2.6"/>
				<rect x="390.8" y="268.5" class="st8" width="20.2" height="2.6"/>
			</g>
			<g>
				
					<rect x="331.1" y="353.3" transform="matrix(-1 -1.224647e-16 1.224647e-16 -1 710.4169 710.3583)" class="st7" width="48.3" height="3.7"/>
				
					<rect x="352.9" y="356.9" transform="matrix(-1 -1.224647e-16 1.224647e-16 -1 711.4188 724.915)" class="st7" width="5.7" height="11.1"/>
				<polygon class="st7" points="321,383.4 351.9,367 355.5,367 355.5,367 355.7,367 355.9,367 355.9,367 359.2,367 390.4,383.4 
					387.4,383.4 355.7,374.1 324,383.4 				"/>
				<path class="st14" d="M336.7,299.8c0,0-4.8-6.8-5.7-7.2c-0.9-0.3-7.6-2.4-7.6-2.4s-0.6,0.4-0.1,0.9c0.6,0.4,4.3,2.4,4.3,2.4
					s-1.8,2.2-0.6,3.5c1.2,1.3,4.7,1.9,4.7,1.9l4,4L336.7,299.8z"/>
				<path class="st7" d="M318.3,376.4l-3.2,3.6l-5,2.3c-2.5,1-1.6,2.3-1.6,2.3l13.8-1l1-4.8L318.3,376.4z"/>
				<path class="st23" d="M382.6,298.1c0,0-13.2-0.6-17.1,19.1l-0.8,3.4c-1.1,4.9-5.4,8.4-10.4,8.6l-15.8,0.3
					c-4.2,0.2-7.9,2.9-9.2,6.9l-4.3,12.3H320c0,0,1.3,7.1,8.5,7.1c7.1,0,34.4,0,34.4,0h15.2c0,0,12.5,0.9,14.7-15.6
					C395.1,323.6,403.1,297.2,382.6,298.1z"/>
				<path class="st24" d="M378.1,355.7h-15.2c0,0-27.3,0-34.4,0c-7.1,0-8.5-7.1-8.5-7.1h4.9l0.1-0.4h65.3
					C386,356.3,378.1,355.7,378.1,355.7z"/>
				<path class="st25" d="M388.7,339h-38.2c-19.1,0-25.2,3.5-30.5,9.6l0,0h61.9L388.7,339z"/>
				<path class="st14" d="M323.7,364.8l-5.3,11.6l-3.2,3.6c0,0,2.1,0.6,4.2,0.2c2.1-0.4,4-1.4,4-1.4l5.6-9.1l0.6-4.6L323.7,364.8z"
					/>
				<polygon class="st14" points="332,369.5 336.5,373.2 335.4,379.4 331.6,381 338.1,380.8 341.5,372 337.8,367.3 				"/>
				<path class="st13" d="M369.8,307.3c0,0-13.1,6.7-15.7,6.8c0,0-3.9-4.1-5.3-5.4c-1.3-1.2-12.2-10.2-12.2-10.2l-2.9,3
					c0,0,11.8,15.3,14.1,17.5c4.4,4.1,8.7,1.9,10.5,1.8c1.8-0.1,15.6-7,15.6-7L369.8,307.3z"/>
				<g>
					<path class="st15" d="M330.3,373.1c-15.1-19.7-14.3-28.7-13.3-31.7c1-2.8,3.3-4.8,6.4-5.6c5.8-1.4,16.5-1.6,31.9-0.7
						c0.5,0,0.8,0,0.9,0.1l-0.1,9.4c-0.1,0-0.6,0-1.3-0.1c-18.5-1.1-26.1-0.2-29,0.4c-0.3,3.3,5.2,13.6,12,22.5L330.3,373.1z"/>
				</g>
				<g>
					<path class="st16" d="M329,369.7l-8.8-3.4c0.4-1,0.5-1.3,1.2-3.2c11-30.1,11.1-26.3,16.2-26.3c2.4,0,6.4-0.2,10.6-0.4
						c5.5-0.2,11.3-0.5,14.2-0.4l-0.4,9.4c-2.5-0.1-8.3,0.1-13.4,0.4c-3.5,0.2-6.9,0.3-9.5,0.4c-3.2,4.4-6.6,13.9-8.9,20.1
						C329.5,368.3,329.4,368.6,329,369.7z"/>
				</g>
				<path class="st14" d="M377.5,304.6c3.3,1.4,11.8,3.5,12.4,7c1.5,8.8,1.8,24.9-25.8,29l-18.2-1c0,0,2.8-3.4,9.3-8
					c2.7-1.8,5.9-2.5,7.4-6.5c1.8-4.8,1.8-14.9,7.6-18.1L377.5,304.6z"/>
				<path class="st26" d="M389.9,311.6c-0.2-1-1-1.9-2.2-2.7c-1,0.1-2,0.4-2.9,0.8c-1.4,0.7-2.6,1.6-4,2.2c-2.2,0.9-4.8,1-7,0.2
					c-1-0.4-1.8-0.9-2.6-1.5c-0.5-0.4-0.9-2-1.3-3.4c-5.4,3.5-5.5,13.2-7.2,17.9c-1.5,4-4.7,4.2-7.3,6c-1.3,0.9-2.4,1.8-3.4,2.7
					c-0.9,2.2-1.7,3.1-1.7,5.4c0,0.2,0,0.4,0,0.6l13.5,0.8c5.9-0.9,10.5-2.2,14.2-3.9C391.5,330.1,391.1,318.6,389.9,311.6z"/>
				<polygon class="st16" points="350.6,345.3 367.1,345.5 374.5,340.5 353.4,332.5 341.5,339.2 				"/>
				<path class="st13" d="M363.9,332.7l-1.1,5.9c7.7,4.6,17.2,9.6,18.4,8c0.8-1,10.5-25.1,10.4-28.4c-0.1-3.4-1.2-6.8-3.6-9.2
					c-0.9,0.1-1.4,0.8-1.9,1.6c-2.7,4.5-8.2,16.8-9.7,23.4C372.8,333.4,368.3,333.4,363.9,332.7z"/>
				<path class="st11" d="M392.8,340.1c1-7.3,3.1-16.6,3.4-24.5v0l-5.8,13.6c-1.5,4.3-5.5,7.1-10,7.1H376c-3.9,0-7.5,2.4-9,6
					l-4.1,13.4h15.2C378.1,355.7,390.6,356.6,392.8,340.1z"/>
				<path class="st7" d="M366.4,289.9c-0.7,0.5-1.2,1.3-1.1,2.1c0.1,0.8,0.9,1.5,1,2.3c0.2,1.2-0.9,2.1-1.5,3.1
					c-0.9,1.5-0.8,3.5,0.1,4.9c0.9,1.5,2.5,2.4,4.1,2.7c0.8,0.1,1.6,0.1,2.4,0.1c4.8-0.1,9.6-0.1,14.5-0.3c0.5,0,1,0,1.4-0.3
					c0.4-0.2,0.8-0.7,0.7-1.2c-0.1-0.5-0.6-0.9-0.4-1.4c0.1-0.3,0.4-0.5,0.6-0.6c1.3-0.6,2.8-0.8,3.7-2c0.4-0.5,0.5-1.1,0.6-1.7
					c0.3-2-0.8-4.2-2.6-5.2c-0.8-0.4-1.6-0.6-2.4-1c-1.7-1-2.6-3.1-3.9-4.7c-2.2-2.6-6-3.7-9.2-2.5c-0.7,0.2-1.3,0.6-1.9,0.8
					c-0.7,0.3-1.6,0.4-2.3,0.9c-0.5,0.3-0.5,0.7-0.7,1.2C369.1,288.8,367.5,289.1,366.4,289.9z"/>
				<g>
					<path class="st14" d="M375.6,310.3h2.9c1.5,0,2.8-1.2,2.8-2.8v-13.1h-8.5v13.1C372.8,309.1,374.1,310.3,375.6,310.3z"/>
					<path class="st27" d="M373.7,308.9c-0.5-0.6-0.8-1.4-0.8-2.3v-9.2h7.7l0.8,0.4v2.9C380.3,303.4,378,307.5,373.7,308.9z"/>
				</g>
				<path class="st14" d="M379.3,296c-0.1,2.1,1.4,3.9,3.5,4c2.1,0.1,3.9-1.4,4-3.5s-1.4-3.9-3.5-4S379.4,293.9,379.3,296z"/>
				<path class="st14" d="M374,283.5l1.9,0.1c3.9,0.3,6.8,3.6,6.5,7.5l-0.5,6.6c-0.3,3.9-3.7,6.9-7.6,6.6l-3.5-0.2
					c-3-0.2-5.3-2.8-5-5.8l0.6-8.3C366.8,286.1,370.2,283.2,374,283.5z"/>
				<path class="st18" d="M382.3,292.9c-0.4,1.3-0.7,2.7-0.8,4.1c-0.1-0.2-0.4-0.2-0.6-0.2"/>
				<path class="st8" d="M370.7,298.2l4.1-0.8c0,0-0.8,2.2-2.1,2.3C371.4,299.9,370.7,298.2,370.7,298.2z"/>
				<path class="st7" d="M372.1,292.3c0,0.4,0.3,0.8,0.7,0.8c0.4,0,0.8-0.3,0.8-0.7c0-0.4-0.3-0.8-0.7-0.8
					C372.5,291.6,372.1,291.9,372.1,292.3z"/>
				<path class="st7" d="M367.2,292.2c0,0.4,0.3,0.8,0.7,0.8c0.4,0,0.8-0.3,0.8-0.7c0-0.4-0.3-0.8-0.7-0.8
					C367.6,291.5,367.3,291.8,367.2,292.2z"/>
				<g>
					<path class="st28" d="M355.8,338h-28.4V336h28.4c0.6,0,1,0.5,1,1l0,0C356.8,337.6,356.4,338,355.8,338z"/>
					<path class="st29" d="M348,338h-27.3c-1.2,0-2.3-0.8-2.6-2l-4.8-18.2c-0.4-1.7,0.8-3.4,2.6-3.4h23.9c1.2,0,2.3,0.8,2.6,2
						L348,338z"/>
					<path class="st29" d="M315.9,314.5c-1.8,0-3,1.7-2.6,3.4l4.8,18.2c0.1,0.6,0.5,1,0.9,1.4l16.6-22.9H315.9z"/>
					<path class="st8" d="M331.9,327.9c0.3,1.2-0.4,2.1-1.7,2.1c-1.2,0-2.5-1-2.8-2.1c-0.3-1.2,0.4-2.1,1.7-2.1
						C330.4,325.7,331.6,326.7,331.9,327.9z"/>
				</g>
				<path class="st7" d="M375.6,287.6c-1.1,0.2-2.2-0.3-3.3-0.5c-2.3-0.4-4.5,1-5.8,3.3c-2.5-0.8-3.6-2.8-3.3-4.4
					c0.3-1.9,3.9-4.3,5.1-5.5c1.3-1.2,2.9-1.9,4.5-2c1.2-0.1,2.5,0.3,3.4,1.3c0.4,0.5,0.7,1.1,1.1,1.5c0.8,0.7,1.9,0.7,2.9,0.9
					c1.6,0.2,3.2,0.8,4.4,2c1.2,1.2,2.1,3.1,2,5c0,1-0.3,2-0.7,2.9c-0.4,0.9-0.9,1.8-1.7,2c-0.3,0.1-0.6,0-1,0.1
					c-0.6,0.1-1.1,0.3-1.6,0.8c0.1-0.7,0.1-1.4,0.2-2.1c0-0.3,0.1-0.6,0-0.8c-0.1-0.5-0.6-0.7-0.9-1.1c-1.2-1.1-1.4-3.1-2.1-4.6
					c-0.5-0.9-0.9-1.2-1.4-0.4C377,286.8,376.4,287.4,375.6,287.6z"/>
				<path class="st8" d="M382,298.3c0,0.5,0.3,0.9,0.8,0.9c0.5,0,0.9-0.3,0.9-0.8c0-0.5-0.3-0.9-0.8-0.9
					C382.4,297.4,382,297.8,382,298.3z"/>
				<path class="st14" d="M354.3,333.4c1.1,0.6,2.3,1,3.4,0.8c1.2-0.3,0.6-2.3,0.1-3.4c-1.5-0.2-2.4-1.6-3.5-2.6
					c-0.7-0.6-1.5-1-2.3-1.3c-1-0.5-2.1-0.9-3.3-1c-1.1-0.1-2.3,0.1-3.3,0.7c-0.2,0.2-0.2,0.4,0,0.6c0.2,0.1,0.5,0.1,0.8,0.1
					c0.8-0.1,1.7,0,2.5,0.2c0.1,0,0.1,0.3,0,0.3c-2.2-0.3-3.3,0.5-3.3,0.6c0,0.1,0.1,0.2,0.2,0.3c0.2,0.1,0.7,0,1,0
					c1,0,1.7,0.3,1.7,0.3s0.7,0.5-1.6,0.3c-0.3,0-0.6,0-0.8,0.2c0,0-0.1,0.1-0.1,0.1c0,0.1,0,0.1,0,0.2c0,0.2,0.2,0.3,0.4,0.4
					c0.2,0.1,0.3,0.1,0.5,0.2c0.9,0.2,1.8,0.4,2.7,0.6c-0.3,0-2-0.2-2.2-0.1c-0.1,0-0.2,0.1-0.2,0.2c-0.1,0.1,0.1,0.3,0.2,0.4
					c0.8,0.6,3.2,1.2,4.3,1.4C352.2,333.1,353.4,333,354.3,333.4z"/>
				<polygon class="st14" points="363.9,332.7 357,330.5 356.1,334.2 363.9,339 				"/>
				<path class="st7" d="M331.6,381c0,0-1.4,0-1.8,0.5s0,1.3,0,1.3l10.5-0.3l3.6-10.2l-2.3-0.3l-3.4,8.8L331.6,381z"/>
				<polygon class="st7" points="390.4,383.4 359.2,367 355.9,367 355.7,367 355.7,374.1 387.4,383.4 				"/>
			</g>
			<g>
				<g>
					<path class="st8" d="M60.7,367.5v16.1h41.3c3.5,0,6.3-2.8,6.3-6.3v-3.5c0-3.5-2.8-6.3-6.3-6.3H60.7z"/>
					<path class="st16" d="M149.5,366.6H61.9c-0.7,0-1.2,0.5-1.2,1.2v15.5c0,0.7,0.5,1.2,1.2,1.2h87.6c4.9,0,8.9-4,8.9-8.9
						C158.4,370.7,154.4,366.6,149.5,366.6z"/>
					<g>
						<defs>
							<path id="SVGID_1_" d="M60.7,366.6v17.9h30.9c3.9,0,7-3.1,7-7v-3.9c0-3.9-3.1-7-7-7H60.7z"/>
						</defs>
						<use xlink:href="#SVGID_1_"  style="overflow:visible;fill:#FFFFFF;"/>
						<clipPath id="SVGID_2_">
							<use xlink:href="#SVGID_1_"  style="overflow:visible;"/>
						</clipPath>
					</g>
					<path class="st10" d="M99.2,375.3c-0.1-4.3-3-7.8-6.5-7.8H60.7v7.8H99.2z"/>
					<path class="st16" d="M58.8,382.7h32.3c3.8,0,7.1-2.9,7.4-6.7c0.3-4.2-3-7.6-7.1-7.6H62.4h-3.6c-0.5,0-0.9-0.4-0.9-0.9l0,0
						c0-0.5,0.4-0.9,0.9-0.9H91c4.8,0,8.9,3.6,9.2,8.3c0.3,5.2-3.8,9.5-8.9,9.5H58.8c-0.5,0-0.9-0.4-0.9-0.9l0,0
						C57.9,383.1,58.3,382.7,58.8,382.7z"/>
				</g>
				<g>
					<path class="st13" d="M54.6,346.6h99.6c0.1,0,0.2,0.1,0.2,0.2v19.7c0,0.1-0.1,0.2-0.2,0.2H54.6c-0.1,0-0.2-0.1-0.2-0.2v-19.7
						C54.4,346.7,54.5,346.6,54.6,346.6z"/>
					
						<rect x="132.8" y="346.6" transform="matrix(-1 -1.224647e-16 1.224647e-16 -1 269.3096 713.2155)" class="st30" width="3.7" height="20.1"/>
					
						<rect x="67.3" y="346.6" transform="matrix(-1 -1.224647e-16 1.224647e-16 -1 138.4303 713.2155)" class="st30" width="3.7" height="20.1"/>
					
						<rect x="75.3" y="350.3" transform="matrix(-1 -1.224647e-16 1.224647e-16 -1 203.4643 713.2902)" class="st8" width="52.8" height="12.7"/>
				</g>
				<g>
					<path class="st11" d="M59.9,335.5c-3,0-5.5,2.5-5.5,5.5c0,3,2.5,5.5,5.5,5.5h90.5v-11H59.9z"/>
					<path class="st8" d="M150.4,335.5v11h-19c-2.4,0-4.3-1.9-4.3-4.3v-2.4c0-2.4,1.9-4.3,4.3-4.3H150.4z"/>
					<g>
						<defs>
							<path id="SVGID_3_" d="M150.4,335.5v11h-19c-2.4,0-4.3-1.9-4.3-4.3v-2.4c0-2.4,1.9-4.3,4.3-4.3H150.4z"/>
						</defs>
						<use xlink:href="#SVGID_3_"  style="overflow:visible;fill:#FFFFFF;"/>
						<clipPath id="SVGID_4_">
							<use xlink:href="#SVGID_3_"  style="overflow:visible;"/>
						</clipPath>
					</g>
					<path class="st10" d="M150.4,341v-5.4h-17.8c-3,0-5.5,2.4-5.5,5.4H150.4z"/>
					<path class="st11" d="M151.6,345.5h-19.9c-2.3,0-4.4-1.8-4.6-4.1c-0.2-2.6,1.9-4.7,4.4-4.7h17.8h2.2c0.3,0,0.6-0.2,0.6-0.6l0,0
						c0-0.3-0.2-0.6-0.6-0.6h-19.9c-2.9,0-5.5,2.2-5.7,5.1c-0.2,3.2,2.3,5.9,5.5,5.9h20.1c0.3,0,0.6-0.2,0.6-0.6l0,0
						C152.1,345.7,151.9,345.5,151.6,345.5z"/>
				</g>
				<g>
					<g>
						<path class="st8" d="M56.8,317h85.3c0.1,0,0.2,0.1,0.2,0.2v16.5c0,0.1-0.1,0.2-0.2,0.2H56.8c-0.1,0-0.2-0.1-0.2-0.2v-16.5
							C56.7,317.1,56.7,317,56.8,317z"/>
					</g>
					<g class="st31">
						<path class="st32" d="M56.8,317h85.3c0.1,0,0.2,0,0.2,0.1v7.4c0,0-0.1,0.1-0.2,0.1H56.8c-0.1,0-0.2,0-0.2-0.1v-7.4
							C56.7,317,56.7,317,56.8,317z"/>
					</g>
					<polygon class="st11" points="98.5,329.4 103.3,324.9 108.2,329.4 108.2,320.6 98.5,320.6 					"/>
					<path class="st16" d="M144.4,315.5H54.6c-0.1,0-0.2,0.1-0.2,0.2v1.3h79.5c4.6,0,8.4,3.8,8.4,8.4c0,4.6-3.8,8.4-8.4,8.4H54.4
						v1.5c0,0.1,0.1,0.2,0.2,0.2h89.8c5.5,0,10-4.5,10-10v0C154.4,320,149.9,315.5,144.4,315.5z"/>
				</g>
				<g>
					<path class="st11" d="M142.3,297.8H62.4v17.9h79.9c4.9,0,8.9-4,8.9-8.9C151.2,301.8,147.2,297.8,142.3,297.8z"/>
					<g>
						<defs>
							<path id="SVGID_5_" d="M62.4,297.8v17.9h20c4.9,0,8.9-4,8.9-8.9l0,0c0-4.9-4-8.9-8.9-8.9H62.4z"/>
						</defs>
						<use xlink:href="#SVGID_5_"  style="overflow:visible;fill:#FFFFFF;"/>
						<clipPath id="SVGID_6_">
							<use xlink:href="#SVGID_5_"  style="overflow:visible;"/>
						</clipPath>
					</g>
					<g>
						<defs>
							<path id="SVGID_7_" d="M62.4,297.8v17.9h20c4.9,0,8.9-4,8.9-8.9l0,0c0-4.9-4-8.9-8.9-8.9H62.4z"/>
						</defs>
						<use xlink:href="#SVGID_7_"  style="overflow:visible;fill:#FFFFFF;"/>
						<clipPath id="SVGID_8_">
							<use xlink:href="#SVGID_7_"  style="overflow:visible;"/>
						</clipPath>
					</g>
					<path class="st10" d="M91.3,306.6c-0.1-4.9-4-8.8-8.9-8.8h-20v8.8H91.3z"/>
					<path class="st11" d="M60.6,313.9h23.3c3.8,0,7.1-2.9,7.4-6.7c0.3-4.2-3-7.6-7.1-7.6h-20h-3.6c-0.5,0-0.9-0.4-0.9-0.9l0,0
						c0-0.5,0.4-0.9,0.9-0.9h23.3c4.8,0,8.9,3.6,9.2,8.3c0.3,5.2-3.8,9.5-8.9,9.5H60.6c-0.5,0-0.9-0.4-0.9-0.9l0,0
						C59.7,314.3,60.1,313.9,60.6,313.9z"/>
				</g>
			</g>
		</g>
	</g>
</g>
<g id="DESIGNED_BY_FREEPIK" class="st0">
	<g class="st33">
		<g id="XMLID_319_">
			<g id="XMLID_338_">
				<path id="XMLID_346_" class="st34" d="M260.1,465.5c-0.4,0.4-0.8,0.9-1.1,1.5l-0.5-0.2c-0.1-0.3-0.3-0.5-0.7-0.5
					c-0.3,0-0.6,0.3-0.5,0.7c0,0.3,0.3,0.6,0.7,0.5c0.1,0,0.1,0,0.2-0.1l0.5,0.2c-0.3,0.6-0.4,1.1-0.5,1.7l0.7,0.1
					c0.2-1.3,0.8-2.5,1.8-3.5L260.1,465.5z"/>
				<path id="XMLID_345_" class="st34" d="M265.6,463.2c-0.2,0-0.3,0-0.5,0l-0.1-0.6c0.2-0.1,0.3-0.4,0.3-0.6c0-0.4-0.4-0.7-0.8-0.6
					c-0.4,0-0.7,0.4-0.6,0.8c0,0.3,0.2,0.5,0.4,0.6l0.1,0.6c-0.7,0.1-1.4,0.3-2.1,0.6l0.3,0.7c0.9-0.4,1.9-0.7,3-0.7
					c0.5,0,1,0.1,1.5,0.2l0.2-0.7C266.7,463.2,266.1,463.2,265.6,463.2z"/>
				<path id="XMLID_344_" class="st34" d="M272.2,465.7c0.3,0,0.6-0.3,0.5-0.7c0-0.3-0.3-0.6-0.7-0.5c-0.3,0-0.5,0.3-0.5,0.6
					l-0.4,0.4c-0.4-0.4-0.9-0.8-1.4-1.1l-0.4,0.6c1.1,0.7,2,1.7,2.6,2.9l0.7-0.3c-0.3-0.6-0.6-1.1-0.9-1.5l0.4-0.4
					C272.1,465.7,272.1,465.7,272.2,465.7z"/>
				<path id="XMLID_343_" class="st34" d="M265,473.4c-0.4,0-0.8,0-1.2,0c-0.9,0-1.7-0.1-2.5-0.2c-0.4-0.1-0.8-0.2-1.3-0.3
					c1,1.9,3.1,3.1,5.4,3.1c2.9,0,5.3-1.9,5.9-4.5c-0.7,0.4-1.5,0.8-2.5,1.1C267.8,473,266.5,473.3,265,473.4z"/>
				<path id="XMLID_339_" class="st34" d="M265.6,464.7c-3.4,0-6.1,2.7-6.1,5.9c0,0.4,0,0.8,0.1,1.3c0.7,0.5,2.7,0.9,5.3,0.7
					c2.9-0.2,5.3-1,6.7-2.2c0-0.2,0-0.4,0-0.6C271.2,466.9,268.7,464.7,265.6,464.7z M263.4,471.2c-1,0-1.8-0.8-1.8-1.8
					c0-1,0.8-1.8,1.8-1.8c1,0,1.8,0.8,1.8,1.8C265.3,470.4,264.5,471.2,263.4,471.2z M268.2,470.3c-0.8,0-1.4-0.6-1.4-1.4
					s0.6-1.4,1.4-1.4c0.8,0,1.4,0.6,1.4,1.4S268.9,470.3,268.2,470.3z"/>
			</g>
			<path id="XMLID_336_" class="st34" d="M281.6,466.5c-0.3-0.1-0.8-0.3-1.4-0.2c-0.6,0.1-0.8,0.3-0.8,1v0.9h2.2v1.7h-2.2v5.5h-1.9
				v-5.5h-1.3v-1.7h1.3v-0.9c0-1.7,0.9-2.8,2.6-2.8c0.6,0,1.2,0.1,1.6,0.3L281.6,466.5z"/>
			<path id="XMLID_334_" class="st34" d="M286.3,469.9c-0.2,0-0.4,0-0.5,0c-0.9,0-1.5,0.5-1.5,1.6v3.9h-1.9v-7.2h1.9v0.8
				c0.5-0.7,1.1-1,2-1c0.4,0,0.8,0.1,1.1,0.3L286.3,469.9z"/>
			<path id="XMLID_331_" class="st34" d="M294,471.8c0,0.2,0,0.5,0,0.7h-5.1c0.2,1,0.9,1.5,1.8,1.5c0.6,0,1.3-0.3,1.8-0.7l1.1,1.2
				c-0.8,0.7-1.9,1.1-3.1,1.1c-2.2,0-3.7-1.5-3.7-3.8c0-2.3,1.5-3.8,3.6-3.8C292.5,468,294,469.5,294,471.8z M288.9,471.1h3.2
				c-0.2-0.9-0.7-1.4-1.6-1.4C289.6,469.7,289,470.2,288.9,471.1z"/>
			<path id="XMLID_328_" class="st34" d="M301.6,471.8c0,0.2,0,0.5,0,0.7h-5.1c0.2,1,0.9,1.5,1.8,1.5c0.6,0,1.3-0.3,1.8-0.7l1.1,1.2
				c-0.8,0.7-1.9,1.1-3.1,1.1c-2.2,0-3.7-1.5-3.7-3.8c0-2.3,1.5-3.8,3.6-3.8C300.2,468,301.6,469.5,301.6,471.8z M296.5,471.1h3.2
				c-0.2-0.9-0.7-1.4-1.6-1.4C297.2,469.7,296.7,470.2,296.5,471.1z"/>
			<path id="XMLID_325_" class="st34" d="M310,471.8c0,2.2-1.5,3.8-3.5,3.8c-1,0-1.6-0.4-2.1-0.9v3.7h-1.9v-10.1h1.9v0.8
				c0.5-0.6,1.2-1,2.1-1C308.5,468,310,469.6,310,471.8z M304.3,471.8c0,1.1,0.7,2,1.8,2c1.1,0,1.9-0.9,1.9-2c0-1.1-0.7-2-1.9-2
				C305,469.8,304.3,470.6,304.3,471.8z"/>
			<path id="XMLID_322_" class="st34" d="M313.1,465.8c0,0.7-0.5,1.2-1.2,1.2c-0.7,0-1.2-0.5-1.2-1.2c0-0.7,0.5-1.2,1.2-1.2
				C312.5,464.6,313.1,465.1,313.1,465.8z M312.8,475.4h-1.9v-7.2h1.9V475.4z"/>
			<path id="XMLID_320_" class="st34" d="M316,470.7l2.7-2.6h2.4l-3.5,3.4l3.5,3.8h-2.4l-2.7-2.9v2.9h-1.9v-10.7h1.9V470.7z"/>
		</g>
		<g>
			<path class="st34" d="M184.4,475.3v-1.1c-0.5,0.7-1.4,1.2-2.4,1.2c-1.8,0-3.1-1.4-3.1-3.7c0-2.3,1.3-3.7,3.1-3.7
				c1,0,1.8,0.5,2.4,1.2v-3.8h1.1v9.8H184.4z M184.4,473.4v-3.2c-0.4-0.6-1.2-1.1-2.1-1.1c-1.4,0-2.3,1.2-2.3,2.7
				c0,1.6,0.8,2.7,2.3,2.7C183.2,474.5,184,474,184.4,473.4z"/>
			<path class="st34" d="M186.9,471.7c0-2.1,1.5-3.7,3.5-3.7c2.1,0,3.4,1.7,3.4,3.8v0.3h-5.7c0.1,1.3,1,2.4,2.5,2.4
				c0.8,0,1.6-0.3,2.2-0.9l0.5,0.7c-0.7,0.7-1.7,1.1-2.8,1.1C188.4,475.5,186.9,474,186.9,471.7z M190.4,468.9
				c-1.5,0-2.3,1.3-2.3,2.4h4.6C192.7,470.3,192,468.9,190.4,468.9z"/>
			<path class="st34" d="M194.6,474.4l0.6-0.8c0.5,0.5,1.4,1,2.3,1c1.1,0,1.7-0.5,1.7-1.2c0-1.7-4.4-0.7-4.4-3.3c0-1.1,1-2,2.6-2
				c1.2,0,2.1,0.5,2.6,1l-0.5,0.8c-0.4-0.5-1.2-0.9-2.1-0.9c-1,0-1.6,0.5-1.6,1.1c0,1.6,4.4,0.5,4.4,3.3c0,1.2-1,2.1-2.8,2.1
				C196.3,475.5,195.3,475.1,194.6,474.4z"/>
			<path class="st34" d="M201.5,466.5c0-0.4,0.3-0.7,0.7-0.7c0.4,0,0.7,0.3,0.7,0.7c0,0.4-0.3,0.7-0.7,0.7
				C201.8,467.2,201.5,466.9,201.5,466.5z M201.7,475.3v-7.1h1.1v7.1H201.7z"/>
			<path class="st34" d="M204.6,477.1l0.6-0.8c0.6,0.7,1.3,1,2.3,1c1.2,0,2.3-0.6,2.3-2.1v-1c-0.5,0.7-1.4,1.3-2.4,1.3
				c-1.8,0-3.1-1.4-3.1-3.7c0-2.3,1.3-3.7,3.1-3.7c1,0,1.8,0.5,2.4,1.2v-1.1h1.1v6.9c0,2.3-1.6,3.1-3.4,3.1
				C206.2,478.2,205.4,477.9,204.6,477.1z M209.7,473.3v-3.1c-0.4-0.6-1.2-1.1-2.1-1.1c-1.4,0-2.3,1.1-2.3,2.7
				c0,1.6,0.8,2.7,2.3,2.7C208.5,474.4,209.3,473.9,209.7,473.3z"/>
			<path class="st34" d="M217.4,475.3v-4.6c0-1.2-0.6-1.6-1.6-1.6c-0.9,0-1.7,0.5-2.1,1.1v5.2h-1.1v-7.1h1.1v1
				c0.5-0.6,1.5-1.2,2.5-1.2c1.5,0,2.3,0.7,2.3,2.3v5H217.4z"/>
			<path class="st34" d="M219.9,471.7c0-2.1,1.5-3.7,3.5-3.7c2.1,0,3.4,1.7,3.4,3.8v0.3h-5.7c0.1,1.3,1,2.4,2.5,2.4
				c0.8,0,1.6-0.3,2.2-0.9l0.5,0.7c-0.7,0.7-1.7,1.1-2.8,1.1C221.4,475.5,219.9,474,219.9,471.7z M223.4,468.9
				c-1.5,0-2.3,1.3-2.3,2.4h4.6C225.7,470.3,225,468.9,223.4,468.9z"/>
			<path class="st34" d="M233.4,475.3v-1.1c-0.5,0.7-1.4,1.2-2.4,1.2c-1.8,0-3.1-1.4-3.1-3.7c0-2.3,1.3-3.7,3.1-3.7
				c1,0,1.8,0.5,2.4,1.2v-3.8h1.1v9.8H233.4z M233.4,473.4v-3.2c-0.4-0.6-1.2-1.1-2.1-1.1c-1.4,0-2.3,1.2-2.3,2.7
				c0,1.6,0.8,2.7,2.3,2.7C232.1,474.5,233,474,233.4,473.4z"/>
			<path class="st34" d="M239.7,475.3v-9.8h1.1v3.8c0.6-0.8,1.4-1.2,2.4-1.2c1.8,0,3.1,1.5,3.1,3.7c0,2.3-1.3,3.7-3.1,3.7
				c-1,0-1.9-0.5-2.4-1.2v1.1H239.7z M242.9,474.5c1.4,0,2.3-1.2,2.3-2.7c0-1.6-0.8-2.7-2.3-2.7c-0.9,0-1.7,0.5-2.1,1.1v3.2
				C241.2,474,242,474.5,242.9,474.5z"/>
			<path class="st34" d="M247.5,477.1c0.2,0.1,0.4,0.1,0.6,0.1c0.5,0,0.8-0.2,1.1-0.7l0.5-1.1l-3-7.1h1.2l2.4,5.8l2.3-5.8h1.2
				l-3.5,8.5c-0.4,1-1.1,1.4-2.1,1.4c-0.2,0-0.6,0-0.8-0.1L247.5,477.1z"/>
		</g>
	</g>
</g>
</svg>
