<?xml version="1.0" encoding="utf-8"?>
<!-- Generator: Adobe Illustrator 24.1.1, SVG Export Plug-In . SVG Version: 6.00 Build 0)  -->
<svg version="1.1" xmlns="http://www.w3.org/2000/svg" xmlns:xlink="http://www.w3.org/1999/xlink" x="0px" y="0px"
	 viewBox="0 0 500 500" style="enable-background:new 0 0 500 500;" xml:space="preserve">
<style type="text/css">
	.st0{display:none;}
	.st1{display:inline;fill:#FFFFFF;}
	.st2{fill:#FFFFFF;}
	.st3{font-family:'Gilroy-ExtraBold';}
	.st4{font-size:32.3233px;}
	.st5{fill:url(#SVGID_1_);}
	.st6{fill:url(#SVGID_2_);}
	.st7{fill:url(#SVGID_3_);}
	.st8{fill:url(#SVGID_4_);}
	.st9{fill:url(#SVGID_5_);}
	.st10{fill:url(#SVGID_6_);}
	.st11{fill:url(#SVGID_7_);}
	.st12{fill:url(#SVGID_8_);}
	.st13{fill:url(#SVGID_9_);}
	.st14{fill:url(#SVGID_10_);}
	.st15{fill:url(#SVGID_11_);}
	.st16{display:none;fill:#996FFF;}
	.st17{font-family:'Arcon-Rounded-Regular';}
	.st18{font-size:22.9087px;}
	.st19{fill:url(#SVGID_12_);}
	.st20{opacity:0.34;fill:url(#SVGID_13_);}
	.st21{opacity:0.67;fill:url(#SVGID_14_);}
	.st22{opacity:0.34;}
	.st23{fill:url(#SVGID_15_);}
	.st24{fill:none;stroke:url(#SVGID_16_);stroke-width:0.9711;stroke-miterlimit:10;}
	.st25{fill:url(#SVGID_17_);}
	.st26{fill:url(#SVGID_18_);}
	.st27{fill:url(#SVGID_19_);}
	.st28{opacity:0.21;fill:url(#SVGID_20_);}
	.st29{fill:url(#SVGID_21_);}
	.st30{opacity:0.26;}
	.st31{fill:url(#SVGID_22_);}
	.st32{fill:url(#SVGID_23_);}
	.st33{fill:url(#SVGID_24_);}
	.st34{fill:url(#SVGID_25_);}
	.st35{opacity:0.33;fill:url(#SVGID_26_);}
	.st36{opacity:0.45;}
	.st37{fill:url(#SVGID_27_);}
	.st38{display:inline;}
	.st39{fill:#A5B7C6;}
</style>
<g id="BACKGROUND" class="st0">
	<rect class="st1" width="500" height="500"/>
</g>
<g id="OBJECTS">
	<g>
		<g>
			<g>
				<text transform="matrix(1 0 0 1 148.5222 378.7768)" class="st2 st3 st4">E-classroom</text>
				<g>
					<linearGradient id="SVGID_1_" gradientUnits="userSpaceOnUse" x1="250.1271" y1="389.7898" x2="250.1271" y2="352.4214">
						<stop  offset="0" style="stop-color:#684AF1"/>
						<stop  offset="1" style="stop-color:#BD59F8"/>
					</linearGradient>
					<path class="st5" d="M162.26,368.56h-8.47v7.85h9.44v2.36h-12.25v-21.78h11.76v2.36h-8.95v6.88h8.47V368.56z"/>
					<linearGradient id="SVGID_2_" gradientUnits="userSpaceOnUse" x1="250.1271" y1="389.7898" x2="250.1271" y2="352.4214">
						<stop  offset="0" style="stop-color:#684AF1"/>
						<stop  offset="1" style="stop-color:#BD59F8"/>
					</linearGradient>
					<path class="st6" d="M173.7,366.56v2.1h-7.98v-2.1H173.7z"/>
					<linearGradient id="SVGID_3_" gradientUnits="userSpaceOnUse" x1="250.1271" y1="389.7898" x2="250.1271" y2="352.4214">
						<stop  offset="0" style="stop-color:#684AF1"/>
						<stop  offset="1" style="stop-color:#BD59F8"/>
					</linearGradient>
					<path class="st7" d="M192.67,378.07c-1.03,0.52-3.1,1.03-5.75,1.03c-6.14,0-10.76-3.88-10.76-11.02
						c0-6.82,4.62-11.44,11.38-11.44c2.71,0,4.43,0.58,5.17,0.97l-0.68,2.29c-1.07-0.52-2.59-0.9-4.4-0.9c-5.11,0-8.5,3.26-8.5,8.98
						c0,5.33,3.07,8.76,8.37,8.76c1.71,0,3.46-0.36,4.59-0.91L192.67,378.07z"/>
					<linearGradient id="SVGID_4_" gradientUnits="userSpaceOnUse" x1="250.1271" y1="389.7898" x2="250.1271" y2="352.4214">
						<stop  offset="0" style="stop-color:#684AF1"/>
						<stop  offset="1" style="stop-color:#BD59F8"/>
					</linearGradient>
					<path class="st8" d="M196.52,356.99h2.81v19.42h9.31v2.36h-12.12V356.99z"/>
					<linearGradient id="SVGID_5_" gradientUnits="userSpaceOnUse" x1="250.1271" y1="389.7898" x2="250.1271" y2="352.4214">
						<stop  offset="0" style="stop-color:#684AF1"/>
						<stop  offset="1" style="stop-color:#BD59F8"/>
					</linearGradient>
					<path class="st9" d="M215.62,371.93l-2.26,6.85h-2.91l7.4-21.78h3.39l7.43,21.78h-3.01l-2.33-6.85H215.62z M222.76,369.73
						l-2.13-6.27c-0.48-1.42-0.81-2.71-1.13-3.98h-0.06c-0.32,1.29-0.68,2.62-1.1,3.94l-2.13,6.3H222.76z"/>
					<linearGradient id="SVGID_6_" gradientUnits="userSpaceOnUse" x1="250.1271" y1="389.7898" x2="250.1271" y2="352.4214">
						<stop  offset="0" style="stop-color:#684AF1"/>
						<stop  offset="1" style="stop-color:#BD59F8"/>
					</linearGradient>
					<path class="st10" d="M231.82,375.35c1.26,0.78,3.1,1.42,5.04,1.42c2.88,0,4.56-1.52,4.56-3.72c0-2.04-1.16-3.2-4.1-4.33
						c-3.56-1.26-5.75-3.1-5.75-6.17c0-3.39,2.81-5.91,7.05-5.91c2.23,0,3.85,0.52,4.82,1.07l-0.78,2.29
						c-0.71-0.39-2.17-1.03-4.14-1.03c-2.97,0-4.1,1.78-4.1,3.26c0,2.04,1.33,3.04,4.33,4.2c3.68,1.42,5.56,3.2,5.56,6.4
						c0,3.36-2.49,6.27-7.63,6.27c-2.1,0-4.4-0.61-5.56-1.39L231.82,375.35z"/>
					<linearGradient id="SVGID_7_" gradientUnits="userSpaceOnUse" x1="250.1271" y1="389.7898" x2="250.1271" y2="352.4214">
						<stop  offset="0" style="stop-color:#684AF1"/>
						<stop  offset="1" style="stop-color:#BD59F8"/>
					</linearGradient>
					<path class="st11" d="M248.08,375.35c1.26,0.78,3.1,1.42,5.04,1.42c2.88,0,4.56-1.52,4.56-3.72c0-2.04-1.16-3.2-4.1-4.33
						c-3.56-1.26-5.75-3.1-5.75-6.17c0-3.39,2.81-5.91,7.05-5.91c2.23,0,3.85,0.52,4.82,1.07L258.9,360
						c-0.71-0.39-2.17-1.03-4.14-1.03c-2.97,0-4.1,1.78-4.1,3.26c0,2.04,1.33,3.04,4.33,4.2c3.68,1.42,5.56,3.2,5.56,6.4
						c0,3.36-2.49,6.27-7.63,6.27c-2.1,0-4.4-0.61-5.56-1.39L248.08,375.35z"/>
					<linearGradient id="SVGID_8_" gradientUnits="userSpaceOnUse" x1="250.1271" y1="389.7898" x2="250.1271" y2="352.4214">
						<stop  offset="0" style="stop-color:#684AF1"/>
						<stop  offset="1" style="stop-color:#BD59F8"/>
					</linearGradient>
					<path class="st12" d="M264.72,357.29c1.42-0.29,3.46-0.45,5.4-0.45c3.01,0,4.94,0.55,6.3,1.78c1.1,0.97,1.71,2.46,1.71,4.14
						c0,2.88-1.81,4.78-4.1,5.56v0.1c1.68,0.58,2.68,2.13,3.2,4.4c0.71,3.04,1.23,5.14,1.68,5.98H276c-0.36-0.61-0.84-2.49-1.45-5.2
						c-0.65-3.01-1.81-4.14-4.36-4.23h-2.65v9.44h-2.81V357.29z M267.53,367.21h2.88c3,0,4.91-1.65,4.91-4.14
						c0-2.81-2.04-4.04-5.01-4.07c-1.36,0-2.33,0.13-2.78,0.26V367.21z"/>
					<linearGradient id="SVGID_9_" gradientUnits="userSpaceOnUse" x1="250.1271" y1="389.7898" x2="250.1271" y2="352.4214">
						<stop  offset="0" style="stop-color:#684AF1"/>
						<stop  offset="1" style="stop-color:#BD59F8"/>
					</linearGradient>
					<path class="st13" d="M301.05,367.66c0,7.5-4.56,11.47-10.12,11.47c-5.75,0-9.79-4.46-9.79-11.05c0-6.92,4.3-11.44,10.12-11.44
						C297.2,356.64,301.05,361.2,301.05,367.66z M284.15,368.01c0,4.65,2.52,8.82,6.95,8.82c4.46,0,6.98-4.1,6.98-9.05
						c0-4.33-2.26-8.86-6.95-8.86C286.48,358.93,284.15,363.23,284.15,368.01z"/>
					<linearGradient id="SVGID_10_" gradientUnits="userSpaceOnUse" x1="250.1271" y1="389.7898" x2="250.1271" y2="352.4214">
						<stop  offset="0" style="stop-color:#684AF1"/>
						<stop  offset="1" style="stop-color:#BD59F8"/>
					</linearGradient>
					<path class="st14" d="M323.64,367.66c0,7.5-4.56,11.47-10.12,11.47c-5.75,0-9.79-4.46-9.79-11.05c0-6.92,4.3-11.44,10.12-11.44
						C319.8,356.64,323.64,361.2,323.64,367.66z M306.74,368.01c0,4.65,2.52,8.82,6.95,8.82c4.46,0,6.98-4.1,6.98-9.05
						c0-4.33-2.26-8.86-6.95-8.86C309.07,358.93,306.74,363.23,306.74,368.01z"/>
					<linearGradient id="SVGID_11_" gradientUnits="userSpaceOnUse" x1="250.1271" y1="389.7898" x2="250.1271" y2="352.4214">
						<stop  offset="0" style="stop-color:#684AF1"/>
						<stop  offset="1" style="stop-color:#BD59F8"/>
					</linearGradient>
					<path class="st15" d="M345.98,369.21c-0.16-3.04-0.36-6.69-0.32-9.4h-0.1c-0.74,2.55-1.65,5.27-2.75,8.27l-3.85,10.57h-2.13
						l-3.52-10.37c-1.03-3.07-1.91-5.88-2.52-8.47h-0.06c-0.06,2.71-0.23,6.37-0.42,9.63l-0.58,9.34h-2.68l1.52-21.78h3.59
						l3.72,10.54c0.91,2.68,1.65,5.07,2.2,7.34h0.1c0.55-2.2,1.33-4.59,2.29-7.34l3.88-10.54h3.59l1.36,21.78h-2.75L345.98,369.21z"
						/>
				</g>
			</g>
			<text transform="matrix(1 0 0 1 163.7386 408.2055)" class="st16 st17 st18">Slogan Goes Here</text>
		</g>
		<g>
			<g>
				<radialGradient id="SVGID_12_" cx="201.6935" cy="166.9438" r="135.8067" gradientUnits="userSpaceOnUse">
					<stop  offset="0" style="stop-color:#5066DE"/>
					<stop  offset="1" style="stop-color:#BD59F8"/>
				</radialGradient>
				<path class="st19" d="M273.54,323.67c0.32-0.08,0.63-0.16,0.94-0.24c0.71-0.18,1.42-0.37,2.14-0.56
					c2.09-0.58,4.16-1.22,6.19-1.92c0.1-0.04,0.2-0.07,0.31-0.11c4.7-1.64,9.25-3.63,13.6-5.92c0.41-0.22,0.82-0.44,1.22-0.66
					c0.43-0.24,0.87-0.47,1.3-0.71c45.43-25.44,64.28-81.44,41.75-130.1c-19.7-42.56-59.42-58.14-93.25-57.93
					c-37.01,0.23-71.55,29.62-55.85,64.3c9.29-50.97,100.23-62.58,128.22-0.95c21.59,47.53-0.11,98.52-43.76,112.74
					c-72.86,23.73-130.68-34.57-123.75-100.64c0,0.01,0,0.02-0.01,0.03l-1.25,5.55c-1.23,6.29-1.89,12.79-1.89,19.44
					c0,19.66,5.65,37.99,15.4,53.48c0.09,0.14,0.17,0.28,0.26,0.42c0.22,0.34,0.44,0.68,0.66,1.02
					c7.82,12.02,17.93,21.92,29.47,29.39c0.24,0.16,0.48,0.31,0.72,0.47c0.24,0.15,0.48,0.3,0.73,0.45
					c11.65,7.29,24.89,12.26,39.09,14.26c0.41,0.06,0.81,0.12,1.22,0.17c0.16,0.02,0.32,0.04,0.48,0.06
					c10.62,1.34,21.53,0.99,32.32-1.2c0.08-0.02,0.17-0.03,0.25-0.05C271.23,324.21,272.39,323.95,273.54,323.67z"/>
				<linearGradient id="SVGID_13_" gradientUnits="userSpaceOnUse" x1="151.2517" y1="227.3058" x2="341.7177" y2="227.3058">
					<stop  offset="0" style="stop-color:#3D43ED"/>
					<stop  offset="1" style="stop-color:#BD59F8"/>
				</linearGradient>
				<path class="st20" d="M166.84,276.16c0.08,0.13,0.16,0.26,0.25,0.38c0.2,0.31,0.41,0.62,0.62,0.93
					c7.3,10.95,16.74,19.97,27.5,26.77c0.22,0.14,0.44,0.28,0.67,0.42c0.22,0.14,0.45,0.28,0.68,0.41
					c10.87,6.64,23.23,11.16,36.48,12.99c0.38,0.05,0.76,0.11,1.14,0.16c0.15,0.02,0.3,0.03,0.44,0.05
					c9.91,1.22,20.09,0.9,30.16-1.09c0.08-0.02,0.16-0.03,0.24-0.05c1.08-0.22,2.16-0.45,3.24-0.7c0.3-0.07,0.59-0.15,0.88-0.22
					c0.67-0.16,1.33-0.34,1.99-0.51c1.95-0.52,3.88-1.11,5.78-1.75c0.1-0.03,0.19-0.07,0.29-0.1c4.39-1.5,8.63-3.3,12.69-5.39
					c0.38-0.2,0.76-0.4,1.14-0.6c0.4-0.21,0.81-0.42,1.21-0.64c42.4-23.17,62-75.58,40.98-119.89
					c-18.39-38.76-55.55-54.25-89.04-51.36c-29.83,2.57-48.58,19.22-56.11,34.91c-0.3,6.02,0.87,12.39,3.84,18.95
					c9.29-50.97,100.23-62.58,128.22-0.95c21.59,47.53-0.11,98.52-43.76,112.74c-72.86,23.73-130.68-34.57-123.75-100.64
					C147.5,233,157.74,262.06,166.84,276.16z"/>
				<linearGradient id="SVGID_14_" gradientUnits="userSpaceOnUse" x1="169.2845" y1="171.006" x2="207.9946" y2="158.7493">
					<stop  offset="5.008000e-04" style="stop-color:#B22AFF"/>
					<stop  offset="1" style="stop-color:#20B8F4;stop-opacity:0.2"/>
				</linearGradient>
				<path class="st21" d="M198.6,173.13c-2.88-23.57,19.05-39.58,28.12-44.13c-26.64,7.34-47.78,38.05-34.34,58.54
					C193.14,183.48,196,176.84,198.6,173.13z"/>
				<g class="st22">
					<linearGradient id="SVGID_15_" gradientUnits="userSpaceOnUse" x1="226.3488" y1="138.7418" x2="268.9548" y2="316.7739">
						<stop  offset="0" style="stop-color:#3D43ED"/>
						<stop  offset="1" style="stop-color:#BD59F8"/>
					</linearGradient>
					<path class="st23" d="M152.62,200.96c-1.75,11.25-1.7,22.75-0.05,33.99c1.68,11.23,4.88,22.27,9.76,32.52
						c1.23,2.56,2.55,5.07,4.05,7.48c1.49,2.41,3.13,4.73,4.84,6.99c3.43,4.52,7.31,8.69,11.52,12.49
						c8.42,7.6,18.27,13.6,28.83,17.72c10.57,4.1,21.88,6.29,33.21,6.45c11.33,0.19,22.69-1.73,33.36-5.52
						c5.33-1.9,10.5-4.28,15.4-7.12c4.92-2.81,9.58-6.06,13.92-9.7c8.68-7.27,16.02-16.12,21.63-25.95
						c5.61-9.83,9.45-20.68,11.16-31.88c1.73-11.19,1.31-22.72-1.33-33.74c-5.36-21.97-18.96-42.08-38.04-54.44
						c-9.49-6.22-20.22-10.47-31.35-12.67c-5.57-1.05-11.23-1.68-16.91-1.69c-2.84-0.05-5.67,0.11-8.5,0.31
						c-2.82,0.27-5.65,0.6-8.43,1.14c-11.14,2.06-21.94,6.51-30.93,13.49c-4.5,3.47-8.54,7.54-11.9,12.13
						c-3.35,4.59-6.02,9.71-7.53,15.2c1.48-5.5,4.13-10.65,7.45-15.26c3.33-4.62,7.37-8.72,11.86-12.23
						c8.97-7.06,19.79-11.59,30.97-13.73c11.21-2.16,22.82-2.02,34.02,0.1c11.2,2.18,22.02,6.44,31.59,12.67
						c9.6,6.19,17.88,14.37,24.41,23.74c6.47,9.4,11.38,19.92,14.07,31.04c2.69,11.11,3.14,22.75,1.43,34.06
						c-1.71,11.31-5.55,22.28-11.19,32.23c-5.64,9.95-13.11,18.85-21.88,26.18c-4.39,3.66-9.1,6.93-14.07,9.76
						c-4.95,2.86-10.17,5.24-15.56,7.15c-10.78,3.8-22.23,5.7-33.65,5.48c-11.42-0.19-22.8-2.42-33.44-6.58
						c-10.63-4.18-20.51-10.24-28.97-17.91c-4.23-3.83-8.12-8.04-11.56-12.59c-1.71-2.28-3.36-4.62-4.85-7.05
						c-1.5-2.43-2.83-4.96-4.05-7.54c-4.84-10.34-7.96-21.43-9.56-32.7C150.75,223.71,150.79,212.2,152.62,200.96z"/>
				</g>
			</g>
			<linearGradient id="SVGID_16_" gradientUnits="userSpaceOnUse" x1="155.3939" y1="204.6705" x2="155.3939" y2="204.6705">
				<stop  offset="0" style="stop-color:#22B3FA"/>
				<stop  offset="1" style="stop-color:#3D43ED"/>
			</linearGradient>
			<path class="st24" d="M155.39,204.67"/>
			<linearGradient id="SVGID_17_" gradientUnits="userSpaceOnUse" x1="315.8588" y1="154.9676" x2="203.1546" y2="108.6293">
				<stop  offset="5.008000e-04" style="stop-color:#B22AFF"/>
				<stop  offset="1" style="stop-color:#20B8F4"/>
			</linearGradient>
			<path class="st25" d="M243.01,125.75c1.04-0.07,2.1-0.13,3.16-0.17C245.1,125.62,244.05,125.68,243.01,125.75z"/>
			<linearGradient id="SVGID_18_" gradientUnits="userSpaceOnUse" x1="245.6963" y1="126.7508" x2="240.9858" y2="124.814">
				<stop  offset="5.008000e-04" style="stop-color:#B22AFF"/>
				<stop  offset="1" style="stop-color:#20B8F4"/>
			</linearGradient>
			<path class="st26" d="M240.51,125.98c1.85-0.19,3.73-0.33,5.67-0.4C244.22,125.64,242.34,125.78,240.51,125.98z"/>
			<g>
				<linearGradient id="SVGID_19_" gradientUnits="userSpaceOnUse" x1="293.5181" y1="209.1889" x2="178.3786" y2="161.8493">
					<stop  offset="5.008000e-04" style="stop-color:#B22AFF"/>
					<stop  offset="1" style="stop-color:#20B8F4"/>
				</linearGradient>
				<path class="st27" d="M293,216.01c-17.93,37.06-73.31,33.72-96.29,15.44c-38.05-30.26-19.48-103.32,49.47-105.86
					c-54.42,1.6-72.84,63.65-35.71,85.67c25.83,15.32,62.62,5.12,55.51-20.12l0.18-6.45l24.54,5.41
					C300.38,197.76,296.24,206.93,293,216.01z"/>
				<linearGradient id="SVGID_20_" gradientUnits="userSpaceOnUse" x1="260.1432" y1="158.131" x2="196.8272" y2="219.5116">
					<stop  offset="5.008000e-04" style="stop-color:#B22AFF"/>
					<stop  offset="1" style="stop-color:#20B8F4"/>
				</linearGradient>
				<path class="st28" d="M265.98,191.13c7.11,25.24-29.67,35.44-55.51,20.12c-35.14-20.84-20.53-77.5,27.25-84.89
					c-0.02-0.05-0.04-0.06-0.06-0.07c-6.92,0.89-13.26,2.54-19.02,4.8c-5.93,2.78-12.74,7.17-19.72,14.15
					c-19.99,26.37-18.46,57.41,5.7,76.27c25.1,19.59,88.12,6.72,76.01-33.63l-14.48-3.19L265.98,191.13z"/>
				<linearGradient id="SVGID_21_" gradientUnits="userSpaceOnUse" x1="208.2461" y1="225.5219" x2="239.9741" y2="233.3783">
					<stop  offset="5.008000e-04" style="stop-color:#B22AFF"/>
					<stop  offset="0.999" style="stop-color:#20B8F4;stop-opacity:0"/>
				</linearGradient>
				<path class="st29" d="M211.72,213.87c-2.89,6.3-2.94,8.56-3.41,15.54c-0.13,1.88-0.15,3.77-0.11,5.64
					c6.71,4.45,14.24,8.8,26.52,9.48c-3.87-8.14-4.67-21.76-1.34-26.2C227.43,218.03,212.57,214.46,211.72,213.87z"/>
				<g class="st30">
					<linearGradient id="SVGID_22_" gradientUnits="userSpaceOnUse" x1="277.578" y1="215.4984" x2="182.8041" y2="176.5322">
						<stop  offset="5.008000e-04" style="stop-color:#B22AFF"/>
						<stop  offset="1" style="stop-color:#20B8F4"/>
					</linearGradient>
					<path class="st31" d="M198.93,145.24c-4.81,6.47-8.67,13.67-10.99,21.37c-1.17,3.84-1.97,7.79-2.31,11.79
						c-0.33,4-0.17,8.03,0.46,11.97c1.28,7.9,4.64,15.43,9.62,21.68c5.02,6.18,11.26,11.62,18.79,14.36
						c7.47,2.84,15.57,3.87,23.57,3.6c8-0.31,15.99-1.93,23.34-5.13c3.66-1.61,7.15-3.64,10.23-6.19c3.07-2.55,5.71-5.65,7.53-9.22
						c1.85-3.55,2.81-7.54,2.87-11.55c0.09-4.02-0.71-8.03-1.98-11.85c1.34,3.79,2.24,7.79,2.23,11.85
						c0.02,4.05-0.86,8.12-2.67,11.77c-1.81,3.65-4.47,6.84-7.57,9.48c-3.1,2.64-6.63,4.74-10.32,6.42
						c-7.41,3.36-15.52,4.97-23.62,5.33c-8.1,0.3-16.32-0.69-23.96-3.59c-3.79-1.47-7.43-3.46-10.57-6.08
						c-3.16-2.56-6.05-5.45-8.57-8.64c-5.05-6.37-8.48-14.07-9.66-22.11c-0.6-4.02-0.72-8.11-0.33-12.15
						c0.39-4.04,1.23-8.02,2.47-11.88C189.98,158.76,194,151.61,198.93,145.24z"/>
				</g>
				<linearGradient id="SVGID_23_" gradientUnits="userSpaceOnUse" x1="282.6546" y1="177.8271" x2="280.2804" y2="208.4543">
					<stop  offset="5.008000e-04" style="stop-color:#B22AFF"/>
					<stop  offset="0.999" style="stop-color:#20B8F4;stop-opacity:0"/>
				</linearGradient>
				<path class="st32" d="M266.68,199.95c7.35-2.4,18.15,0.79,23.22,7.03c2.02,2.48,3.02,5.29,3.39,8.24
					c3.18-8.82,6.81-17.68-2.59-25.12l-24.54-5.41l-0.18,6.45C267.09,195.05,266.99,197.42,266.68,199.95z"/>
			</g>
			<path class="st2" d="M243.01,125.75c1.04-0.07,2.1-0.13,3.16-0.17C245.1,125.62,244.05,125.68,243.01,125.75z"/>
			<g>
				<linearGradient id="SVGID_24_" gradientUnits="userSpaceOnUse" x1="304.6368" y1="278.1429" x2="196.0055" y2="166.6051">
					<stop  offset="0" style="stop-color:#B03BFF"/>
					<stop  offset="0.998" style="stop-color:#FF4BBE"/>
				</linearGradient>
				<path class="st33" d="M293,216.01c12.36-21.93-4.05-60.47-48.88-52.78c-49.12,8.43-68.36,75.35-26.36,110.41
					c32.24,26.91,92.47,6.26,86.5-40.11c-14.31,35.84-74.64,39.8-78.56-3.91C221.27,180.15,303.14,182.71,293,216.01z"/>
				<radialGradient id="SVGID_25_" cx="284.6281" cy="187.9698" r="58.4384" gradientUnits="userSpaceOnUse">
					<stop  offset="2.043270e-03" style="stop-color:#FF4BBE"/>
					<stop  offset="1" style="stop-color:#FF4BBE;stop-opacity:0"/>
				</radialGradient>
				<path class="st34" d="M293,216.01c12.36-21.93-4.05-60.47-48.88-52.78c-49.12,8.43-68.36,75.35-26.36,110.41
					c32.24,26.91,92.47,6.26,86.5-40.11c-14.31,35.84-74.64,39.8-78.56-3.91C221.27,180.15,303.14,182.71,293,216.01z"/>
				<linearGradient id="SVGID_26_" gradientUnits="userSpaceOnUse" x1="271.1124" y1="274.2665" x2="245.0375" y2="184.5566">
					<stop  offset="0" style="stop-color:#B03BFF"/>
					<stop  offset="1" style="stop-color:#FF4BBE"/>
				</linearGradient>
				<path class="st35" d="M304.49,237.17c-0.03-1.2-0.1-2.41-0.22-3.64c-14.31,35.84-74.64,39.8-78.56-3.91
					c-4.43-49.48,77.44-46.91,67.3-13.61c3.33-5.75,4.79-13.7,3.58-21.18c-3.89-13.09-17.18-22.29-43.34-18.36
					c-41.78,6.27-59.83,61.72-22.38,87.32C261.36,284.64,303.46,268.57,304.49,237.17z"/>
				<g class="st36">
					<linearGradient id="SVGID_27_" gradientUnits="userSpaceOnUse" x1="270.5246" y1="273.1012" x2="243.0146" y2="178.4535">
						<stop  offset="0" style="stop-color:#B03BFF"/>
						<stop  offset="1" style="stop-color:#FF4BBE"/>
					</linearGradient>
					<path class="st37" d="M296.58,194.83c-1.57-5.24-4.87-9.93-9.34-13.05c-4.45-3.16-9.8-4.81-15.17-5.51
						c-5.39-0.71-10.88-0.53-16.27,0.14c-5.41,0.62-10.72,1.98-15.65,4.27c-9.88,4.51-18.11,12.42-23.2,21.99
						c-5.13,9.53-7.21,20.77-5.28,31.43c0.92,5.32,2.86,10.47,5.68,15.08c2.81,4.63,6.51,8.68,10.75,12.06
						c8.47,6.77,19.05,10.89,29.9,11.53c10.81,0.66,21.96-2.04,30.91-8.25c4.47-3.08,8.35-7.07,11.08-11.78
						c2.75-4.7,4.29-10.1,4.5-15.56c-0.13,5.46-1.59,10.9-4.29,15.68c-2.69,4.79-6.54,8.88-11.02,12.06
						c-9.02,6.34-20.27,9.12-31.22,8.51c-10.99-0.59-21.73-4.71-30.37-11.54c-4.32-3.4-8.12-7.52-11.01-12.23
						c-2.91-4.69-4.92-9.94-5.88-15.38c-1.93-10.91,0.26-22.34,5.53-31.99c5.22-9.69,13.61-17.67,23.66-22.2
						c5-2.3,10.41-3.65,15.86-4.24c5.44-0.64,10.97-0.8,16.41-0.05c5.42,0.78,10.8,2.54,15.25,5.79
						C291.85,184.8,295.1,189.57,296.58,194.83z"/>
				</g>
			</g>
		</g>
	</g>
</g>
<g id="DESIGNED_BY_FREEPIK" class="st0">
	<g class="st38">
		<g id="XMLID_319_">
			<g id="XMLID_338_">
				<path id="XMLID_346_" class="st39" d="M260.1,465.47c-0.43,0.44-0.8,0.93-1.11,1.45l-0.47-0.24c-0.07-0.3-0.35-0.5-0.66-0.47
					c-0.33,0.04-0.57,0.34-0.53,0.67c0.04,0.33,0.34,0.57,0.67,0.53c0.07-0.01,0.13-0.03,0.18-0.05l0.45,0.23
					c-0.25,0.55-0.43,1.14-0.54,1.74l0.75,0.13c0.23-1.31,0.85-2.51,1.79-3.47L260.1,465.47z"/>
				<path id="XMLID_345_" class="st39" d="M265.59,463.16c-0.17,0-0.34,0.01-0.51,0.02l-0.07-0.63c0.19-0.15,0.3-0.39,0.27-0.64
					c-0.05-0.39-0.4-0.67-0.8-0.63c-0.39,0.05-0.67,0.4-0.63,0.8c0.03,0.25,0.19,0.46,0.4,0.56l0.07,0.62
					c-0.71,0.12-1.4,0.33-2.06,0.65l0.33,0.68c0.93-0.45,1.94-0.67,3-0.67c0.5,0,0.99,0.05,1.48,0.16l0.16-0.74
					C266.69,463.22,266.14,463.16,265.59,463.16z"/>
				<path id="XMLID_344_" class="st39" d="M272.19,465.71c0.33-0.04,0.57-0.34,0.53-0.67c-0.04-0.33-0.34-0.57-0.67-0.53
					c-0.31,0.04-0.54,0.3-0.53,0.61l-0.42,0.36c-0.42-0.43-0.89-0.81-1.41-1.14l-0.4,0.64c1.13,0.71,2.02,1.73,2.56,2.93l0.69-0.31
					c-0.25-0.55-0.57-1.07-0.94-1.55l0.4-0.35C272.06,465.72,272.13,465.72,272.19,465.71z"/>
				<path id="XMLID_343_" class="st39" d="M265.04,473.37c-0.39,0.02-0.77,0.03-1.16,0.03c-0.88,0-1.73-0.06-2.48-0.18
					c-0.39-0.06-0.85-0.15-1.27-0.29c1.05,1.86,3.07,3.13,5.39,3.13c2.86,0,5.26-1.92,5.95-4.5c-0.68,0.45-1.51,0.83-2.46,1.12
					C267.84,473.05,266.46,473.29,265.04,473.37z"/>
				<path id="XMLID_339_" class="st39" d="M265.59,464.68c-3.35,0-6.08,2.67-6.08,5.94c0,0.43,0.05,0.85,0.14,1.26
					c0.67,0.48,2.71,0.89,5.35,0.73c2.88-0.17,5.3-0.96,6.67-2.16c-0.01-0.19-0.02-0.39-0.05-0.58
					C271.24,466.91,268.65,464.68,265.59,464.68z M263.43,471.19c-1.02,0-1.85-0.83-1.85-1.85c0-1.02,0.83-1.85,1.85-1.85
					c1.02,0,1.85,0.83,1.85,1.85C265.28,470.36,264.45,471.19,263.43,471.19z M268.17,470.29c-0.75,0-1.36-0.61-1.36-1.36
					s0.61-1.36,1.36-1.36c0.75,0,1.36,0.61,1.36,1.36S268.92,470.29,268.17,470.29z"/>
			</g>
			<path id="XMLID_336_" class="st39" d="M281.6,466.55c-0.29-0.12-0.81-0.31-1.38-0.24c-0.55,0.07-0.84,0.34-0.84,1.01v0.87h2.23
				v1.72h-2.23v5.45h-1.93v-5.45h-1.34v-1.72h1.34v-0.89c0-1.68,0.9-2.78,2.57-2.78c0.64,0,1.16,0.12,1.59,0.31L281.6,466.55z"/>
			<path id="XMLID_334_" class="st39" d="M286.3,469.88c-0.18-0.03-0.36-0.05-0.53-0.05c-0.9,0-1.51,0.55-1.51,1.61v3.91h-1.93
				v-7.17h1.87v0.78c0.45-0.67,1.14-0.98,2.02-0.98c0.41,0,0.85,0.13,1.09,0.34L286.3,469.88z"/>
			<path id="XMLID_331_" class="st39" d="M293.97,471.76c0,0.22-0.01,0.49-0.04,0.65h-5.08c0.21,1.04,0.93,1.49,1.84,1.49
				c0.62,0,1.3-0.25,1.81-0.69l1.13,1.24c-0.81,0.75-1.85,1.09-3.06,1.09c-2.2,0-3.72-1.5-3.72-3.75c0-2.26,1.48-3.8,3.63-3.8
				C292.54,467.99,293.96,469.52,293.97,471.76z M288.85,471.09h3.18c-0.18-0.92-0.73-1.44-1.56-1.44
				C289.55,469.65,289.02,470.2,288.85,471.09z"/>
			<path id="XMLID_328_" class="st39" d="M301.62,471.76c0,0.22-0.01,0.49-0.04,0.65h-5.08c0.21,1.04,0.93,1.49,1.84,1.49
				c0.62,0,1.3-0.25,1.81-0.69l1.13,1.24c-0.81,0.75-1.85,1.09-3.06,1.09c-2.2,0-3.72-1.5-3.72-3.75c0-2.26,1.48-3.8,3.63-3.8
				C300.2,467.99,301.61,469.52,301.62,471.76z M296.5,471.09h3.18c-0.18-0.92-0.73-1.44-1.56-1.44
				C297.21,469.65,296.67,470.2,296.5,471.09z"/>
			<path id="XMLID_325_" class="st39" d="M309.96,471.76c0,2.15-1.49,3.77-3.47,3.77c-0.96,0-1.64-0.38-2.11-0.93v3.71h-1.92v-10.13
				h1.89v0.79c0.47-0.58,1.15-0.98,2.14-0.98C308.47,467.99,309.96,469.61,309.96,471.76z M304.29,471.76
				c0,1.13,0.75,1.98,1.84,1.98c1.14,0,1.85-0.88,1.85-1.98c0-1.1-0.71-1.98-1.85-1.98C305.03,469.79,304.29,470.63,304.29,471.76z"
				/>
			<path id="XMLID_322_" class="st39" d="M313.07,465.84c0,0.7-0.54,1.23-1.24,1.23c-0.7,0-1.23-0.53-1.23-1.23
				c0-0.7,0.53-1.24,1.23-1.24C312.53,464.59,313.07,465.14,313.07,465.84z M312.81,475.35h-1.93v-7.17h1.93V475.35z"/>
			<path id="XMLID_320_" class="st39" d="M316.03,470.74l2.7-2.55h2.37l-3.48,3.38l3.5,3.8h-2.38l-2.72-2.9v2.9h-1.93V464.7h1.93
				V470.74z"/>
		</g>
		<g>
			<path class="st39" d="M184.41,475.29v-1.05c-0.53,0.72-1.39,1.23-2.39,1.23c-1.85,0-3.15-1.41-3.15-3.71
				c0-2.26,1.29-3.72,3.15-3.72c0.95,0,1.82,0.47,2.39,1.25v-3.76h1.1v9.77H184.41z M184.41,473.37v-3.21
				c-0.4-0.62-1.24-1.14-2.12-1.14c-1.42,0-2.27,1.17-2.27,2.74c0,1.57,0.85,2.72,2.27,2.72
				C183.17,474.48,184.02,473.99,184.41,473.37z"/>
			<path class="st39" d="M186.93,471.74c0-2.05,1.46-3.71,3.49-3.71c2.14,0,3.4,1.67,3.4,3.79v0.28h-5.73
				c0.09,1.33,1.03,2.45,2.55,2.45c0.81,0,1.63-0.32,2.18-0.89l0.53,0.72c-0.7,0.7-1.65,1.08-2.81,1.08
				C188.44,475.46,186.93,473.96,186.93,471.74z M190.4,468.95c-1.51,0-2.26,1.27-2.31,2.36h4.64
				C192.72,470.25,192.01,468.95,190.4,468.95z"/>
			<path class="st39" d="M194.61,474.35l0.57-0.79c0.47,0.54,1.36,1.01,2.33,1.01c1.08,0,1.67-0.51,1.67-1.22
				c0-1.71-4.38-0.66-4.38-3.28c0-1.1,0.95-2.04,2.64-2.04c1.2,0,2.05,0.45,2.62,1.03l-0.51,0.76c-0.42-0.51-1.2-0.89-2.11-0.89
				c-0.97,0-1.57,0.48-1.57,1.11c0,1.55,4.38,0.53,4.38,3.28c0,1.19-0.95,2.14-2.78,2.14C196.31,475.46,195.32,475.11,194.61,474.35
				z"/>
			<path class="st39" d="M201.48,466.47c0-0.41,0.34-0.75,0.73-0.75c0.41,0,0.75,0.34,0.75,0.75c0,0.41-0.34,0.73-0.75,0.73
				C201.81,467.2,201.48,466.88,201.48,466.47z M201.67,475.29v-7.07h1.1v7.07H201.67z"/>
			<path class="st39" d="M204.58,477.11l0.56-0.82c0.59,0.7,1.29,0.97,2.3,0.97c1.17,0,2.27-0.57,2.27-2.12v-1.01
				c-0.51,0.72-1.38,1.26-2.37,1.26c-1.85,0-3.15-1.38-3.15-3.66c0-2.27,1.29-3.68,3.15-3.68c0.95,0,1.8,0.47,2.37,1.25v-1.07h1.1
				v6.87c0,2.34-1.64,3.08-3.37,3.08C206.24,478.16,205.42,477.93,204.58,477.11z M209.71,473.25v-3.09
				c-0.38-0.62-1.23-1.14-2.11-1.14c-1.42,0-2.27,1.13-2.27,2.7c0,1.55,0.85,2.7,2.27,2.7
				C208.48,474.41,209.33,473.87,209.71,473.25z"/>
			<path class="st39" d="M217.41,475.29v-4.63c0-1.24-0.63-1.64-1.58-1.64c-0.86,0-1.68,0.53-2.09,1.1v5.17h-1.1v-7.07h1.1v1.03
				c0.5-0.59,1.46-1.2,2.52-1.2c1.48,0,2.26,0.75,2.26,2.29v4.97H217.41z"/>
			<path class="st39" d="M219.93,471.74c0-2.05,1.46-3.71,3.49-3.71c2.14,0,3.4,1.67,3.4,3.79v0.28h-5.73
				c0.09,1.33,1.03,2.45,2.55,2.45c0.81,0,1.63-0.32,2.18-0.89l0.53,0.72c-0.7,0.7-1.66,1.08-2.81,1.08
				C221.44,475.46,219.93,473.96,219.93,471.74z M223.4,468.95c-1.51,0-2.26,1.27-2.31,2.36h4.64
				C225.72,470.25,225.02,468.95,223.4,468.95z"/>
			<path class="st39" d="M233.35,475.29v-1.05c-0.53,0.72-1.39,1.23-2.39,1.23c-1.85,0-3.15-1.41-3.15-3.71
				c0-2.26,1.29-3.72,3.15-3.72c0.95,0,1.82,0.47,2.39,1.25v-3.76h1.1v9.77H233.35z M233.35,473.37v-3.21
				c-0.4-0.62-1.25-1.14-2.12-1.14c-1.42,0-2.27,1.17-2.27,2.74c0,1.57,0.85,2.72,2.27,2.72
				C232.1,474.48,232.95,473.99,233.35,473.37z"/>
			<path class="st39" d="M239.69,475.29v-9.77h1.1v3.76c0.57-0.78,1.42-1.25,2.39-1.25c1.85,0,3.15,1.46,3.15,3.72
				c0,2.3-1.3,3.71-3.15,3.71c-1,0-1.86-0.51-2.39-1.23v1.05H239.69z M242.9,474.48c1.44,0,2.29-1.16,2.29-2.72
				c0-1.57-0.85-2.74-2.29-2.74c-0.86,0-1.73,0.53-2.11,1.14v3.21C241.17,473.99,242.04,474.48,242.9,474.48z"/>
			<path class="st39" d="M247.53,477.06c0.16,0.07,0.43,0.12,0.6,0.12c0.48,0,0.81-0.16,1.05-0.75l0.47-1.07l-2.96-7.15h1.19
				l2.36,5.8l2.34-5.8h1.2l-3.54,8.51c-0.42,1.03-1.14,1.42-2.08,1.44c-0.23,0-0.6-0.04-0.81-0.1L247.53,477.06z"/>
		</g>
	</g>
</g>
</svg>
