<?xml version="1.0" encoding="utf-8"?>
<!-- Generator: Adobe Illustrator 22.1.0, SVG Export Plug-In . SVG Version: 6.00 Build 0)  -->
<svg version="1.1" id="Слой_1" xmlns="http://www.w3.org/2000/svg" xmlns:xlink="http://www.w3.org/1999/xlink" x="0px" y="0px"
	 viewBox="0 0 3065.3 2000" style="enable-background:new 0 0 3065.3 2000;" xml:space="preserve">
<style type="text/css">
	.st0{fill:url(#SVGID_1_);}
	.st1{fill:#FFFFFF;}
	.st2{display:none;}
	.st3{display:inline;}
	.st4{fill:#BBD070;}
	.st5{fill:#97A43C;}
	.st6{fill:#48753A;}
	.st7{fill:#EBEBEB;}
	.st8{display:none;fill:url(#SVGID_2_);}
	.st9{display:inline;fill:url(#SVGID_3_);}
	.st10{display:inline;fill:#FF9F55;}
	.st11{display:inline;fill:#EFF7FE;}
	.st12{display:inline;fill:url(#SVGID_4_);}
	.st13{display:inline;fill:#5284FC;}
	.st14{display:inline;fill:url(#SVGID_5_);}
	.st15{display:inline;fill:url(#SVGID_6_);}
	.st16{display:inline;fill:url(#SVGID_7_);}
	.st17{display:inline;fill:url(#SVGID_8_);}
	.st18{display:inline;fill:url(#SVGID_9_);}
	.st19{display:inline;fill:#F08533;}
	.st20{display:inline;fill:#FAE6DE;}
	.st21{display:inline;fill:url(#SVGID_10_);}
	.st22{display:inline;fill:#495DA1;}
	.st23{display:inline;fill:#DECCC5;}
	.st24{display:inline;fill:#EEA886;}
	.st25{display:inline;fill:#FFFFFF;}
	.st26{display:none;fill:#FFFFFF;}
	.st27{display:none;fill:#E8E8E8;}
	.st28{display:inline;fill:#C1DBD1;}
	.st29{fill:#EEA886;}
	.st30{fill:#152B3D;}
	.st31{fill:#323657;}
	.st32{fill:#254380;}
	.st33{fill:#353A3D;}
	.st34{fill:#E55353;}
	.st35{fill:#FFBB55;}
	.st36{fill:#4373CF;}
	.st37{fill:#213A70;}
	.st38{fill:#FFCA55;}
	.st39{fill:#E8E8E8;}
	.st40{fill:#3A3F47;}
	.st41{fill:#A77860;}
	.st42{fill:#C9A043;}
	.st43{fill:#444C94;}
	.st44{fill:#303669;}
	.st45{fill:#518AFA;}
	.st46{display:inline;fill:#DE9673;}
	.st47{fill:#DE9673;}
	.st48{fill:#2F4563;}
	.st49{fill:#1E2D40;}
	.st50{display:inline;fill:#EEA987;}
	.st51{fill:#EEA987;}
	.st52{fill:#23344A;}
	.st53{fill:#464240;}
	.st54{display:inline;fill:#464240;}
	.st55{display:inline;fill:#A77860;}
	.st56{display:inline;fill:#6E6760;}
	.st57{display:inline;fill:#FFCA55;}
	.st58{fill:#292929;}
	.st59{fill:#434975;}
	.st60{fill:#FFC955;}
	.st61{fill:#1D3B54;}
	.st62{fill:#CFA345;}
</style>
<g>
	<linearGradient id="SVGID_1_" gradientUnits="userSpaceOnUse" x1="0" y1="1000" x2="3065.2529" y2="1000">
		<stop  offset="0" style="stop-color:#3ED6D3"/>
		<stop  offset="1" style="stop-color:#9548D9"/>
	</linearGradient>
	<rect class="st0" width="3065.3" height="2000"/>
	<path class="st1" d="M2780.6,0c0,0,189.9,389.7-211,581.7S1567.1,1004.8,1461.9,1368C1356.6,1731.1,123.4,1588,0,826.8V2000h3065.3
		V0H2780.6z"/>
	<g class="st2">
		<g class="st3">
			<g>
				<g>
					<g>
						<path class="st4" d="M2608.9,1332.4c0,0-259.9-111.7-360.3,39.7c-100.4,151.4,40.2,142,40.2,142s7.8,70,140.6-95.7
							C2492,1340.3,2608.9,1332.4,2608.9,1332.4z"/>
					</g>
				</g>
			</g>
			<g>
				<g>
					<g>
						<path class="st5" d="M2654.2,900.8c0,0-230.7-71.6-382.7,221.1s-288.5,315.8-288.5,315.8S2505,1531.4,2654.2,900.8z"/>
					</g>
				</g>
			</g>
			<g>
				<g>
					<g>
						<path class="st6" d="M2079,1454.7c20.2,97.3,242.9-90.3,264.9-258.6s-21.7-291.7,22.5-399.7
							C2366.4,796.4,1979.5,975.5,2079,1454.7z"/>
					</g>
				</g>
			</g>
		</g>
		<g class="st3">
			<path class="st7" d="M2018.8,967.2c9.2,0,18,1.4,26.1,3.8c10.7-25.9,37.2-44.2,68.2-44.2c34.5,0,63.4,22.7,71.1,53.1
				c6-2.3,12.4-3.5,19.2-3.5c28.7,0,52,22.1,52,49.4h-76h-27.9H2092h-45.3h-101.1C1945.6,993.5,1978.4,967.2,2018.8,967.2z"/>
		</g>
		<g class="st3">
			<path class="st7" d="M2477.8,1162.4c7,0,13.7,1,19.9,2.9c8.1-19.7,28.3-33.7,52-33.7c26.3,0,48.3,17.3,54.2,40.5
				c4.5-1.7,9.5-2.7,14.7-2.7c21.9,0,39.6,16.9,39.6,37.7h-58H2579h-45.3h-34.5H2422C2422,1182.4,2447,1162.4,2477.8,1162.4z"/>
		</g>
	</g>
	<linearGradient id="SVGID_2_" gradientUnits="userSpaceOnUse" x1="994.9063" y1="1440.9927" x2="2896.2578" y2="1440.9927">
		<stop  offset="0" style="stop-color:#40D5E6"/>
		<stop  offset="1" style="stop-color:#5577FF"/>
	</linearGradient>
	<path class="st8" d="M2517.5,1308.9c-64,0-124.2,15.9-177,43.9c-103.1-140.4-269.4-231.6-456.9-231.6
		c-223.9,0-417.5,129.9-509.5,318.5c-33.2-14.5-69.9-22.7-108.5-22.7c-149.5,0-270.7,121.2-270.7,270.7c0,25.3,3.5,49.9,10,73.1
		h316.8h204.6h619.5h299.6h443.8c4.7-23.6,7.1-48.1,7.1-73.1C2896.3,1478.5,2726.7,1308.9,2517.5,1308.9z"/>
	<g class="st2">
		<linearGradient id="SVGID_3_" gradientUnits="userSpaceOnUse" x1="569.4786" y1="1852.6455" x2="569.4786" y2="1710.3162">
			<stop  offset="0" style="stop-color:#FF9F55"/>
			<stop  offset="1" style="stop-color:#FFD255"/>
		</linearGradient>
		<path class="st9" d="M838.8,1864.4h-502c-20.2,0-36.6-16.4-36.6-36.6v-59.5c0-20.2,16.4-36.6,36.6-36.6h502V1864.4z"/>
		<path class="st10" d="M925,1745.4v105.4h8.8v13.7H569.9c-20.2,0-36.6-16.4-36.6-36.6v-59.5c0-20.2,16.4-36.6,36.6-36.6h363.8v13.7
			H925z"/>
		<path class="st11" d="M925,1850.8H596.8c-20.2,0-36.6-16.4-36.6-36.6V1782c0-20.2,16.4-36.6,36.6-36.6H925V1850.8z"/>
		<linearGradient id="SVGID_4_" gradientUnits="userSpaceOnUse" x1="564.4556" y1="1531.7275" x2="564.4556" y2="1728.7561">
			<stop  offset="0" style="stop-color:#40D5E6"/>
			<stop  offset="1" style="stop-color:#5577FF"/>
		</linearGradient>
		<path class="st12" d="M862.2,1731.7H312.7c-25.4,0-46-20.6-46-46v-62.3c0-25.4,20.6-46,46-46h549.5V1731.7z"/>
		<path class="st13" d="M959.7,1593.3v122.6h7.6v15.9H668.4c-25.4,0-46-20.6-46-46v-62.3c0-25.4,20.6-46,46-46h298.9v15.9H959.7z"/>
		<path class="st11" d="M959.7,1715.8H691.5c-25.4,0-46-20.6-46-46v-30.5c0-25.4,20.6-46,46-46h268.1V1715.8z"/>
		<linearGradient id="SVGID_5_" gradientUnits="userSpaceOnUse" x1="700.0518" y1="1541.181" x2="700.0518" y2="1393.8763">
			<stop  offset="0" style="stop-color:#FF9F55"/>
			<stop  offset="1" style="stop-color:#FFD255"/>
		</linearGradient>
		<path class="st14" d="M466.3,1577.3H884c27.5,0,49.8-22.3,49.8-49.8v-89.6c0-27.5-22.3-49.8-49.8-49.8H466.3V1577.3z"/>
		<path class="st10" d="M391.5,1407.6v150.3h-7.6v19.5h297.8c27.5,0,49.8-22.3,49.8-49.8v-89.6c0-27.5-22.3-49.8-49.8-49.8H383.9
			v19.5H391.5z"/>
		<path class="st11" d="M391.5,1557.9h263.3c27.3,0,49.5-22.2,49.5-49.5v-51.3c0-27.3-22.2-49.5-49.5-49.5H391.5V1557.9z"/>
		<linearGradient id="SVGID_6_" gradientUnits="userSpaceOnUse" x1="531.4664" y1="1145.1337" x2="531.4664" y2="1310.6185">
			<stop  offset="0" style="stop-color:#40D5E6"/>
			<stop  offset="1" style="stop-color:#5577FF"/>
		</linearGradient>
		<path class="st15" d="M779.1,1388.1H336.2c-28.9,0-52.4-23.4-52.4-52.4v-84.5c0-28.9,23.4-52.4,52.4-52.4h442.9V1388.1z"/>
		<path class="st13" d="M858.3,1218.3v150.3h8.1v19.5H550.6c-28.9,0-52.4-23.4-52.4-52.4v-84.5c0-28.9,23.4-52.4,52.4-52.4h315.9
			v19.5H858.3z"/>
		<path class="st11" d="M858.3,1368.6H577.8c-28.8,0-52.1-23.3-52.1-52.1v-46c0-28.8,23.3-52.1,52.1-52.1h280.5V1368.6z"/>
		<linearGradient id="SVGID_7_" gradientUnits="userSpaceOnUse" x1="656.3716" y1="1063.5353" x2="656.3716" y2="1195.8979">
			<stop  offset="0" style="stop-color:#40D5E6"/>
			<stop  offset="1" style="stop-color:#5577FF"/>
		</linearGradient>
		<path class="st16" d="M904,1198.8H441.3c-17.9,0-32.5-14.5-32.5-32.5v-78.2c0-17.9,14.5-32.5,32.5-32.5H904V1198.8z"/>
		<path class="st13" d="M983.2,1070.4v113.7h8.1v14.7H655.6c-17.9,0-32.5-14.5-32.5-32.5v-78.2c0-17.9,14.6-32.5,32.5-32.5h335.7
			v14.7H983.2z"/>
		<path class="st11" d="M983.2,1184.1H680.3c-17.9,0-32.5-14.5-32.5-32.5v-48.7c0-17.9,14.6-32.5,32.5-32.5h302.9V1184.1z"/>
	</g>
	<g class="st2">
		
			<linearGradient id="SVGID_8_" gradientUnits="userSpaceOnUse" x1="-9474.9473" y1="1599.7437" x2="-9757.2607" y2="1599.7437" gradientTransform="matrix(-1 0 0 1 -7213.7983 0)">
			<stop  offset="0" style="stop-color:#FF9F55"/>
			<stop  offset="1" style="stop-color:#FFD255"/>
		</linearGradient>
		<path class="st17" d="M2163.4,1670.7H2564c14.5,0,26.2-11.7,26.2-26.2v-89.6c0-14.5-11.7-26.2-26.2-26.2h-400.6V1670.7z"/>
		
			<linearGradient id="SVGID_9_" gradientUnits="userSpaceOnUse" x1="-9342.3271" y1="1834.8511" x2="-9621.9072" y2="1834.8511" gradientTransform="matrix(-1 0 0 1 -7213.7983 0)">
			<stop  offset="0" style="stop-color:#FF9F55"/>
			<stop  offset="1" style="stop-color:#FFD255"/>
		</linearGradient>
		<path class="st18" d="M2037,1883.4h488.2c10.4,0,18.8-8.4,18.8-18.8v-59.5c0-10.4-8.4-18.8-18.8-18.8H2037V1883.4z"/>
		<path class="st19" d="M1985,1796.9v75.9h-12.9v10.6h229.1c7.2,0,13-5.8,13-13v-71.2c0-7.2-5.8-13-13-13h-229.1v10.6H1985z"/>
		<path class="st20" d="M1985,1872.8h205.1c6.9,0,12.5-5.6,12.5-12.5v-50.9c0-6.9-5.6-12.5-12.5-12.5H1985V1872.8z"/>
		<path class="st19" d="M2095.1,1543.4v112.7h-7v14.6h290.3c14.9,0,27.1-12.1,27.1-27.1v-87.9c0-14.9-12.1-27.1-27.1-27.1h-290.3
			v14.6H2095.1z"/>
		<path class="st20" d="M2095.1,1656.1h268.4c14.9,0,27.1-12.1,27.1-27.1v-58.6c0-14.9-12.1-27.1-27.1-27.1h-268.4V1656.1z"/>
		<linearGradient id="SVGID_10_" gradientUnits="userSpaceOnUse" x1="2463.3086" y1="1687.7078" x2="2463.3086" y2="1802.4437">
			<stop  offset="0" style="stop-color:#609FF0"/>
			<stop  offset="1" style="stop-color:#5A3F9E"/>
		</linearGradient>
		<path class="st21" d="M2249.9,1786.3h393.3c18.5,0,33.5-15,33.5-33.5v-48.6c0-18.5-15-33.5-33.5-33.5h-393.3V1786.3z"/>
		<path class="st22" d="M2181.6,1682.6v91.8h-7v11.9h283.9c18.5,0,33.5-15,33.5-33.5v-48.6c0-18.5-15-33.5-33.5-33.5h-283.9v11.9
			H2181.6z"/>
		<path class="st20" d="M2181.6,1774.4h263c18.5,0,33.5-15,33.5-33.5v-24.9c0-18.5-15-33.5-33.5-33.5h-263V1774.4z"/>
		
			<rect x="2228" y="1711.9" transform="matrix(-1 -1.224647e-16 1.224647e-16 -1 4568.624 3426.666)" class="st23" width="112.6" height="2.9"/>
		
			<rect x="2273.2" y="1720.7" transform="matrix(-1 -1.224647e-16 1.224647e-16 -1 4666.5898 3444.3027)" class="st23" width="120.3" height="2.9"/>
		
			<rect x="2012.1" y="1816.5" transform="matrix(-1 -1.224647e-16 1.224647e-16 -1 4136.833 3635.9639)" class="st23" width="112.6" height="2.9"/>
		
			<rect x="2057.3" y="1825.3" transform="matrix(-1 -1.224647e-16 1.224647e-16 -1 4234.7988 3653.5996)" class="st23" width="120.3" height="2.9"/>
		
			<rect x="2139.8" y="1833.4" transform="matrix(-1 -1.224647e-16 1.224647e-16 -1 4329.375 3669.7041)" class="st23" width="49.8" height="2.9"/>
		
			<rect x="2226.8" y="1619.6" transform="matrix(-1 -1.224647e-16 1.224647e-16 -1 4573.8242 3242.1162)" class="st23" width="120.3" height="2.9"/>
		
			<rect x="2216.9" y="1627.7" transform="matrix(-1 -1.224647e-16 1.224647e-16 -1 4483.501 3258.2207)" class="st23" width="49.8" height="2.9"/>
		<path class="st24" d="M2234.7,1638.7c0-1.5,1.6-3.7,4-1.8c2.4,1.9-0.6,8.9-2.5,8.3S2234.7,1640.2,2234.7,1638.7z"/>
	</g>
	<g class="st2">
		<path class="st25" d="M196.6,884.9c-3.2,3.2-6.9,4.7-11.1,4.7c-2.6,0-5.1-0.5-7.4-1.6c-2.3-1-4.3-2.5-6-4.3c-1.7-1.8-3.1-4-4-6.4
			c-1-2.5-1.5-5.1-1.5-8c0-2.7,0.5-5.3,1.5-7.7c1-2.4,2.4-4.5,4.1-6.3c1.7-1.8,3.8-3.2,6.2-4.3c2.4-1.1,4.9-1.6,7.7-1.6
			c3.7,0,7,0.8,9.6,2.3c2.7,1.6,4.7,3.7,6,6.3l-5.8,4.2c-1-2-2.4-3.5-4.2-4.5c-1.8-1-3.8-1.6-5.9-1.6c-1.7,0-3.2,0.4-4.6,1.1
			c-1.4,0.7-2.6,1.7-3.6,2.9c-1,1.2-1.8,2.6-2.3,4.2c-0.5,1.6-0.8,3.3-0.8,5.1c0,1.9,0.3,3.6,0.9,5.2c0.6,1.6,1.4,3,2.5,4.2
			c1,1.2,2.3,2.1,3.7,2.8c1.4,0.7,3,1,4.7,1c3.9,0,7.3-1.8,10.4-5.4v-2.8h-8V869H203v20.4h-6.4V884.9z"/>
		<path class="st25" d="M237.3,882.6v6.8h-27.7v-39.6h27.2v6.7h-19.4v9.5h16.8v6.2h-16.8v10.3H237.3z"/>
		<path class="st25" d="M273.2,856.5h-12.8v32.9h-7.7v-32.9H240v-6.7h33.2V856.5z"/>
		<path class="st25" d="M322.6,889.3v-26.2l-10.3,19.5h-4.2l-10.3-19.5v26.2h-7.8v-39.6h8.3l11.8,22.5l11.9-22.5h8.3v39.6H322.6z"/>
		<path class="st25" d="M355.7,889.6c-2.9,0-5.6-0.6-7.9-1.7c-2.4-1.1-4.4-2.6-6.1-4.5c-1.7-1.9-3-4-4-6.4c-0.9-2.4-1.4-4.9-1.4-7.4
			c0-2.6,0.5-5.2,1.5-7.6c1-2.4,2.4-4.6,4.1-6.4c1.7-1.9,3.8-3.3,6.2-4.4c2.4-1.1,5-1.6,7.8-1.6c2.9,0,5.5,0.6,7.9,1.8
			c2.4,1.2,4.4,2.7,6.1,4.6c1.7,1.9,3,4.1,3.9,6.5c0.9,2.4,1.4,4.9,1.4,7.4c0,2.6-0.5,5.2-1.5,7.6c-1,2.4-2.3,4.5-4,6.4
			c-1.7,1.8-3.8,3.3-6.2,4.4C361.1,889,358.5,889.6,355.7,889.6z M344.1,869.5c0,1.7,0.3,3.4,0.8,5c0.5,1.6,1.3,3,2.3,4.2
			c1,1.2,2.2,2.2,3.7,3c1.4,0.7,3.1,1.1,4.9,1.1c1.9,0,3.5-0.4,5-1.1c1.4-0.8,2.7-1.8,3.7-3c1-1.3,1.7-2.7,2.2-4.3
			c0.5-1.6,0.8-3.2,0.8-4.8c0-1.7-0.3-3.4-0.8-5c-0.5-1.6-1.3-3-2.3-4.2c-1-1.2-2.2-2.2-3.7-2.9c-1.4-0.7-3.1-1.1-4.9-1.1
			c-1.9,0-3.5,0.4-5,1.1c-1.5,0.8-2.7,1.8-3.7,3c-1,1.2-1.7,2.7-2.2,4.2C344.4,866.3,344.1,867.9,344.1,869.5z"/>
		<path class="st25" d="M381.1,889.3v-39.6h17.6c1.8,0,3.5,0.4,5.1,1.1c1.6,0.8,2.9,1.8,4,3c1.1,1.2,2,2.7,2.6,4.2
			c0.6,1.6,1,3.2,1,4.8c0,2.6-0.6,4.9-1.9,7c-1.3,2.1-3,3.6-5.3,4.5l9.1,14.9h-8.7l-8.1-13.3h-7.6v13.3H381.1z M388.9,869.3h9.7
			c0.7,0,1.4-0.2,2-0.5c0.6-0.3,1.2-0.8,1.6-1.4c0.4-0.6,0.8-1.3,1.1-2c0.3-0.8,0.4-1.6,0.4-2.5c0-0.9-0.2-1.8-0.4-2.6
			c-0.3-0.8-0.7-1.5-1.2-2c-0.5-0.6-1.1-1-1.7-1.3c-0.7-0.3-1.3-0.5-2-0.5h-9.4V869.3z"/>
		<path class="st25" d="M446.2,882.6v6.8h-27.7v-39.6h27.2v6.7h-19.4v9.5H443v6.2h-16.8v10.3H446.2z"/>
	</g>
	<g class="st2">
		<g class="st3">
			<path class="st1" d="M188.4,391.4V181.7h40.8v174h106.9v35.7H188.4z"/>
			<path class="st1" d="M399.3,394.4c-7.5,0-14.5-1.2-21-3.7c-6.5-2.5-12.1-5.9-16.8-10.3c-4.7-4.4-8.4-9.6-11.1-15.5
				c-2.7-5.9-4-12.4-4-19.5c0-7.3,1.6-14,4.9-20.2c3.3-6.2,7.8-11.5,13.6-15.8c5.8-4.3,12.7-7.7,20.8-10.2
				c8.1-2.5,16.9-3.7,26.6-3.7c6.9,0,13.6,0.6,20.2,1.8c6.6,1.2,12.5,2.9,17.6,5v-8.9c0-10.2-2.9-18.1-8.7-23.6
				c-5.8-5.5-14.4-8.3-25.8-8.3c-8.3,0-16.3,1.5-24.2,4.4c-7.9,3-15.9,7.3-24.2,13L355,253.8c19.9-13.2,41.4-19.8,64.4-19.8
				c22.2,0,39.5,5.5,51.8,16.4c12.3,10.9,18.5,26.7,18.5,47.4v48.1c0,4.1,0.7,7.1,2.2,8.9c1.5,1.8,3.9,2.8,7.2,3v33.7
				c-6.7,1.4-12.5,2.1-17.4,2.1c-7.5,0-13.2-1.7-17.3-5c-4-3.3-6.5-7.8-7.5-13.3l-0.9-8.6c-6.9,9.1-15.3,15.9-25.1,20.7
				C421,392,410.5,394.4,399.3,394.4z M410.5,365.4c6.7,0,13-1.2,19.1-3.5c6-2.4,10.7-5.5,14-9.4c4.3-3.3,6.5-7.1,6.5-11.2v-17.7
				c-4.7-1.8-9.8-3.2-15.4-4.3s-10.8-1.6-15.9-1.6c-10.2,0-18.6,2.3-25.1,6.9c-6.5,4.6-9.7,10.5-9.7,17.6c0,6.7,2.6,12.3,7.7,16.7
				C396.7,363.2,403,365.4,410.5,365.4z"/>
			<path class="st1" d="M670.4,391.4h-39.6v-86.8c0-12.4-2.2-21.5-6.5-27.2c-4.3-5.7-10.3-8.6-18-8.6c-3.9,0-8,0.8-12.1,2.4
				c-4.1,1.6-8,3.8-11.7,6.6c-3.6,2.9-6.9,6.2-9.9,10.2c-3,3.9-5.1,8.3-6.5,13v90.4h-39.6V236.6h35.7v28.7c5.7-9.8,14-17.5,24.8-23
				c10.8-5.5,23-8.3,36.6-8.3c9.6,0,17.5,1.8,23.6,5.3c6.1,3.5,10.8,8.2,14.2,13.9c3.3,5.7,5.7,12.2,6.9,19.5
				c1.3,7.3,1.9,14.7,1.9,22.1V391.4z"/>
			<path class="st1" d="M769.1,394.4c-10.6,0-20.5-2.1-29.5-6.2c-9.1-4.1-16.8-9.8-23.3-17.1c-6.5-7.3-11.6-15.8-15.2-25.5
				c-3.6-9.8-5.5-20.2-5.5-31.5c0-11.2,1.7-21.7,5.2-31.3c3.4-9.6,8.2-18.1,14.3-25.4c6.1-7.3,13.4-13,21.9-17.1
				c8.5-4.1,17.7-6.2,27.8-6.2c11.4,0,21.7,2.8,30.9,8.3c9.2,5.5,16.3,12.7,21.4,21.6v-88h39.6v170.1c0,4.1,0.7,7.1,2.1,8.9
				c1.4,1.8,3.7,2.8,7.1,3v33.7c-6.9,1.4-12.5,2.1-16.8,2.1c-7.1,0-12.9-1.8-17.4-5.3c-4.5-3.5-7.1-8.2-7.7-13.9l-0.9-9.7
				c-5.7,9.8-13.4,17.3-23.2,22.3C789.9,391.9,779.7,394.4,769.1,394.4z M779.4,360.7c3.7,0,7.6-0.6,11.5-1.9
				c3.9-1.3,7.6-3.1,10.9-5.5c3.3-2.4,6.4-5.1,9-8.3c2.7-3.1,4.7-6.6,6.1-10.3v-36.9c-1.6-4.3-3.8-8.3-6.6-12
				c-2.9-3.6-6.1-6.8-9.7-9.4c-3.6-2.7-7.5-4.8-11.5-6.3c-4-1.6-8-2.4-12-2.4c-5.9,0-11.4,1.3-16.4,3.8c-5,2.6-9.3,6.1-12.9,10.5
				c-3.5,4.4-6.3,9.5-8.3,15.2c-2,5.7-3,11.6-3,17.7c0,6.5,1.1,12.5,3.2,18c2.2,5.5,5.1,10.3,8.9,14.5c3.7,4.1,8.2,7.4,13.4,9.8
				C767.3,359.5,773.1,360.7,779.4,360.7z"/>
			<path class="st1" d="M895.5,215.1v-39.3h39.6v39.3H895.5z M895.5,391.4V236.6h39.6v154.8H895.5z"/>
			<path class="st1" d="M1114.6,391.4H1075v-86.8c0-12.4-2.2-21.5-6.5-27.2c-4.3-5.7-10.3-8.6-18-8.6c-3.9,0-8,0.8-12.1,2.4
				c-4.1,1.6-8,3.8-11.7,6.6c-3.6,2.9-6.9,6.2-9.9,10.2c-3,3.9-5.1,8.3-6.5,13v90.4h-39.6V236.6h35.7v28.7c5.7-9.8,14-17.5,24.8-23
				c10.8-5.5,23-8.3,36.6-8.3c9.6,0,17.5,1.8,23.6,5.3c6.1,3.5,10.8,8.2,14.2,13.9c3.3,5.7,5.7,12.2,6.9,19.5
				c1.3,7.3,1.9,14.7,1.9,22.1V391.4z"/>
			<path class="st1" d="M1209.7,392.3c-10.4,0-19.9-2.1-28.4-6.2c-8.5-4.1-15.8-9.8-22-17c-6.2-7.2-11-15.5-14.3-25
				c-3.3-9.5-5-19.5-5-30.1c0-11.2,1.8-21.7,5.3-31.3c3.5-9.6,8.5-18.1,14.8-25.4c6.3-7.3,13.9-13,22.7-17.1
				c8.9-4.1,18.6-6.2,29.2-6.2c12,0,22.5,2.7,31.6,8.1c9.1,5.4,16.5,12.7,22.4,21.7v-27.2h34.6V384c0,11.4-2.2,21.7-6.5,30.7
				c-4.3,9.1-10.3,16.7-17.9,23c-7.6,6.3-16.6,11.1-27.2,14.5c-10.5,3.3-22,5-34.4,5c-16.9,0-31.2-2.8-42.7-8.4
				c-11.5-5.6-21.4-13.5-29.7-23.8l21.6-21c5.9,7.3,13.3,13,22.3,17.1c9,4.1,18.5,6.2,28.5,6.2c6.1,0,12-0.8,17.6-2.5
				c5.6-1.7,10.6-4.3,14.9-7.8c4.3-3.5,7.7-8.1,10.2-13.6c2.5-5.5,3.7-12,3.7-19.5v-19.5c-5.1,8.9-12.3,15.7-21.6,20.5
				C1230.3,389.9,1220.4,392.3,1209.7,392.3z M1223,360.7c4.3,0,8.5-0.7,12.4-2.1c3.9-1.4,7.6-3.2,10.9-5.6c3.3-2.4,6.3-5.1,8.9-8.3
				c2.6-3.1,4.5-6.5,5.9-10v-36.9c-3.5-9.1-9.1-16.3-16.7-21.9c-7.6-5.5-15.5-8.3-23.8-8.3c-6.1,0-11.6,1.3-16.5,4
				c-4.9,2.7-9.2,6.2-12.7,10.6c-3.5,4.4-6.3,9.5-8.1,15.2c-1.9,5.7-2.8,11.6-2.8,17.7c0,6.3,1.1,12.2,3.2,17.7
				c2.2,5.5,5.2,10.3,9,14.5c3.8,4.1,8.3,7.4,13.4,9.8C1211.3,359.5,1216.9,360.7,1223,360.7z"/>
			<path class="st1" d="M1500.1,394.4c-12.2,0-22.8-2.7-31.9-8.1c-9.1-5.4-16.2-12.7-21.3-22v90.1h-39.6V236.6h34.6v26.6
				c5.7-9.1,13.1-16.2,22.1-21.4c9.1-5.2,19.5-7.8,31.3-7.8c10.4,0,20.1,2.1,28.9,6.3c8.9,4.2,16.5,9.9,22.9,17.1
				c6.4,7.2,11.4,15.7,15.1,25.4c3.6,9.7,5.5,20,5.5,30.9c0,11.2-1.7,21.8-5,31.6c-3.3,9.9-8,18.4-14,25.7c-6,7.3-13.1,13-21.4,17.1
				C1519,392.3,1509.9,394.4,1500.1,394.4z M1486.8,360.7c5.9,0,11.4-1.3,16.4-3.8c5-2.6,9.3-6,12.9-10.3c3.5-4.3,6.3-9.4,8.3-15.1
				c2-5.7,3-11.6,3-17.7c0-6.5-1.1-12.6-3.2-18.2c-2.2-5.6-5.2-10.5-9-14.6c-3.8-4.1-8.4-7.4-13.6-9.8c-5.2-2.4-10.9-3.5-17-3.5
				c-3.7,0-7.6,0.6-11.5,1.9c-3.9,1.3-7.6,3.1-10.9,5.5c-3.4,2.4-6.3,5.1-9,8.3c-2.7,3.1-4.7,6.6-6.1,10.3V330
				c3.5,8.9,9,16.2,16.2,22C1470.4,357.8,1478.3,360.7,1486.8,360.7z"/>
			<path class="st1" d="M1636.8,394.4c-7.5,0-14.5-1.2-21-3.7c-6.5-2.5-12.1-5.9-16.8-10.3c-4.7-4.4-8.4-9.6-11.1-15.5
				c-2.7-5.9-4-12.4-4-19.5c0-7.3,1.6-14,4.9-20.2c3.2-6.2,7.8-11.5,13.6-15.8c5.8-4.3,12.7-7.7,20.8-10.2
				c8.1-2.5,16.9-3.7,26.6-3.7c6.9,0,13.6,0.6,20.2,1.8c6.6,1.2,12.5,2.9,17.6,5v-8.9c0-10.2-2.9-18.1-8.7-23.6
				c-5.8-5.5-14.4-8.3-25.8-8.3c-8.3,0-16.3,1.5-24.2,4.4c-7.9,3-15.9,7.3-24.2,13l-12.1-25.1c19.9-13.2,41.4-19.8,64.4-19.8
				c22.3,0,39.5,5.5,51.8,16.4c12.3,10.9,18.5,26.7,18.5,47.4v48.1c0,4.1,0.7,7.1,2.2,8.9c1.5,1.8,3.9,2.8,7.2,3v33.7
				c-6.7,1.4-12.5,2.1-17.4,2.1c-7.5,0-13.2-1.7-17.3-5c-4-3.3-6.5-7.8-7.5-13.3l-0.9-8.6c-6.9,9.1-15.3,15.9-25.1,20.7
				C1658.6,392,1648,394.4,1636.8,394.4z M1648,365.4c6.7,0,13-1.2,19.1-3.5c6-2.4,10.7-5.5,14-9.4c4.3-3.3,6.5-7.1,6.5-11.2v-17.7
				c-4.7-1.8-9.8-3.2-15.4-4.3c-5.5-1.1-10.8-1.6-15.9-1.6c-10.2,0-18.6,2.3-25.1,6.9c-6.5,4.6-9.7,10.5-9.7,17.6
				c0,6.7,2.6,12.3,7.7,16.7C1634.2,363.2,1640.5,365.4,1648,365.4z"/>
			<path class="st1" d="M1824.6,392.3c-10.4,0-19.9-2.1-28.4-6.2c-8.5-4.1-15.8-9.8-22-17c-6.2-7.2-11-15.5-14.3-25
				c-3.3-9.5-5-19.5-5-30.1c0-11.2,1.8-21.7,5.3-31.3c3.5-9.6,8.5-18.1,14.8-25.4c6.3-7.3,13.9-13,22.7-17.1
				c8.9-4.1,18.6-6.2,29.2-6.2c12,0,22.5,2.7,31.6,8.1c9.1,5.4,16.5,12.7,22.4,21.7v-27.2h34.6V384c0,11.4-2.2,21.7-6.5,30.7
				c-4.3,9.1-10.3,16.7-17.9,23c-7.6,6.3-16.6,11.1-27.2,14.5c-10.5,3.3-22,5-34.4,5c-16.9,0-31.2-2.8-42.7-8.4
				c-11.5-5.6-21.4-13.5-29.7-23.8l21.6-21c5.9,7.3,13.3,13,22.3,17.1c9,4.1,18.5,6.2,28.5,6.2c6.1,0,12-0.8,17.6-2.5
				c5.6-1.7,10.6-4.3,14.9-7.8c4.3-3.5,7.7-8.1,10.2-13.6c2.5-5.5,3.7-12,3.7-19.5v-19.5c-5.1,8.9-12.3,15.7-21.6,20.5
				C1845.2,389.9,1835.3,392.3,1824.6,392.3z M1837.9,360.7c4.3,0,8.5-0.7,12.4-2.1c3.9-1.4,7.6-3.2,10.9-5.6
				c3.3-2.4,6.3-5.1,8.9-8.3c2.6-3.1,4.5-6.5,5.9-10v-36.9c-3.5-9.1-9.1-16.3-16.7-21.9c-7.6-5.5-15.5-8.3-23.8-8.3
				c-6.1,0-11.6,1.3-16.5,4c-4.9,2.7-9.2,6.2-12.7,10.6c-3.5,4.4-6.3,9.5-8.1,15.2c-1.9,5.7-2.8,11.6-2.8,17.7
				c0,6.3,1.1,12.2,3.2,17.7c2.2,5.5,5.2,10.3,9,14.5c3.8,4.1,8.3,7.4,13.4,9.8C1826.2,359.5,1831.8,360.7,1837.9,360.7z"/>
			<path class="st1" d="M2023.1,394.4c-12.4,0-23.6-2.1-33.7-6.4c-10-4.2-18.6-10-25.7-17.3c-7.1-7.3-12.6-15.7-16.4-25.4
				c-3.8-9.6-5.8-19.8-5.8-30.4c0-11,1.9-21.4,5.6-31.2c3.7-9.7,9.2-18.3,16.2-25.7c7.1-7.4,15.7-13.2,25.8-17.6
				c10.1-4.3,21.5-6.5,34.1-6.5c12.6,0,23.9,2.2,33.8,6.5c9.9,4.3,18.4,10.1,25.4,17.4c7,7.3,12.3,15.8,15.9,25.4
				c3.6,9.6,5.5,19.7,5.5,30.1c0,2.6-0.1,5-0.1,7.4c-0.1,2.4-0.3,4.3-0.7,5.9h-119.6c0.6,6.1,2.1,11.5,4.4,16.2
				c2.4,4.7,5.4,8.8,9.2,12.1c3.7,3.3,8,5.9,12.7,7.7c4.7,1.8,9.6,2.7,14.8,2.7c7.9,0,15.3-1.9,22.3-5.8c7-3.8,11.8-8.9,14.3-15.2
				l34,9.5c-5.7,11.8-14.8,21.5-27.3,29.1C2055.4,390.6,2040.4,394.4,2023.1,394.4z M2063.3,301c-1-11.6-5.3-20.9-12.8-27.9
				c-7.6-7-16.8-10.5-27.6-10.5c-5.3,0-10.3,0.9-14.9,2.8c-4.6,1.9-8.7,4.5-12.3,7.8c-3.5,3.3-6.5,7.4-8.7,12.1
				c-2.3,4.7-3.6,9.9-4,15.7H2063.3z"/>
			<path class="st1" d="M184.3,487.6h39.6v166c0,5.7,1.4,10.1,4.1,13.3c2.8,3.1,6.7,4.7,11.8,4.7c2.4,0,5-0.4,7.8-1.2
				c2.9-0.8,5.6-1.8,8.1-3l5.3,30.1c-5.3,2.6-11.5,4.5-18.6,5.9c-7.1,1.4-13.5,2.1-19.2,2.1c-12.4,0-22-3.3-28.8-9.9
				c-6.8-6.6-10.2-16-10.2-28.2V487.6z"/>
			<path class="st1" d="M320.4,706.1c-7.5,0-14.5-1.2-21-3.7c-6.5-2.5-12.1-5.9-16.8-10.3c-4.7-4.4-8.4-9.6-11.1-15.5
				c-2.7-5.9-4-12.4-4-19.5c0-7.3,1.6-14,4.9-20.2c3.2-6.2,7.8-11.5,13.6-15.8c5.8-4.3,12.7-7.7,20.8-10.2
				c8.1-2.5,16.9-3.7,26.6-3.7c6.9,0,13.6,0.6,20.2,1.8c6.6,1.2,12.5,2.9,17.6,5v-8.9c0-10.2-2.9-18.1-8.7-23.6
				c-5.8-5.5-14.4-8.3-25.8-8.3c-8.3,0-16.3,1.5-24.2,4.4c-7.9,3-16,7.3-24.2,13l-12.1-25.1c19.9-13.2,41.3-19.8,64.4-19.8
				c22.2,0,39.5,5.5,51.8,16.4c12.3,10.9,18.5,26.7,18.5,47.4v48.1c0,4.1,0.7,7.1,2.2,8.9c1.5,1.8,3.9,2.8,7.2,3v33.7
				c-6.7,1.4-12.5,2.1-17.4,2.1c-7.5,0-13.2-1.7-17.3-5c-4-3.3-6.5-7.8-7.5-13.3l-0.9-8.6c-6.9,9.1-15.3,15.9-25.1,20.7
				C342.2,703.8,331.6,706.1,320.4,706.1z M331.6,677.2c6.7,0,13-1.2,19.1-3.5c6-2.4,10.7-5.5,14-9.5c4.3-3.3,6.5-7.1,6.5-11.2
				v-17.7c-4.7-1.8-9.8-3.2-15.4-4.3c-5.5-1.1-10.8-1.6-16-1.6c-10.2,0-18.6,2.3-25.1,6.9c-6.5,4.6-9.8,10.5-9.8,17.6
				c0,6.7,2.6,12.3,7.7,16.7C317.9,675,324.2,677.2,331.6,677.2z"/>
			<path class="st1" d="M447.1,733.3c3.3,1,6.6,1.7,9.8,2.2c3.1,0.5,5.8,0.7,8,0.7c2.6,0,4.9-0.5,7.1-1.5c2.2-1,4.1-2.7,5.9-5.2
				c1.8-2.5,3.5-5.9,5.3-10.2c1.8-4.3,3.6-9.7,5.6-16.2l-61.1-154.8h40.8l41.9,120.5l37.2-120.5h37.2l-65,185.5
				c-3.7,10.8-10.1,19.7-19.2,26.6c-9.1,6.9-20.3,10.3-33.7,10.3c-3.1,0-6.3-0.2-9.6-0.7c-3.2-0.5-6.6-1.3-10.2-2.5V733.3z"/>
			<path class="st1" d="M672.5,706.1c-12.6,0-23.9-2.2-34-6.5c-10-4.3-18.6-10.2-25.6-17.6c-7-7.4-12.4-15.9-16.1-25.5
				c-3.7-9.6-5.6-19.8-5.6-30.4c0-10.8,1.9-21.1,5.6-30.7c3.7-9.6,9.1-18.2,16.1-25.5c7-7.4,15.5-13.2,25.6-17.6
				c10-4.3,21.4-6.5,34-6.5c12.6,0,23.9,2.2,33.8,6.5c9.9,4.3,18.4,10.2,25.4,17.6c7,7.4,12.4,15.9,16.1,25.5
				c3.7,9.6,5.6,19.9,5.6,30.7c0,10.6-1.9,20.8-5.6,30.4c-3.7,9.7-9.1,18.2-15.9,25.5c-6.9,7.4-15.4,13.2-25.4,17.6
				C696.4,704,685.1,706.1,672.5,706.1z M632,626.1c0,6.9,1,13.1,3.1,18.8c2.1,5.6,4.9,10.5,8.6,14.6c3.6,4.1,7.9,7.3,12.9,9.6
				c4.9,2.3,10.2,3.4,15.9,3.4c5.7,0,11-1.1,16-3.4c4.9-2.3,9.2-5.5,12.8-9.6c3.6-4.1,6.5-9.1,8.6-14.8c2.1-5.7,3.1-12,3.1-18.9
				c0-6.7-1-12.9-3.1-18.6c-2.1-5.7-4.9-10.6-8.6-14.8c-3.6-4.1-7.9-7.3-12.8-9.6c-4.9-2.3-10.2-3.4-16-3.4c-5.7,0-11,1.2-15.9,3.5
				c-4.9,2.4-9.2,5.6-12.9,9.8c-3.6,4.1-6.5,9.1-8.6,14.8C633.1,613.2,632,619.4,632,626.1z"/>
			<path class="st1" d="M827.3,706.1c-16,0-28.1-5.1-36.3-15.4c-8.3-10.2-12.4-25.4-12.4-45.5v-96.9h39.6v88.3
				c0,23.8,8.6,35.7,25.7,35.7c7.7,0,15.1-2.3,22.3-6.9c7.2-4.6,13-11.7,17.6-21.1v-96h39.6v109.3c0,4.1,0.7,7.1,2.2,8.9
				c1.5,1.8,3.9,2.8,7.2,3v33.7c-3.9,0.8-7.2,1.3-9.9,1.5c-2.7,0.2-5.1,0.3-7.2,0.3c-7.1,0-12.8-1.6-17.3-4.9
				c-4.4-3.2-7-7.7-7.8-13.4l-0.9-12.4c-6.9,10.6-15.8,18.6-26.6,23.9C852.2,703.5,840.2,706.1,827.3,706.1z"/>
			<path class="st1" d="M1055.3,695.2c-5.3,2.4-11.8,4.7-19.5,7.1c-7.7,2.4-15.8,3.5-24.2,3.5c-5.5,0-10.7-0.7-15.5-2.1
				c-4.8-1.4-9.1-3.6-12.7-6.7c-3.6-3-6.5-7-8.7-11.8c-2.2-4.8-3.3-10.7-3.3-17.6v-88.9H951v-30.4h20.4v-50.2h39.6v50.2h32.5v30.4
				H1011v75.6c0,5.5,1.4,9.4,4.3,11.7c2.9,2.3,6.3,3.4,10.5,3.4c4.1,0,8.2-0.7,12.1-2.1c3.9-1.4,7.1-2.6,9.5-3.5L1055.3,695.2z"/>
		</g>
	</g>
	<g class="st2">
		<path class="st25" d="M1525.1,968.3c-1.4-5.5-3.6-10.6-6.4-15.3l6.5-9.7l-9-9l-9-9l-9.7,6.5c-4.7-2.8-9.9-5-15.3-6.4l-2.3-11.5
			h-12.7h-12.7l-2.3,11.5c-5.5,1.4-10.6,3.6-15.3,6.4l-9.7-6.5l-9,9l-9,9l6.5,9.7c-2.8,4.7-5,9.9-6.4,15.3l-11.5,2.3v12.7V996
			l11.5,2.3c1.4,5.5,3.6,10.6,6.4,15.3l-6.5,9.7l9,9l9,9l9.7-6.5c4.7,2.8,9.9,5,15.3,6.4l2.3,11.5h12.7h12.7l2.3-11.5
			c5.5-1.4,10.6-3.6,15.3-6.4l9.7,6.5l9-9l9-9l-6.5-9.7c2.8-4.7,5-9.9,6.4-15.3l11.5-2.3v-12.7v-12.7L1525.1,968.3z M1467.1,1027.9
			c-24.6,0-44.5-19.9-44.5-44.5c0-24.6,19.9-44.5,44.5-44.5c24.6,0,44.5,19.9,44.5,44.5C1511.7,1007.9,1491.7,1027.9,1467.1,1027.9z
			"/>
	</g>
	<g class="st2">
		<path class="st25" d="M1608.1,924.9c-0.6-2.5-1.6-4.9-2.9-7l3-4.5l-4.1-4.1l-4.1-4.1l-4.5,3c-2.2-1.3-4.5-2.3-7-2.9l-1.1-5.3h-5.8
			h-5.8l-1.1,5.3c-2.5,0.6-4.9,1.6-7,2.9l-4.5-3l-4.1,4.1l-4.1,4.1l3,4.5c-1.3,2.2-2.3,4.5-2.9,7l-5.3,1.1v5.8v5.8l5.3,1.1
			c0.6,2.5,1.6,4.9,2.9,7l-3,4.5l4.1,4.1l4.1,4.1l4.5-3c2.2,1.3,4.5,2.3,7,2.9l1.1,5.3h5.8h5.8l1.1-5.3c2.5-0.6,4.9-1.6,7-2.9l4.5,3
			l4.1-4.1l4.1-4.1l-3-4.5c1.3-2.2,2.3-4.5,2.9-7l5.3-1.1v-5.8V926L1608.1,924.9z M1581.6,952.2c-11.3,0-20.4-9.1-20.4-20.4
			c0-11.3,9.1-20.4,20.4-20.4c11.3,0,20.4,9.1,20.4,20.4C1602,943.1,1592.9,952.2,1581.6,952.2z"/>
	</g>
	<path class="st26" d="M1919.4,1731.1h-797.5c-29.4,0-53.2-23.8-53.2-53.2v-519.2c0-29.4,23.8-53.2,53.2-53.2h797.5
		c29.4,0,53.2,23.8,53.2,53.2v519.2C1972.6,1707.3,1948.8,1731.1,1919.4,1731.1z"/>
	<rect x="1517" y="1098.4" class="st27" width="7.4" height="640"/>
	<g class="st2">
		<rect x="1129.7" y="1171.4" class="st28" width="332.1" height="12.6"/>
		<rect x="1129.7" y="1217.4" class="st28" width="332.1" height="12.6"/>
		<rect x="1129.7" y="1263.4" class="st28" width="332.1" height="12.6"/>
		<rect x="1129.7" y="1309.4" class="st28" width="332.1" height="12.6"/>
		<rect x="1129.7" y="1355.4" class="st28" width="332.1" height="12.6"/>
		<rect x="1129.7" y="1401.4" class="st28" width="332.1" height="12.6"/>
		<rect x="1129.7" y="1447.5" class="st28" width="332.1" height="12.6"/>
		<rect x="1129.7" y="1493.5" class="st28" width="332.1" height="12.6"/>
		<rect x="1129.7" y="1539.5" class="st28" width="332.1" height="12.6"/>
		<rect x="1129.7" y="1585.5" class="st28" width="332.1" height="12.6"/>
		<rect x="1129.7" y="1631.5" class="st28" width="332.1" height="12.6"/>
	</g>
	<g class="st2">
		<rect x="1577.6" y="1171.4" class="st28" width="332.1" height="12.6"/>
		<rect x="1577.6" y="1217.4" class="st28" width="332.1" height="12.6"/>
		<rect x="1577.6" y="1263.4" class="st28" width="332.1" height="12.6"/>
		<rect x="1577.6" y="1309.4" class="st28" width="332.1" height="12.6"/>
		<rect x="1577.6" y="1355.4" class="st28" width="332.1" height="12.6"/>
		<rect x="1577.6" y="1401.4" class="st28" width="332.1" height="12.6"/>
		<rect x="1577.6" y="1447.5" class="st28" width="332.1" height="12.6"/>
		<rect x="1577.6" y="1493.5" class="st28" width="332.1" height="12.6"/>
		<rect x="1577.6" y="1539.5" class="st28" width="332.1" height="12.6"/>
		<rect x="1577.6" y="1585.5" class="st28" width="332.1" height="12.6"/>
		<rect x="1577.6" y="1631.5" class="st28" width="332.1" height="12.6"/>
	</g>
	<g class="st2">
		<g class="st3">
			<g>
				<path class="st29" d="M1261.5,1280.7c0,0,5-8.8-3-32.5c-7.7-22.9-34.5-20.8-43.1-6.2s-5.6,23.8,6.9,40.3
					C1234.9,1299,1256.3,1288.3,1261.5,1280.7z"/>
			</g>
		</g>
		<g class="st3">
			<g>
				<path class="st29" d="M1199.2,1688c0,0-1.3,9.7-1.5,11.2c-0.2,1.5-14.8-0.9-14.8-0.9l-1.2-11.6
					C1181.8,1686.8,1197.4,1686.7,1199.2,1688z"/>
			</g>
		</g>
		<g class="st3">
			<g>
				<path class="st30" d="M1197.9,1698c0,0,4.6,5.9,9.1,8.4c4.5,2.6,11.5,3.6,14.1,6.2c1.9,1.9,7,10.1-11.6,10
					c-18.6-0.2-27.5,1.2-29.5-2c-2-3.1,2.9-23.2,2.9-23.2S1187.4,1698.6,1197.9,1698z"/>
			</g>
		</g>
		<g class="st3">
			<g>
				<path class="st29" d="M1300.2,1688c0,0-1.3,9.7-1.5,11.2c-0.2,1.5-14.8-0.9-14.8-0.9l-1.2-11.6
					C1282.8,1686.8,1298.4,1686.7,1300.2,1688z"/>
			</g>
		</g>
		<g class="st3">
			<g>
				<path class="st30" d="M1298.9,1698c0,0,4.6,5.9,9.1,8.4c4.5,2.6,20.9,4.7,23.6,7.3c1.9,1.9,5.1,9.6-21,8.9
					c-18.6-0.5-27.5,1.2-29.5-2c-2-3.1,2.9-23.2,2.9-23.2S1289.7,1698.3,1298.9,1698z"/>
			</g>
		</g>
		<g class="st3">
			<g>
				<path class="st31" d="M1204.1,1445.9c0,0-7.5,23.2-6.5,43.3c1,20-3.9,41.9-5.9,62.9c-2.2,23.3-11.3,78.5-11.6,91
					c-0.3,12.5,1.4,52.3,1.4,52.3l18.1,0.4c0,0,15.2-96.5,19.2-106.4c3.9-9.9,23.5-80.1,24.1-88
					C1243.7,1493.6,1204.1,1445.9,1204.1,1445.9z"/>
			</g>
		</g>
		<g class="st3">
			<g>
				<path class="st31" d="M1279.3,1443.5c0,0,11,61.5,12.3,73.7c1.3,12.3,2.2,59.3,2.8,67c0.7,7.7,4.4,100.3,7.9,111.6h-20.2
					c0,0-20.7-67.3-20.7-99.2s-13.7-69.2-22.6-90.3c-8.9-21-29.2-21.5-34.6-60.5C1204.1,1445.9,1271.9,1431.1,1279.3,1443.5z"/>
			</g>
		</g>
		<g class="st3">
			<g>
				<path class="st29" d="M1254.2,1287c0,0-2.3,6.6,0,11.4c2.3,4.7-29.1,1.9-29.1,1.9s1.4-9.8-2.7-17.8
					C1218.3,1274.3,1254.2,1287,1254.2,1287z"/>
			</g>
		</g>
		<g class="st3">
			<g>
				<path class="st31" d="M1202.7,1451c0,0,11.3,11.6,77.6-1.8l-1-5.7l-75.4,2.8L1202.7,1451z"/>
			</g>
		</g>
		<g class="st3">
			<g>
				<path class="st29" d="M1258.9,1299.9c0,0,11.6,1.2,14.9,1.8s25.6-4,30.2-4.5c4.6-0.5,24.1-13.8,24.7-15.4
					c0.6-1.6,11.9-30,12.5-36.2c0.6-6.2,10.9-3,10.1,1.3c-1.7,7.9-3.8,27.2-4.9,32.8c-1.3,6-4.6,19.7-6.5,21.3
					c-1.9,1.7-19.5,15-36.6,20.7c-17.2,5.7-30.1,14-30.1,14h-84.7c0,0-33-47.1-33.7-54.2c-0.7-7.1,23-54.3,27.8-60.2
					c4.7-5.9,11.6,1.9,11.6,1.9s-14.2,41.6-16.1,47.5c-1.9,5.9,16.5,31.9,21.5,32c5,0.1,18-1.6,23.8-1.8c5.8-0.2,11.8-2.8,11.8-2.8
					L1258.9,1299.9z"/>
			</g>
		</g>
		<g class="st3">
			<g>
				<path class="st32" d="M1295.4,1331.3c0,0-10.4,6.9-11.3,18.7c-0.9,11.8-4.7,30.5-6.6,36.9c-1.9,6.4,1.7,52.8,2.1,56.1
					c0.5,3.3-65.6,11.2-75.7,3.3c0,0-2.8-43.3-4-55.6c-1.2-12.3-6.9-42.1-8.8-46.1c-1.9-4-24.8-36.2-25.8-40.5
					c0,0,11.9-18.9,20.4-19.2c0,0,13.5,15.9,17.9,16.6c4.4,0.7,31.4-4.2,31.4-4.3c0,0,3,4,18.6-0.7c0,0,18.7,2.1,21.7,2.5
					c3.7,0.5,29.3-3.2,29.3-3.2s10.3,17.3,8.5,26.1L1295.4,1331.3z"/>
			</g>
		</g>
		<g class="st3">
			<g>
				<path class="st29" d="M1340.6,1249.3c0,0,2.3-11-0.5-14.1c-1.6-1.8-5.4-6.5-5.8-7.2c-0.3-0.7-4.4-3.1-4.4-4.2s4-2.5,7.5,0.7
					c3.5,3.2,5.7,3.9,7.1,3.6c1.4-0.3,3.4-11.9,3.6-14.8c0.2-2.9,1.3-10.5,3.1-9.9c1.8,0.5,1.7,3.8,1.7,3.8s2.1-5.8,3.5-4.6
					c1.4,1.1,1.2,3.9,1.2,3.9s2.6-3.2,3.3-0.9c0.7,2.4,0,4.4,0,4.4s2.7-1.5,2.9,2.2c0.2,3.7-0.8,14.4-2.7,18.2
					c-1.9,3.8-9.1,13.9-10,17.8C1350.2,1252.1,1340.6,1249.3,1340.6,1249.3z"/>
			</g>
		</g>
		<g class="st3">
			<g>
				<path class="st29" d="M1191.6,1230.1c0,0,7.9-13.3,10.6-14.4c2.7-1.2,6.5-1.9,9.8-4.2s7.7-4.3,7.5-5.1c-0.2-0.8-4.1-0.5-8.3,1.3
					c-4.2,1.8-6,0.9-6.4,0c-0.4-0.9,2.2-7.6,3.5-9.2c1.3-1.6,10.3-10.6,8.8-12c-1.5-1.3-7.3,3.6-8.3,4.7c0,0,4.7-9.8,2.8-10.3
					c-1.8-0.5-5.2,3-5.2,3s0.4-8.4-8.6,5.2c0,0,1.9-4.5-0.9-3c-2.8,1.5-5.4,9.9-6.3,14.2c-0.9,4.3-4.8,17.8-8.2,21.1
					C1179,1224.6,1191.6,1230.1,1191.6,1230.1z"/>
			</g>
		</g>
		<g class="st3">
			<g>
				<path class="st33" d="M1222.4,1282.4c0,0,4.2,0.4,13-2.7c8.8-3,9.5-18.5,11.4-16.7c3.9,3.7,7.6,1.2,9.1-1.1c0,0-4.3-5.7-2.3-8.4
					c2-2.7,5.3-4.7,5.3-4.7s-6.2-29.9-34.5-16.3C1191.1,1248.5,1222.4,1282.4,1222.4,1282.4z"/>
			</g>
		</g>
		<g class="st3">
			<g>
				<path class="st32" d="M1254.2,1298.3l-1-4.3c0,0-18-0.4-27.9,1.1l-1,5.2C1224.2,1300.2,1236.8,1305.9,1254.2,1298.3z"/>
			</g>
		</g>
		<g class="st3">
			<g>
				<path class="st29" d="M1249.7,1259.3c-1.6-2.7-7.7-4.6-8.4,3.2c-0.6,6,10.8,12.5,10.9,6.9
					C1252.3,1263.8,1250.8,1261.1,1249.7,1259.3z"/>
			</g>
		</g>
		<g class="st3">
			<g>
				<path class="st34" d="M1341,1246.8c0,0,6.5,0.2,9.7,3c0,0,0.2,1.8-0.5,3.2c0,0-5.6-2.6-10-3.1
					C1340.2,1250,1340.3,1247.6,1341,1246.8z"/>
			</g>
		</g>
		<g class="st3">
			<g>
				<path class="st33" d="M1348.7,1248.5c0.6,1.4-0.1,3.1-1.5,3.7c-1.4,0.6-3.1-0.1-3.7-1.5c-0.6-1.4,0.1-3.1,1.5-3.7
					C1346.5,1246.4,1348.1,1247,1348.7,1248.5z"/>
			</g>
		</g>
		<g class="st3">
			<polygon class="st35" points="1163.5,1725.3 1340.4,1725.3 1284.6,1896.5 1289.8,1898.2 1347.9,1719.8 1159.5,1719.8 
				1102,1896.5 1107.2,1898.2 			"/>
		</g>
		<g class="st3">
			<polygon class="st35" points="1223.7,1896.5 1168,1725.3 1344.8,1725.3 1401.1,1898.2 1406.3,1896.5 1348.8,1719.8 
				1160.4,1719.8 1218.5,1898.2 			"/>
		</g>
		<g class="st3">
			<rect x="1147" y="1773.8" class="st35" width="216.5" height="5.5"/>
		</g>
		<g class="st3">
			<rect x="1124.7" y="1833.3" class="st35" width="259" height="5.5"/>
		</g>
	</g>
	<g class="st2">
		<g class="st3">
			<path class="st36" d="M1909.4,1639.8c-0.1,145.6-4.1,174.2-40.7,206.8c-14.3,12.8-40.7,39.3-116.7,52.5
				c-22.8,4-50.1,6.7-82.9,7.6c-13.4,0.3-25.6-0.1-36.9-1.4c-9.4-1-18.1-2.6-26.1-4.6c-83.5-20.9-89.8-92.5-53.2-152.7
				c9.7-15.9,20.7-30.6,32.3-44.3c17.9-21.1,37.1-39.8,54.4-57.3c16-16.1,30.5-31.2,41-46.1c4.4-6.3,8.2-12.5,11-18.8
				c0.7-1.5,1.4-3,2-4.4c2.3-4.7,4.6-9.3,6.9-13.6c4.4-8.2,8.9-15.6,13.2-22.3c3.4-5.3,6.8-10.2,9.9-14.5c10.7-14.7,18.6-23,18.6-23
				s1-0.5,2.8-1.2c1-0.4,2.2-0.9,3.6-1.4c0.6-0.2,1.2-0.4,1.8-0.7c0.6-0.2,1.3-0.5,2-0.7c0.6-0.2,1.3-0.5,2-0.7
				c0.8-0.3,1.7-0.6,2.5-0.8c0.5-0.2,1-0.3,1.6-0.5c0.3-0.1,0.6-0.2,1-0.3c0.1,0,0.2-0.1,0.4-0.1c10.8-3.3,25.7-6.8,41.9-7.4
				C1849.9,1488.2,1909.4,1511.9,1909.4,1639.8z"/>
		</g>
		<g class="st3">
			<path class="st37" d="M1715.1,1859.1c0,0,1.2,9.8,2.8,14.1c1.6,4.3,10.2,14.2,6.6,23.8c-3.9,10.4-21.2,0.4-28.2-2.8
				c-7-3.2-5.4-8.9-6.2-15.9c-0.7-7-4.2-7.2-2.9-12.1c1.3-4.9,8.9-14.4,8.9-14.4L1715.1,1859.1z"/>
		</g>
		<g class="st3">
			<g>
				<path class="st29" d="M1699.4,1846.6c0,0-4.4,6.2-4.3,6.3c0.1,0.2,18.9,11.6,20.2,7.9c1-2.9,1.5-7.2,1.5-7.2L1699.4,1846.6z"/>
			</g>
		</g>
		<g class="st3">
			<path class="st37" d="M1635.8,1866c0,0-5.7,5-10.9,12.7c-5.1,7.7-18.8,8.1-19.4,18.6c-0.6,10.5,18.6,10.8,28.6,7.4
				c10-3.4,11.6-13.7,17.6-16.3c6.1-2.6,9.2-4.7,8.8-9.7c-0.5-5-3.8-13.2-3.8-13.2s-3.8,1.2-6,1.4
				C1648.5,1867.4,1641.1,1867.5,1635.8,1866z"/>
		</g>
		<g class="st3">
			<path class="st38" d="M1704.7,1580.9c0,0-3.9,22.9-7,38c0,0,0,0,0,0c-1.3,6.1-2.4,11-3.1,12.5c-0.9,1.9-8.1,9.7-17,18.8
				c-15.5,16-36,36.1-36,36.1l-8-15.2c0,0,18.2-21.4,30.6-35.6c5.7-6.6,10.2-11.7,11-12.4c2.6-2.3,5.6-25.1,9.8-43.8
				c4.2-18.7,12.7-29.1,12.7-29.1L1704.7,1580.9z"/>
		</g>
		<g class="st3">
			<path class="st29" d="M1677.6,1650.2c-15.5,16-36,36.1-36,36.1l-8-15.2c0,0,18.2-21.4,30.6-35.6
				C1667.9,1637.3,1674.9,1641.7,1677.6,1650.2z"/>
		</g>
		<g class="st3">
			<path class="st29" d="M1636.7,1859l-0.9,7c0,0,10,3.5,20.9-0.3l0.2-6.2L1636.7,1859z"/>
		</g>
		<g class="st3">
			<path class="st38" d="M1778.1,1683.2c0.6,2-105.5,0-105.5,0s29.3-21.4,31.2-27.1c1.9-5.7-7.5-39.9-8.7-51.1
				c-1-8.9-3.4-48.8,2.4-54.9c6.1-6.4,28.3-13,28.3-13l32.2,1.2c0,0,5.3,1.1,9.1,2.9s25.6,9.5,29.1,20.4
				c3.5,10.9-21.7,45.8-21.7,45.8s0,1.6-0.1,4.1c0,0,0,0,0,0c-0.1,3.4-0.2,8.6-0.4,14.3c-0.2,7.3-0.3,15.4-0.3,21.3
				C1773.8,1661,1777.5,1681.1,1778.1,1683.2z"/>
		</g>
		<g class="st3">
			<path class="st39" d="M1778.1,1683.2c0,0,14.4,21.2,14.6,35.7c0.2,14.5-25.6,62.9-29.5,69.9c-11.7,20.8-43.9,65.8-43.9,65.8
				s-5.6-0.1-22.9-6.9c0,0,21.4-59.4,24.1-65.5c11.5-26.1,17.9-44.7,14.1-49.2c-3.9-4.5-14.4-9-17.5-11.6
				c-3.1-2.6-56.3,10.1-61.9,11.5c-14.4,3.7-7.9,28.9-4.7,40.2c5.3,18.9,10,87,10,87s-10.3,4.4-27.5,0.7c0,0-33.8-123-34.9-135.2
				s-1.6-32.4,81.8-47.7L1778.1,1683.2z"/>
		</g>
		<g class="st3">
			<path class="st29" d="M1734.7,1467c0,0-28-6.3-21.6,28.9c6.4,35.2,13.1,38,30,30.7c16.9-7.3,15.4-29.9,16.2-40.9
				C1760.2,1474.7,1743.6,1467.4,1734.7,1467z"/>
		</g>
		<g class="st3">
			<path class="st29" d="M1727.3,1546.1c0,0,12.4,13.1,32,1.2c0,0-4.4-28.5-2.1-42.4c2.3-13.9-25.6,21.5-25.6,21.5
				c0.4,0.2,0.6,1.5,0.7,3.4c0,1.6,0,3.6-0.3,5.6C1731.4,1540.1,1730,1545,1727.3,1546.1z"/>
		</g>
		<g class="st3">
			<path class="st40" d="M1758,1503.8c0,0-0.7-11.1-4.8-11.4c-4.1-0.3-4.7,4.1-4.7,4.1l-4.1,0.8c0,0,1.3-9.7-2.8-11.4
				c-4-1.7-26.2,5.4-29.5,2.5c-3.2-2.9-1.7-22.6,4.2-25.3c5.9-2.7,22.1-8.8,34-0.7c0,0,9.3-1.1,10.6,6.4
				C1762.4,1476.3,1760.5,1498.3,1758,1503.8z"/>
		</g>
		<g class="st3">
			<path class="st41" d="M1732,1535.5c20.2-6.2,21.7-18.4,21.8-18.6c-6.7,11.4-21.5,12.9-21.5,12.9
				C1732.4,1531.5,1732.3,1533.5,1732,1535.5z"/>
		</g>
		<g class="st3">
			<path class="st29" d="M1767.6,1541.3c0,0-14.8,29.5-38.7,27.6c-23.9-1.9-4.1-31.5-3-31.8C1727,1536.8,1750.4,1531,1767.6,1541.3z
				"/>
		</g>
		<g class="st3">
			<path class="st38" d="M1660.5,1681.7c0,0,73.3,9,117.6,1.5l-84.8-10.6C1693.3,1672.6,1692.8,1674.8,1660.5,1681.7z"/>
		</g>
		<g class="st3">
			<path class="st29" d="M1715.3,1669.3l-5.5,2.8c0,0,1.2,8.7,4.2,11.3l6.1-1.6C1720.2,1681.8,1718.9,1672.2,1715.3,1669.3z"/>
		</g>
		<g class="st3">
			<path class="st38" d="M1800,1651.5c-1.1,1.3-15.5,7.1-31.8,13.3l0,0c-22.2,8.6-47.3,16.7-47.3,16.7l-5.7-12.2
				c0,0,26.3-14.3,44-24.3c8.4-4.7,14.9-8.5,15.8-9.4c2.9-2.7,3.6-7.1,1.5-14.7s-6.9-42.5-7.5-46.6c-0.5-4.1,1.4-14.9,11.5-15.5
				c10.2-0.5,15.4,2.3,15.4,2.3s2.6,1.1,4.5,25.8C1802.3,1611.7,1802.6,1648.5,1800,1651.5z"/>
		</g>
		<g class="st3">
			<path class="st42" d="M1774.5,1611.5C1774.5,1611.5,1774.5,1611.5,1774.5,1611.5c-0.1,3.4-0.2,8.6-0.4,14.3
				c-9.9-24.4-4.2-43.8-4.1-44.2C1768.9,1588.3,1774.4,1611.2,1774.5,1611.5z"/>
		</g>
		<g class="st3">
			<path class="st42" d="M1697.7,1618.9C1697.7,1618.9,1697.7,1618.9,1697.7,1618.9c-1.3,6.1-2.4,11-3.1,12.5
				c-3.4-16.4-0.3-37.5-0.3-37.5C1694.7,1604,1697.7,1618.9,1697.7,1618.9z"/>
		</g>
		<g class="st3">
			<path class="st29" d="M1768.3,1664.8L1768.3,1664.8c-22.2,8.6-48.1,16.9-48.1,16.9l-4.9-12.5c0,0,26.3-14.3,44-24.3
				C1759.3,1645,1765.7,1648.1,1768.3,1664.8z"/>
		</g>
		<g class="st3">
			<polygon class="st43" points="1713.7,1682.5 1609.5,1680.9 1662.1,1707.6 			"/>
		</g>
		<g class="st3">
			<polygon class="st44" points="1662.1,1707.6 1713.7,1687.7 1713.7,1682.5 1658,1702.5 			"/>
		</g>
		<g class="st3">
			<g>
				<path class="st29" d="M1711,1672.2c0,0-6.5-1-11-2.1c-3.5-0.8-12.1,0.3-14.3,2.5c-2.2,2.2-9.2,17.8-10.5,18.7
					c-1.3,0.9,0.7,3.1,3,2c0,0,2.1,6.8,7.4,4.3c5.3-2.5,8.9-8.1,11.6-9.1c2.8-1,18.8-5.9,18.8-5.9S1715.1,1670.6,1711,1672.2z"/>
			</g>
		</g>
		<g class="st3">
			<g>
				<path class="st29" d="M1687.2,1671.7c0,0-4.2,2-5.3,2.9c-1.1,0.9-5.5,4.2-6.6,5c-1.1,0.8,1.6,3,9.5-0.4
					C1692.8,1675.7,1687.2,1671.7,1687.2,1671.7z"/>
			</g>
		</g>
		<g class="st3">
			<polygon class="st44" points="1662.1,1707.6 1631.1,1623.1 1531.3,1624.7 1560.8,1702.6 			"/>
		</g>
		<g class="st3">
			<path class="st45" d="M1599.2,1660.5c3,6.1,2.1,12.7-2.1,14.8s-10-1.1-13.1-7.2c-3-6.1-2.1-12.7,2.1-14.8
				C1590.3,1651.2,1596.1,1654.4,1599.2,1660.5z"/>
		</g>
		<g class="st3">
			<path class="st29" d="M1748.6,1491.8c0.4-3.1,6.5-4.2,7,0.4c0.5,4.7-2.8,12.8-5.1,12C1748.2,1503.4,1748.1,1496.1,1748.6,1491.8z
				"/>
		</g>
		<g class="st3">
			<path class="st38" d="M1760,1496.7c0,6.3-3.6,11.4-8,11.4c-4.4,0-8-5.1-8-11.4c0-6.3,3.6-11.4,8-11.4
				C1756.4,1485.2,1760,1490.4,1760,1496.7z"/>
		</g>
		<g class="st3">
			<g>
				<path class="st38" d="M1755,1489.7l-3.6-0.6c0-0.2,2.7-17.7-4-25.4c-2.2-2.5-6.7-5.5-10.4-5.4l4.1,0c4.8-0.1,7.4,1.5,9,3
					C1758.5,1469.8,1755.1,1488.9,1755,1489.7z"/>
			</g>
		</g>
		<g class="st3">
			<path class="st38" d="M1734.2,1520.6l-0.7-1.4c13.6-6.7,17.7-20.4,17.8-20.5l1.5,0.5C1752.6,1499.7,1748.4,1513.6,1734.2,1520.6z
				"/>
		</g>
		<g class="st3">
			<path class="st38" d="M1736.5,1519.9c0,1.5-1.2,2.7-2.7,2.7c-1.5,0-2.7-1.2-2.7-2.7c0-1.5,1.2-2.7,2.7-2.7
				C1735.3,1517.2,1736.5,1518.4,1736.5,1519.9z"/>
		</g>
	</g>
	<g class="st2">
		<path class="st46" d="M1034.7,1574.8c0,0,12,0.7,15.4,2.6c3.4,1.9,26.2-5.3,26.6-7c0.4-1.7,0-2.5,0-2.5H1032L1034.7,1574.8z"/>
		<g class="st3">
			<path class="st47" d="M980.6,1521.7c0,0-3.8,30.2,0,34.2c14.7,15.1,69.1,13.9,69.1,13.9l0,6.1c0,0-82.7,10.3-90.4-5.7
				c-9.2-19.3-5.7-50.7-5.7-50.7L980.6,1521.7z"/>
		</g>
		<g class="st3">
			<polygon class="st48" points="953.3,1840 958.2,1834.4 949.4,1825.1 941.9,1830.4 			"/>
		</g>
		<g class="st3">
			<path class="st49" d="M941.9,1830.4c0,0,10.1,7.6,12.9,7.9c2.8,0.3,4.1,1.6,3.8,5.9c-0.3,4.3,4.1,22.4,7.2,22.7
				c3.1,0.3,13.7,0.3,15.6,7.3c1.9,7-33.5,5.5-35.7-0.2c-2.2-5.7-17.4-33.4-15.6-35.6C931.9,1836.1,936.7,1831.1,941.9,1830.4z"/>
		</g>
		<g class="st3">
			<path class="st31" d="M1006.8,1614.2c0,0,66.1,115.2,39.3,139.1c-10.5,9.3-20.7,17.8-35.2,30.3c-7.7,6.6-17.1,14.4-28.2,25.9
				l-0.5,0.5c-7.9,8.2-14.4,15.2-16.4,17.4c-0.1,0.1-0.1,0.1-0.2,0.2l-0.2,0.2l-7.4,7l-10.8-9.5c0,0,12.2-16.9,19.1-30
				c9.7-18.3,26-39.7,33.5-45.7c12.9-10.3,16.5-12.3,16.5-22.1c0-10.5-60.6-69.3-60.6-69.3s-8.8-36.8,12.2-46.4
				C988.4,1602.4,1006.8,1614.2,1006.8,1614.2z"/>
		</g>
		<path class="st50" d="M956.4,1857.9c0,0-0.4-5.3,0.5-8.7c0.9-3.4-13.7-1.4-13.7-1.4s-1.9,14.2-1.3,17.4
			C942.4,1868.4,956.4,1857.9,956.4,1857.9z"/>
		<g class="st3">
			<path class="st31" d="M959.1,1849.2l-19.7,3.5c0,0-1.4-25.1-1.2-44.3c0.3-20.7-0.8-36.9,5.5-53.4c5.9-15.4,4.6-21.3,5.1-31.8
				c0.5-10.5-5-64.6-5-64.6s-6.7-24.2,8.8-41.3c15.2-16.7,54.4-0.1,54.4-0.1s-8.2,73.9-27.8,119.6c-5.6,12.9-2.6,20.8-9.6,40.8
				C969.7,1777.7,958.9,1821.3,959.1,1849.2z"/>
		</g>
		<g class="st3">
			<path class="st51" d="M976.3,1471.1c-1,1.7-1.8,4-2.3,6.3c-0.5,2.2-0.9,4.6-1.1,6.8c-0.5,4.7-0.4,8.6-0.4,8.6
				s-26.2-5.7-21.9-11.8c4.3-6.1,1.8-24.7,1.8-24.7S979.7,1465.4,976.3,1471.1z"/>
		</g>
		<g class="st3">
			<path class="st29" d="M991,1420.5c0,0,6.7,5.8,3.7,22.6c0,0,1.5,13.4,3.5,15.7s-5.5,3.2-6.3,4.9c-0.8,1.7-2.3,9.6-7.6,14.3
				c-5.3,4.7-31.3-9.6-32.6-17.6c-1.3-8.1-19.3-42.7,9.3-44.3C989.7,1414.6,991,1420.5,991,1420.5z"/>
		</g>
		<g class="st3">
			<path class="st38" d="M1009,1544.6c-0.5,1.7,1.5,27.5,1.3,29.8c-1,12.2,2.2,30.8,3.4,37.5c0.3,1.6,0.5,2.4,0.5,2.4
				c-28.3,13.9-67.8,12.6-67.8,12.6c0.1-1.1,5.6-14.4,5.8-15.4c2.3-16.6,5.8-24.2,4.8-35.5l0,0c-0.5-6.3-2.1-12.9-5.5-21.1
				c-9.6-23.6-9.1-39.4-7.5-52.4c1.6-13,5.5-20.4,5.5-20.4l23.9,2.6c5.1,5.6,9.6,8.6,24,21.5
				C1012.9,1519.7,1015.5,1523.9,1009,1544.6z"/>
		</g>
		<g class="st3">
			<path class="st52" d="M941,1861.5c0,0,13.8-3.9,14.3-4.3c0.4-0.4,0.5-1.2,2.4-0.5c1.9,0.8,2.7,3.7,4.6,4.6
				c1.9,0.9,13.3,4.3,19.6,7.3c2.3,1.1,11.8,4.8,13.2,7.8c1.4,3.1,1,7.6-15.5,6.5s-34.4,1.2-38-0.6
				C937.9,1880.6,940,1866.2,941,1861.5z"/>
		</g>
		<g class="st3">
			<path class="st53" d="M995.5,1437.1c0,0,3.2-34.9-30.6-28.7c-33.8,6.2-16.4,44.4-11.8,56.8c0,0-0.6-19.3,15.7-19.9
				C985,1444.7,988.4,1440.9,995.5,1437.1z"/>
		</g>
		<g class="st3">
			<path class="st51" d="M966.1,1440.4c-2-3.5-9-1.7-8.2,3.7c0.8,5.4,6.4,10.8,8.3,8.2C968,1449.7,969.1,1445.6,966.1,1440.4z"/>
		</g>
		<g class="st3">
			<path class="st51" d="M966.9,1509c0,0-2.8,29.9,1.1,33.9c14.7,15.1,72.6,15.4,72.6,15.4l2.8,8.7c0,0-86.1,5.9-93.8-10.2
				c-9.2-19.3-5.7-50.7-5.7-50.7L966.9,1509z"/>
		</g>
		<path class="st54" d="M954.1,1417.1c0,0-13-12.5-22.3,1.7c-9.3,14.2,11,33.9,19.2,22.2C959.2,1429.2,954.1,1417.1,954.1,1417.1z"
			/>
		<path class="st55" d="M973.9,1477.4c-0.5,2.2-0.9,4.6-1.1,6.8c-8.7-4-15.2-16.1-15.2-16.1C963.9,1473.5,973.9,1477.4,973.9,1477.4
			C973.9,1477.4,973.9,1477.4,973.9,1477.4z"/>
		<rect x="1016.4" y="1567" class="st56" width="82.1" height="4.6"/>
		
			<rect x="1073.9" y="1531.6" transform="matrix(0.4505 -0.8928 0.8928 0.4505 -756.7247 1838.2992)" class="st56" width="82.1" height="4.6"/>
		<path class="st50" d="M1028.4,1558.3c0,0,12-0.9,15.4-3.3c3.4-2.4,26.2,6.8,26.6,8.9c0.4,2.1,0,3.1,0,3.1h-44.7L1028.4,1558.3z"/>
		<polygon class="st57" points="949.5,1482.1 951.2,1477.5 974.2,1482.1 974.2,1486.1 		"/>
		<g class="st3">
			<path class="st51" d="M966.8,1509.4c0,0,2.5-17.3-9.6-18.9c-12.1-1.5-13.4,15.6-13.4,15.6L966.8,1509.4z"/>
		</g>
	</g>
	<g class="st2">
		<g class="st3">
			<g>
				<path class="st58" d="M2189.4,1701.5c0,0-0.6,7.6-2.4,10.6c-1.8,3-7.5,20.5-10,25c-2.5,4.5-12.4,7.6-11.9,15.5
					c0.5,7.9,18.7,9.1,23.8,5.3s21.5-27.4,23.4-30.8c1.9-3.4,2.6-15.1-0.8-18.4c-3.4-3.3-7.1-10.2-7.1-11.8
					C2204.4,1695.5,2191.4,1698.4,2189.4,1701.5z"/>
			</g>
		</g>
		<g class="st3">
			<g>
				<path class="st59" d="M2210.6,1467.4c0,0-32.8,43.2-38.5,56s-15.4,31-15.4,37s5,30.1,7.5,34.7c2.5,4.6,19.8,82.5,20.7,87.5
					c0.9,5,4.4,18.9,4.4,18.9l15-4.5c0,0,1.6-69-1.1-82.7c-2.7-13.7-10.7-33.6-9.5-39.8c1.3-6.2,21.4-23.6,35.2-32.9
					c13.8-9.3,30.2-23.9,31.1-39c0.9-15.1-6.7-32.1-6.7-32.1S2237.8,1459.5,2210.6,1467.4z"/>
			</g>
		</g>
		<g class="st3">
			<g>
				<path class="st59" d="M2173.7,1463.6c0,0-9.4,13.9-14.1,17.3c-4.7,3.4-37.5,34.7-46.9,50c-9.4,15.3-12.6,17.6-10.7,24.2
					c2,6.6,4.8,24.4,6.9,29c2.1,4.6,29.5,113.6,29.5,113.6s11.3,2.9,14.6-2.2c0,0-6.4-47.3-4.8-64.4c1.6-17.1-1.7-42-8.9-54.6
					c-7.2-12.6-2.2-21,6.1-26.7s53.8-31.5,53.8-31.5S2254.6,1441.9,2173.7,1463.6z"/>
			</g>
		</g>
		<g class="st3">
			<g>
				<path class="st58" d="M2138.9,1697.1c0,0-0.2,2.7-1.1,3.1c-0.8,0.3-13.8,19.5-16.3,22.3c-2.5,2.7-18,7.2-18.3,9
					s2.1,12.1,14.8,12.3c12.7,0.2,23.3-10.7,28.5-14.8c5.2-4.1,20.2-8.6,14.3-18.7c-6-10.2-7.8-14.7-7.8-14.7L2138.9,1697.1z"/>
			</g>
		</g>
		<g class="st3">
			<g>
				<path class="st59" d="M2209.4,1706.6c0,0-4,6.4-6.6,15.3c-2.6,8.9-12.7,20.4-19.7,20.1s-5.8-5.4-5.8-5.4s7.4-20.3,10.5-26.8
					c0.5-1.1,1.2-6.1,1.6-8.2c0.2-1.1,10.4-5.3,15-4.5C2204.4,1697.1,2208.4,1705.2,2209.4,1706.6z"/>
			</g>
		</g>
		<g class="st3">
			<g>
				<path class="st59" d="M2121,1722.9c0,0,2.3,6.2,8.2,5.1c5.9-1.1,12.5-7.7,15.9-11.5c3.4-3.8,13.3-10.7,13.3-10.7l-5.3-10.3
					l-14.1,0.9L2121,1722.9z"/>
			</g>
		</g>
		<g class="st3">
			<g>
				<path class="st60" d="M2174.1,1462.4c0,0-10.1,13.4-13.4,16c-3.3,2.6-32.2,26.1-49.8,55.5c0,0,56.6-1.9,88.2,32.9
					c0,0,30.6-25.4,34-27.9c3.4-2.5,25.4-15.5,27.1-36.2c1.7-20.7-6.7-32.1-6.7-32.1S2191.4,1456.4,2174.1,1462.4z"/>
			</g>
		</g>
		<g class="st3">
			<g>
				<path class="st60" d="M2166.9,1402.6c7.5,12.6,8.7,57.1,6.8,61.4c0,0,42.9,13.2,80.2,7.9c0,0-1.9-4-3.7-9.3
					c-0.7-2.1-1.6-4.5-2.4-6.9c-2.7-7.5-5.6-15.7-7.1-19.4c-3.3-7.8-2.1-20.9,0.5-25.4c2.6-4.5,17.9-38.5,17.9-38.5
					s8.3-24.2-5.9-31.7c-14.1-7.5-27.3-10.1-27.3-10.1l-24.9-1.7c0,0-5.4,1-12.7,1.6c-7.3,0.6-14.8,1.9-16.4,14
					c-1.5,12.1-3,18.5-4.6,21.6C2165.7,1369.3,2158.4,1388.2,2166.9,1402.6z"/>
			</g>
		</g>
		<g class="st3">
			<g>
				<path class="st60" d="M2244,1336.3c0,0,14.6,2,21,13.3c6.4,11.2,6,26.4,7.4,32.4c1.4,6,10.1,62.4,8.5,67.3
					c-1.6,4.9-7.7,13.1-17,12.1c-9.3-1-46.7-20.5-46.7-20.5s5-14.6,5-17.6l36,12.6c0,0-8.6-58.9-9.7-65.4
					C2247.5,1363.9,2240.4,1342.1,2244,1336.3z"/>
			</g>
		</g>
		<g class="st3">
			<g>
				<path class="st60" d="M2181.5,1331.6c0,0-11.2,2.3-17.4,11.5c-4.4,6.4-4.7,20.7-5.3,23.4c-0.6,2.7-9,33.1-9,33.1l23.2,15.6
					L2181.5,1331.6z"/>
			</g>
		</g>
		<g class="st3">
			<g>
				<polygon class="st61" points="2170.8,1390.2 2252.4,1366.1 2255.7,1368.8 2262.4,1432.8 2170.8,1467.2 				"/>
			</g>
		</g>
		<g class="st3">
			<g>
				<path class="st61" d="M2179.8,1287.1c0,0,7.7,37.3,2.2,47.6c0,0,16.9-6.2,20.2-13C2205.5,1314.8,2179.8,1287.1,2179.8,1287.1z"
					/>
			</g>
		</g>
		<g class="st3">
			<g>
				<g>
					<path class="st29" d="M2198.3,1315.5c0,0,0.4,3.7,0.8,8.7c0.1,1.7,0.3,3.5,0.4,5.4c0.5,6.1,0.8,12.6,0.6,16
						c0,0,12,12.9,25.7-15c0,0-5.8-11.5-1.4-27.1C2228.8,1287.8,2198.3,1315.5,2198.3,1315.5z"/>
				</g>
			</g>
		</g>
		<g class="st3">
			<g>
				<path class="st29" d="M2198.6,1241.6c0,0-21.2,2.1-22.2,29.3c-1,27.2,10.6,49.6,14.5,52.9c3.9,3.3,24.8-2.2,28.2-16.7
					c3.5-14.5,9.6-25.5,7.2-37.3C2224,1258,2224.5,1237.9,2198.6,1241.6z"/>
			</g>
		</g>
		<g class="st3">
			<g>
				<path class="st61" d="M2176.6,1281.1c0,0-9.3-32.6,18.1-42.1c27.4-9.5,39.5,9.8,43.5,21.7s4.6,46.7,4.6,46.7
					s-16.8,19.9-27.5,25.8c0,0,5.3-37.8-1.1-63.5c0,0-22.4,6.7-38,4.6C2176.4,1274.2,2176.5,1279.7,2176.6,1281.1z"/>
			</g>
		</g>
		<g class="st3">
			<g>
				<path class="st41" d="M2199.1,1324.2c0.1,1.7,0.3,3.5,0.4,5.4c12.3-6.5,15.1-14.1,15.1-14.1
					C2206.5,1323.5,2199.1,1324.2,2199.1,1324.2z"/>
			</g>
		</g>
		<g class="st3">
			<g>
				<path class="st62" d="M2167,1366.6c0,0-13,22.2-10.1,36.6s12.7,6,12.7,6S2156.4,1392.8,2167,1366.6z"/>
			</g>
		</g>
		<g class="st3">
			<g>
				<polygon class="st61" points="2165.6,1467.2 2112.7,1421.3 2097.9,1345.9 2162.1,1390.3 				"/>
			</g>
		</g>
		<g class="st3">
			<g>
				<polygon class="st61" points="2170.8,1467.2 2165.6,1467.2 2162.1,1390.3 2170.8,1390.2 				"/>
			</g>
		</g>
		<g class="st3">
			<g>
				<path class="st29" d="M2222,1425.7c0,0-6.9-2.5-7.6-2.9c-0.7-0.5-1.7-7.7-5.1-10.5s-7.8-5.7-8.7-7s-2.8,2.5,0.2,5.8
					c3,3.3,3,5.9-4.4,4.2c-4.1-0.9-17.6-9-17.4-5.9c0.1,1.8,13.3,9.1,13.3,9.1s-14.7-6.8-15.5-6c-1.7,1.4,12.7,8.8,13.4,9
					c0,0-12.9-5-13.5-3.8c-0.7,1.4,12.3,6.6,12.1,6.8c0,0-10.3-3.8-10.6-2.9c-0.3,1.3,8.4,5.4,10.2,6c1.8,0.6,20.6,7.3,23.8,7.6
					c3.2,0.4,5.9,3.7,5.9,3.7L2222,1425.7z"/>
			</g>
		</g>
		<g class="st3">
			<g>
				<path class="st60" d="M2219.4,1423c0,0-4.2,9.6-4.9,16.6c0,0,23.4,12.2,38.6,18.3l11.8-25.5l-2.5,0.5l-4,1.5
					C2258.5,1434.3,2228.2,1425.6,2219.4,1423z"/>
			</g>
		</g>
		<g class="st3">
			<g>
				<path class="st59" d="M2137.4,1693.5c0,0-1,9.5-2.6,10.4C2133.3,1704.6,2150.5,1700.6,2137.4,1693.5z"/>
			</g>
		</g>
		<g class="st3">
			<path class="st62" d="M2231.2,1448c0.4,0.3,12.7,10.1,19,14.6c-0.7-2.1-1.6-4.5-2.4-6.9L2231.2,1448z"/>
		</g>
		<g class="st3">
			<polygon class="st61" points="2112.7,1421.3 2092.7,1348.3 2097.9,1345.9 			"/>
		</g>
		<g class="st3">
			<g>
				<g>
					<path class="st29" d="M2112.1,1418.9c0,0-1.9-3.3-3.4-7.4c-1.5-4.1-6.1-19.6-5.2-20.3c0.9-0.7,12.8,2,14.4,4.4
						c1.7,2.4-2.8,2.1-2.8,2.1s6.3,2.3,5.4,4c-0.9,1.7-4.7,0.2-4.7,0.2s4.9,2.3,3.7,3.7c-1.2,1.4-3.7,0.8-3.7,0.8s4.4,1.7,3.4,3.3
						c-1,1.6-8.7,1.4-8.1,3.1C2111.9,1414.6,2112.1,1418.9,2112.1,1418.9z"/>
				</g>
			</g>
		</g>
	</g>
</g>
</svg>
